<?xml version="1.0" encoding="UTF-8"?>
<!DOCTYPE svg PUBLIC "-//W3C//DTD SVG 1.1//EN" "http://www.w3.org/Graphics/SVG/1.1/DTD/svg11.dtd">
<!-- Creator: CorelDRAW 2021 (64-Bit Evaluation Version) -->
<svg xmlns="http://www.w3.org/2000/svg" xml:space="preserve" width="2.59354in" height="2.69954in" version="1.1" style="shape-rendering:geometricPrecision; text-rendering:geometricPrecision; image-rendering:optimizeQuality; fill-rule:evenodd; clip-rule:evenodd"
viewBox="0 0 3877.85 4036.34"
 xmlns:xlink="http://www.w3.org/1999/xlink"
 xmlns:xodm="http://www.corel.com/coreldraw/odm/2003">
 <defs>
  <style type="text/css">
   <![CDATA[
    .fil0 {fill:#B96A01}
    .fil1 {fill:#FAAE35}
   ]]>
  </style>
 </defs>
 <g id="Layer_x0020_1">
  <metadata id="CorelCorpID_0Corel-Layer"/>
  <g id="_1773113460896">
   <path class="fil0" d="M3410.31 676.7c-124.03,-33.18 -267.65,170.98 -58.53,238.11 59.18,19 128.86,3.34 138.45,-74.09 4.75,-38.37 -33.54,-151.62 -79.92,-164.02z"/>
   <path class="fil0" d="M2589.95 243.37c-30.84,33.67 -30.58,77.19 -32.75,117.46 -2.03,37.6 103.63,143.13 123.07,12.67 12.93,-86.8 38.51,-115.83 -90.31,-130.13z"/>
   <path class="fil0" d="M2967.79 700.52c57.11,5.46 110.78,-159.92 20.94,-158.57 -81.31,1.22 -100.54,154.93 -20.94,158.57z"/>
   <path class="fil0" d="M3397.73 1268.45c13.95,-3.23 106.77,-54.02 20.55,-114.07 -38.81,-27.04 -10.08,-27.55 -50.02,-20.6 -99.65,17.32 -46.78,146.24 29.47,134.67z"/>
   <path class="fil0" d="M3439.95 347.72l-38.2 32.36c39.3,213.06 227.44,0.72 83.97,-22.15l-45.77 -10.21z"/>
   <path class="fil1" d="M3092.05 4015.45c-66.25,-0.06 -225.27,3.56 -434.29,7.85 65.88,-380.65 366.15,-1754.99 368.58,-1899.56l-508.26 -516.53c-42.03,-43.4 -127.97,-142.84 -177.15,-171.24l-124.48 1347.89c-40.96,22.55 -483.66,19.43 -551.7,9.55l-121.16 -1357.22c-94.64,48.79 -562.34,590.13 -692.09,688.61l374.62 1910.05c-217.03,-3.33 -409.91,-10.53 -548.99,-23.68 -99.28,-125.54 -89.22,-376.04 -110.88,-544.82l-87.25 -1231.24c-55.32,-149.01 -281.77,-45.67 -478.62,-193.19 -12.26,-177.67 281.2,-544.86 391.71,-691.42 66.5,-88.18 117.41,-119.09 131.94,-244.77 12.77,-110.46 64.64,-580.17 100.94,-642.14 47.77,-81.52 384.64,-109.17 438.01,-92.47 59.62,18.65 44.86,73.46 63.98,131.28 97.86,-15.24 153.45,-116.33 292.47,-213.68 100.77,-70.57 193.3,-148.25 296.73,-212.14 112.43,-69.44 227.82,-116.31 376.43,-29.1 26.25,15.41 52.32,31.25 78.21,47.45 25.55,289.52 172.48,478.77 460,498.46 -3.13,352.07 110.49,474.94 396.45,583.44 156.07,59.21 128.74,352.78 593.76,362.37l-0.24 -1.95c67.11,97.82 131.85,198.79 197.7,304.46 85.6,137.39 96.34,240.72 -87.64,277.11 -79.82,15.78 -124.25,24.99 -210.45,36.98 -92.88,12.92 -125.24,39.25 -134.33,133.24 -30.59,316.36 -25.35,630.91 -51.03,953.46 -9.51,119.44 -27.17,342.98 -48.64,459.47 -33.29,180.57 24.83,313.66 -194.32,313.48zm-1002.97 17.84c-96.61,1.3 -195.38,2.36 -294.25,3.06l-66.74 -670.91 430.89 1.6 -69.9 666.26z"/>
  </g>
 </g>
</svg>
