
    <svg width="70" height="70" viewBox="0 0 70 70" fill="none" xmlns="http://www.w3.org/2000/svg">
    <mask id="mask0_3937_63158" style="mask-type:luminance" maskUnits="userSpaceOnUse" x="0" y="3" width="70" height="64">
    <path d="M62.5517 14.2134C60.6376 12.1134 58.0837 10.2594 55.6228 8.87039C46.2166 3.5657 32.7087 2.06726 22.608 6.07039C18.5064 7.70007 13.0103 10.7079 10.1775 14.186C3.67515 22.1649 -1.85923 31.9923 1.03374 42.8094C3.39077 51.6032 7.92983 58.6962 16.4884 62.4204C25.6158 66.3907 37.6962 67.2876 47.4908 64.8594C51.7783 63.7985 56.1314 62.2618 59.708 59.5985C62.7376 57.3399 65.2916 53.911 67.0361 50.1813C68.272 47.5454 69.1087 44.7618 69.4314 42.1423C70.5415 33.0641 68.8955 21.1805 62.5517 14.2134ZM47.0478 37.1821C45.8009 38.9594 42.8478 40.8626 40.7423 41.3766C35.2298 42.7274 24.0517 39.9329 26.0751 32.2821C27.4314 27.1524 35.5634 26.2337 39.8126 26.7204C44.2423 27.2235 50.5041 32.2657 47.0478 37.1821Z" fill="white"/>
    </mask>
    <g mask="url(#mask0_3937_63158)">
    <path d="M63.5633 13.1086C61.5836 10.8992 58.9313 8.94139 56.3774 7.48124C46.6266 1.89217 32.6211 0.311705 22.1539 4.52811C17.9047 6.23983 12.2063 9.4117 9.27501 13.0758C2.53204 21.4867 -3.21014 31.8336 -0.2078 43.2305C2.23126 52.4891 6.93986 59.9648 15.8102 63.8805C25.2711 68.064 37.7891 69.0101 47.9445 66.4508C52.3906 65.3351 56.9024 63.7164 60.6102 60.9055C63.7492 58.5266 66.3961 54.9117 68.2063 50.9906C69.4914 48.2125 70.3555 45.2812 70.6891 42.5195C71.843 32.9547 70.1367 20.4422 63.5633 13.1086Z" fill="#FCC21B"/>
    <path d="M70.3671 25.0086C69.8639 23.6851 69.7217 22.4656 68.9616 21.2187C68.4257 20.3273 68.0757 19.4797 67.6874 18.5008C67.3264 17.5711 66.7686 17.2703 66.1397 16.5539C65.5163 15.8429 65.2483 14.9789 64.7452 14.2133C64.346 13.6062 63.7499 13.0648 63.296 12.4906C62.5467 11.539 61.6225 10.8773 60.9444 9.86013C60.2608 8.82653 58.7624 8.09372 57.7124 7.47028C56.3452 6.66638 54.8139 6.19606 53.4905 5.32653C52.1452 4.4406 50.4171 3.86091 48.853 3.4945C46.7913 3.00231 44.6803 2.32419 42.5475 2.22028C40.5788 2.12731 38.6647 2.41716 36.7124 2.5156C32.7475 2.71794 28.6678 3.3906 24.8342 4.47888C22.8436 5.04216 20.9678 5.7695 19.021 6.44763C18.2444 6.72106 17.5061 7.06013 16.7842 7.46481C15.9694 7.91872 15.0671 8.23591 14.2796 8.7281C12.6444 9.75075 10.9983 10.5109 9.86628 12.075C8.80534 13.5351 7.63503 14.9734 6.51394 16.3953C5.31628 17.9211 4.02565 19.507 3.30925 21.3281C2.98659 22.132 2.78425 22.9031 2.303 23.6359C1.75065 24.4836 1.01237 25.3258 0.727998 26.3211C0.46003 27.2508 0.54753 28.175 0.159249 29.0883C-0.234501 30.0234 -0.803251 30.7562 -0.98372 31.7734C-1.18606 32.9218 -1.18606 33.939 -0.863408 35.0547C-0.540752 36.1484 -0.420439 37.2367 0.181123 38.2593C1.28034 40.1242 2.72409 41.7867 4.73112 42.689C7.02253 43.7172 9.78425 43.0883 11.9663 44.2586C14.2358 45.4726 14.0335 48.7867 14.3561 50.9961C14.996 55.3984 17.8835 58.4172 22.521 57.9031C26.2124 57.4984 28.3397 54.0148 31.796 53.1398C34.1639 52.5382 36.171 52.232 38.2108 53.7961C40.2944 55.3875 41.6288 57.2195 44.3303 57.8758C47.2889 58.5976 51.1717 58.1711 53.5124 56.0601C55.935 53.8781 55.9678 49.6289 59.528 48.6445C62.3717 47.857 64.6741 49.7492 67.3155 47.7586C68.4749 46.8836 69.3225 45.7843 69.946 44.5593C72.653 39.1945 72.4725 30.5812 70.3671 25.0086ZM49.5968 32.5554C48.3499 34.989 46.3264 37.1328 44.1991 38.1172C43.2311 38.5656 42.2796 38.9375 41.2186 39.1781C36.0671 40.3211 29.51 41.3929 26.1413 36.1156C24.621 33.7367 22.5374 31.7898 22.5428 28.7765C22.5483 26.0695 23.9811 23.0125 26.5788 21.9133C30.0678 20.4367 32.1186 23.7453 35.4491 23.7453C36.6358 23.7453 37.9264 23.5976 39.0311 23.1492C41.2241 22.2633 42.5038 20.5843 45.085 20.8304C48.1257 21.1258 50.2311 23.7508 50.7561 26.5672C51.1061 28.4484 50.603 30.5976 49.5968 32.5554Z" fill="#855C52"/>
    </g>
    </svg>

