
    <svg width="70" height="70" viewBox="0 0 70 70" fill="none" xmlns="http://www.w3.org/2000/svg">
    <path d="M2.80078 25.2766L30.4672 12.9062L47.1523 46.4844L16.5711 62.9617L2.80078 25.2766Z" fill="white"/>
    <path d="M69.1857 34.836C67.9389 32.4188 52.2271 4.72502 52.2271 4.72502C52.2271 4.72502 50.7506 1.50393 45.4623 3.62581C41.3389 5.28284 17.3857 14.4922 6.6123 19.2063C3.5662 20.5352 1.57011 22.0446 1.37323 22.2688C0.716985 23.0125 0.148235 24.15 0.153703 25.8836V32.8727C0.153703 32.8727 -0.0431715 36.1813 1.61933 39.5008C3.28183 42.8203 15.2092 66.5492 15.5045 66.5492C15.7943 66.5492 16.9537 69.5844 21.1592 68.2227C24.5771 67.1071 64.2365 49.3664 64.2365 49.3664C64.2365 49.3664 66.8725 48.5899 67.6545 46.1453C68.4365 43.7063 69.585 39.6813 69.585 39.6813C69.585 39.6813 70.4326 37.2532 69.1857 34.836ZM37.4725 50.4547C36.1162 51.2149 34.7162 51.8875 33.2998 52.5274C31.1725 53.4899 29.0123 54.3867 26.9014 55.3985C24.9381 56.3446 23.0514 57.4875 20.9678 58.1711C20.1092 58.461 19.6334 56.968 19.2396 56.3828C18.9225 55.9016 18.6381 55.5789 18.4139 55.043C18.1896 54.518 18.031 53.9602 17.7521 53.4625C14.3455 47.2462 11.0798 40.9538 7.95761 34.5899C7.18652 33.0149 6.22948 31.6258 5.6498 29.9524C5.31073 28.9789 4.85683 27.9727 4.8623 26.95C4.8623 26.5836 4.92245 26.2117 5.07011 25.8399C5.54042 24.6641 6.78183 23.8602 8.00683 23.6852C8.67948 23.5922 10.6756 24.4672 11.0693 23.9203C11.5615 23.2422 11.649 22.4985 12.3271 21.9406C13.0217 21.3719 13.935 21.0219 14.8154 20.8961C15.9584 20.7321 17.1615 21.536 18.2607 21.1969C18.7256 21.0547 19.2506 19.95 19.6279 19.6055C20.1146 19.1625 20.6998 18.8891 21.3396 18.7196C22.1053 18.5227 23.0459 18.4461 23.7623 18.8672C24.1287 19.0805 24.342 19.4688 24.5935 19.7914C24.7959 20.0594 25.0529 20.65 25.3701 20.7649C25.8459 20.9453 26.5568 20.6172 27.1037 20.7977C27.6232 20.9617 27.9951 21.3172 28.2685 21.7711C28.6404 22.4055 28.7826 23.1985 28.7006 23.9258C28.6514 24.3578 28.181 24.9813 28.2959 25.4024C28.449 25.9055 29.674 26.4031 30.117 26.4852C30.6092 26.5781 30.9209 26.7313 31.2764 27.1141C31.9982 27.8906 32.2553 28.9406 32.2553 29.9797C32.2553 30.5375 32.1568 30.9203 32.0146 31.4125C31.8943 31.85 31.7521 32.2438 32.2826 32.4625C32.7529 32.6485 33.3271 32.5774 33.8084 32.8125C34.3771 33.0914 34.6451 33.4633 34.8803 34.0375C35.2959 35.0383 35.8756 36.2414 35.6076 37.3789C35.4982 37.8438 34.9021 38.4235 34.9896 38.9321C35.0662 39.3969 35.8318 39.7141 36.1982 39.8836C37.199 40.3485 37.9428 41.1086 38.0795 42.2735C38.1998 43.2961 37.7295 44.1766 37.8881 45.2321C38.2928 45.4344 38.774 45.4071 39.1896 45.6149C39.5998 45.8227 39.7857 46.2875 39.9881 46.6922C41.0873 48.8524 39.0256 49.5852 37.4725 50.4547Z" fill="#2F2F2F"/>
    <path d="M21.557 34.3274C21.043 34.4806 20.4797 34.7704 20.0641 35.1204C19.4133 35.6728 19.1016 36.5587 19.1399 37.4173C19.1727 38.0462 19.386 38.6587 19.7852 39.1181C21.6664 41.2728 26.0141 40.7642 26.1617 37.5157C26.1891 36.9688 26.036 36.4384 25.7242 35.9954C24.882 34.7923 23.0063 33.9009 21.557 34.3274ZM51.9195 13.1688L52.0235 13.1798C53.582 13.3603 54.5227 14.6782 54.2383 16.2642C54.036 17.3524 52.9695 17.9923 52.0508 18.4407C50.9461 18.9821 49.6719 20.0048 48.3977 20.0376C48.2008 20.0431 47.6813 20.0759 47.5117 19.9446C46.5875 19.2118 47.5883 17.6642 47.9 16.8985C48.5781 15.236 49.8414 12.9993 51.9195 13.1688ZM43.6781 10.9376C44.3399 9.44463 46.1828 9.00166 47.0633 10.161C47.8727 11.2329 47.457 12.7368 47.2383 13.9345C47.0742 14.8532 46.7953 16.8657 45.532 16.8931C44.4274 16.9149 43.8586 15.1376 43.6344 14.2899C43.35 13.2235 43.2242 11.9657 43.6781 10.9376ZM60.1883 40.2938C60.068 40.9392 59.2258 41.3384 58.7227 41.6501C58.2524 41.9399 57.7438 42.1642 57.2297 42.3829C56.2289 42.8149 55.2336 43.4329 54.0852 43.2634C53.1117 43.1212 52.625 42.0001 51.9469 41.4423C51.3016 40.9173 50.5414 40.5509 49.7594 40.2938C48.2281 39.7962 46.5055 39.6704 44.9305 40.0368C44.2141 40.2063 43.5195 40.3485 42.8524 40.6329C42.4258 40.8188 42.0485 40.7915 41.693 40.4853C41.0313 39.9274 40.6211 38.9759 40.2438 38.2103C39.3961 36.4985 38.3461 35.197 39.4289 33.2993C39.8719 32.5228 40.5664 31.9923 41.2828 31.4837C42.8797 30.3353 44.8375 30.1165 46.7516 30.111C48.5289 30.1056 50.4211 30.029 52.111 30.6579C52.2422 30.7071 52.3789 30.7563 52.5102 30.811C54.211 31.4892 55.8352 32.4462 57.175 33.6985C58.4656 34.9126 59.4828 36.4274 59.9094 38.161C60.0735 38.8228 60.3195 39.6157 60.1883 40.2938Z" fill="#ED6C30"/>
    <path d="M56.7326 22.3781C57.0498 22.5312 57.4108 22.8922 57.553 23.182C58.1162 24.3195 58.5811 25.2547 58.0123 26.5234C57.5366 27.5734 56.6178 28.3828 55.6553 28.9789C55.2451 29.2359 55.0319 29.4492 54.5342 29.2523C54.1295 29.0883 53.7248 28.9023 53.3092 28.7383C52.3248 28.3555 51.2967 28.3062 50.2686 28.1039C49.2678 27.9016 48.2342 27.8742 47.2116 27.9125C46.2436 27.9562 45.2756 28.0984 44.335 28.3555C43.7006 28.5359 42.7217 29.0226 42.2787 28.257C40.7037 25.5172 43.028 24.0625 45.5491 24.9484C46.3311 25.2219 47.4631 25.7851 48.2944 25.5883C48.4366 24.9156 48.0647 24.2266 48.1795 23.5375C48.453 21.8586 50.1866 22.1266 51.1381 22.8922C51.7725 23.4008 53.0139 24.9758 53.9709 24.3851C54.5725 24.0133 54.4741 23.1492 54.9881 22.7062C55.4037 22.3398 56.2131 22.1266 56.7326 22.3781ZM52.1334 44.8055C51.9967 45.0516 51.4608 45.2156 51.2147 45.3305C50.6405 45.5984 50.1209 45.8609 49.5686 46.1726C48.792 46.6101 47.9717 46.8945 47.1459 47.2172C46.7959 47.3484 46.1452 47.6055 45.7514 47.425C45.4944 47.2992 45.2155 46.8781 45.0623 46.632C44.8217 46.2492 44.5537 45.8992 44.2748 45.5273C44.0123 45.1828 43.8537 44.8055 43.6131 44.4445C43.3834 44.1 43.4983 43.6406 43.6295 43.2523C43.81 42.7109 44.5045 42.4703 45.0241 42.3937C45.5272 42.3226 46.7467 42.2734 46.9162 42.968C47.0092 43.3617 46.2272 43.8648 46.8998 43.9961C47.485 44.1164 47.9772 43.4766 48.4639 43.2523C49.235 42.9023 50.1428 43.0445 50.9248 43.3453C51.417 43.5531 52.5436 44.1164 52.1334 44.8055Z" fill="#757F3F"/>
    <path d="M31.2368 15.1266C31.7399 15.0883 32.2868 15.1102 32.768 15.2032C33.1891 15.2961 33.6048 15.5477 34.0477 15.5313C34.6876 15.5149 34.529 14.7821 34.6548 14.3227C34.8188 13.743 35.1141 13.218 35.6282 12.9336C36.4923 12.4524 37.7337 12.3047 38.5376 12.9829C39.0626 13.4258 39.1829 14.0219 39.3579 14.6508C39.4946 15.1649 39.4946 15.8977 39.8555 16.3079C40.1563 16.6524 40.8837 16.7508 41.3266 16.8219C42.0321 16.9313 42.5298 17.0079 43.0985 17.4836C43.7985 18.0579 44.0282 18.8071 44.4001 19.6219C44.5915 20.043 44.6352 20.5352 44.4766 20.9782C44.3509 21.3446 44.0665 21.4266 43.7548 21.5961C42.8524 22.0993 41.9391 22.5641 41.0259 23.0618C40.129 23.5594 39.2868 24.1008 38.3352 24.4946C37.4766 24.85 36.5852 25.2657 35.6993 25.5446C35.1852 25.6977 34.5837 26.0915 34.086 25.7579C33.8782 25.6102 33.6649 25.4188 33.5009 25.2329C33.0305 24.675 32.418 23.9368 32.3305 23.1985C32.2376 22.4821 33.0907 22.2032 33.6485 22.0282C34.1243 21.875 34.622 21.7219 35.1196 21.6399C35.5735 21.5688 35.9946 21.5415 36.4485 21.4922C36.9243 21.4485 38.9204 21.268 38.0345 20.3547C37.504 19.8079 36.3884 19.3047 35.6337 19.2336C34.4141 19.1188 33.3532 19.4524 32.3415 20.0977C32.0079 20.311 31.3845 20.9782 30.9415 20.8524C30.7118 20.7868 30.4985 20.4422 30.3563 20.2618C29.6837 19.4086 29.2626 18.3696 28.7321 17.429C27.9446 16.018 30.1977 15.2086 31.2368 15.1266ZM64.0384 38.8665C63.2399 38.6586 63.043 37.5266 62.7313 36.8868C62.2282 35.8586 61.5555 34.9016 60.8009 34.0321C59.9477 33.0477 59.1329 32.1016 58.1266 31.2649C56.9727 30.3188 59.4063 29.05 60.4016 29.0008H60.5548C61.5829 29.1157 62.097 30.1821 62.6165 30.9532C63.3602 32.0469 64.1696 33.0915 64.8641 34.218C65.4001 35.0875 66.1985 36.1321 66.1821 37.1985C66.1657 38.1118 65.0063 39.1235 64.0384 38.8665Z" fill="#FCC21B"/>
    </svg>

