
    <svg width="70" height="70" viewBox="0 0 70 70" fill="none" xmlns="http://www.w3.org/2000/svg">
    <path d="M7.60749 49.1477C7.60749 49.1477 7.08249 52.5821 8.30202 55.6118C9.31921 58.1493 11.9551 61.4907 16.9973 64.0391C22.0395 66.5875 27.8309 67.4844 36.3786 67.6594C44.9262 67.8399 53.7091 65.8438 57.9255 62.1415C62.1473 58.4336 63.6239 55.3165 63.5036 51.9313C63.3833 48.5461 61.5841 47.261 61.5841 47.261L7.60749 49.1477Z" fill="#FCB745"/>
    <path d="M10.0511 45.6968L7.55737 48.1905C7.55737 48.1905 6.87925 51.5265 10.6417 55.1358C13.491 57.8647 18.5332 62.6062 35.2785 62.7319C50.9519 62.8522 55.8792 59.4069 58.9035 56.9733C61.9332 54.5397 63.0707 50.3124 62.7699 49.1257C62.4746 47.939 61.5449 47.2554 61.5449 47.2554L10.0511 45.6968Z" fill="#E78B20"/>
    <path d="M11.1184 49.2571C11.1184 49.2571 10.413 50.4548 10.6427 51.2149C10.8231 51.811 11.1786 54.2446 18.2388 57.329C21.9739 58.9642 28.3286 60.2985 36.5809 60.0579C46.37 59.7735 54.2122 57.8048 58.0075 54.2392C61.8958 50.5915 61.152 48.4204 61.152 48.4204L11.1184 49.2571Z" fill="#FFD290"/>
    <path d="M9.10016 40.9446C9.10016 40.9446 6.75954 43.329 6.37125 44.3899C6.00485 45.3907 6.05407 46.8454 6.69938 48.0211C7.56891 49.5961 8.65172 49.7602 9.99157 50.5641C11.4408 51.4282 13.7322 54.1243 19.3705 55.311C25.0088 56.4977 32.4298 57.0336 36.4056 57.0336C40.3814 57.0336 45.6642 56.9735 50.5916 55.311C55.5189 53.6485 61.1572 50.3836 62.4642 47.4743C63.7713 44.5649 62.5244 42.8422 62.5244 42.8422L59.6752 40.9446H9.10016Z" fill="#6D544D"/>
    <path d="M7.73323 37.9204C7.73323 37.9204 5.91761 37.8384 5.48011 40.5892C5.16292 42.5907 6.60667 43.854 6.60667 43.854C6.60667 43.854 5.84105 44.9532 6.72698 46.3478C7.55823 47.6548 8.44964 47.9501 10.2871 48.2454C11.6106 48.4587 12.3051 48.065 14.0278 49.0165C16.1879 50.2087 17.1121 52.3415 20.0817 52.9923C23.0512 53.6431 26.3762 53.0525 26.491 52.5767C26.6059 52.1009 22.3348 50.3236 14.6184 45.9868C12.0153 44.5267 9.63089 42.5415 8.98011 41.5353C8.32933 40.529 7.73323 37.9204 7.73323 37.9204ZM45.0739 52.4017C45.0739 53.1728 47.6278 52.8173 48.8145 52.1665C50.0012 51.5157 51.8989 49.8532 53.6215 49.1368C55.3442 48.4259 55.9949 49.0767 58.4887 47.89C60.9825 46.7032 62.3496 43.9142 62.3496 43.9142C62.3496 43.9142 63.5637 42.4157 63.6621 41.3657C63.8153 39.7634 63.6567 38.9868 62.5301 38.6314C61.4035 38.2759 58.9481 41.9673 58.5926 42.3829C58.2371 42.7986 52.9762 46.6431 50.8981 48.1251C48.82 49.6071 45.0739 51.9861 45.0739 52.4017Z" fill="#9B7169"/>
    <path d="M10.0515 35.9023C10.0515 35.9023 7.08193 36.2578 6.6663 37.5047C6.25068 38.7516 7.55771 40.5891 10.9976 42.9078C13.8194 44.8055 23.4882 49.3719 27.3218 51.7508C31.7132 54.4797 35.4319 58.2914 36.0499 58.3406C36.821 58.4008 42.1749 52.7133 49.585 47.7148C56.6288 42.957 61.4577 41.7812 63.1804 38.2758C64.1046 36.3945 61.8733 35.3062 61.8733 35.3062L33.2608 24.4453L10.0515 35.9023Z" fill="#FFE869"/>
    <path d="M36.4053 55.1359C37.2913 55.0375 41.9233 50.5641 47.3866 47.1242C52.8499 43.6844 60.9217 39.9984 62.1084 37.9258C63.2952 35.8531 60.4459 34.4805 60.4459 34.4805L27.2014 28.9023L7.73267 36.5586C7.73267 36.5586 6.66626 36.9141 7.3772 37.8055C8.08813 38.6969 9.2147 40.1789 11.7084 41.7211C14.7381 43.5969 22.5147 46.7086 27.4366 49.3773C32.3694 52.0461 35.3389 55.2508 36.4053 55.1359Z" fill="#FFBE01"/>
    <path d="M10.4121 37.4446L11.4457 40.2118C11.4457 40.2118 18.8832 47.7094 33.6762 48.0047C48.3981 48.3 56.6504 41.2946 56.6504 41.2946L58.5316 36.5696L10.4121 37.4446Z" fill="#F4482B"/>
    <path d="M29.8047 42.0164L28.6398 43.8813C28.6398 43.8813 31.1281 45.3742 31.8445 45.6313C32.8727 45.9977 33.8844 45.8664 35.3992 45.3961C36.9141 44.9313 43.2031 42.4266 43.2031 42.4266C43.2031 42.4266 48.4039 42.5031 51.6688 42.5633C54.5617 42.618 57.4602 41.5789 58.975 39.8289C60.4898 38.0789 62.8414 34.3273 62.8414 34.3273C62.8414 34.3273 64.0664 34.0375 64.8813 33.1023C65.6961 32.1672 65.7563 31.3523 65.7563 31.3523C65.7563 31.3523 65.5211 29.7773 64.6516 29.3727C63.7766 28.9625 24.8063 26.5781 24.8063 26.5781L9.19297 27.743L6.5625 33.1625L15.2414 40.5617L27.475 41.2617L29.8047 42.0164Z" fill="#A6B732"/>
    <path d="M7.37697 28.3882C6.4965 27.989 5.57228 28.0382 5.16213 29.203C4.75197 30.3679 4.87775 30.8819 4.87775 30.8819C4.87775 30.8819 3.68009 31.1335 3.53244 32.6374C3.35744 34.4421 5.33713 35.0819 5.33713 35.0819C5.33713 35.0819 5.4301 35.7819 6.21213 36.4819C7.10353 37.2804 7.99494 37.1983 7.99494 37.1983C7.99494 37.1983 10.3465 39.5116 11.9215 40.4413C13.4965 41.371 15.766 42.0163 18.041 41.9562C20.316 41.896 21.0707 40.8515 22.7606 41.4312C24.4504 42.0108 28.9293 44.3679 30.734 44.4062C33.5887 44.4663 39.7629 40.0366 41.1629 40.0968C42.5629 40.1569 48.9121 41.1468 52.2918 41.1468C55.6715 41.1468 56.8965 40.1569 57.6512 39.1671C58.4059 38.1772 59.691 35.6726 59.2809 35.6124C58.8707 35.5522 56.191 37.7671 54.2715 37.5921C52.3465 37.4171 50.6621 36.3124 48.2723 36.3124C45.8824 36.3124 34.234 37.8272 33.4738 38.1772C32.7137 38.5272 29.4543 41.0319 28.8145 40.9171C28.1746 40.8022 25.9598 38.9374 25.2051 38.5272C24.4504 38.1171 16.5043 37.8546 15.3613 38.0624C14.541 38.2101 13.3817 38.4124 13.3817 38.4124C13.3817 38.4124 13.4965 36.6077 12.5067 35.5577C11.5168 34.5077 8.25197 32.703 8.25197 32.703C8.25197 32.703 8.65666 28.9679 7.37697 28.3882ZM59.0457 31.5327C59.0457 31.5327 62.6004 31.5327 63.5903 31.4726C64.5801 31.4124 65.7449 31.3577 65.7449 31.3577C65.7449 31.3577 65.4059 29.7444 64.8918 28.8858C63.8418 27.1249 61.3153 26.6382 61.3153 26.6382L59.0457 31.5327Z" fill="#C2DD1F"/>
    <path d="M6.56211 26.2335L6.17383 27.9507C6.17383 27.9507 11.5496 37.4718 35.7105 37.8327C49.8527 38.046 57.9793 33.753 61.5668 30.2421C63.716 28.1366 63.7871 26.0913 63.7871 26.0913L6.56211 26.2335Z" fill="#DE8010"/>
    <path d="M5.33764 21.4976C5.03139 26.2554 6.19077 27.9617 6.19077 27.9617C6.19077 27.9617 14.1861 35.2023 34.6064 35.5359C55.5353 35.875 62.3384 28.9351 63.5306 26.9117C64.2908 25.6265 64.8978 23.1054 64.4165 19.4304C63.6181 13.3601 56.629 1.84293 34.508 1.93043C12.3869 2.01793 5.78608 14.5906 5.33764 21.4976Z" fill="url(#paint0_radial_3937_60249)"/>
    <path d="M26.3541 7.85304C26.5237 8.78272 22.3291 11.878 21.7221 8.90851C21.1534 6.11397 26.1956 6.99444 26.3541 7.85304ZM27.8526 13.6773C28.0713 14.2515 32.3698 15.0773 31.9104 12.6546C31.4291 10.1335 27.4041 12.496 27.8526 13.6773ZM31.6206 7.02726C31.7299 7.85304 36.7393 8.81554 36.6354 6.48585C36.5096 3.60929 31.4948 6.07022 31.6206 7.02726ZM23.3573 15.5913C23.3846 15.7773 22.1541 16.7452 20.8963 17.1226C19.7916 17.4562 18.6596 17.314 18.5338 15.9413C18.4135 14.6179 19.3541 14.1366 20.4807 14.2515C21.7768 14.3773 23.3026 15.2358 23.3573 15.5913ZM33.7643 19.4577C33.5565 18.5882 28.8479 17.3796 29.1651 20.1304C29.4877 22.8702 33.9885 20.3819 33.7643 19.4577ZM38.1721 13.196C37.9424 12.928 36.8651 12.9773 35.5526 13.3218C34.6065 13.5733 33.9065 14.6398 34.5627 15.6515C35.3284 16.8327 36.6135 16.3351 37.4338 15.3343C38.101 14.5249 38.4291 13.4968 38.1721 13.196ZM43.2143 6.80304C43.0666 6.64444 41.9893 6.53507 41.1088 6.96163C40.2229 7.38819 39.4573 8.40538 40.2776 9.35694C41.1088 10.314 42.3448 9.76163 42.9299 8.74991C43.3948 7.93507 43.4385 7.04366 43.2143 6.80304ZM46.594 15.1265C46.4518 14.2351 42.4924 12.6491 42.5198 15.0773C42.5471 17.5655 46.7198 15.9304 46.594 15.1265ZM52.0682 10.7296C51.937 10.046 46.9002 9.49366 47.7588 12.0366C48.6502 14.689 52.2268 11.5608 52.0682 10.7296ZM45.1338 19.6765C45.1666 18.9108 41.3331 17.1554 41.0487 19.4523C40.7643 21.7491 45.0901 20.6718 45.1338 19.6765Z" fill="#FDEAC8"/>
    <defs>
    <radialGradient id="paint0_radial_3937_60249" cx="0" cy="0" r="1" gradientUnits="userSpaceOnUse" gradientTransform="translate(34.7074 8.48907) rotate(89.3583) scale(24.0846 41.9668)">
    <stop offset="0.517" stop-color="#DF8016"/>
    <stop offset="0.643" stop-color="#E58C21"/>
    <stop offset="1" stop-color="#F5AC3C"/>
    </radialGradient>
    </defs>
    </svg>

