
    <svg width="70" height="70" viewBox="0 0 70 70" fill="none" xmlns="http://www.w3.org/2000/svg">
    <path d="M65.8547 37.5265C65.7398 33.9937 65.1656 31.6804 64.5094 29.9686C63.5141 27.3929 61.7039 24.8335 59.5766 23.089C51.2477 16.2311 39.5391 14.0327 29.0555 15.5476C20.1961 16.8272 9.00156 20.8358 5.47969 29.9632C4.81797 31.6749 4.24375 33.9936 4.12891 37.521C4.12891 37.521 12.6273 59.5874 36.4383 59.5874C60.2547 59.5929 65.8547 37.5265 65.8547 37.5265Z" fill="white"/>
    <path d="M35.427 17.2758C44.2316 17.2758 52.3145 19.9391 58.1879 24.7734C60.0035 26.2664 61.6059 28.5031 62.4699 30.7563C63.159 32.5391 63.5473 34.6773 63.6621 37.275C62.9129 39.8508 57.0559 57.4109 36.4441 57.4109C15.9035 57.4109 7.59648 40.0859 6.3332 37.1383C6.45352 34.6008 6.84727 32.5117 7.51992 30.7563C11.1676 21.3117 24.0137 18.4898 29.373 17.7133C31.3637 17.4234 33.3926 17.2758 35.427 17.2758ZM35.427 15.0938C33.2777 15.0938 31.1449 15.2469 29.0613 15.5531C20.202 16.8328 9.00742 20.8414 5.48555 29.9687C4.82383 31.6805 4.24961 33.9992 4.13477 37.5266C4.13477 37.5266 12.6332 59.593 36.4441 59.593C60.2551 59.593 65.8551 37.5266 65.8551 37.5266C65.7402 33.9938 65.166 31.6805 64.5098 29.9687C63.5145 27.393 61.7043 24.8336 59.577 23.0891C52.9105 17.5984 44.0676 15.0938 35.427 15.0938Z" fill="#ED6C30"/>
    <path d="M35.1582 51.8384C50.8638 51.8384 63.5957 45.5214 63.5957 37.729C63.5957 29.9366 50.8638 23.6196 35.1582 23.6196C19.4526 23.6196 6.7207 29.9366 6.7207 37.729C6.7207 45.5214 19.4526 51.8384 35.1582 51.8384Z" fill="#FCD4B5"/>
    <mask id="mask0_3937_63194" style="mask-type:luminance" maskUnits="userSpaceOnUse" x="6" y="23" width="58" height="29">
    <path d="M35.207 51.8C50.9126 51.8 63.6445 45.4781 63.6445 37.6796C63.6445 29.8812 50.9126 23.5593 35.207 23.5593C19.5014 23.5593 6.76953 29.8812 6.76953 37.6796C6.76953 45.4781 19.5014 51.8 35.207 51.8Z" fill="white"/>
    </mask>
    <g mask="url(#mask0_3937_63194)">
    <path d="M15.3278 50.5641C14.7043 50.5641 14.1739 50.0828 14.1192 49.4484C14.07 48.8633 14.1848 48.2781 14.2887 47.7695L14.3653 47.3922C15.1856 42.5906 20.9332 38.4016 24.7778 38.6641C25.4504 38.7078 25.9535 39.2875 25.9043 39.9547C25.8606 40.6273 25.2754 41.1195 24.6082 41.0867C22.12 40.9062 17.3785 44.1055 16.7496 47.7969C16.7278 47.9445 16.7004 48.0922 16.6621 48.2453C16.591 48.6008 16.509 49 16.5309 49.2406C16.5856 49.9078 16.0934 50.4984 15.4207 50.5531C15.3989 50.5641 15.366 50.5641 15.3278 50.5641Z" fill="#B89278"/>
    <path d="M12.8608 49.2296C12.5108 49.2296 12.1662 49.0765 11.9256 48.7867C10.5037 47.0804 10.4053 44.4773 11.6412 41.639C12.6803 39.2546 14.835 36.6296 17.11 36.5039C17.7881 36.4765 18.3514 36.9796 18.3897 37.6468C18.3993 37.806 18.3773 37.9656 18.3249 38.1162C18.2726 38.2669 18.1909 38.4057 18.0847 38.5247C17.9784 38.6436 17.8497 38.7404 17.7058 38.8094C17.562 38.8783 17.406 38.9181 17.2467 38.9265C16.3662 38.9757 14.7967 40.4687 13.8615 42.607C13.0194 44.5429 12.992 46.2765 13.7904 47.2335C14.217 47.7476 14.1459 48.5132 13.6319 48.9398C13.4076 49.1367 13.1287 49.2296 12.8608 49.2296ZM7.73107 44.8054C7.43576 44.8054 7.14045 44.7015 6.90529 44.4882C5.7131 43.4273 5.98107 41.4039 6.42404 39.889C6.57717 39.3585 7.16232 38.4835 10.0279 35L9.81467 34.7867L10.9248 33.95C11.2311 33.7203 12.3467 32.9984 13.2928 32.9929C13.96 33.0039 14.4959 33.5507 14.485 34.2234C14.4798 34.5413 14.3505 34.8446 14.1247 35.0684C13.8988 35.2922 13.5943 35.4188 13.2764 35.421H13.2545C13.167 35.4374 12.8061 35.6015 12.4779 35.8312C12.3522 36.0007 12.2045 36.1757 12.0569 36.3617C10.0389 38.8117 8.91779 40.2554 8.73185 40.6492C8.39279 41.8359 8.46389 42.5578 8.55139 42.7054C9.04904 43.1539 9.08185 43.9031 8.63889 44.4007C8.39279 44.6687 8.06467 44.8054 7.73107 44.8054Z" fill="#B89278"/>
    <path d="M24.6026 40.2665C24.5534 40.2665 24.5041 40.2665 24.4549 40.261C23.476 40.1462 22.4971 39.9985 21.5182 39.8508C20.9057 39.7579 20.2877 39.6704 19.6752 39.5883C17.4877 39.2876 15.6229 38.4399 14.1244 37.0727C12.9487 35.9899 10.9963 30.7837 11.8166 28.5469C11.8716 28.3972 11.9555 28.2597 12.0635 28.1424C12.1716 28.0251 12.3017 27.9302 12.4464 27.8632C12.5912 27.7962 12.7477 27.7583 12.907 27.7518C13.0664 27.7452 13.2255 27.7701 13.3752 27.8251C13.525 27.88 13.6624 27.9639 13.7797 28.072C13.897 28.18 13.9919 28.3101 14.059 28.4549C14.126 28.5996 14.1639 28.7561 14.1704 28.9155C14.177 29.0748 14.152 29.2339 14.0971 29.3837C13.6979 30.4665 15.0924 34.6063 15.7705 35.2899C16.8862 36.3126 18.3135 36.9524 20.0034 37.1876C20.6268 37.2751 21.2502 37.3626 21.8682 37.4555C22.8252 37.5977 23.7823 37.7399 24.7338 37.8547C25.401 37.9313 25.8768 38.5383 25.8002 39.2001C25.7652 39.4934 25.6241 39.7638 25.4035 39.9602C25.1829 40.1567 24.898 40.2656 24.6026 40.2665Z" fill="#B89278"/>
    <path d="M21.2 35.3225H21.1344C20.2977 35.2788 16.2508 33.5561 15.4305 31.2429C15.0422 30.1491 14.3696 26.4796 15.7696 24.9483C16.2235 24.4561 16.9891 24.4179 17.4868 24.8718C17.979 25.3257 18.0172 26.0913 17.5633 26.5835C17.2133 27.0155 17.3063 29.2796 17.711 30.428C18.0555 31.4015 20.6313 32.7358 21.375 32.9108C22.0477 32.9436 22.5016 33.5124 22.4688 34.1796C22.436 34.8304 21.8454 35.3225 21.2 35.3225Z" fill="#B89278"/>
    <path d="M20.4789 39.5444C20.1672 39.5444 19.8555 39.4241 19.6203 39.189C19.15 38.7132 19.15 37.9476 19.6203 37.4718C20.643 36.4546 21.4524 33.6437 21.0914 32.3749C20.7196 31.0788 19.5274 29.471 18.0508 28.2788C17.8758 28.1366 17.6735 28.0163 17.4711 27.896C17.2305 27.7484 16.9899 27.5952 16.7602 27.4312L16.5524 27.2671C16.443 27.1796 16.2844 27.0538 16.2242 27.0374C15.6008 26.8187 15.2344 26.1351 15.4367 25.5116C15.6336 24.8827 16.2735 24.5218 16.9078 24.7132C17.4164 24.8609 17.7828 25.1562 18.0563 25.3749L18.2149 25.5007C18.3789 25.621 18.5539 25.7304 18.7344 25.8343C19.0242 26.0093 19.3141 26.1898 19.5766 26.403C21.0422 27.5843 22.8196 29.6023 23.4266 31.7241C24.0336 33.846 22.9946 37.5538 21.3375 39.2054C21.0969 39.4296 20.7852 39.5444 20.4789 39.5444Z" fill="#B89278"/>
    <path d="M24.7011 41.0921C24.4276 41.0921 24.1542 41.0046 23.9245 40.8132C23.6776 40.6077 23.5223 40.3127 23.4926 39.9928C23.4629 39.673 23.5611 39.3544 23.7659 39.1069C25.1331 37.4608 25.3245 35.9077 25.3409 35.3116C25.4831 30.346 24.6628 28.1202 19.7956 25.5007L19.6972 25.4679C19.3417 25.3366 18.5269 25.0304 18.3519 24.1499C18.2261 23.4936 18.6581 22.8538 19.3144 22.728C19.7792 22.6405 20.2386 22.8265 20.5065 23.1765C20.5229 23.1819 20.5339 23.1874 20.5448 23.1929C20.6979 23.2475 20.8401 23.3077 20.944 23.3624C26.905 26.5671 27.9167 29.9249 27.7581 35.3827C27.7308 36.4327 27.4081 38.5163 25.6198 40.66C25.3901 40.9444 25.0456 41.0921 24.7011 41.0921Z" fill="#B89278"/>
    <path d="M30.2565 32.1343C29.5893 32.1343 29.0425 31.5875 29.0425 30.9203C29.0425 27.4531 28.8729 26.3867 25.0339 24.7187C24.8972 24.664 24.755 24.582 24.6018 24.4945C24.5581 24.4671 24.5089 24.4343 24.4597 24.407C24.1568 24.4013 23.8671 24.2827 23.6472 24.0744C23.4274 23.8661 23.2933 23.5831 23.2714 23.281C23.2495 22.9789 23.3413 22.6796 23.5287 22.4417C23.7162 22.2038 23.9858 22.0446 24.2847 21.9953C24.9573 21.8804 25.5097 22.2031 25.8323 22.4C25.8925 22.4328 25.9417 22.4711 25.9964 22.4929C30.9456 24.6367 31.4597 26.7039 31.4597 30.9148C31.4706 31.5875 30.9292 32.1343 30.2565 32.1343ZM18.4167 52.2156C18.28 52.2156 18.1323 52.1937 17.9956 52.139C17.846 52.084 17.7088 51.9999 17.5918 51.8917C17.4748 51.7835 17.3803 51.6533 17.3138 51.5085C17.2472 51.3637 17.2099 51.2072 17.204 51.0479C17.198 50.8886 17.2236 50.7298 17.2792 50.5804C18.2472 47.9609 22.4362 45.0625 23.7815 44.7453C23.8636 44.7289 23.9948 44.7015 24.1425 44.6742C24.2737 44.6523 24.5362 44.6086 24.6948 44.5703C25.0557 44.2968 25.5643 44.2421 25.9909 44.4718C26.5815 44.789 26.8057 45.5218 26.494 46.1125C26.1276 46.7961 25.3292 46.9328 24.5581 47.064C24.4651 47.0804 24.394 47.0914 24.3393 47.1023C23.5737 47.3101 20.1831 49.7273 19.5597 51.4117C19.4752 51.6471 19.32 51.8507 19.1154 51.9946C18.9108 52.1384 18.6668 52.2156 18.4167 52.2156ZM37.3659 53.3476C36.9995 53.3476 36.6331 53.1781 36.3979 52.8609C36.3013 52.7337 36.2308 52.5886 36.1906 52.4341C36.1503 52.2795 36.1411 52.1185 36.1635 51.9603C36.1859 51.8022 36.2394 51.65 36.3209 51.5127C36.4025 51.3753 36.5104 51.2555 36.6386 51.1601C37.6667 50.3836 37.519 49.1914 37.4042 48.721C37.1745 47.7421 36.3432 46.5007 34.7792 46.2164C34.6225 46.1886 34.4728 46.1302 34.3388 46.0445C34.2047 45.9587 34.0889 45.8474 33.998 45.7168C33.907 45.5863 33.8428 45.439 33.8088 45.2836C33.7749 45.1281 33.772 44.9675 33.8003 44.8109C33.8279 44.6536 33.8864 44.5033 33.9724 44.3688C34.0585 44.2343 34.1703 44.1181 34.3015 44.0271C34.4327 43.9361 34.5807 43.8719 34.7368 43.8384C34.893 43.805 35.0542 43.8028 35.2112 43.832C37.4479 44.2367 39.2362 45.932 39.7612 48.1578C40.2151 50.0882 39.5807 51.9804 38.0932 53.1015C37.8745 53.2656 37.6175 53.3476 37.3659 53.3476Z" fill="#B89278"/>
    <path d="M42.2061 53.7579C42.0803 53.7579 41.9381 53.736 41.8123 53.6868C41.6614 53.6355 41.5221 53.5547 41.4025 53.4492C41.283 53.3437 41.1855 53.2155 41.1159 53.0721C41.0462 52.9286 41.0057 52.7728 40.9966 52.6136C40.9875 52.4544 41.0101 52.295 41.0631 52.1446C42.0639 49.2571 42.1733 44.4337 38.3725 42.9626C38.2239 42.9051 38.0881 42.8189 37.973 42.7088C37.8578 42.5987 37.7656 42.467 37.7016 42.3211C37.6375 42.1752 37.603 42.0182 37.5998 41.8589C37.5967 41.6996 37.6251 41.5413 37.6834 41.393C37.8 41.0933 38.0306 40.8519 38.3248 40.7217C38.6189 40.5915 38.9527 40.5832 39.2529 40.6985C44.6561 42.7876 44.6725 49.1641 43.3655 52.9376C43.1795 53.4407 42.7092 53.7579 42.2061 53.7579Z" fill="#B89278"/>
    <path d="M46.5325 53.3477C46.3052 53.3468 46.0827 53.2822 45.8902 53.1614C45.6977 53.0405 45.5429 52.8681 45.4433 52.6638C45.3437 52.4595 45.3033 52.2313 45.3266 52.0052C45.35 51.7791 45.4362 51.5641 45.5755 51.3844C47.6482 48.7266 46.5982 46.7852 44.5747 43.5751C43.749 42.2626 42.8685 41.136 41.9607 40.2118C41.4904 39.7305 41.4958 38.9649 41.9716 38.4946C42.4529 38.0243 43.2185 38.0298 43.6888 38.5055C44.7169 39.5555 45.7068 40.8243 46.6255 42.279C48.5341 45.3032 50.6997 48.7376 47.4896 52.8719C47.2489 53.1837 46.8935 53.3477 46.5325 53.3477Z" fill="#B89278"/>
    <path d="M54.6916 49.6234L53.9369 49.514C53.4939 49.432 53.1494 49.1203 53.0072 48.7211C52.8486 48.5242 52.7228 48.3328 52.6025 48.1523L52.4439 47.9117C52.176 47.5289 51.7057 47.2062 51.2025 46.8672L50.9892 46.725C50.4916 46.3804 50.2072 46.1179 50.0158 45.8718C49.8408 45.8281 49.5893 45.7679 49.2174 45.675L48.5064 45.5054C48.4244 45.489 48.2658 45.4781 48.0908 45.4562C46.9588 45.3414 45.7939 45.2211 45.4002 44.2367C45.1541 43.6133 45.4549 42.9078 46.0838 42.6617C46.5322 42.4812 47.0353 42.5961 47.3635 42.9078C47.615 42.9679 48.0908 43.0172 48.3369 43.0445C48.6596 43.0773 48.933 43.1156 49.0807 43.1484L49.7861 43.3179C51.2846 43.6789 51.6783 43.7773 51.9736 44.4226C52.0228 44.4664 52.1377 44.5648 52.3619 44.7234L52.5588 44.8547C53.1877 45.2812 53.8986 45.7679 54.4291 46.5226L54.626 46.8234C54.79 47.075 54.883 47.2062 55.0033 47.3047L55.2986 47.5398L55.5994 48.5515L54.6916 49.6234Z" fill="#B89278"/>
    <path d="M57.9785 48.3055C57.6449 48.3055 57.3168 48.1743 57.0762 47.9118C56.7098 47.5125 56.5512 47.0532 56.4309 46.6868C56.3816 46.5391 56.3051 46.3149 56.2559 46.2602C54.8121 44.6032 53.1059 43.2852 51.4488 42.5579C49.9559 41.9016 48.2496 41.9125 46.4395 41.918H45.816C45.1488 41.918 44.6074 41.3711 44.6074 40.704C44.6074 40.0313 45.1488 39.4954 45.8215 39.4954H46.4285C48.4191 39.4899 50.4645 39.4789 52.4277 40.343C54.4074 41.2125 56.4199 42.7493 58.0934 44.6743C58.4598 45.0954 58.6184 45.5766 58.7332 45.9211C58.777 46.0469 58.8371 46.2329 58.8754 46.2875C59.3293 46.7797 59.2965 47.5344 58.8043 47.9938C58.5637 48.1961 58.2684 48.3055 57.9785 48.3055Z" fill="#B89278"/>
    <path d="M60.5379 45.2102C60.2593 45.2092 59.9895 45.1133 59.7727 44.9383C59.556 44.7633 59.4054 44.5197 59.3457 44.2477C59.198 43.5313 58.334 42.6672 58.0551 42.3828C57.3933 41.7156 56.491 41.1797 55.2988 40.7313C54.4894 40.4305 53.6527 40.3922 52.6793 40.3484L52.0066 40.3156C51.6183 40.2938 51.1973 40.3594 50.7488 40.425C50.2512 40.5016 49.7316 40.5891 49.1793 40.5672C49.0197 40.564 48.8624 40.5293 48.7163 40.4651C48.5702 40.4009 48.4382 40.3085 48.3279 40.1931C48.2176 40.0778 48.1312 39.9418 48.0737 39.7929C48.0161 39.6441 47.9886 39.4853 47.9926 39.3258C48.009 38.6531 48.5777 38.1336 49.234 38.1391C49.584 38.1445 49.9668 38.0844 50.3769 38.0242C50.9019 37.9367 51.5035 37.8438 52.1543 37.8875L52.7941 37.9203C53.8715 37.9695 54.9816 38.0242 56.1465 38.4563C57.6723 39.025 58.8644 39.7469 59.7777 40.6656C60.5433 41.4367 61.4621 42.4867 61.7191 43.7391C61.8613 44.3953 61.4348 45.0406 60.784 45.1773C60.7019 45.1992 60.6144 45.2102 60.5379 45.2102ZM57.5137 37.4227C56.6223 37.4227 55.7199 37.3844 54.8285 37.2422C54.3746 37.1711 53.9316 37.0563 53.4941 36.9414C53.2207 36.8703 52.9527 36.7992 52.6683 36.7391C52.3529 36.6745 52.076 36.4873 51.8986 36.2186C51.7211 35.9499 51.6577 35.6217 51.7223 35.3062C51.7868 34.9908 51.974 34.7139 52.2427 34.5365C52.5114 34.359 52.8396 34.2956 53.1551 34.3602C53.4723 34.4258 53.7949 34.5078 54.1121 34.5898C54.473 34.6828 54.8285 34.7812 55.2004 34.8414C56.3379 35.0219 57.5848 34.9945 58.7879 34.9727L59.3566 34.9617C60.691 34.9398 62.1238 34.4914 63.8683 33.5563C64.459 33.2391 65.1918 33.4578 65.509 34.0484C65.8262 34.6391 65.6074 35.3773 65.0168 35.6945C62.9168 36.8211 61.1285 37.3625 59.3949 37.3898L58.8426 37.4008C58.4051 37.4117 57.9621 37.4227 57.5137 37.4227Z" fill="#B89278"/>
    <path d="M57.1422 40.8132C56.743 40.8132 56.2946 40.764 55.868 40.5452C55.5823 40.3987 55.3661 40.1451 55.2667 39.8397C55.1673 39.5344 55.1928 39.2022 55.3375 38.9155C55.4817 38.6317 55.7316 38.4159 56.0334 38.3147C56.3351 38.2134 56.6646 38.2347 56.9508 38.3741C57.0547 38.396 57.3281 38.3796 57.5031 38.3741C57.6617 38.3632 57.8149 38.3577 57.9625 38.3577C59.3352 38.3577 60.3961 38.3249 61.3914 38.2593C62.2336 38.1991 63.0813 38.0296 63.9672 37.7233L64.1969 37.6522C64.2899 37.6249 64.4758 37.5702 64.6016 37.521C64.7375 37.3354 64.923 37.1918 65.1367 37.1067C65.3505 37.0216 65.5839 36.9984 65.8102 37.0397C66.4664 37.1655 66.9039 37.7999 66.7781 38.4561C66.5867 39.4733 65.5203 39.7905 64.886 39.9819L64.7492 40.0257C63.6555 40.3976 62.611 40.6108 61.5555 40.6819C60.4945 40.753 59.3899 40.7913 57.9625 40.7913C57.8641 40.7913 57.7547 40.7968 57.6508 40.8022C57.4867 40.8022 57.3227 40.8132 57.1422 40.8132Z" fill="#B89278"/>
    </g>
    <path d="M35.7713 36.6952C34.6502 37.6468 33.4033 38.4781 32.0853 38.8992C28.6072 40.0148 27.6228 36.482 28.733 33.6218C29.5259 31.5765 30.4392 29.1757 31.6259 27.3382C32.3806 26.1734 33.2994 25.1179 34.3439 24.1937C36.8978 21.9515 41.1689 21.1531 43.5916 24.0351C43.9798 24.5054 44.4064 25.2656 44.483 25.8945C44.8002 28.3937 43.1541 30.3624 41.4041 31.921C39.572 33.5562 37.6416 35.1038 35.7713 36.6952Z" fill="#F79329"/>
    <path d="M30.8661 40.3212C29.6247 40.3212 28.5693 39.7743 27.8966 38.7845C26.945 37.3899 26.8302 35.1915 27.6122 33.1845L27.7107 32.9329C28.5091 30.8767 29.4114 28.547 30.62 26.6821C31.4382 25.4205 32.4264 24.2777 33.5568 23.286C35.2083 21.8313 37.4286 20.9673 39.4903 20.9673C41.5302 20.9673 43.2693 21.7657 44.5325 23.2642C44.9919 23.8165 45.5771 24.7954 45.7028 25.7415C46.113 28.9626 43.9146 31.3306 42.2247 32.829C41.0818 33.8462 39.895 34.836 38.7083 35.8204C37.9919 36.4165 37.2755 37.0126 36.57 37.6142C35.1482 38.8228 33.8083 39.6212 32.4685 40.0532C31.8997 40.2337 31.3638 40.3212 30.8661 40.3212ZM39.4849 23.3954C37.9919 23.3954 36.3732 24.0353 35.1482 25.1126C34.1864 25.9578 33.3455 26.9312 32.6489 28.0056C31.5771 29.6626 30.7239 31.8665 29.9638 33.8188L29.8653 34.0704C29.3786 35.3118 29.395 36.6954 29.8927 37.4228C30.2482 37.9423 30.8443 38.0298 31.7138 37.7509C32.731 37.4282 33.8302 36.761 34.9841 35.7821C35.695 35.1751 36.4224 34.5735 37.1497 33.9665C38.3091 32.9985 39.4794 32.0306 40.606 31.0298C42.6622 29.1978 43.488 27.672 43.2857 26.0642C43.2474 25.747 42.9685 25.1946 42.6622 24.8392C41.6778 23.6415 40.3872 23.3954 39.4849 23.3954Z" fill="#855C52"/>
    <path d="M42.7269 37.0015C41.4745 37.7672 40.1128 38.3906 38.7456 38.6039C35.1308 39.1562 34.7151 35.514 36.2628 32.8672C37.3675 30.9695 38.6472 28.7437 40.1073 27.1195C41.039 26.0837 42.108 25.1803 43.2847 24.4343C46.1612 22.6242 50.5034 22.4984 52.4448 25.7304C52.762 26.2554 53.0573 27.0703 53.0355 27.7047C52.9534 30.2203 51.0175 31.9101 49.0487 33.1679C46.9761 34.4968 44.8214 35.7273 42.7269 37.0015Z" fill="#F79329"/>
    <path d="M38.0413 39.8673C36.5812 39.8673 35.4163 39.2384 34.7546 38.0899C33.8687 36.5423 34.0437 34.2509 35.2195 32.2493L35.3398 32.0306C36.4554 30.122 37.7132 27.9618 39.2062 26.3048C40.2124 25.1892 41.3663 24.2103 42.6406 23.4118C44.1281 22.4712 45.8945 21.9517 47.6117 21.9517C50.1437 21.9517 52.2874 23.1001 53.4906 25.1071C53.8624 25.7251 54.2835 26.7806 54.2562 27.7376C54.1523 30.986 51.6093 32.9767 49.7062 34.1907C48.3992 35.0274 47.0538 35.8259 45.7085 36.6243C44.9265 37.0892 44.139 37.5595 43.3624 38.0298C41.7984 38.9868 40.3054 39.5774 38.9327 39.7907C38.6156 39.8509 38.3148 39.8673 38.0413 39.8673ZM47.6007 24.3798C46.3538 24.3798 45.0195 24.7735 43.9257 25.4626C42.8419 26.1443 41.8589 26.9745 41.0054 27.929C39.682 29.4001 38.4843 31.4509 37.4343 33.2556L37.3031 33.4798C36.5976 34.6829 36.4117 36.1157 36.8546 36.8868C36.9913 37.1274 37.2648 37.4446 38.0359 37.4446C38.1999 37.4446 38.3749 37.4282 38.5554 37.4063C39.6109 37.2423 40.8031 36.7556 42.0882 35.9681C42.8757 35.4868 43.6632 35.0165 44.4617 34.5462C45.7796 33.7642 47.1031 32.9767 48.3882 32.1563C50.7015 30.6743 51.7624 29.2907 51.8171 27.672C51.8281 27.3548 51.6367 26.7642 51.396 26.3595C50.4226 24.7243 48.7929 24.3798 47.6007 24.3798Z" fill="#855C52"/>
    <path d="M47.0534 40.4086C45.6643 40.8953 44.2042 41.2179 42.8206 41.1359C39.1729 40.9172 39.5339 37.275 41.5956 35.0054C43.0776 33.3867 44.7948 31.4781 46.5667 30.1929C47.6932 29.3781 48.9292 28.7218 50.2362 28.2406C53.4245 27.0757 57.7011 27.8687 58.9151 31.4343C59.1175 32.014 59.2268 32.8726 59.0737 33.4851C58.4667 35.9297 56.2245 37.1765 54.0315 37.9914C51.7347 38.85 49.3722 39.5992 47.0534 40.4086Z" fill="#F79329"/>
    <path d="M43.2638 42.3609C43.0943 42.3609 42.9193 42.3555 42.7498 42.3445C40.3435 42.2023 39.4412 40.8516 39.124 40.0586C38.4295 38.3414 39.0638 35.9844 40.7045 34.1852L40.8521 34.0266C42.3451 32.3859 44.0459 30.5266 45.856 29.2086C47.0756 28.3281 48.4099 27.6172 49.8209 27.0977C50.849 26.7203 51.9756 26.5234 53.0857 26.5234C56.4435 26.5234 59.1177 28.257 60.0638 31.0406C60.2935 31.7187 60.4904 32.8453 60.2552 33.775C59.4732 36.9359 56.5693 38.3414 54.4529 39.1289C53.0146 39.6648 51.549 40.157 50.0834 40.6547C49.2029 40.95 48.3279 41.2453 47.4529 41.5516C45.9326 42.0875 44.5216 42.3609 43.2638 42.3609ZM53.0857 28.9516C52.2599 28.9516 51.4177 29.0992 50.6521 29.3781C49.4435 29.8211 48.3115 30.4281 47.2779 31.1719C45.6646 32.3422 44.0623 34.1031 42.6349 35.6617L42.4873 35.8203C41.5084 36.8867 41.0271 38.3195 41.3662 39.1453C41.5576 39.6102 42.0662 39.8727 42.892 39.9219C43.9857 39.9875 45.2217 39.7633 46.649 39.2602C47.5295 38.9539 48.4209 38.6531 49.3068 38.3523C50.7451 37.8656 52.1943 37.3789 53.6052 36.8539C56.181 35.8914 57.5045 34.7648 57.8927 33.1898C57.9693 32.8781 57.9092 32.2656 57.7615 31.8227C56.8591 29.1594 53.9607 28.9516 53.0857 28.9516Z" fill="#855C52"/>
    <path d="M23.5095 46.2438C23.1486 42.6891 25.2212 38.9157 28.2509 37.1875C33.2986 34.311 40.4408 37.0289 38.4666 43.7227C37.6353 46.55 34.9173 48.3766 32.2595 49.3391C30.2251 50.0828 27.715 50.4 25.708 49.4157C24.2369 48.6938 23.6408 47.5508 23.5095 46.2438Z" fill="white"/>
    <path d="M33.923 45.314C31.38 45.8992 27.9675 43.9359 28.58 41.0047C29.1324 38.3468 32.8621 37.3625 34.9839 38.5711C37.3629 39.9328 37.073 43.7718 34.7761 44.9914C34.5082 45.139 34.2238 45.2429 33.923 45.314Z" fill="#FCC21B"/>
    <path d="M27.4212 1.86482C27.629 1.23044 27.5415 0.40466 26.8305 0.328098C24.7743 0.120285 22.7782 3.057 22.029 4.57732C20.9407 6.81404 20.8094 9.50466 21.8485 11.7851C22.4884 13.1906 23.5329 14.3992 24.0907 15.8375C24.3751 16.5648 24.5118 17.314 24.4407 18.0906C24.3751 18.7687 23.8719 19.7148 24.2055 20.3765C24.9165 21.7711 26.5352 19.8297 26.9946 19.1625C29.5649 15.4547 26.4969 11.9765 25.9774 8.21404C25.693 6.14138 26.1962 4.0031 27.2626 2.22575C27.3282 2.11638 27.3829 1.99607 27.4212 1.86482ZM46.0915 1.86482C46.2993 1.23044 46.2118 0.40466 45.5009 0.328098C43.4446 0.120285 41.443 3.057 40.7048 4.57732C39.611 6.81404 39.4852 9.50466 40.5188 11.7851C41.1587 13.1906 42.2032 14.3992 42.7665 15.8375C43.0454 16.5648 43.1821 17.314 43.111 18.0906C43.0509 18.7687 42.5477 19.7148 42.8813 20.3765C43.5868 21.7711 45.2055 19.8297 45.6649 19.1625C48.2352 15.4547 45.1673 11.9765 44.6477 8.21404C44.3634 6.14138 44.8665 4.0031 45.9329 2.22575C45.9985 2.11638 46.0532 1.99607 46.0915 1.86482ZM36.3462 1.86482C36.554 1.23044 36.4719 0.40466 35.7555 0.328098C33.6993 0.120285 31.7032 3.057 30.9594 4.57732C29.8657 6.81404 29.7344 9.50466 30.768 11.7851C31.4079 13.1906 32.4579 14.3992 33.0157 15.8375C33.2946 16.5648 33.4313 17.314 33.3657 18.0906C33.3055 18.7687 32.7969 19.7148 33.136 20.3765C33.8469 21.7711 35.4548 19.8297 35.9196 19.1625C38.4899 15.4547 35.4274 11.9765 34.9024 8.21404C34.618 6.14138 35.1266 4.0031 36.193 2.22575C36.2532 2.11638 36.3024 1.99607 36.3462 1.86482Z" fill="#40C0E7"/>
    <path d="M63.6406 37.5265C63.6406 37.5812 63.6515 37.6249 63.6515 37.6796C63.6515 45.478 50.9202 51.7999 35.2085 51.7999C19.5023 51.7999 6.77102 45.478 6.77102 37.6796C6.77102 37.6796 6.61242 36.1319 6.77102 34.3437C6.89133 32.9983 7.3343 31.2866 7.3343 31.2866L4.22805 35.7655C4.22805 35.8093 4.10774 36.3562 4.12961 37.5265C4.12961 37.7616 4.17883 38.4233 4.18977 38.664C4.55071 46.0194 8.54836 52.1937 12.7702 56.0929C13.9624 57.1976 15.2038 58.2585 16.5054 59.2046C18.9937 61.0147 21.4655 62.278 24.0085 63.1913C23.9921 63.9132 24.0468 64.6351 24.3312 65.2147C25.9499 68.578 31.4515 69.4257 34.6234 69.6444C38.4241 69.9124 47.6116 68.939 47.7812 63.7054C47.7921 63.3171 47.8413 62.8413 47.8413 62.3601C49.6734 61.5397 51.4781 60.5226 53.2937 59.2046C54.5952 58.264 55.8366 57.1976 57.0288 56.0929C60.9663 52.4562 65.1116 45.9374 65.6366 39.7577C65.7843 39.0413 65.8499 38.2921 65.8718 37.5319H63.6406V37.5265Z" fill="#ED6C30"/>
    </svg>
