    <svg width="70" height="70" viewBox="0 0 70 70" fill="none" xmlns="http://www.w3.org/2000/svg">
    <path d="M37.1929 20.4368L7.24599 26.5727C7.24599 26.5727 2.65224 30.7125 2.38974 37.5922C2.26396 40.9336 2.82177 47.5782 8.89208 53.2493C13.6116 57.6571 21.5085 61.2118 34.6608 61.4961C46.8671 61.7586 54.9991 57.854 59.8936 53.7141C66.4288 48.1907 67.4515 41.5571 67.3147 37.1711C67.096 30.2368 61.5999 26.343 61.1132 25.736C60.6265 25.129 37.1929 20.4368 37.1929 20.4368Z" fill="#D4D4D3"/>
    <path d="M34.5028 58.6469C56.2903 58.6469 66.4458 46.6868 66.2052 35.6289C65.9591 24.4071 50.4989 16.4227 34.913 16.7071C7.71689 17.1993 3.94892 29.8977 3.78485 36.7774C3.59345 44.8875 10.9927 58.6469 34.5028 58.6469Z" fill="#F7F6F5"/>
    <path d="M6.56822 34.4805C5.0151 40.9555 9.844 55.6172 34.8307 55.6172C58.0128 55.6172 63.9901 42.268 63.9901 35.793C63.9901 29.1594 57.7667 17.5273 33.9284 18.8344C11.151 20.0867 7.40494 30.9969 6.56822 34.4805Z" fill="#DF7F14"/>
    <path d="M50.7223 25.9383C50.9684 26.425 52.7512 26.8899 54.0965 27.218C55.4418 27.5461 57.2738 27.9071 57.6676 27.1524C58.0613 26.3977 56.7816 24.4672 55.2449 23.6469C53.7027 22.8266 52.2481 23.6961 51.9035 23.975C51.3785 24.4016 50.3613 25.2219 50.7223 25.9383Z" fill="#FF5119"/>
    <path d="M8.77768 34.5952C7.94643 34.5952 6.98393 36.564 7.80971 38.4944C8.63549 40.4249 9.74018 41.114 10.123 42.1147C10.5003 43.1155 10.916 45.5272 12.6386 47.2226C14.3613 48.9124 16.8496 49.153 17.8831 49.4976C18.9167 49.8421 21.6785 52.0897 26.13 52.7733C31.0628 53.5335 37.8933 52.221 37.7894 51.1874C37.6855 50.1593 30.4394 49.2187 29.0941 48.9124C27.7488 48.6062 22.8488 47.8077 19.2996 45.9483C16.3628 44.4062 13.9894 42.7054 11.4683 38.9429C9.66361 36.2468 9.25893 34.5952 8.77768 34.5952Z" fill="#F5B03E"/>
    <path d="M24.2159 12.2883L21.2081 14.8586L16.6307 16.5922L15.3018 20.5242C15.3018 20.5242 13.1143 22.0391 13.0213 22.6133C12.9338 23.1875 11.6323 27.9563 11.6323 27.9563C11.6323 27.9563 11.2932 29.8102 11.3206 30.6469C11.3479 31.4836 14.4213 37.7945 24.637 39.5883C34.8526 41.382 41.4042 39.1672 45.8721 36.6516C50.1104 34.2617 50.8815 31.7023 50.8815 31.7023L50.6627 27.207C50.6627 27.207 49.2846 21.9352 48.7542 20.7539C48.2237 19.5727 44.2315 15.2141 43.9799 15.143C43.7284 15.0719 38.5877 11.8836 38.5877 11.8836L31.0627 10.3359L24.2159 12.2883ZM8.66821 36.9797C8.14321 37.2313 8.4604 38.3523 9.14946 39.3531C9.83853 40.3539 10.4292 40.7914 10.9323 42.3227C11.4354 43.8539 12.4854 46.5008 14.4049 47.6C16.3245 48.6992 17.4674 47.7805 17.5112 47.1898C17.5768 46.3039 16.4612 46.2328 14.4706 44.2422C12.469 42.2406 11.0198 39.7633 10.2651 38.5766C9.81118 37.8547 9.19321 36.7281 8.66821 36.9797ZM21.3667 47.7586C20.6831 47.3484 19.6549 48.4422 20.519 50.0172C21.3885 51.5922 22.8706 51.2258 22.9635 50.6789C23.1112 49.7875 22.2581 49.607 21.9791 49.0547C21.7112 48.5133 22.1049 48.2016 21.3667 47.7586Z" fill="#FEFEFE"/>
    <path d="M16.1057 21.093C16.1057 21.093 14.4487 21.6508 13.8636 23.3133C13.2729 24.9758 13.2675 27.1797 13.2675 27.1797C13.2675 27.1797 12.2503 27.929 11.8182 29.061C11.3643 30.2532 11.5339 31.1719 11.3479 31.1336C10.9323 31.0461 10.6425 29.2141 10.7846 28.3008C10.9706 27.1305 11.4737 26.6711 11.4737 26.6711C11.4737 26.6711 11.1237 24.1063 12.0698 22.2305C13.0104 20.3547 14.58 19.4141 14.58 19.4141C14.58 19.4141 15.1761 16.8602 16.7237 15.586C18.2714 14.3118 20.0268 14.0985 20.0268 14.0985C20.0268 14.0985 20.6557 12.2063 22.619 11.118C24.5878 10.0297 26.737 10.5547 26.737 10.5547C26.737 10.5547 28.6948 8.95239 31.3909 8.95239C34.0815 8.95239 35.3667 10.3579 35.3667 10.3579C35.3667 10.3579 37.6745 10.0024 39.3807 10.8774C41.087 11.7524 42.055 13.2563 42.055 13.2563C42.055 13.2563 43.887 13.5844 45.2487 14.9133C46.6815 16.3079 47.2339 18.036 47.2339 18.036C47.2339 18.036 49.6948 19.3922 50.5261 21.4266C51.5378 23.9094 50.8815 26.3594 50.8815 26.3594C50.8815 26.3594 51.9151 27.6336 51.7456 29.4875C51.5815 31.3415 50.6628 33.0149 50.28 32.8891C50.1979 32.8618 50.6136 30.3844 50.269 29.1375C49.9901 28.1258 48.9182 26.5891 48.9182 26.5891C48.9182 26.5891 49.0714 23.7344 48.169 22.1157C47.2667 20.5024 45.5987 19.9719 45.5987 19.9719C45.5987 19.9719 44.9479 17.85 43.7065 16.7399C42.4651 15.6243 41.0378 15.5368 41.0378 15.5368C41.0378 15.5368 39.7745 13.6227 38.3089 13.0704C36.8432 12.518 35.3175 12.7696 35.3175 12.7696C35.3175 12.7696 33.3159 11.4954 31.3362 11.5063C29.1542 11.5172 27.5518 12.9446 27.5518 12.9446C27.5518 12.9446 25.687 12.3211 23.9151 13.5297C22.1432 14.7438 21.6511 16.1547 21.6511 16.1547C21.6511 16.1547 19.5839 16.3243 18.244 17.4946C16.9042 18.6649 16.1057 21.093 16.1057 21.093Z" fill="#B0B0B0"/>
    <path d="M40.0206 18.7032C39.0581 18.7196 38.998 20.0485 38.5386 20.8524C38.1284 21.5689 36.5862 21.9243 37.1987 22.947C37.7456 23.8603 39.7691 23.3735 40.5402 21.7603C41.0816 20.6337 41.2456 18.6868 40.0206 18.7032ZM44.0128 23.5376C43.0831 23.636 43.4495 24.872 43.1323 25.8235C42.8152 26.7751 41.6284 27.6446 42.2902 28.2954C42.9519 28.9462 44.4941 27.8853 44.9589 26.1571C45.4237 24.429 44.773 23.4556 44.0128 23.5376ZM38.9652 26.9993C37.9097 26.9774 38.112 28.0876 37.4722 29.0282C36.8323 29.9634 35.9683 30.297 36.3784 30.9587C36.7886 31.6204 38.3198 31.7353 39.2495 30.0017C40.1355 28.3392 39.7691 27.0157 38.9652 26.9993ZM39.8784 33.4524C39.1456 34.6392 37.8987 34.5134 38.2925 35.5196C38.6972 36.5532 40.5402 36.1212 41.4316 34.7595C42.1808 33.6056 42.7659 31.6696 41.4753 31.6095C40.398 31.5657 40.4745 32.4899 39.8784 33.4524ZM32.8784 32.7306C32.1128 32.8071 32.1073 33.7587 31.5605 34.4642C30.9261 35.2899 29.723 35.4431 30.1441 36.4274C30.5652 37.4118 32.43 37.286 33.4308 35.8806C34.273 34.7048 34.3331 32.5884 32.8784 32.7306Z" fill="#D4D4D3"/>
    <path d="M12.0042 34.3602C11.4956 34.5133 10.894 36.0609 11.0198 36.6188C11.1839 37.3406 12.7862 38.8117 13.705 38.7789C14.6237 38.7461 16.5542 37.532 16.7511 37.0453C16.9479 36.5531 16.7839 35.5031 16.5542 35.2133C16.3245 34.918 15.537 34.0977 15.0776 34.0977C14.6183 34.0977 12.6604 34.1633 12.0042 34.3602Z" fill="#FF8E00"/>
    <path d="M14.1639 39.0415C13.6499 39.8126 14.2952 40.8079 14.8202 41.4314C15.3452 42.0548 16.5866 43.679 18.9819 43.4275C21.8311 43.1321 22.8155 40.2173 22.8155 38.9704C22.8155 37.7236 22.4217 36.9415 21.4702 37.1384C20.2288 37.3954 20.2233 38.254 18.8506 38.5821C17.4725 38.9103 14.8858 37.9642 14.1639 39.0415Z" fill="#FCC219"/>
    <path d="M22.4543 42.4156C22.3668 43.1976 22.3559 44.9039 23.0777 45.1664C23.7996 45.4289 26.8129 45.1992 27.3379 45.0351C27.8629 44.871 28.0598 43.7226 27.7317 43.2687C27.4035 42.8093 25.1449 41.0101 24.2262 41.0429C23.3074 41.0757 22.4871 42.1203 22.4543 42.4156Z" fill="#FF8E00"/>
    <path d="M28.8419 46.0852C29.4326 46.3805 29.9576 48.6063 29.7935 49.1313C29.6294 49.6563 29.0388 50.6735 28.7435 50.7665C28.4482 50.8649 25.8287 50.8977 24.7459 50.7337C23.8052 50.5915 22.7498 49.4868 22.8482 48.0485C22.9466 46.6048 23.9966 46.0852 25.5334 45.954C27.0701 45.8227 28.8419 46.0852 28.8419 46.0852ZM32.3802 40.8133C31.4396 40.961 29.531 42.4813 29.4654 43.761C29.3998 45.0407 30.3841 45.9868 31.1662 45.9868C31.9537 45.9868 35.0326 42.8094 34.8357 42.2188C34.6388 41.6282 33.6216 40.6165 32.3802 40.8133Z" fill="#FF5319"/>
    <path d="M34.6388 43.9251C35.1256 44.5212 37.1271 45.7243 38.2428 45.5329C39.3584 45.3415 42.0763 44.2204 41.8138 42.618C41.5513 41.0102 39.2271 39.0469 38.3084 38.7188C37.3896 38.3907 35.8857 38.6204 35.2295 39.211C34.5732 39.7962 34.0482 43.2032 34.6388 43.9251Z" fill="#F8C977"/>
    <path d="M44.86 40.2227C44.067 40.2446 43.6131 41.2071 43.4819 41.5352C43.3506 41.8633 43.0553 42.979 42.6944 43.6954C42.3334 44.4173 40.6655 46.2493 41.2834 47.2337C41.9069 48.218 43.2139 48.0212 44.8874 47.7587C46.5553 47.4962 47.835 46.7743 48.0319 45.2704C48.2288 43.761 48.36 42.5524 47.9663 42.093C47.578 41.6282 46.1014 40.1899 44.86 40.2227Z" fill="#FCC219"/>
    <path d="M41.092 50.05C41.7811 49.6562 44.4334 47.5945 45.4178 47.6273C46.4022 47.6602 47.3154 48.382 47.5779 48.9727C47.8404 49.5633 47.9389 51.2312 47.3811 51.6906C46.8233 52.15 44.9912 52.4125 44.2037 52.4781C43.4162 52.5437 40.6272 52.8664 40.4358 51.5594C40.2717 50.4437 41.092 50.05 41.092 50.05Z" fill="#FF8E00"/>
    <path d="M50.6243 45.3305C50.5915 46.8727 53.1782 47.8844 53.9657 47.9172C54.7532 47.95 56.4868 47.5235 57.4056 46.3094C58.0071 45.511 58.554 44.2477 58.2259 43.4602C57.8978 42.6727 57.4712 41.9836 56.3282 41.8852C55.1798 41.7868 52.6915 41.6883 52.0353 42.1477C51.379 42.6125 50.6353 44.7782 50.6243 45.3305Z" fill="#FF5119"/>
    <path d="M49.8691 37.2093C49.5683 37.7288 50.1097 39.446 50.8206 40.1897C51.4112 40.8132 52.2972 41.5022 54.1292 41.3054C55.9612 41.1085 57.7003 39.8944 58.0941 39.3093C58.4878 38.7187 59.0456 37.5101 58.7175 36.9194C58.3894 36.3288 55.4417 36.6897 54.0964 36.6897C52.7511 36.6897 50.23 36.5858 49.8691 37.2093Z" fill="#F8C977"/>
    <path d="M56.5854 28.9187C56.5252 29.5093 57.6354 30.4937 58.0947 30.8163C58.5541 31.1444 59.894 31.5054 60.3533 31.2101C60.8127 30.9148 60.8838 29.0937 60.6815 28.5905C60.419 27.9343 59.2377 27.2452 58.4885 27.4093C57.7338 27.5788 56.651 28.3007 56.5854 28.9187Z" fill="#F9CA76"/>
    <path d="M55.6991 29.3454C54.8131 29.9032 53.5389 31.8337 53.2108 32.4243C52.8827 33.0149 52.1936 34.3876 53.3749 34.8469C54.5561 35.3063 56.8147 34.9126 57.635 34.5188C58.4553 34.1251 60.0249 33.3047 60.0577 32.2602C60.0905 31.2157 59.3358 30.461 58.4225 29.8704C57.5092 29.2797 56.6342 28.7602 55.6991 29.3454Z" fill="#FF8E00"/>
    <path d="M59.0075 36.0609C59.5216 36.657 60.2216 36.5859 61.2661 36.3891C62.3161 36.1922 63.6888 35.7328 63.5575 34.7812C63.4263 33.8297 62.3435 33.1461 61.8239 32.9164C61.2989 32.6867 59.4997 32.7852 58.9747 33.4414C58.4552 34.0977 58.5864 35.5687 59.0075 36.0609Z" fill="#FCC219"/>
    </svg>
