
    <svg width="70" height="70" viewBox="0 0 70 70" fill="none" xmlns="http://www.w3.org/2000/svg">
    <path d="M67.1444 13.2781C64.2569 10.3961 59.9585 12.7148 57.1803 14.4648C51.6186 17.9703 45.8491 22.925 42.2342 28.4648C41.1022 30.2039 39.5217 29.1922 37.46 28.1859C33.7194 26.3594 28.8085 25.4352 23.3616 25.8344C18.128 26.2117 12.4569 28.3117 9.10455 31.1883C7.08658 32.9109 4.53815 35.093 3.00143 37.8984C0.688147 42.1313 -0.903259 46.2109 1.23502 52.9211C1.31158 53.1617 3.12174 57.6734 5.17799 60.0414C5.63737 60.5719 7.21237 62.0102 8.45924 62.6445C11.5874 64.225 16.7389 67.2492 27.0858 65.2641C38.0233 63.1641 42.6608 57.0117 44.985 51.8219C46.6585 48.0812 46.2921 43.6188 46.2921 43.6188L45.3678 36.5094C45.3842 36.3672 45.3842 36.225 45.4171 36.0883C45.778 34.475 47.1288 32.9219 48.2827 31.7953C52.871 27.3109 58.0827 25.1234 63.7592 22.2359C65.7881 21.2023 68.4897 20.5898 69.5288 18.375C70.4803 16.3406 68.4022 14.5414 67.1444 13.2781Z" fill="#ED6C30"/>
    <path d="M4.79678 52.3853C3.07412 49.7275 2.71865 44.7509 4.7749 40.1626C10.0085 30.8767 20.2351 27.2509 27.5741 28.0165C30.7624 28.3501 34.3062 29.1431 36.9147 30.8056C40.2452 32.9329 41.6999 36.3564 41.8421 38.6259C42.1812 44.1329 41.2296 47.529 38.2054 51.1329C35.2687 54.6329 30.664 58.3025 23.4452 59.0517C13.7163 60.0798 7.9249 57.2197 4.79678 52.3853Z" fill="#2F2F2F"/>
    <path d="M26.1415 54.9664C24.1235 55.4203 22.4172 54.9335 20.5141 54.25C18.5399 53.5335 16.4344 54.2062 14.4219 53.725C12.5133 53.271 10.736 51.9914 9.71334 50.307C6.35005 44.7617 11.8844 38.1992 16.8336 35.9898C20.4485 34.382 24.7415 33.7312 28.4876 34.1523C30.3251 34.3601 32.8954 35.9351 34.2133 37.1765C35.2688 38.1664 36.193 39.9054 36.4774 41.3164C37.6751 47.2937 31.6649 53.7195 26.1415 54.9664Z" fill="white"/>
    <path d="M27.2675 39.9766C26.7042 39.3532 25.9933 38.9102 25.2331 38.6258C24.216 38.243 23.0894 38.1391 21.9956 38.2813C20.3277 38.5055 18.6761 39.3149 17.6863 40.8024C17.0479 41.7678 16.7763 42.9298 16.9206 44.0782C17.0847 45.336 17.7683 46.5337 18.9441 47.2719C20.0488 47.9501 21.4324 48.0704 22.816 47.8954C24.2214 47.704 25.6433 47.1844 26.7535 46.3204C27.3058 45.8829 27.7816 45.3524 28.0988 44.7126C28.4214 44.0727 28.5636 43.329 28.4652 42.5524L28.4269 42.3172C28.2519 41.393 27.8363 40.5946 27.2675 39.9766Z" fill="#FCC21B"/>
    </svg>

