
    <svg width="70" height="70" viewBox="0 0 70 70" fill="none" xmlns="http://www.w3.org/2000/svg">
    <g clip-path="url(#clip0_3937_63140)">
    <path d="M54.3163 12.4851C53.6272 10.407 51.5108 7.94602 49.1483 7.43742C48.1858 7.22961 46.7311 7.25695 45.4678 7.33898L44.8827 7.3718C42.1592 7.50851 39.4741 8.03351 37.21 8.53117C31.5225 9.78351 25.0803 11.1999 19.01 13.2507C18.5288 13.4148 18.0311 13.5788 17.5225 13.7429C14.2194 14.8202 10.4733 16.0398 7.78815 18.4296C6.22409 19.8241 4.98268 21.7765 4.20065 24.0624C3.12878 27.2124 2.97018 30.707 3.75768 33.8952C5.21237 39.8179 9.02956 40.6655 13.06 41.5624C13.4921 41.6554 13.946 41.7538 14.4053 41.8632C16.5546 42.3718 18.7421 42.6288 20.8967 42.6288C30.2975 42.6288 38.3421 37.8874 45.785 33.0312C48.7764 31.0734 50.9585 29.2359 52.6264 27.2562C55.8967 23.3952 55.8311 17.057 54.3163 12.4851Z" fill="#E4E3DE"/>
    <path d="M53.966 11.6265C52.9816 11.9108 52.0027 12.2007 51.0184 12.4851C40.9559 15.4218 34.2348 18.9327 25.4137 24.5874C23.0074 26.1296 20.3715 28.9897 19.4965 31.7187C18.7363 34.0921 18.4082 36.1483 17.3145 38.3905C16.5215 40.0147 14.9246 40.939 13.1855 41.5897C13.5848 41.6772 13.9895 41.7647 14.416 41.8687C16.5652 42.3772 18.7527 42.6343 20.9074 42.6343C30.3082 42.6343 38.3527 37.8929 45.7957 33.0366C48.7871 31.0788 50.9691 29.2413 52.6371 27.2616C55.902 23.4007 55.8363 17.0569 54.3215 12.4851C54.2285 12.2007 54.1027 11.9163 53.966 11.6265Z" fill="#CDCBBF"/>
    <path d="M1.36754 18.1892C0.503473 20.1688 0.115192 22.5751 0.990192 24.6204C1.98004 26.9282 4.25504 27.1524 6.42066 27.6392C11.3097 28.7438 17.7738 30.9915 22.7777 29.854C25.7964 29.1704 28.7386 27.1634 31.4183 25.6813C37.8222 22.1267 44.1441 18.386 50.7832 15.2634C52.3527 14.5251 56.6074 13.497 56.591 11.2821C56.5855 10.4946 56.591 9.70712 56.591 8.91962C56.591 7.30087 56.3121 5.20634 54.7808 4.29853C53.8949 3.77353 52.7902 3.46181 51.8113 3.15009C50.2527 2.65244 48.6722 2.10556 47.0972 1.679C42.5089 0.421187 37.5761 -0.185845 32.8621 0.650874C24.1011 2.21494 16.33 6.01572 9.13863 11.1563C7.06597 12.6329 4.91129 14.0493 3.1066 15.8595C2.2316 16.7345 1.69566 17.4399 1.36754 18.1892Z" fill="#FAC11D"/>
    <path d="M54.7859 4.29297C54.4633 4.10156 54.1133 3.94844 53.7523 3.80078C54.4633 6.125 47.0258 8.70625 44.6742 9.74531C39.5773 12.0039 29.4438 15.9031 25.5938 19.8734C24.582 20.918 22.4273 23.9148 22.0063 25.2875C21.4594 27.043 20.3547 29.4164 17.5547 30.0344C19.3812 30.2258 21.1641 30.2148 22.7883 29.8484C25.807 29.1648 28.7492 27.1578 31.4289 25.6758C37.8328 22.1211 44.1547 18.3805 50.7938 15.2578C52.3633 14.5195 56.618 13.4914 56.6016 11.2766C56.5961 10.4891 56.6016 9.70156 56.6016 8.91406C56.5961 7.29531 56.3117 5.20078 54.7859 4.29297Z" fill="#E4A724"/>
    <path d="M16.225 9.31338C20.0258 9.77276 23.4492 10.347 28.0266 11.6212C32.8555 12.9665 34.5891 14.5907 35.1906 19.5235C35.8031 24.5548 36.7766 32.1837 34.5672 36.9962C33.993 38.2376 33.1727 39.4845 32.2977 40.4634C32.9594 40.6384 38.1383 38.8118 40.4188 37.1056C44.2031 34.2782 44.8922 30.7399 44.9359 26.2993C44.9797 22.1595 44.5969 15.1704 43.2625 11.5392C42.1359 8.46572 39.0953 7.34463 36.1859 6.44229C34.0969 5.79697 29.4867 4.54463 25.7406 4.17822C23.1539 3.92119 20.9336 4.38057 20.4141 4.55557C19.0906 4.99854 16.5531 6.42041 14.5625 7.60713C13.1187 8.47119 11.9102 9.25322 11.9102 9.25322C11.9102 9.25322 13.9062 9.03447 16.225 9.31338Z" fill="#2F2F2F"/>
    <path d="M68.5018 39.5937C67.8128 37.5156 65.6964 35.0547 63.3339 34.5461C62.3713 34.3383 60.9167 34.3656 59.6534 34.4476L59.0682 34.4804C56.3448 34.6172 53.6596 35.1422 51.3956 35.6398C45.7081 36.8922 39.2659 38.3086 33.1956 40.3593C32.7143 40.5234 32.2167 40.6875 31.7081 40.8515C28.4049 41.9343 24.6589 43.1539 21.9737 45.5437C20.4096 46.9383 19.1682 48.8906 18.3862 51.1765C17.3143 54.3265 17.1557 57.8211 17.9432 61.0093C19.3979 66.932 23.2096 67.7797 27.2456 68.6765C27.6776 68.7695 28.1315 68.8679 28.5909 68.9773C30.7401 69.4859 32.9276 69.7429 35.0823 69.7429C44.4831 69.7429 52.5276 65.0015 59.9706 60.1453C62.962 58.1875 65.144 56.35 66.812 54.3703C70.0823 50.5039 70.0167 44.1656 68.5018 39.5937Z" fill="#E4E3DE"/>
    <path d="M68.1457 38.7351C67.1613 39.0195 66.1824 39.3093 65.198 39.5937C55.1355 42.5304 44.7832 45.6093 36.6074 52.1718C34.6441 53.7468 32.741 55.6609 32.216 58.1218C31.691 60.5554 32.5879 63.2624 31.4941 65.5046C30.7012 67.1289 29.1043 68.0531 27.3652 68.7039C27.7645 68.7914 28.1691 68.8789 28.5957 68.9828C30.7449 69.4914 32.9324 69.7484 35.0871 69.7484C44.4879 69.7484 52.5324 65.007 59.9754 60.1507C62.9668 58.1929 65.1488 56.3554 66.8168 54.3757C70.0816 50.5148 70.016 44.171 68.5012 39.5992C68.4082 39.3148 68.2879 39.025 68.1457 38.7351Z" fill="#CDCBBF"/>
    <path d="M15.5038 47.2173C14.6233 49.8259 15.646 52.5766 18.6483 52.4016C22.1046 52.2048 25.8233 52.3087 29.2249 53.0196C31.5053 53.4954 33.7257 54.2884 36.0007 54.7477C37.2475 54.9993 38.8061 55.2618 40.1077 54.9774C41.185 54.7423 42.1366 53.9274 43.11 53.4352C47.146 51.3899 50.9139 48.9727 54.9991 47.0259C57.5366 45.8173 60.0358 44.5376 62.546 43.2798C64.6022 42.2516 67.9272 41.4204 68.928 39.0469C71.2139 33.6712 63.8311 29.5313 59.6475 28.5141C54.9936 27.3821 49.3444 26.9938 44.6741 28.1423C41.2397 28.9844 37.8272 29.9962 34.5514 31.3634C31.3522 32.7032 28.7491 34.5844 25.878 36.4165C22.8921 38.3251 19.753 40.7696 17.4889 43.5204C16.685 44.5048 15.9796 45.8118 15.5038 47.2173Z" fill="#EC6C30"/>
    <path d="M65.7945 31.407C66.2922 32.2601 65.9969 33.846 65.4008 34.6117C64.3727 35.9351 60.818 37.4718 59.5711 38.1226C56.3555 39.7906 48.5023 42.6945 46.1836 44.2093C43.5695 45.9101 39.8125 48.557 37.5102 50.657C35.6453 52.3578 33.7695 53.3039 31.4727 53.5773C32.982 53.9875 34.4805 54.4468 36.0008 54.7531C37.2477 55.0046 38.8062 55.2671 40.1078 54.9828C41.1852 54.7476 42.1367 53.9328 43.1102 53.4406C47.1461 51.3953 50.9141 48.9781 54.9992 47.0312C57.5367 45.8226 60.0359 44.5429 62.5461 43.2851C64.6023 42.257 67.9273 41.4257 68.9281 39.0523C70.2352 35.9843 68.3922 33.321 65.7945 31.407Z" fill="#D65B29"/>
    <path d="M53.3577 29.0664C55.7749 30.0507 57.6397 32.2984 58.1593 34.8578C58.1866 34.9836 58.2085 35.1148 58.1811 35.2461C58.1429 35.4211 58.0007 35.5632 57.8475 35.6562C57.2843 35.9789 56.535 35.6945 56.0975 35.2132C55.66 34.732 55.4413 34.0976 55.1514 33.5125C54.7304 32.6593 54.1452 31.8882 53.4343 31.2593C53.1116 30.975 52.7507 30.6906 52.6139 30.2859C52.4663 29.8648 52.6577 28.9625 53.3577 29.0664ZM43.5304 30.1328C45.2257 31.8445 46.6585 33.8132 47.7632 35.9515C48.2444 36.8812 48.6327 38.1171 48.4468 39.1507C48.2663 40.1789 47.7085 40.7148 46.7077 40.4086C46.0186 40.2171 45.6522 38.0296 45.1054 36.3398C44.7882 35.3609 43.8749 33.6546 43.2569 32.8289C42.6389 32.0031 41.7968 31.15 41.8077 30.1164C41.7639 29.7281 42.4585 29.3562 43.5304 30.1328ZM35.2671 32.7468C35.8413 33.0367 36.2022 33.5562 36.585 34.0703C36.8093 34.3765 36.9952 34.7101 37.1757 35.0437C38.5757 37.5922 40.0194 40.3703 39.6202 43.2468C39.5655 43.6406 39.4671 44.0453 39.2264 44.3679C38.9858 44.6851 38.5702 44.8984 38.1819 44.8C37.6624 44.6195 37.378 42.7437 36.9788 41.7211C36.8202 41.3164 36.6616 40.9062 36.5249 40.4961C35.8905 38.6148 35.6554 36.5859 34.7147 34.8468C34.4741 34.3984 34.1733 33.9336 34.2171 33.4304C34.2499 32.9109 34.8624 32.4461 35.2671 32.7468ZM26.2546 38.5273C26.3093 37.5976 27.5069 37.8875 27.753 38.5765C28.1358 39.6484 28.2999 40.6273 28.9124 41.5843C30.028 43.3179 30.3179 44.3625 30.2796 46.2547C30.2741 46.5773 30.2632 46.9109 30.1264 47.2062C29.7983 47.9172 28.6772 48.0703 28.1686 47.4687C27.7093 46.9273 27.835 46.1234 27.7475 45.4179C27.6436 44.5757 27.2116 43.8211 26.8944 43.039C26.2764 41.4804 25.9538 40.1789 26.2546 38.5273Z" fill="#F4865C"/>
    </g>
    <defs>
    <clipPath id="clip0_3937_63140">
    <rect width="70" height="70" fill="white"/>
    </clipPath>
    </defs>
    </svg>

