
    <svg width="70" height="70" viewBox="0 0 70 70" fill="none" xmlns="http://www.w3.org/2000/svg">
    <g clip-path="url(#clip0_3937_62144)">
    <path d="M51.4058 67.2163C51.2089 67.0031 51.0339 66.7679 50.8753 66.5218L47.9277 61.857C47.6968 61.4836 47.6227 61.0341 47.7215 60.6064C47.8203 60.1786 48.084 59.8072 48.4553 59.5729C48.8265 59.3386 49.2753 59.2604 49.7039 59.3553C50.1326 59.4502 50.5064 59.7105 50.7441 60.0796L53.6917 64.7445C53.9487 65.1492 54.3644 65.4226 54.8456 65.4827L55.2066 65.532C57.5253 65.8437 59.8386 65.1163 61.5558 63.5304C63.273 61.9445 64.1862 59.6968 64.055 57.3617C64.0411 57.0946 63.9608 56.8352 63.8214 56.607C63.682 56.3787 63.4878 56.1889 63.2566 56.0546L58.5097 53.2656C58.3208 53.155 58.1556 53.0081 58.0236 52.8335C57.8916 52.6589 57.7954 52.4599 57.7405 52.248C57.6857 52.0361 57.6732 51.8155 57.7038 51.5988C57.7345 51.382 57.8076 51.1735 57.9191 50.9851C58.0297 50.7962 58.1765 50.631 58.3511 50.499C58.5257 50.367 58.7247 50.2708 58.9366 50.216C59.1485 50.1611 59.3691 50.1486 59.5859 50.1792C59.8026 50.2099 60.0111 50.283 60.1995 50.3945L64.9464 53.1835C65.6516 53.596 66.2431 54.1773 66.6679 54.8751C67.0927 55.5729 67.3374 56.3654 67.38 57.1812C67.5605 60.5117 66.2589 63.7163 63.8144 65.9804C62.6105 67.0958 61.1746 67.9308 59.6097 68.4253C58.0448 68.9199 56.3898 69.0617 54.7636 68.8406L54.4027 68.7913C53.2515 68.629 52.1924 68.0723 51.4058 67.2163ZM4.85031 16.1765C4.06842 15.3189 3.61344 14.2134 3.56515 13.0538L3.55421 12.6874C3.41203 9.35697 4.75187 6.16869 7.22922 3.93744C9.70656 1.70619 13.0206 0.705408 16.3183 1.19213C17.9644 1.43275 19.3698 2.47728 20.0753 3.98119L22.4159 8.96322C22.5092 9.16102 22.5626 9.37529 22.573 9.59376C22.5833 9.81222 22.5505 10.0306 22.4763 10.2363C22.4021 10.4421 22.2881 10.6312 22.1407 10.7928C21.9934 10.9544 21.8156 11.0853 21.6175 11.1781C21.4197 11.2714 21.2054 11.3247 20.987 11.3351C20.7685 11.3455 20.5501 11.3126 20.3444 11.2384C20.1386 11.1643 19.9496 11.0502 19.788 10.9029C19.6264 10.7555 19.4954 10.5777 19.4027 10.3796L17.062 5.39759C16.8323 4.90541 16.373 4.56634 15.8316 4.48431C13.5183 4.14525 11.1995 4.84525 9.46046 6.40931C8.60415 7.17799 7.92897 8.12703 7.48357 9.18805C7.03817 10.2491 6.83363 11.3957 6.88468 12.5453L6.90109 12.9117C6.92296 13.3929 7.15265 13.8304 7.53 14.1257L11.905 17.489C12.2542 17.7588 12.4824 18.1559 12.5398 18.5934C12.5972 19.031 12.4791 19.4734 12.2112 19.8242C11.9414 20.1733 11.5444 20.4016 11.1068 20.4589C10.6693 20.5163 10.2268 20.3982 9.87609 20.1304L5.50109 16.7671C5.26593 16.5867 5.04718 16.3898 4.85031 16.1765Z" fill="#77A3AE"/>
    <path d="M56.6143 59.2017C69.7795 47.1925 70.7166 26.7845 58.7073 13.6193C46.698 0.45406 26.2901 -0.483011 13.1248 11.5263C-0.0403746 23.5356 -0.977445 43.9435 11.0318 57.1087C23.0411 70.2739 43.4491 71.211 56.6143 59.2017Z" fill="#77A3AE"/>
    <path d="M54.0751 56.4179C65.7029 45.8111 66.5305 27.7864 55.9237 16.1586C45.3168 4.53079 27.2921 3.70316 15.6643 14.31C4.03654 24.9168 3.20889 42.9416 13.8157 54.5693C24.4226 66.1971 42.4473 67.0248 54.0751 56.4179Z" fill="#F09300"/>
    <path d="M52.735 54.9554C49.0655 58.3022 43.6241 59.5929 39.0905 60.5116C30.2475 62.3108 22.7498 60.8069 16.2256 53.6538C12.392 49.4483 9.25297 42.6835 8.59672 37.4335C7.56312 29.1757 10.3248 23.0561 16.9366 17.0241C20.8795 13.4257 25.9491 11.0905 30.8545 10.2921C39.4022 8.89755 48.0592 11.5663 54.3319 18.4405C58.3405 22.8374 58.8436 28.1804 59.3795 33.6819C60.167 41.721 59.1608 49.0983 52.735 54.9554Z" fill="#FFB74D"/>
    <path d="M10.9923 29.6625C11.2931 30.0235 11.4845 30.4172 11.1782 30.5977C10.8939 30.7618 10.5165 30.4938 10.2267 30.1274C9.9751 29.8157 9.81651 29.4711 10.0517 29.2797C10.3306 29.0391 10.6696 29.3454 10.9923 29.6625ZM36.9032 21.3118C37.204 21.6727 37.3954 22.0665 37.0892 22.2469C36.8048 22.411 36.4274 22.143 36.1376 21.7766C35.886 21.4649 35.7274 21.1204 35.9626 20.929C36.247 20.6883 36.586 20.9946 36.9032 21.3118ZM28.1423 14.3282C27.7978 14.6454 27.4149 14.8586 27.2181 14.5579C27.0376 14.279 27.2892 13.8907 27.6392 13.5844C27.9399 13.3219 28.2735 13.1415 28.4814 13.3657C28.7329 13.6391 28.4431 13.9946 28.1423 14.3282ZM52.8993 50.4985C53.2001 50.8594 53.3915 51.2532 53.0853 51.4336C52.8009 51.5977 52.4235 51.3297 52.1337 50.9633C51.8821 50.6516 51.7235 50.3071 51.9587 50.1157C52.2376 49.875 52.5767 50.1813 52.8993 50.4985ZM53.2165 26.7313C53.4407 26.3211 53.7306 25.993 54.0149 26.2118C54.272 26.4141 54.1626 26.868 53.9384 27.2727C53.7415 27.6227 53.4845 27.8961 53.2165 27.754C52.8829 27.5735 53.0415 27.1469 53.2165 26.7313Z" fill="#FADA80"/>
    <path d="M43.2794 42.8641C43.5802 43.2251 43.7716 43.6188 43.4653 43.7993C43.181 43.9634 42.8036 43.6954 42.5138 43.329C42.2622 43.0173 42.1036 42.6727 42.3388 42.4813C42.6231 42.2407 42.9622 42.5469 43.2794 42.8641Z" fill="#F6ECBF"/>
    <path d="M17.8009 24.8063C18.1017 25.1672 18.2931 25.561 17.9868 25.7414C17.7024 25.9055 17.3251 25.6375 17.0353 25.2711C16.7837 24.9594 16.6251 24.6149 16.8603 24.4235C17.1446 24.1828 17.4837 24.4891 17.8009 24.8063ZM29.9306 57.0555C30.2314 57.4164 30.4228 57.8102 30.1165 57.9906C29.8321 58.1547 29.4548 57.8867 29.1649 57.5203C28.9134 57.2086 28.7548 56.8641 28.9899 56.6727C29.2743 56.4321 29.6134 56.7383 29.9306 57.0555Z" fill="#FADA80"/>
    <path d="M32.703 12.2172C33.1459 12.95 32.6647 13.5297 32.3092 14.0492C31.8553 14.7219 31.2811 14.3664 30.8819 13.9508C30.4827 13.5297 30.1545 12.9336 30.7999 12.4852C31.3522 12.1133 32.0194 11.9109 32.703 12.2172ZM53.1506 46.3313C53.5936 47.0641 53.1124 47.6438 52.7569 48.1633C52.303 48.8359 51.7288 48.4805 51.3295 48.0648C50.9303 47.6438 50.6022 47.0477 51.2475 46.5992C51.7944 46.2273 52.4616 46.025 53.1506 46.3313ZM40.9991 46.1617C40.6545 46.9492 39.9053 46.8836 39.2764 46.8945C38.467 46.9109 38.4233 46.2383 38.5381 45.6695C38.653 45.1008 38.9483 44.4883 39.6866 44.7617C40.3045 44.9969 40.8569 45.4234 40.9991 46.1617ZM19.6709 20.5188C19.3264 21.3063 18.5772 21.2406 17.9483 21.2516C17.1389 21.268 17.0952 20.5953 17.21 20.0266C17.3249 19.4578 17.6202 18.8453 18.3584 19.1188C18.9764 19.3539 19.5233 19.7805 19.6709 20.5188ZM42.3608 23.2422C42.8038 23.975 42.3225 24.5547 41.967 25.0742C41.5131 25.7469 40.9389 25.3914 40.5397 24.9758C40.1405 24.5547 39.8124 23.9586 40.4577 23.5102C41.0045 23.1383 41.6717 22.9359 42.3608 23.2422Z" fill="#689F38"/>
    <path d="M54.808 21.8422C55.251 22.575 54.7697 23.1547 54.4142 23.6742C53.9603 24.3469 53.3861 23.9914 52.9869 23.5758C52.5877 23.1547 52.2596 22.5586 52.9049 22.1101C53.4517 21.7383 54.1189 21.5359 54.808 21.8422ZM57.3838 40.7695C57.8267 41.5023 57.3455 42.082 56.99 42.6015C56.5361 43.2742 55.9619 42.9187 55.5627 42.5031C55.1635 42.082 54.8353 41.4859 55.4806 41.0375C56.0275 40.6656 56.6947 40.4633 57.3838 40.7695ZM26.0588 55.8414C26.5017 56.5742 26.0205 57.1539 25.665 57.6734C25.2111 58.3461 24.6369 57.9906 24.2377 57.575C23.8385 57.1539 23.5103 56.5578 24.1556 56.1094C24.708 55.732 25.3752 55.5297 26.0588 55.8414ZM15.5096 43.4711C15.9525 44.2039 15.4713 44.7836 15.1158 45.3031C14.6619 45.9758 14.0877 45.6203 13.6885 45.2047C13.2892 44.7836 12.9611 44.1875 13.6064 43.739C14.1533 43.3672 14.8205 43.1648 15.5096 43.4711ZM14.9791 24.7515C15.4221 25.4844 14.9408 26.064 14.5853 26.5836C14.1314 27.2562 13.5572 26.9008 13.158 26.4851C12.7588 26.064 12.4306 25.4679 13.076 25.0195C13.6283 24.6476 14.2955 24.4453 14.9791 24.7515ZM38.2158 12.2883C38.6588 13.0211 38.1775 13.6008 37.8221 14.1203C37.3681 14.7929 36.7939 14.4375 36.3947 14.0219C35.9955 13.6008 35.6674 13.0047 36.3127 12.5562C36.865 12.1789 37.5322 11.9765 38.2158 12.2883Z" fill="#E64A19"/>
    <path d="M34.6005 55.9399C35.4974 56.2188 35.5193 57.0392 35.6068 57.7228C35.7216 58.5978 34.9997 58.7235 34.3654 58.6743C33.731 58.6196 33.031 58.3681 33.2388 57.5368C33.4193 56.8313 33.8185 56.186 34.6005 55.9399ZM56.9185 28.6235C57.8154 28.9024 57.8372 29.7228 57.9247 30.4063C58.0396 31.2813 57.3177 31.4071 56.6833 31.3579C56.049 31.3032 55.349 31.0517 55.5568 30.2204C55.7372 29.5149 56.1365 28.8696 56.9185 28.6235ZM18.3474 49.6837C18.9599 49.711 19.1677 50.0118 19.0091 50.6079C18.8669 51.1438 18.856 51.8657 18.0357 51.6142C17.4341 51.4337 16.6466 51.1001 16.8599 50.3017C17.0185 49.7165 17.7896 49.7657 18.3474 49.6837ZM26.7201 32.5556C26.9388 33.1298 26.7474 33.436 26.1349 33.529C25.588 33.611 24.9208 33.8845 24.8224 33.0313C24.7513 32.4079 24.7458 31.5548 25.5607 31.4345C26.1677 31.347 26.4247 32.0743 26.7201 32.5556Z" fill="#689F38"/>
    <path d="M30.0395 43.7499C28.5191 43.2194 28.4207 42.0765 29.1098 40.9444C29.7879 39.8343 30.8598 39.6812 31.9535 40.5397C31.9371 40.8952 32.5168 41.289 31.8824 41.6062C30.7395 41.4202 29.7441 41.3929 30.302 43.0554C30.3074 43.3233 30.2199 43.553 30.0395 43.7499Z" fill="#F6ECBF"/>
    <path d="M31.976 41.4914C31.9705 41.1742 31.9596 40.857 31.9541 40.5398C32.7143 41.2453 32.7854 42.1093 32.3205 42.946C31.8338 43.8265 31.0025 44.0562 30.04 43.75C30.0455 43.575 30.051 43.3945 30.0619 43.2195C30.74 42.689 31.3963 42.1312 31.976 41.4914Z" fill="#F6ECBF"/>
    <path d="M31.9759 41.4914C32.1947 43.0172 31.4345 43.4546 30.0618 43.214C29.3509 42.514 28.9243 41.7703 29.8814 40.9664C30.7837 40.2172 31.3962 40.8297 31.9759 41.4914Z" fill="#FFA726"/>
    <path d="M29.9145 32.632C28.3941 32.1015 28.2957 30.9585 28.9848 29.8265C29.6629 28.7164 30.7348 28.5632 31.8285 29.4218C31.8121 29.7773 32.3918 30.171 31.7574 30.4882C30.6145 30.3023 29.6191 30.275 30.177 31.9375C30.1824 32.2054 30.0949 32.4351 29.9145 32.632Z" fill="#F6ECBF"/>
    <path d="M31.85 30.3734C31.8445 30.0563 31.8336 29.7391 31.8281 29.4219C32.5883 30.1273 32.6594 30.9914 32.1945 31.8281C31.7078 32.7086 30.8766 32.9383 29.9141 32.632C29.9195 32.457 29.925 32.2766 29.9359 32.1016C30.6141 31.5711 31.2703 31.0133 31.85 30.3734Z" fill="#F6ECBF"/>
    <path d="M31.8499 30.3735C32.0687 31.8993 31.3085 32.3368 29.9359 32.0962C29.2249 31.3962 28.7984 30.6524 29.7554 29.8485C30.6577 29.0993 31.2702 29.7172 31.8499 30.3735Z" fill="#FFA726"/>
    <path d="M40.9994 38.2704C39.4791 37.7399 39.3807 36.597 40.0697 35.4649C40.7479 34.3548 41.8197 34.2017 42.9135 35.0603C42.8971 35.4157 43.4768 35.8095 42.8424 36.1267C41.6994 35.9407 40.7041 35.9134 41.2619 37.5759C41.2674 37.8438 41.1799 38.0735 40.9994 38.2704Z" fill="#F6ECBF"/>
    <path d="M42.935 36.0116C42.9295 35.6944 42.9186 35.3772 42.9131 35.0601C43.6732 35.7655 43.7443 36.6296 43.2795 37.4663C42.7928 38.3468 41.9615 38.5765 40.999 38.2702C41.0045 38.0952 41.01 37.9147 41.0209 37.7397C41.699 37.2038 42.3553 36.6515 42.935 36.0116Z" fill="#F6ECBF"/>
    <path d="M42.9349 36.0116C43.1536 37.5374 42.3935 37.9749 41.0208 37.7343C40.3099 37.0343 39.8833 36.2905 40.8404 35.4866C41.7427 34.7374 42.3552 35.3499 42.9349 36.0116Z" fill="#FFA726"/>
    <path d="M11.6044 34.6773C11.7903 37.6195 14.0051 39.9547 16.7942 40.4086C17.2262 40.4797 17.6145 40.1242 17.5872 39.6867L16.9036 28.9515C16.8762 28.514 16.4497 28.2132 16.0286 28.3336C13.3161 29.1375 11.4184 31.7297 11.6044 34.6773Z" fill="#F7CB4D"/>
    <path d="M15.7171 29.761C15.165 30.0157 14.6645 30.3698 14.2405 30.8056C14.071 30.9806 14.0764 31.2485 14.2624 31.4071L16.0069 32.9438C16.1929 33.1079 16.4772 32.9657 16.4608 32.7196L16.2968 30.1165C16.2749 29.8267 15.9796 29.6407 15.7171 29.761ZM16.8382 38.604L16.6741 36.0228C16.6704 35.9686 16.6508 35.9166 16.6177 35.8736C16.5846 35.8305 16.5395 35.7982 16.4881 35.7806C16.4366 35.7631 16.3812 35.7612 16.3287 35.775C16.2761 35.7889 16.2289 35.818 16.1929 35.8587L14.6671 37.5923C14.5085 37.7728 14.5358 38.0407 14.7272 38.1884C15.1921 38.5548 15.728 38.8446 16.3077 39.0251C16.5811 39.1126 16.8546 38.8884 16.8382 38.604ZM13.2944 32.1728C13.0647 32.6595 12.9171 33.1845 12.8569 33.7368C12.8296 33.9884 13.0374 34.2071 13.2944 34.1907L15.5202 34.0485C15.7663 34.0321 15.8647 33.7313 15.6843 33.5673L13.9452 32.036C13.8966 31.9938 13.8388 31.9634 13.7765 31.9472C13.7141 31.9311 13.6489 31.9295 13.5858 31.9428C13.5228 31.956 13.4637 31.9837 13.4131 32.0236C13.3626 32.0635 13.3219 32.1145 13.2944 32.1728ZM12.9499 35.3774C13.0778 35.9402 13.3016 36.4766 13.6116 36.9634C13.7593 37.1931 14.0874 37.2149 14.2624 37.0071L15.8702 35.1806C16.0343 34.9946 15.8921 34.7103 15.646 34.7267L13.3218 34.8743C13.0702 34.8907 12.8952 35.1313 12.9499 35.3774Z" fill="#FEF6E0"/>
    <path d="M46.0742 16.3134C43.3617 15.154 40.2828 16.0782 38.6203 18.3642C38.3633 18.7196 38.5055 19.2227 38.9102 19.3977L48.7977 23.6251C49.2023 23.8001 49.6617 23.554 49.7437 23.122C50.2469 20.3384 48.7867 17.4727 46.0742 16.3134Z" fill="#F7CB4D"/>
    <path d="M48.6061 22.2031C48.6277 21.5956 48.5369 20.9894 48.3381 20.4149C48.321 20.3608 48.2928 20.311 48.2553 20.2685C48.2178 20.226 48.1718 20.1919 48.1203 20.1682C48.0688 20.1445 48.013 20.1318 47.9563 20.131C47.8996 20.1302 47.8434 20.1412 47.7913 20.1633L45.6366 21.0274C45.4123 21.1203 45.4069 21.4375 45.6311 21.536L48.0319 22.5641C48.2944 22.6735 48.5952 22.4875 48.6061 22.2031ZM40.2061 19.2117L42.5905 20.2344C42.6404 20.2559 42.6956 20.2621 42.7491 20.252C42.8025 20.242 42.8518 20.2163 42.8905 20.1781C42.9293 20.1399 42.9558 20.0911 42.9666 20.0378C42.9775 19.9845 42.9722 19.9292 42.9514 19.8789L42.0928 17.7352C42.0728 17.6824 42.0419 17.6345 42.0022 17.5944C41.9625 17.5543 41.9149 17.5229 41.8623 17.5023C41.8098 17.4817 41.7535 17.4724 41.6972 17.4748C41.6408 17.4772 41.5856 17.4914 41.535 17.5164C40.9936 17.768 40.4959 18.118 40.0748 18.55C40.0283 18.5975 39.9941 18.6556 39.9751 18.7193C39.9561 18.783 39.9529 18.8503 39.9658 18.9155C39.9787 18.9807 40.0074 19.0418 40.0493 19.0934C40.0911 19.145 40.145 19.1856 40.2061 19.2117ZM47.5452 18.9547C47.2071 18.5268 46.8028 18.1557 46.3475 17.8555C46.297 17.8232 46.2401 17.8023 46.1807 17.7943C46.1213 17.7862 46.0609 17.7912 46.0036 17.8089C45.9463 17.8266 45.8936 17.8566 45.8491 17.8968C45.8046 17.9369 45.7694 17.9863 45.7459 18.0414L44.8709 20.0922C44.8494 20.1422 44.8433 20.1974 44.8533 20.2508C44.8633 20.3043 44.8891 20.3535 44.9272 20.3923C44.9654 20.431 45.0142 20.4575 45.0675 20.4684C45.1208 20.4792 45.1761 20.4739 45.2264 20.4532L47.3756 19.5891C47.4348 19.5654 47.4876 19.5282 47.5298 19.4805C47.5721 19.4328 47.6027 19.3759 47.6191 19.3143C47.6356 19.2528 47.6375 19.1882 47.6246 19.1258C47.6118 19.0634 47.5846 19.0048 47.5452 18.9547ZM44.8381 17.1992C44.2694 17.0571 43.6897 17.0188 43.1264 17.0789C43.0634 17.086 43.0028 17.1077 42.9495 17.1421C42.8963 17.1766 42.8517 17.2229 42.8194 17.2775C42.787 17.3321 42.7678 17.3935 42.7632 17.4567C42.7586 17.52 42.7687 17.5835 42.7928 17.6422L43.7006 19.9008C43.7936 20.125 44.1108 20.1305 44.2092 19.9063L45.1225 17.7625C45.1455 17.7072 45.1563 17.6475 45.1541 17.5876C45.1519 17.5277 45.1368 17.469 45.1098 17.4155C45.0828 17.362 45.0445 17.315 44.9976 17.2776C44.9507 17.2403 44.8963 17.2136 44.8381 17.1992Z" fill="#FEF6E0"/>
    <path d="M44.6254 56.0875C47.666 54.671 49.2246 51.3625 48.5465 48.2179C48.4426 47.7312 47.9066 47.4687 47.4527 47.6765L36.3676 52.8445C36.2612 52.8939 36.1673 52.9667 36.0928 53.0573C36.0183 53.148 35.9652 53.2542 35.9374 53.3682C35.9095 53.4821 35.9077 53.6009 35.932 53.7157C35.9563 53.8305 36.0061 53.9383 36.0777 54.0312C38.052 56.5687 41.5848 57.5039 44.6254 56.0875Z" fill="#F7CB4D"/>
    <path d="M37.718 53.7633C38.2211 54.25 38.8008 54.6273 39.4297 54.8953C39.6813 55.0047 39.9656 54.8844 40.0586 54.6273L40.9664 52.1445C41.0594 51.882 40.7914 51.6359 40.5398 51.7562L37.8492 53.0086C37.5594 53.1453 37.4828 53.539 37.718 53.7633ZM46.6266 48.9234L43.9578 50.1648C43.7063 50.2797 43.7227 50.6461 43.9852 50.739L46.4516 51.6359C46.7086 51.7289 46.982 51.5922 47.0641 51.3297C47.2609 50.6844 47.343 49.9953 47.2938 49.3062C47.2873 49.2309 47.2627 49.1583 47.222 49.0946C47.1814 49.0308 47.1259 48.9779 47.0603 48.9403C46.9947 48.9026 46.921 48.8815 46.8455 48.8785C46.77 48.8756 46.6949 48.891 46.6266 48.9234ZM41.2727 55.3328C41.8797 55.3711 42.5031 55.3164 43.1102 55.1523C43.3891 55.0758 43.5367 54.764 43.4109 54.5015L42.3391 52.2047C42.2242 51.9531 41.8578 51.9695 41.7648 52.232L40.8625 54.7094C40.8388 54.7775 40.8311 54.8502 40.84 54.9218C40.8489 54.9934 40.8742 55.0619 40.9139 55.1222C40.9535 55.1825 41.0065 55.2328 41.0687 55.2693C41.1309 55.3058 41.2007 55.3276 41.2727 55.3328ZM44.8109 54.3758C45.3633 54.0039 45.8336 53.539 46.2164 53.0195C46.2588 52.9608 46.2868 52.893 46.2983 52.8215C46.3098 52.75 46.3045 52.6768 46.2827 52.6078C46.2609 52.5387 46.2233 52.4757 46.1729 52.4238C46.1224 52.3718 46.0606 52.3324 45.9922 52.3086L43.3891 51.3625C43.1266 51.2695 42.8805 51.5375 43.0008 51.789L44.1219 54.1898C44.2477 54.4469 44.5758 54.5344 44.8109 54.3758Z" fill="#FEF6E0"/>
    <path d="M22.4489 39.5225C23.0614 38.0733 24.4997 38.0515 25.7028 37.7288C26.8239 37.428 28.0107 37.3897 29.17 37.2366C29.8536 37.9147 30.4224 37.9858 30.7669 36.9304C31.7567 36.3725 32.4349 38.2429 33.5122 37.1655C32.9435 38.1882 31.8989 38.4561 31.0622 39.2655C31.4724 39.3858 31.8169 39.4843 32.2544 39.6155C30.6575 41.3272 28.481 42.0327 26.6489 43.2577C26.4083 43.5804 26.0747 43.7554 25.6864 43.8429C23.5372 43.6132 22.088 41.6827 22.4489 39.5225ZM19.6927 47.7366C19.3646 46.6046 19.0419 45.4725 19.731 43.9358C21.2403 46.2819 24.713 45.2921 25.8778 48.1358C24.7732 48.5897 24.5763 45.4725 23.3075 47.7366C22.1044 48.6225 20.9013 48.6554 19.6927 47.7366Z" fill="#FF5722"/>
    <path d="M25.1507 45.2757C23.078 45.8062 21.6015 44.6304 20.1523 43.4765C19.4577 42.9187 19.9335 42.1968 20.2398 41.6226C20.5569 41.032 20.9999 40.5179 21.3882 39.9656C21.6562 39.8179 21.8968 39.9109 21.9679 40.1624C22.5312 42.0656 23.8765 43.3835 25.271 44.6741L25.2273 44.7452C25.3913 44.9531 25.364 45.1281 25.1507 45.2757Z" fill="#FF5722"/>
    <path d="M26.4902 52.2922C28.273 51.2805 30.0504 50.2524 31.8496 49.268C32.1559 49.0985 32.6152 49.0493 32.8559 49.4321C33.266 50.0883 32.8449 50.5969 32.4676 51.0891C31.1168 53.0414 28.1199 53.643 26.4902 52.2922Z" fill="#DC2E07"/>
    <path d="M23.7068 48.6446C24.1061 49.8696 23.4498 50.9797 22.4982 51.1274C20.9725 51.3571 20.5842 49.804 20.0537 48.6774C21.2678 47.9774 22.4873 47.9993 23.7068 48.6446ZM26.4904 52.2922C28.7326 53.1508 30.6357 52.2977 32.4678 51.0946C33.2607 51.9368 33.0092 52.4727 31.9975 52.8501C30.3131 53.479 28.5686 53.4626 26.8186 53.4243C25.5607 53.3969 26.6873 52.6477 26.4904 52.2922Z" fill="#FF5722"/>
    <path d="M25.2764 44.6741C22.8811 44.0124 22.2686 41.8741 21.3936 39.9601C21.6232 39.5226 22.0607 39.5772 22.449 39.5171C23.0506 42.1257 24.1389 43.3999 25.96 43.6187C26.3373 43.5202 26.4467 43.6624 26.3154 44.0179C25.8342 44.0233 25.4568 44.1929 25.2764 44.6741Z" fill="#E64A19"/>
    <path d="M26.108 52.0078C25.9549 52.6203 25.6924 53.211 25.0088 53.0414C24.2869 52.861 23.2041 52.7789 23.1713 51.8656C23.1494 51.3078 24.0026 50.6953 24.6916 50.761C25.326 50.8211 25.9713 51.2313 26.108 52.0078Z" fill="#FF5722"/>
    <path d="M23.7068 48.6446L20.0592 48.6774C19.9389 48.3657 19.8186 48.054 19.6982 47.7368H23.3186C23.4443 48.0431 23.5756 48.3438 23.7068 48.6446Z" fill="#E64A19"/>
    <path d="M30.7668 36.925C31.1496 37.6523 31.1059 38.3523 30.2418 38.5492C29.2246 38.7789 29.252 37.9039 29.1699 37.2312C29.6184 36.6844 30.1652 36.6734 30.7668 36.925Z" fill="#4F2F27"/>
    <path d="M26.3152 44.0233C26.1949 43.8921 26.0746 43.7608 25.9598 43.6241C26.1074 43.3397 26.3699 43.2741 26.6598 43.2522C27.3816 44.089 28.6559 44.4062 29.1371 46.0687C27.9559 45.2866 27.3543 44.3022 26.3152 44.0233ZM25.1504 45.2757L25.2324 44.7452C26.3316 45.1991 27.2121 45.8444 27.1137 47.3702L25.1504 45.2757ZM35.2895 23.6468C36.3121 24.828 35.6996 26.1296 35.459 27.3491C35.2348 28.4812 34.748 29.564 34.3707 30.6687C33.4629 30.9804 33.1457 31.4562 33.9441 32.2327C34.0043 33.3593 32.0355 33.1405 32.5223 34.5843C31.8605 33.6272 32.0793 32.5718 31.7238 31.4671C31.434 31.7843 31.1934 32.0468 30.8871 32.3804C30.0613 30.1983 30.3895 27.9397 30.0996 25.7632C29.9191 25.4022 29.9082 25.0304 30.0012 24.6476C31.1496 22.8155 33.5176 22.3671 35.2895 23.6468ZM29.1535 17.5601C30.3129 17.7679 31.4668 17.9757 32.5332 19.2718C29.7715 19.589 29.1262 23.1272 26.0691 22.914C26.1512 21.7272 29.0223 22.9249 27.5566 20.7921C27.3051 19.3265 27.8082 18.2382 29.1535 17.5601Z" fill="#FF5722"/>
    <path d="M28.9512 23.5211C29.3887 21.4375 31.0949 20.6282 32.7629 19.8516C33.5668 19.4743 34.0043 20.218 34.3816 20.7485C34.7699 21.2899 35.0379 21.9133 35.3551 22.5039C35.3715 22.8102 35.1801 22.9797 34.923 22.936C32.9707 22.5969 31.1988 23.2204 29.4324 23.8985L29.3887 23.8274C29.1371 23.8821 28.9895 23.7782 28.9512 23.5211Z" fill="#FF5722"/>
    <path d="M22.0878 21.6289C22.2081 23.6688 22.3394 25.7086 22.4269 27.7539C22.4433 28.1039 22.2847 28.5359 21.8362 28.5797C21.0651 28.6563 20.8026 28.0602 20.5237 27.4969C19.3808 25.4406 20.1628 22.493 22.0878 21.6289Z" fill="#DC2E07"/>
    <path d="M26.5777 20.7484C25.3034 20.5625 24.6034 19.4851 24.8933 18.5773C25.3636 17.1117 26.9167 17.4507 28.1581 17.4726C28.2511 18.8617 27.6933 19.939 26.5777 20.7484ZM22.0878 21.6289C20.3323 23.2585 20.2558 25.3312 20.5237 27.4968C19.4191 27.8359 19.0527 27.3765 19.162 26.2992C19.3425 24.5218 20.13 22.9632 20.9339 21.4156C21.5136 20.3109 21.6831 21.6507 22.0878 21.6289Z" fill="#FF5722"/>
    <path d="M29.4326 23.9039C31.0787 22.0554 33.2607 22.4492 35.3607 22.5093C35.6506 22.9085 35.41 23.2749 35.2896 23.6468C32.692 23.0343 31.0732 23.4445 30.0725 24.9757C29.9959 25.3585 29.8209 25.3914 29.5584 25.1179C29.7717 24.6859 29.7881 24.2757 29.4326 23.9039Z" fill="#E64A19"/>
    <path d="M22.515 21.4102C22.0338 21.0055 21.6236 20.5079 22.0775 19.972C22.5588 19.4032 23.1057 18.479 23.9369 18.8509C24.4455 19.0805 24.6205 20.1087 24.2541 20.6938C23.915 21.2352 23.2697 21.6345 22.515 21.4102Z" fill="#FF5722"/>
    <path d="M26.5781 20.7484C27.1031 19.6547 27.6336 18.5609 28.1586 17.4727C28.4922 17.5 28.8258 17.5328 29.1594 17.5602C28.6289 18.6375 28.0984 19.7148 27.5625 20.7922C27.2344 20.7812 26.9062 20.7648 26.5781 20.7484Z" fill="#E64A19"/>
    <path d="M33.9393 32.2274C33.119 32.2493 32.512 31.8993 32.7198 31.0407C32.9604 30.0289 33.7315 30.4391 34.3714 30.6633C34.6667 31.3032 34.4315 31.8008 33.9393 32.2274Z" fill="#4F2F27"/>
    <path d="M29.5588 25.1179C29.7283 25.0687 29.9033 25.0194 30.0729 24.9757C30.2588 25.2327 30.2041 25.4952 30.0947 25.7632C29.0283 26.0366 28.1807 27.0429 26.4854 26.7366C27.7104 26.0312 28.8479 25.9218 29.5588 25.1179ZM28.9518 23.521C29.0994 23.6249 29.2416 23.7288 29.3893 23.8272C28.4979 24.6147 27.5354 25.1124 26.2119 24.3522C27.1252 24.0788 28.0385 23.7999 28.9518 23.521ZM43.7557 43.8866C42.115 44.2147 41.2346 42.9569 40.2283 42.0929C39.2932 41.2835 38.5494 40.2663 37.7182 39.3366C37.9041 38.3304 37.6307 37.789 36.4932 38.1116C35.4104 37.5757 36.6572 35.8585 35.0549 35.5522C36.2908 35.4429 37.1549 36.203 38.3689 36.4546C38.2268 36.0226 38.1119 35.6562 37.9588 35.1968C40.4197 35.5796 42.3447 37.0726 44.5213 37.953C44.9533 37.9749 45.3033 38.1663 45.615 38.4507C46.7088 40.4741 45.8721 42.9132 43.7557 43.8866ZM52.6369 41.3983C51.8385 42.3663 51.0291 43.3288 49.2627 43.6351C50.4221 40.9062 47.4744 38.4343 49.2846 35.7108C50.3455 36.4108 47.7205 38.4507 50.4713 38.2101C51.9697 38.746 52.7189 39.7851 52.6369 41.3983Z" fill="#FF5722"/>
    <path d="M47.2062 38.0626C48.9124 39.5665 48.7593 41.5735 48.6062 43.5368C48.5296 44.4829 47.6109 44.4938 46.9164 44.5649C46.2109 44.6415 45.489 44.5595 44.7726 44.5431C44.4828 44.3954 44.4226 44.1274 44.6031 43.9142C45.9429 42.279 46.2984 40.3048 46.5992 38.3087L46.6867 38.3032C46.7796 38.0462 46.9492 37.9642 47.2062 38.0626Z" fill="#FF5722"/>
    <path d="M52.5817 32.6866C50.6239 31.7186 48.6552 30.7726 46.7138 29.7772C46.3802 29.6077 46.063 29.2358 46.2599 28.7929C46.5935 28.0382 47.288 28.1038 47.9552 28.1476C50.4708 28.164 52.795 30.4444 52.5817 32.6866Z" fill="#DC2E07"/>
    <path d="M51.034 37.3188C51.8762 36.236 53.2488 36.1485 53.9379 36.8977C55.0535 38.1063 53.916 39.3751 53.2434 40.5126C51.9035 39.8672 51.198 38.7844 51.034 37.3188ZM52.5816 32.6868C51.9965 30.1985 50.1098 29.0336 47.9551 28.1422C48.223 26.9391 48.841 26.8407 49.7816 27.5079C51.3402 28.6125 52.3684 30.1602 53.3855 31.7243C54.1074 32.8454 52.773 32.304 52.5816 32.6868Z" fill="#FF5722"/>
    <path d="M46.5992 38.3141C47.4469 40.8187 45.932 42.6344 44.7727 44.5539C44.2477 44.6141 44.0344 44.1984 43.75 43.8867C45.6914 41.7977 46.1617 40.075 45.2648 38.3414C44.9531 38.068 45.0133 37.8875 45.4016 37.7891C45.6914 38.2156 46.0687 38.4453 46.5992 38.3141Z" fill="#E64A19"/>
    <path d="M52.5605 33.2007C53.1895 32.9655 53.8676 32.8507 54.1246 33.5507C54.398 34.2945 54.9723 35.2952 54.1848 35.8694C53.7035 36.2194 52.659 35.8366 52.3035 35.1913C51.9863 34.5952 51.959 33.7804 52.5605 33.2007Z" fill="#FF5722"/>
    <path d="M51.0346 37.3188C51.7729 38.3853 52.5111 39.4517 53.2439 40.5126C53.0416 40.8079 52.8393 41.0978 52.6314 41.3931C51.9096 40.3321 51.1877 39.2712 50.4658 38.2048C50.6627 37.9149 50.8486 37.6142 51.0346 37.3188Z" fill="#E64A19"/>
    <path d="M36.4932 38.1117C36.9033 37.3406 37.5486 36.9578 38.2377 37.6031C39.0471 38.3578 38.2596 38.8609 37.7182 39.3367C36.9689 39.271 36.6299 38.7898 36.4932 38.1117Z" fill="#4F2F27"/>
    <path d="M45.4019 37.7891C45.3582 37.975 45.309 38.1555 45.2652 38.3415C44.9262 38.3797 44.7129 38.1883 44.5215 37.9477C44.8277 36.8102 44.341 35.4977 45.5223 34.0813C45.5332 35.5907 45.0301 36.7063 45.4019 37.7891ZM47.2066 38.0625C47.0371 38.1446 46.8621 38.2266 46.6926 38.3032C46.4355 37.0618 46.4738 35.9024 47.8793 35.0766C47.6496 36.0719 47.4309 37.0672 47.2066 38.0625Z" fill="#FF5722"/>
    </g>
    <defs>
    <clipPath id="clip0_3937_62144">
    <rect width="70" height="70" fill="white"/>
    </clipPath>
    </defs>
    </svg>
