<svg width="406" height="384" viewBox="0 0 406 384" fill="none" xmlns="http://www.w3.org/2000/svg">
<path  d="M0 0H406V272.514C406 334.046 349.651 384 280.241 384H0V0Z" fill="#27AE60"/>
<path d="M205.167 309.536C224.79 312.979 245.442 313.288 264.176 306.504C282.909 299.72 299.465 285.004 304.942 265.833C310.419 246.661 297.696 229.898 286.682 213.28C272.185 191.401 266.942 163.768 260.623 138.29C256.115 120.121 245.704 103.47 231.343 91.4718C216.987 79.4732 195.941 72.2628 177.283 70.9416C145.677 68.7022 113.331 81.5956 91.9156 104.97C70.5001 128.344 60.4594 161.706 65.4119 193.031C70.472 225.012 89.6172 253.844 115.138 273.737C140.659 293.634 173.299 303.951 205.162 309.54L205.167 309.536Z" fill="#FF0000"/>
<path d="M184.084 95.1495C185.4 95.1495 186.466 94.0819 186.466 92.7648C186.466 91.4478 185.4 90.3801 184.084 90.3801C182.768 90.3801 181.701 91.4478 181.701 92.7648C181.701 94.0819 182.768 95.1495 184.084 95.1495Z" fill="#FFBE00"/>
<path d="M124.729 119.652C124.729 118.335 123.662 117.267 122.347 117.267C121.031 117.267 119.964 118.335 119.964 119.652C119.964 120.968 121.031 122.036 122.347 122.036C123.662 122.036 124.729 120.968 124.729 119.652Z" fill="#FF9A7D"/>
<path d="M96.8587 206.19C96.8587 204.874 95.7915 203.806 94.4761 203.806C93.1608 203.806 92.0935 204.874 92.0935 206.19C92.0935 207.507 93.1608 208.575 94.4761 208.575C95.7915 208.575 96.8587 207.507 96.8587 206.19Z" fill="#FF9A7D"/>
<path d="M245.938 294.993C245.938 293.676 244.871 292.608 243.556 292.608C242.24 292.608 241.173 293.676 241.173 294.993C241.173 296.309 242.24 297.377 243.556 297.377C244.871 297.377 245.938 296.309 245.938 294.993Z" fill="#FF6400"/>
<path d="M324.34 239.853C324.34 238.537 323.273 237.469 321.957 237.469C320.642 237.469 319.575 238.537 319.575 239.853C319.575 241.17 320.642 242.238 321.957 242.238C323.273 242.238 324.34 241.17 324.34 239.853Z" fill="#FF6400"/>
<path d="M342.203 190.903C343.518 190.903 344.585 189.836 344.585 188.519C344.585 187.202 343.518 186.134 342.203 186.134C340.887 186.134 339.82 187.202 339.82 188.519C339.82 189.836 340.887 190.903 342.203 190.903Z" fill="#FF6400"/>
<path d="M173.407 101.783C173.407 100.467 172.34 99.3985 171.024 99.3985C169.709 99.3985 168.642 100.467 168.642 101.783C168.642 103.1 169.709 104.168 171.024 104.168C172.34 104.168 173.407 103.1 173.407 101.783Z" fill="#FF6400"/>
<path d="M228.544 104.071C229.34 104.071 229.986 103.424 229.986 102.628C229.986 101.831 229.34 101.185 228.544 101.185C227.748 101.185 227.102 101.831 227.102 102.628C227.102 103.424 227.748 104.071 228.544 104.071Z" fill="#FFBE00"/>
<path d="M143.401 118.204C143.401 117.408 142.755 116.761 141.96 116.761C141.164 116.761 140.518 117.408 140.518 118.204C140.518 119.001 141.164 119.647 141.96 119.647C142.755 119.647 143.401 119.001 143.401 118.204Z" fill="white"/>
<path d="M113.373 141.134C113.373 140.337 112.727 139.691 111.931 139.691C111.136 139.691 110.49 140.337 110.49 141.134C110.49 141.93 111.136 142.577 111.931 142.577C112.727 142.577 113.373 141.93 113.373 141.134Z" fill="white"/>
<path d="M86.6866 128.043C86.6866 127.247 86.0407 126.6 85.2449 126.6C84.4491 126.6 83.8032 127.247 83.8032 128.043C83.8032 128.84 84.4491 129.486 85.2449 129.486C86.0407 129.486 86.6866 128.84 86.6866 128.043Z" fill="white"/>
<path d="M103.281 150.663C103.281 149.866 102.635 149.22 101.839 149.22C101.044 149.22 100.398 149.866 100.398 150.663C100.398 151.459 101.044 152.106 101.839 152.106C102.635 152.106 103.281 151.459 103.281 150.663Z" fill="#FFBE00"/>
<path d="M82.8297 193.76C83.626 193.76 84.2715 193.114 84.2715 192.317C84.2715 191.52 83.626 190.874 82.8297 190.874C82.0335 190.874 81.388 191.52 81.388 192.317C81.388 193.114 82.0335 193.76 82.8297 193.76Z" fill="#FF6400"/>
<path d="M261.657 283.763C261.657 282.966 261.011 282.32 260.215 282.32C259.419 282.32 258.773 282.966 258.773 283.763C258.773 284.559 259.419 285.206 260.215 285.206C261.011 285.206 261.657 284.559 261.657 283.763Z" fill="#FF9A7D"/>
<path d="M262.364 300.227C262.364 299.43 261.718 298.784 260.922 298.784C260.127 298.784 259.481 299.43 259.481 300.227C259.481 301.023 260.127 301.67 260.922 301.67C261.718 301.67 262.364 301.023 262.364 300.227Z" fill="#FFBE00"/>
<path d="M337.278 229.322C337.278 228.525 336.632 227.879 335.837 227.879C335.041 227.879 334.395 228.525 334.395 229.322C334.395 230.118 335.041 230.765 335.837 230.765C336.632 230.765 337.278 230.118 337.278 229.322Z" fill="#FFBE00"/>
<path d="M316.378 199.392C316.378 198.595 315.732 197.949 314.936 197.949C314.14 197.949 313.494 198.595 313.494 199.392C313.494 200.188 314.14 200.835 314.936 200.835C315.732 200.835 316.378 200.188 316.378 199.392Z" fill="#FF9A7D"/>
<path d="M342.764 161.772C343.561 161.772 344.206 161.126 344.206 160.329C344.206 159.532 343.561 158.886 342.764 158.886C341.968 158.886 341.323 159.532 341.323 160.329C341.323 161.126 341.968 161.772 342.764 161.772Z" fill="white"/>
<path d="M296.615 136.28C296.615 135.483 295.969 134.837 295.173 134.837C294.377 134.837 293.731 135.483 293.731 136.28C293.731 137.076 294.377 137.723 295.173 137.723C295.969 137.723 296.615 137.076 296.615 136.28Z" fill="#FFBE00"/>
<path d="M283.143 127.298C283.143 126.502 282.497 125.855 281.701 125.855C280.906 125.855 280.26 126.502 280.26 127.298C280.26 128.095 280.906 128.741 281.701 128.741C282.497 128.741 283.143 128.095 283.143 127.298Z" fill="#FF9A7D"/>
<path d="M321.756 193.762C321.756 192.965 321.11 192.319 320.315 192.319C319.519 192.319 318.873 192.965 318.873 193.762C318.873 194.558 319.519 195.205 320.315 195.205C321.11 195.205 321.756 194.558 321.756 193.762Z" fill="white"/>
<path d="M207.465 114.476L209.675 106.502L201.67 108.577L207.465 114.476Z" fill="white"/>
<path d="M286.433 301.871L293.052 296.914L285.45 293.654L286.433 301.871Z" fill="#FFBE00"/>
<path d="M90.9561 110.142L86.3921 103.246L82.7035 110.653L90.9561 110.142Z" fill="#FF6400"/>
<path d="M64.5551 210.305L71.2255 205.419L63.6611 202.078L64.5551 210.305Z" fill="#FF9A7D"/>
<path d="M130.496 304.194C137.747 314.113 151.654 316.268 161.559 309.015C171.469 301.758 173.622 287.839 166.376 277.925L130.496 304.199V304.194Z" fill="#FA101D"/>
<path d="M132.888 302.441C139.17 311.034 151.223 312.903 159.808 306.616C168.393 300.328 170.261 288.264 163.979 279.672L132.883 302.441H132.888Z" fill="#FF6400"/>
<path d="M143.219 294.88C145.325 297.766 149.37 298.39 152.253 296.281C155.137 294.173 155.764 290.125 153.653 287.239L143.219 294.88Z" fill="#FA101D"/>
<path d="M142.456 300.422C142.966 299.331 141.988 298.075 140.808 298.314C140.031 298.469 139.296 298.83 138.711 299.368C138.126 299.907 137.705 300.615 137.485 301.378C137.143 302.564 138.365 303.632 139.507 303.177C140.143 302.924 140.738 302.564 141.22 302.137C141.726 301.687 142.147 301.083 142.451 300.422H142.456Z" fill="#FF8200"/>
<path d="M146.519 301.646C146.472 300.597 145.213 300.062 144.436 300.765C143.855 301.285 143.387 301.937 143.083 302.653C142.769 303.398 142.638 304.213 142.685 305.015C142.741 305.98 143.888 306.504 144.661 305.924C145.325 305.427 145.868 304.78 146.149 304.021C146.416 303.3 146.561 302.457 146.524 301.641L146.519 301.646Z" fill="#FF8200"/>
<path d="M151.664 302.175C151.149 301.261 149.894 301.196 149.305 302.063C148.818 302.775 148.528 303.623 148.514 304.489C148.495 305.408 148.785 306.321 149.3 307.08C149.838 307.872 151.032 307.83 151.552 307.024C152.02 306.303 152.329 305.473 152.357 304.639C152.385 303.819 152.104 302.948 151.669 302.175H151.664Z" fill="#FF8200"/>
<path d="M158.54 303.872C158.493 304.93 157.346 305.61 156.396 305.146C155.741 304.827 155.165 304.34 154.762 303.731C154.341 303.094 154.112 302.335 154.088 301.571C154.051 300.461 155.193 299.683 156.209 300.124C156.892 300.419 157.52 300.878 157.964 301.426C158.46 302.035 158.582 302.953 158.54 303.867V303.872Z" fill="#FF8200"/>
<path d="M163.127 298.016C163.399 299.028 162.613 300.031 161.569 300.049C160.773 300.068 159.972 299.867 159.289 299.459C158.652 299.079 158.128 298.517 157.768 297.871C157.169 296.798 157.899 295.486 159.125 295.406C160.033 295.35 160.96 295.491 161.695 295.889C162.51 296.329 162.889 297.126 163.127 298.011V298.016Z" fill="#FF8200"/>
<path d="M164.218 290.322C165.205 290.772 165.332 292.168 164.391 292.707C163.628 293.147 162.753 293.41 161.873 293.433C160.955 293.461 160.038 293.241 159.228 292.819C158.287 292.332 158.264 290.931 159.209 290.453C159.944 290.078 160.777 289.868 161.601 289.788C162.444 289.704 163.371 289.928 164.222 290.317L164.218 290.322Z" fill="#FF8200"/>
<path d="M161.526 283.847C162.5 283.575 163.366 284.503 163.043 285.458C162.776 286.25 162.299 286.976 161.657 287.515C160.979 288.087 160.127 288.438 159.242 288.541C158.301 288.654 157.632 287.642 158.025 286.775C158.343 286.081 158.788 285.458 159.401 284.938C160.014 284.418 160.749 284.057 161.526 283.837V283.847Z" fill="#FF8200"/>
<path d="M188.442 287.769C180.264 296.933 181.055 310.998 190.211 319.182C199.367 327.367 213.419 326.576 221.597 317.412L188.442 287.769Z" fill="#FA101D"/>
<path d="M190.656 289.747C183.569 297.688 184.252 309.879 192.187 316.972C200.121 324.065 212.301 323.381 219.388 315.44L190.656 289.747Z" fill="#FF6400"/>
<path d="M200.2 298.281C197.823 300.947 198.052 305.037 200.715 307.417C203.379 309.797 207.465 309.568 209.843 306.902L200.2 298.281Z" fill="#FA101D"/>
<path d="M194.625 298.691C195.8 298.962 196.82 297.744 196.338 296.639C196.025 295.912 195.519 295.266 194.873 294.807C194.222 294.348 193.445 294.085 192.654 294.029C191.423 293.94 190.637 295.36 191.32 296.386C191.699 296.957 192.177 297.463 192.696 297.847C193.239 298.246 193.918 298.531 194.63 298.695L194.625 298.691Z" fill="#FF8200"/>
<path d="M194.274 302.925C195.289 302.658 195.547 301.318 194.7 300.699C194.068 300.24 193.338 299.917 192.57 299.772C191.779 299.622 190.955 299.659 190.178 299.875C189.246 300.128 188.97 301.36 189.7 301.997C190.328 302.541 191.067 302.939 191.868 303.056C192.626 303.168 193.483 303.131 194.274 302.925Z" fill="#FF8200"/>
<path d="M194.831 308.065C195.617 307.371 195.416 306.13 194.447 305.732C193.651 305.404 192.757 305.301 191.91 305.46C191.011 305.633 190.178 306.106 189.541 306.767C188.877 307.46 189.172 308.618 190.066 308.96C190.871 309.269 191.741 309.395 192.561 309.25C193.37 309.105 194.161 308.65 194.826 308.065H194.831Z" fill="#FF8200"/>
<path d="M194.606 315.153C193.563 315.326 192.659 314.347 192.912 313.321C193.085 312.613 193.441 311.948 193.951 311.428C194.485 310.88 195.178 310.5 195.917 310.318C196.994 310.051 197.995 311.002 197.775 312.093C197.626 312.824 197.312 313.532 196.867 314.084C196.376 314.698 195.505 315.007 194.602 315.157L194.606 315.153Z" fill="#FF8200"/>
<path d="M201.291 318.423C200.36 318.901 199.218 318.338 198.979 317.317C198.796 316.539 198.824 315.715 199.082 314.96C199.321 314.258 199.756 313.63 200.318 313.143C201.244 312.332 202.677 312.777 203.009 313.958C203.253 314.834 203.309 315.771 203.075 316.577C202.813 317.467 202.115 318.006 201.296 318.423H201.291Z" fill="#FF8200"/>
<path d="M209.029 317.884C208.795 318.943 207.461 319.36 206.735 318.554C206.145 317.898 205.71 317.097 205.499 316.239C205.279 315.349 205.303 314.403 205.546 313.522C205.827 312.501 207.189 312.187 207.854 313.011C208.373 313.653 208.753 314.422 209.001 315.213C209.258 316.024 209.23 316.975 209.029 317.889V317.884Z" fill="#FF8200"/>
<path d="M214.796 313.902C215.264 314.796 214.538 315.837 213.536 315.719C212.703 315.626 211.898 315.307 211.238 314.792C210.541 314.244 210.016 313.485 209.731 312.641C209.426 311.742 210.274 310.875 211.201 311.081C211.945 311.245 212.647 311.554 213.279 312.046C213.915 312.538 214.421 313.18 214.796 313.902Z" fill="#FF8200"/>
<path d="M308.154 217.098C308.154 243.091 270.561 261.986 256.429 266.948C243.093 271.628 225.417 274.21 206.656 274.21C187.895 274.21 170.205 271.628 156.874 266.948C142.742 261.986 105.149 238.626 105.149 218.354C105.149 217.759 105.444 215.857 105.954 213.069C106.773 208.52 108.145 201.614 109.671 194.127C113.317 176.23 117.849 155.067 117.849 155.067L140.158 140.234L202.12 129.168L274.474 141.073L295.117 153.938C295.117 153.938 299.911 175.818 303.688 193.851C305.308 201.586 306.74 208.614 307.522 212.91C307.924 215.117 308.158 216.606 308.158 217.103L308.154 217.098Z" fill="#A92A23"/>
<path d="M307.517 212.905C301.909 218.27 293.263 223.095 281.903 227.082C261.746 234.157 235.023 238.055 206.651 238.055C178.28 238.055 151.547 234.157 131.39 227.082C120.147 223.137 111.557 218.373 105.945 213.069C106.764 208.52 108.135 201.614 109.661 194.127C111.155 200.986 120.779 207.854 136.586 213.224C155.249 219.563 180.129 223.053 206.651 223.053C233.174 223.053 258.044 219.567 276.707 213.224C292.72 207.784 302.391 200.794 303.683 193.846C305.303 201.581 306.735 208.609 307.517 212.905Z" fill="#952116"/>
<path d="M173.197 267.22C201.891 273.091 232.364 272.73 259.762 262.371" stroke="black" stroke-width="2" stroke-linecap="round" stroke-linejoin="round"/>
<path d="M207.593 189.077C184.979 189.077 122.394 171.967 126.462 168.144C130.932 163.941 137.752 160.165 146.67 157.036C162.735 151.395 184.038 148.293 206.652 148.293C229.266 148.293 250.569 151.399 266.634 157.036C275.668 160.207 282.549 164.04 287.015 168.313C290.97 172.093 230.207 189.077 207.597 189.077H207.593Z" fill="#FFA000"/>
<path d="M176.998 180.274C177.971 180.335 178.94 180.396 179.914 180.457" stroke="black" stroke-width="2" stroke-linecap="round" stroke-linejoin="round"/>
<path d="M187.169 176.263L187.329 178.816" stroke="black" stroke-width="2" stroke-linecap="round" stroke-linejoin="round"/>
<path d="M194.851 180.457L196.855 180.639" stroke="black" stroke-width="2" stroke-linecap="round" stroke-linejoin="round"/>
<path d="M232.566 179.181C233.54 178.998 234.509 178.815 235.482 178.633" stroke="black" stroke-width="2" stroke-linecap="round" stroke-linejoin="round"/>
<path d="M236.938 176.445C237.729 176.994 238.515 177.542 239.306 178.085" stroke="black" stroke-width="2" stroke-linecap="round" stroke-linejoin="round"/>
<path d="M252.394 176.057C252.155 176.362 251.912 176.666 251.673 176.975" stroke="black" stroke-width="2" stroke-linecap="round" stroke-linejoin="round"/>
<path d="M269.007 168.602L271.924 167.871" stroke="black" stroke-width="2" stroke-linecap="round" stroke-linejoin="round"/>
<path d="M277.934 166.597C277.569 167.328 277.203 168.054 276.838 168.785" stroke="black" stroke-width="2" stroke-linecap="round" stroke-linejoin="round"/>
<path d="M194.303 151.46H196.489" stroke="black" stroke-width="2" stroke-linecap="round" stroke-linejoin="round"/>
<path d="M183.008 150.734L182.461 151.83" stroke="black" stroke-width="2" stroke-linecap="round" stroke-linejoin="round"/>
<path d="M154.768 162.403C155.559 162.282 156.345 162.16 157.136 162.038" stroke="black" stroke-width="2" stroke-linecap="round" stroke-linejoin="round"/>
<path d="M151.337 158.033C151.276 158.459 151.21 158.885 151.149 159.307" stroke="black" stroke-width="2" stroke-linecap="round" stroke-linejoin="round"/>
<path d="M156.041 165.319H157.68" stroke="black" stroke-width="2" stroke-linecap="round" stroke-linejoin="round"/>
<path d="M135.272 164.592L134.541 165.506" stroke="black" stroke-width="2" stroke-linecap="round" stroke-linejoin="round"/>
<path d="M248.767 167.966C250.199 161.06 245.93 153.428 239.302 151.039C232.674 148.649 225.123 152.393 221.828 158.624C218.523 156.694 214.179 156.694 210.874 158.624C207.57 160.559 205.435 164.345 205.496 168.177C219.16 170.702 235.215 171.007 248.772 167.962L248.767 167.966Z" fill="#FF4600"/>
<path d="M211.567 161.265C212.892 162.437 214.212 163.603 215.536 164.775" stroke="black" stroke-width="2" stroke-linecap="round" stroke-linejoin="round"/>
<path d="M214.17 160.114C215.129 160.981 216.084 161.847 217.044 162.714" stroke="black" stroke-width="2" stroke-linecap="round" stroke-linejoin="round"/>
<path d="M234.7 152.861C233.914 156.023 233.128 159.186 232.341 162.343" stroke="black" stroke-width="2" stroke-linecap="round" stroke-linejoin="round"/>
<path d="M238.628 154.895C237.954 157.448 237.284 159.997 236.61 162.55" stroke="black" stroke-width="2" stroke-linecap="round" stroke-linejoin="round"/>
<path d="M248.131 171.486C247.494 168.6 244.643 166.778 241.76 167.415C238.876 168.052 237.055 170.905 237.692 173.791C238.329 176.677 241.179 178.5 244.063 177.863C246.946 177.225 248.767 174.372 248.131 171.486ZM240.613 172.746C240.253 171.121 241.282 169.509 242.907 169.148C244.531 168.787 246.141 169.818 246.502 171.444C246.862 173.07 245.832 174.681 244.208 175.042C242.584 175.403 240.973 174.372 240.613 172.746Z" fill="#95BA29"/>
<path d="M256.266 171.547C258.195 170.076 258.569 167.316 257.099 165.386C255.63 163.455 252.872 163.081 250.944 164.552C249.015 166.023 248.641 168.782 250.111 170.713C251.581 172.643 254.338 173.018 256.266 171.547ZM252.732 166.37C253.823 165.54 255.377 165.751 256.205 166.838C257.034 167.93 256.823 169.485 255.737 170.314C254.651 171.144 253.093 170.933 252.264 169.846C251.435 168.754 251.646 167.199 252.732 166.37Z" fill="#95BA29"/>
<path d="M227.099 175.121C226.734 173.172 224.585 171.753 222.647 172.188C220.714 172.619 219.37 174.821 219.867 176.738C222.577 177.337 224.81 176.691 227.094 175.121H227.099Z" fill="#FFBE00"/>
<path d="M218.682 176.17C218.747 174.802 217.793 173.453 216.482 173.059C215.171 172.666 213.449 172.97 212.756 174.146C211.487 171.743 208.562 170.342 205.894 170.857C203.225 171.372 201.035 173.767 200.754 176.47C206.624 178.466 213.154 178.967 218.682 176.165V176.17Z" fill="#FFBE00"/>
<path d="M163.984 164.086C166.521 165.595 169.803 164.756 171.31 162.217C172.817 159.677 171.979 156.393 169.442 154.885C166.905 153.376 163.624 154.215 162.116 156.754C160.609 159.293 161.447 162.578 163.984 164.086ZM168.206 157.738C169.639 158.591 170.112 160.441 169.26 161.875C168.408 163.308 166.559 163.782 165.126 162.929C163.694 162.076 163.221 160.226 164.073 158.792C164.925 157.358 166.774 156.885 168.206 157.738Z" fill="#BAD734"/>
<path d="M159.931 157.635C161.859 156.164 162.234 153.405 160.764 151.474C159.294 149.544 156.537 149.169 154.609 150.64C152.68 152.111 152.306 154.871 153.775 156.801C155.245 158.731 158.002 159.106 159.931 157.635ZM156.397 152.458C157.487 151.629 159.041 151.84 159.87 152.927C160.699 154.018 160.488 155.574 159.402 156.403C158.316 157.232 156.757 157.021 155.929 155.934C155.1 154.848 155.311 153.287 156.397 152.458Z" fill="#BAD734"/>
<path d="M179.221 152.898C176.268 152.898 173.876 155.292 173.876 158.249C173.876 161.205 176.268 163.599 179.221 163.599C182.175 163.599 184.567 161.205 184.567 158.249C184.567 155.292 182.175 152.898 179.221 152.898ZM178.833 160.516C177.166 160.516 175.818 159.167 175.818 157.499C175.818 155.831 177.166 154.482 178.833 154.482C180.499 154.482 181.847 155.831 181.847 157.499C181.847 159.167 180.499 160.516 178.833 160.516Z" fill="#BAD734"/>
<path d="M168.806 170.768C168.951 168.482 167.641 166.167 165.609 165.118C163.578 164.068 160.933 164.335 159.154 165.778C157.375 167.217 156.561 169.747 157.165 171.958C161.078 173.682 165.085 172.867 168.811 170.768H168.806Z" fill="#FFBE00"/>
<path d="M179.98 168.407C179.657 166.678 177.999 165.301 176.244 165.301C174.489 165.301 172.827 166.669 172.499 168.398C174.61 169.545 177.779 169.372 179.98 168.407Z" fill="#FFBE00"/>
<path d="M183.425 175.711C183.168 173.335 181.277 171.232 178.945 170.73C176.614 170.229 174.021 171.367 172.813 173.424C175.57 175.889 180.017 177.149 183.43 175.711H183.425Z" fill="#FFBE00"/>
<path d="M192.595 156.253C192.984 154.14 191.13 151.91 188.981 151.91C186.838 151.91 184.979 154.14 185.372 156.253C187.689 157.34 190.255 157.289 192.595 156.253Z" fill="#FFBE00"/>
<path d="M205.571 162.921C205.594 161.131 203.975 159.486 202.187 159.486C200.398 159.486 198.779 161.131 198.802 162.921C200.749 163.82 203.666 163.9 205.571 162.921Z" fill="#FFBE00"/>
<path d="M196.386 165.92C198.787 166.262 199.49 169.462 197.444 170.764C195.895 171.753 194.125 172.395 192.295 172.582C188.18 172.999 183.907 171.102 181.463 167.766C180.382 166.29 179.675 164.561 179.366 162.762C178.94 160.312 181.903 158.733 183.762 160.387C185.442 161.882 187.389 163.09 189.458 163.924C191.598 164.786 193.994 165.583 196.391 165.925L196.386 165.92Z" fill="white"/>
<path d="M184.843 166.955C186.135 168.965 188.302 170.394 190.661 170.783" stroke="black" stroke-width="2" stroke-linecap="round" stroke-linejoin="round"/>
<path d="M199.71 151.436C201.072 149.867 203.703 150.846 203.684 152.926C203.675 154.5 203.314 156.074 202.598 157.48C200.988 160.638 197.636 162.835 194.097 163.046C192.534 163.14 190.961 162.844 189.524 162.231C187.563 161.397 187.806 158.529 189.856 157.958C191.715 157.442 193.484 156.599 195.047 155.493C196.662 154.35 198.352 152.996 199.71 151.431V151.436Z" fill="white"/>
<path d="M195.389 160.736C198.156 159.678 200.464 157.48 201.657 154.772" stroke="black" stroke-width="2" stroke-linecap="round" stroke-linejoin="round"/>
<path d="M260.877 173.771C260.02 172.155 258.199 171.101 256.373 171.166C254.548 171.232 252.802 172.403 252.053 174.071C255.498 174.919 257.619 175.172 260.877 173.771Z" fill="#FFBE00"/>
<path d="M267.163 171.986C267.037 170.548 265.745 169.302 264.303 169.231C262.861 169.161 261.452 170.271 261.185 171.686C262.655 172.942 265.557 173.064 267.158 171.986H267.163Z" fill="#FFBE00"/>
<path d="M275.49 165.713C274.545 162.822 271.535 160.742 268.497 160.887C265.459 161.032 262.66 163.384 261.995 166.355C266.508 167.564 271.254 167.685 275.486 165.708L275.49 165.713Z" fill="#FF4600"/>
<path d="M267.048 162.227C266.921 163.136 266.794 164.05 266.672 164.958" stroke="black" stroke-width="2" stroke-linecap="round" stroke-linejoin="round"/>
<path d="M269.372 162.405V164.959" stroke="black" stroke-width="2" stroke-linecap="round" stroke-linejoin="round"/>
<path d="M153.658 168.466C153.27 164.264 149.403 160.679 145.191 160.605C140.978 160.53 136.989 163.978 136.446 168.162C142.508 170.237 147.971 171.422 153.658 168.471V168.466Z" fill="#FF4600"/>
<path d="M142.391 162.577C142.939 163.973 143.487 165.369 144.039 166.77" stroke="black" stroke-width="2" stroke-linecap="round" stroke-linejoin="round"/>
<path d="M145.279 161.677C146.061 163.078 146.843 164.484 147.624 165.885" stroke="black" stroke-width="2" stroke-linecap="round" stroke-linejoin="round"/>
<path d="M171.025 179.056C170.711 176.924 169.166 175.017 167.144 174.268C165.122 173.523 162.711 173.963 161.087 175.383C160.563 172.871 158.381 170.796 155.849 170.398C153.316 169.999 150.606 171.302 149.333 173.532C154.533 180.007 163.343 182.214 171.02 179.056H171.025Z" fill="#FF4600"/>
<path d="M154.585 171.34V174.442" stroke="black" stroke-width="2" stroke-linecap="round" stroke-linejoin="round"/>
<path d="M156.448 172.248C156.505 173.162 156.561 174.071 156.622 174.984" stroke="black" stroke-width="2" stroke-linecap="round" stroke-linejoin="round"/>
<path d="M163.694 174.985C163.877 175.898 164.059 176.807 164.242 177.721" stroke="black" stroke-width="2" stroke-linecap="round" stroke-linejoin="round"/>
<path d="M166.002 174.816C166.129 175.547 166.251 176.273 166.378 177.004" stroke="black" stroke-width="2" stroke-linecap="round" stroke-linejoin="round"/>
<path d="M206.647 191.808C183.284 191.808 161.279 188.598 144.68 182.775C127.089 176.6 117.404 167.989 117.404 158.52C117.404 149.051 127.089 140.44 144.68 134.265C161.279 128.442 183.284 125.232 206.647 125.232C230.009 125.232 252.015 128.442 268.613 134.265C286.205 140.44 295.89 149.051 295.89 158.52C295.89 167.989 286.2 176.6 268.613 182.775C252.015 188.598 230.009 191.808 206.647 191.808ZM206.647 133.159C184.81 133.159 164.326 136.036 148.963 141.255C134.761 146.081 126.616 152.373 126.616 158.52C126.616 164.667 134.761 170.959 148.963 175.785C164.326 181.004 184.815 183.88 206.647 183.88C228.479 183.88 248.967 181.004 264.33 175.785C278.533 170.959 286.677 164.667 286.677 158.52C286.677 152.373 278.533 146.081 264.33 141.255C248.967 136.036 228.479 133.159 206.647 133.159Z" fill="#BE463C"/>
<path d="M299.677 174.984C299.677 178.325 298.516 181.562 296.269 184.635C295.295 185.966 294.949 187.653 295.309 189.255C295.773 191.298 297.902 192.492 299.887 191.822L327.814 182.372C329.654 181.749 330.824 179.941 330.637 178.006C330.426 175.785 329.888 173.607 329.04 171.545L323.634 158.352C322.506 155.602 319.407 154.243 316.626 155.279L296.999 162.573L299.681 174.984H299.677Z" fill="#952116"/>
<path d="M300.936 185.863C309.296 182.828 317.656 179.796 326.016 176.76C327.332 176.282 328.23 174.38 328.254 172.979" stroke="black" stroke-width="2" stroke-linecap="round" stroke-linejoin="round"/>
<path d="M113.631 174.984C113.631 178.325 114.792 181.562 117.039 184.636C118.013 185.966 118.359 187.653 117.998 189.255C117.535 191.298 115.405 192.493 113.42 191.823L85.4938 182.373C83.6542 181.75 82.4839 179.941 82.6712 178.006C82.8818 175.785 83.4201 173.607 84.2674 171.545L89.6739 158.352C90.802 155.602 93.9008 154.243 96.6813 155.279L116.243 162.55L113.626 174.984H113.631Z" fill="#952116"/>
<path d="M117.011 187.315C106.689 183.595 96.3723 179.875 86.0507 176.155C84.5622 175.616 84.492 173.259 84.8243 171.713" stroke="black" stroke-width="2" stroke-linecap="round" stroke-linejoin="round"/>
<path d="M325.66 125.673C323.736 124.155 320.895 125.547 320.895 127.997C320.895 130.541 320.357 133.085 319.294 135.395C318.269 137.625 316.766 139.63 314.927 141.256C313.069 142.905 313.897 145.978 316.345 146.4C319.121 146.883 322.023 146.461 324.401 144.962C328.497 142.375 330.735 137.137 329.77 132.382C329.213 129.641 327.729 127.308 325.656 125.668L325.66 125.673Z" fill="white"/>
<path d="M316.921 144.746C321.279 145.303 325.843 142.586 327.434 138.491" stroke="black" stroke-width="2" stroke-linecap="round" stroke-linejoin="round"/>
<path d="M309.75 133.321C312.184 133.584 313.85 130.894 312.549 128.819C311.196 126.664 310.302 124.223 309.975 121.697C309.656 119.261 309.867 116.764 310.56 114.412C311.262 112.027 308.921 109.867 306.623 110.809C304.016 111.877 301.778 113.78 300.566 116.314C298.469 120.685 299.358 126.312 302.696 129.826C304.62 131.85 307.119 133.04 309.745 133.321H309.75Z" fill="white"/>
<path d="M308.655 131.868C309.301 132.145 310.092 132.042 310.644 131.611C311.196 131.18 311.491 130.435 311.384 129.741" stroke="black" stroke-width="2" stroke-linecap="round" stroke-linejoin="round"/>
<path d="M90.9984 270.023C90.0809 272.295 92.2061 274.638 94.5559 273.954C96.9947 273.242 99.588 273.049 102.102 273.424C104.526 273.785 106.872 274.67 108.941 275.982C111.042 277.308 113.757 275.654 113.481 273.181C113.167 270.379 111.955 267.704 109.853 265.839C106.226 262.625 100.576 261.936 96.2879 264.19C93.8163 265.488 91.9907 267.568 90.9984 270.018V270.023Z" fill="white"/>
<path d="M101.39 271.694C104.391 271.399 107.499 272.378 109.793 274.341" stroke="black" stroke-width="2" stroke-linecap="round" stroke-linejoin="round"/>
<path d="M89.7112 229.857C87.3613 230.546 86.8464 233.666 88.8405 235.09C90.9095 236.566 92.6696 238.483 93.9381 240.685C95.1598 242.812 95.9182 245.201 96.1756 247.642C96.4377 250.116 99.4242 251.217 101.189 249.469C103.188 247.483 104.531 244.873 104.69 242.067C104.957 237.227 101.989 232.364 97.5659 230.396C95.0147 229.262 92.253 229.117 89.7159 229.862L89.7112 229.857Z" fill="white"/>
<path d="M97.8467 247.207C97.8701 247.862 98.4131 248.462 99.0637 248.542C99.7144 248.621 100.388 248.176 100.571 247.544" stroke="black" stroke-width="2" stroke-linecap="round" stroke-linejoin="round"/>
</svg>
