<svg width="402" height="333" viewBox="0 0 402 333" fill="none" xmlns="http://www.w3.org/2000/svg">
<path  d="M191.662 0H401.78V332.994H0V191.836C0 85.9604 85.8797 0.00487814 191.662 0.00487814V0Z" fill="#FF0000"/>
<path d="M168.472 112.758C186.045 83.8438 219.266 65.8012 252.355 67.1894C285.443 68.5826 317.126 89.3578 332.349 119.65C343.851 142.537 349.863 168.553 346.483 194.089C343.104 219.621 330.405 243.969 310.762 259.934C291.119 275.899 264.599 282.963 240.14 277.522C219.72 272.981 197.903 273.177 178.704 281.658C164.36 287.998 147.955 289.372 132.438 287.626C116.922 285.886 101.44 278.388 92.7318 265.047C82.5487 249.459 78.9737 227.085 85.1714 209.414C91.3643 191.743 105.767 177.337 123.1 171.481C147.188 163.337 155.017 134.887 168.468 112.753L168.472 112.758Z" fill="#EAAA08"/>
<path d="M79.335 208.211C82.4852 215.48 90.9247 218.819 98.1822 215.666C105.445 212.513 108.78 204.066 105.63 196.802L79.335 208.216V208.211Z" fill="#FA101D"/>
<path d="M81.4351 207.302C83.8918 212.977 90.4851 215.583 96.1554 213.124C101.826 210.665 104.429 204.066 101.972 198.39L81.44 207.302H81.4351Z" fill="white"/>
<path d="M273.873 279.145C267.192 283.388 265.209 292.251 269.448 298.943C273.688 305.63 282.542 307.615 289.228 303.372L273.873 279.15V279.145Z" fill="#FA101D"/>
<path d="M275.099 281.077C269.883 284.391 268.335 291.313 271.646 296.534C274.957 301.759 281.873 303.304 287.089 299.99L275.099 281.077Z" fill="white"/>
<path d="M279.455 94.173C276.115 101.354 279.221 109.889 286.395 113.232C293.57 116.576 302.097 113.467 305.438 106.286L279.455 94.173Z" fill="#FA101D"/>
<path d="M281.526 95.1412C278.918 100.748 281.34 107.411 286.942 110.021C292.544 112.631 299.201 110.207 301.814 104.6L281.526 95.1412Z" fill="white"/>
<path d="M295.954 122.574C295.954 130.498 302.371 136.916 310.283 136.916C318.195 136.916 324.613 130.493 324.613 122.574H295.949H295.954Z" fill="#FA101D"/>
<path d="M298.24 122.574C298.24 128.758 303.251 133.773 309.429 133.773C315.607 133.773 320.618 128.758 320.618 122.574H298.235H298.24Z" fill="white"/>
<path d="M70.4806 227.076C70.4806 225.756 69.411 224.686 68.0924 224.686C66.7737 224.686 65.7041 225.756 65.7041 227.076C65.7041 228.396 66.7737 229.467 68.0924 229.467C69.411 229.467 70.4806 228.396 70.4806 227.076Z" fill="#FF6400"/>
<path d="M77.7136 157.349C77.7136 156.029 76.644 154.958 75.3253 154.958C74.0067 154.958 72.9371 156.029 72.9371 157.349C72.9371 158.669 74.0067 159.739 75.3253 159.739C76.644 159.739 77.7136 158.669 77.7136 157.349Z" fill="#FFBE00"/>
<path d="M224.902 97.6183C224.902 96.2984 223.832 95.2279 222.514 95.2279C221.195 95.2279 220.125 96.2984 220.125 97.6183C220.125 98.9381 221.195 100.009 222.514 100.009C223.832 100.009 224.902 98.9381 224.902 97.6183Z" fill="#FF6400"/>
<path d="M227.236 51.4343C227.236 50.1144 226.167 49.0439 224.848 49.0439C223.529 49.0439 222.46 50.1144 222.46 51.4343C222.46 52.7541 223.529 53.8246 224.848 53.8246C226.167 53.8246 227.236 52.7541 227.236 51.4343Z" fill="#FF6400"/>
<path d="M318.405 189.651C318.405 188.331 317.336 187.261 316.017 187.261C314.698 187.261 313.629 188.331 313.629 189.651C313.629 190.971 314.698 192.041 316.017 192.041C317.336 192.041 318.405 190.971 318.405 189.651Z" fill="white"/>
<path d="M344.613 145.872C344.613 144.552 343.543 143.482 342.225 143.482C340.906 143.482 339.837 144.552 339.837 145.872C339.837 147.192 340.906 148.262 342.225 148.262C343.543 148.262 344.613 147.192 344.613 145.872Z" fill="#FF9A7D"/>
<path d="M279.7 231.065C279.7 229.745 278.63 228.674 277.312 228.674C275.993 228.674 274.923 229.745 274.923 231.065C274.923 232.385 275.993 233.455 277.312 233.455C278.63 233.455 279.7 232.385 279.7 231.065Z" fill="#FF6400"/>
<path d="M171.657 276.96C171.657 275.64 170.587 274.569 169.269 274.569C167.95 274.569 166.881 275.64 166.881 276.96C166.881 278.28 167.95 279.35 169.269 279.35C170.587 279.35 171.657 278.28 171.657 276.96Z" fill="#FFBE00"/>
<path d="M98.5635 260.643C98.5635 259.841 97.9139 259.196 97.1178 259.196C96.3217 259.196 95.6722 259.846 95.6722 260.643C95.6722 261.44 96.3217 262.09 97.1178 262.09C97.9139 262.09 98.5635 261.44 98.5635 260.643Z" fill="white"/>
<path d="M98.5636 142.323C99.362 142.323 100.009 141.675 100.009 140.876C100.009 140.077 99.362 139.429 98.5636 139.429C97.7652 139.429 97.1179 140.077 97.1179 140.876C97.1179 141.675 97.7652 142.323 98.5636 142.323Z" fill="#FF6400"/>
<path d="M88.0043 171.667C88.0043 170.865 87.3548 170.22 86.5587 170.22C85.7626 170.22 85.113 170.87 85.113 171.667C85.113 172.464 85.7626 173.114 86.5587 173.114C87.3548 173.114 88.0043 172.464 88.0043 171.667Z" fill="white"/>
<path d="M206.602 96.9639C206.602 96.1622 205.952 95.517 205.156 95.517C204.36 95.517 203.71 96.1671 203.71 96.9639C203.71 97.7607 204.36 98.4108 205.156 98.4108C205.952 98.4108 206.602 97.7607 206.602 96.9639Z" fill="#FFBE00"/>
<path d="M222.094 85.1252C222.094 84.3235 221.444 83.6783 220.648 83.6783C219.852 83.6783 219.202 84.3284 219.202 85.1252C219.202 85.922 219.852 86.5722 220.648 86.5722C221.444 86.5722 222.094 85.922 222.094 85.1252Z" fill="#FF9A7D"/>
<path d="M330.894 180.675C331.692 180.675 332.34 180.028 332.34 179.228C332.34 178.429 331.692 177.781 330.894 177.781C330.096 177.781 329.448 178.429 329.448 179.228C329.448 180.028 330.096 180.675 330.894 180.675Z" fill="#FF6400"/>
<path d="M302.181 63.4155C302.181 62.6138 301.531 61.9686 300.735 61.9686C299.939 61.9686 299.29 62.6187 299.29 63.4155C299.29 64.2123 299.939 64.8624 300.735 64.8624C301.531 64.8624 302.181 64.2123 302.181 63.4155Z" fill="#FF9A7D"/>
<path d="M298.85 229.613C298.85 228.811 298.201 228.166 297.405 228.166C296.609 228.166 295.959 228.816 295.959 229.613C295.959 230.41 296.609 231.06 297.405 231.06C298.201 231.06 298.85 230.41 298.85 229.613Z" fill="#FF9A7D"/>
<path d="M329.448 212.703C330.247 212.703 330.894 212.056 330.894 211.256C330.894 210.457 330.247 209.81 329.448 209.81C328.65 209.81 328.003 210.457 328.003 211.256C328.003 212.056 328.65 212.703 329.448 212.703Z" fill="#FFBE00"/>
<path d="M318.405 163.068C319.204 163.068 319.851 162.42 319.851 161.621C319.851 160.822 319.204 160.174 318.405 160.174C317.607 160.174 316.96 160.822 316.96 161.621C316.96 162.42 317.607 163.068 318.405 163.068Z" fill="#FF9A7D"/>
<path d="M198.831 71.6814C198.831 70.8798 198.182 70.2345 197.386 70.2345C196.59 70.2345 195.94 70.8846 195.94 71.6814C195.94 72.4782 196.59 73.1284 197.386 73.1284C198.182 73.1284 198.831 72.4782 198.831 71.6814Z" fill="white"/>
<path d="M170.714 71.6814C170.714 70.8798 170.064 70.2345 169.268 70.2345C168.472 70.2345 167.823 70.8846 167.823 71.6814C167.823 72.4782 168.472 73.1284 169.268 73.1284C170.064 73.1284 170.714 72.4782 170.714 71.6814Z" fill="#FF9A7D"/>
<path d="M245.273 41.2914C245.273 40.4897 244.624 39.8445 243.827 39.8445C243.031 39.8445 242.382 40.4946 242.382 41.2914C242.382 42.0882 243.031 42.7384 243.827 42.7384C244.624 42.7384 245.273 42.0882 245.273 41.2914Z" fill="#FFBE00"/>
<path d="M96.5172 234.765L89.3329 238.915L96.5172 243.066V234.765Z" fill="#FFBE00"/>
<path d="M255.759 82.4257L248.575 86.5758L255.759 90.726V82.4257Z" fill="white"/>
<path d="M185.679 70.1814C179.334 65.5082 176.38 56.6946 178.616 49.1325C179.491 50.9167 180.677 51.9384 181.552 53.7226C182.27 48.1695 184.389 42.8071 187.662 38.2658C188.101 41.2037 188.619 44.0438 189.058 46.9816C191.398 41.932 194.802 37.3811 198.983 33.71C198.709 39.1897 197.644 45.0019 195.857 50.1883C198.377 48.0717 200.897 45.9502 203.417 43.8336C203.193 50.1248 201.029 56.3622 196.736 60.9572C198.509 60.0578 200.287 59.1535 202.059 58.254C199.378 64.7994 192.677 69.2086 185.679 70.1814Z" fill="#BAD734"/>
<path d="M183.485 75.0444L192.594 51.0723" stroke="black" stroke-width="2" stroke-linecap="round" stroke-linejoin="round"/>
<path d="M289.204 265.742C289.57 257.867 295.25 250.51 302.772 248.179C301.775 249.899 301.585 251.449 300.589 253.169C305.6 250.686 311.236 249.474 316.823 249.674C314.625 251.674 312.554 253.678 310.357 255.677C315.851 254.822 321.526 255.13 326.894 256.572C322.19 259.387 316.769 261.724 311.465 263.117C314.625 264.041 317.785 264.96 320.945 265.884C315.592 269.188 309.209 270.855 303.006 269.829C304.74 270.806 306.474 271.779 308.208 272.757C301.282 274.16 293.898 271.026 289.199 265.742H289.204Z" fill="#FFDC00"/>
<path d="M281.624 268.348C289.629 265.376 297.629 262.404 305.633 259.432" stroke="black" stroke-width="2" stroke-linecap="round" stroke-linejoin="round"/>
<path d="M287.421 141.253L258.523 122.57L206.323 111.801L143.354 123.792L110.997 158.929L117.835 195.283L147.095 229.32C157.439 241.961 179.544 250.697 205.151 250.697C230.757 250.697 252.862 241.961 263.206 229.32L292.471 195.283L300.398 165.391L287.411 141.253H287.421Z" fill="#E6E9F1"/>
<path d="M205.155 224.314C247.827 224.314 282.42 204.127 282.42 179.225C282.42 154.322 247.827 134.135 205.155 134.135C162.483 134.135 127.891 154.322 127.891 179.225C127.891 204.127 162.483 224.314 205.155 224.314Z" fill="#27AE60"/>
<path d="M171.652 187.394C168.116 194.482 170.992 203.095 178.074 206.634C185.156 210.173 193.761 207.294 197.297 200.206L171.652 187.394Z" fill="#FA101D"/>
<path d="M173.698 188.415C170.938 193.948 173.185 200.675 178.714 203.437C184.242 206.198 190.963 203.95 193.722 198.416L173.698 188.415Z" fill="white"/>
<path d="M199.129 191.75C200.941 199.459 208.658 204.24 216.365 202.426C224.071 200.613 228.843 192.889 227.031 185.176L199.129 191.75Z" fill="#FA101D"/>
<path d="M201.351 191.228C202.768 197.25 208.794 200.98 214.807 199.563C220.824 198.145 224.55 192.113 223.134 186.095L201.346 191.228H201.351Z" fill="white"/>
<path d="M244.775 183.105C247.41 182.483 249.043 179.839 248.421 177.201C247.798 174.563 245.157 172.93 242.522 173.552C239.886 174.175 238.254 176.818 238.876 179.456C239.498 182.094 242.139 183.728 244.775 183.105Z" fill="#FFA000"/>
<path d="M262.858 191.536C264.773 189.619 264.773 186.512 262.858 184.595C260.943 182.679 257.838 182.679 255.923 184.595C254.008 186.512 254.008 189.619 255.923 191.536C257.838 193.452 260.943 193.453 262.858 191.536Z" fill="#FFA000"/>
<path d="M260.994 177.445C260.994 175.324 259.275 173.598 257.15 173.598C255.026 173.598 253.306 175.319 253.306 177.445C253.306 179.571 255.026 181.292 257.15 181.292C259.275 181.292 260.994 179.571 260.994 177.445Z" fill="#FFA000"/>
<path d="M152.047 172.592C151.07 169.434 148.848 167.205 145.771 166.002C145.488 159.951 141.61 154.202 136.106 151.675C136.423 153.146 136.081 154.676 136.399 156.147C134.079 152.232 131.764 148.312 129.444 144.396C129.278 150.233 130.123 156.495 132.653 161.759C130.333 159.095 128.629 155.893 127.72 152.476C126.548 160.518 128.541 168.808 133.547 175.202C137.508 180.266 147.197 176.815 152.047 172.592Z" fill="#BAD734"/>
<path d="M132.79 155.63C136.018 161.266 139.241 166.902 142.47 172.543" stroke="black" stroke-width="2" stroke-linecap="round" stroke-linejoin="round"/>
<path d="M139.109 157.214C140.413 160.254 141.712 163.29 143.016 166.33" stroke="black" stroke-width="2" stroke-linecap="round" stroke-linejoin="round"/>
<path d="M130.572 164.453C132.843 167.18 135.114 169.913 137.385 172.64" stroke="black" stroke-width="2" stroke-linecap="round" stroke-linejoin="round"/>
<path d="M173.61 158.536C175.525 156.62 175.525 153.512 173.61 151.595C171.695 149.679 168.59 149.679 166.675 151.595C164.76 153.512 164.76 156.62 166.675 158.536C168.59 160.453 171.695 160.453 173.61 158.536Z" fill="#FFA000"/>
<path d="M154.751 188.365C157.387 187.743 159.019 185.099 158.397 182.461C157.775 179.823 155.134 178.19 152.498 178.812C149.862 179.435 148.23 182.078 148.852 184.716C149.474 187.354 152.115 188.988 154.751 188.365Z" fill="#FFA000"/>
<path d="M153.762 199.861C156.397 199.238 158.03 196.595 157.408 193.957C156.785 191.319 154.145 189.685 151.509 190.308C148.873 190.93 147.241 193.574 147.863 196.212C148.485 198.85 151.126 200.483 153.762 199.861Z" fill="#FFA000"/>
<path d="M149.848 157.327C152.484 156.704 154.116 154.061 153.494 151.423C152.872 148.785 150.231 147.151 147.595 147.773C144.96 148.396 143.327 151.039 143.949 153.677C144.571 156.315 147.212 157.949 149.848 157.327Z" fill="#FFA000"/>
<path d="M149.85 178.194C152.486 177.571 154.118 174.928 153.496 172.29C152.874 169.652 150.233 168.018 147.597 168.64C144.962 169.263 143.329 171.906 143.951 174.544C144.573 177.182 147.214 178.816 149.85 178.194Z" fill="#FFA000"/>
<path d="M164.026 153.142C165.941 151.226 165.941 148.118 164.026 146.202C162.111 144.285 159.006 144.285 157.091 146.202C155.177 148.118 155.176 151.226 157.091 153.142C159.006 155.059 162.111 155.059 164.026 153.142Z" fill="#FFA000"/>
<path d="M163.055 160.321C163.055 158.2 161.336 156.474 159.212 156.474C157.087 156.474 155.368 158.195 155.368 160.321C155.368 162.448 157.087 164.168 159.212 164.168C161.336 164.168 163.055 162.448 163.055 160.321Z" fill="#FFA000"/>
<path d="M135.388 185.441C135.388 183.32 133.669 181.594 131.544 181.594C129.42 181.594 127.701 183.315 127.701 185.441C127.701 187.568 129.42 189.289 131.544 189.289C133.669 189.289 135.388 187.568 135.388 185.441Z" fill="#FFA000"/>
<path d="M147.671 187.393C147.671 185.271 145.952 183.546 143.827 183.546C141.703 183.546 139.984 185.266 139.984 187.393C139.984 189.519 141.703 191.24 143.827 191.24C145.952 191.24 147.671 189.519 147.671 187.393Z" fill="#FFA000"/>
<path d="M164.398 175.381C164.398 173.26 162.679 171.534 160.555 171.534C158.43 171.534 156.711 173.255 156.711 175.381C156.711 177.508 158.43 179.228 160.555 179.228C162.679 179.228 164.398 177.508 164.398 175.381Z" fill="#FFA000"/>
<path d="M143.72 179.229C143.72 177.108 142.001 175.382 139.876 175.382C137.752 175.382 136.033 177.103 136.033 179.229C136.033 181.356 137.752 183.077 139.876 183.077C142.001 183.077 143.72 181.356 143.72 179.229Z" fill="#FFA000"/>
<path d="M168.243 166.436C168.243 164.315 166.523 162.589 164.399 162.589C162.274 162.589 160.555 164.31 160.555 166.436C160.555 168.563 162.274 170.284 164.399 170.284C166.523 170.284 168.243 168.563 168.243 166.436Z" fill="#FFA000"/>
<path d="M177.952 165.389C177.952 163.268 176.233 161.542 174.108 161.542C171.984 161.542 170.264 163.263 170.264 165.389C170.264 167.516 171.984 169.237 174.108 169.237C176.233 169.237 177.952 167.516 177.952 165.389Z" fill="#FFA000"/>
<path d="M140.892 192.97C140.892 190.848 139.173 189.122 137.048 189.122C134.924 189.122 133.205 190.843 133.205 192.97C133.205 195.096 134.924 196.817 137.048 196.817C139.173 196.817 140.892 195.096 140.892 192.97Z" fill="#FFA000"/>
<path d="M252.061 124.73C247.573 127.145 244.408 131.872 243.885 136.946C243.231 134.003 242.571 131.061 241.917 128.113C238.625 132.781 238.278 139.356 241.057 144.347L248.979 142.817C251.187 137.088 252.564 130.85 252.056 124.725L252.061 124.73Z" fill="#BAD734"/>
<path d="M241.917 134.79C242.293 137.532 242.669 140.274 243.04 143.017" stroke="black" stroke-width="2" stroke-linecap="round" stroke-linejoin="round"/>
<path d="M248.13 132.781C247.641 135.401 247.153 138.026 246.669 140.646" stroke="black" stroke-width="2" stroke-linecap="round" stroke-linejoin="round"/>
<path d="M230.877 150.362C232.792 148.445 232.792 145.338 230.877 143.421C228.962 141.505 225.857 141.505 223.942 143.421C222.027 145.338 222.027 148.445 223.942 150.362C225.857 152.279 228.962 152.279 230.877 150.362Z" fill="#FFA000"/>
<path d="M241.604 141.986C241.604 139.864 239.885 138.139 237.761 138.139C235.636 138.139 233.917 139.859 233.917 141.986C233.917 144.112 235.636 145.833 237.761 145.833C239.885 145.833 241.604 144.112 241.604 141.986Z" fill="#FFA000"/>
<path d="M178.797 175.422C176.276 174.464 173.141 175.647 171.871 178.023L182.254 181.967C182.884 179.347 181.317 176.38 178.797 175.422Z" fill="#BAD734"/>
<path d="M166.982 198.7L159.495 202.831C160.735 204.468 163.226 204.996 165.023 204.004C166.821 203.012 167.705 200.621 166.982 198.695V198.7Z" fill="#BAD734"/>
<path d="M214.464 148.126C213.536 149.808 213.922 152.105 215.343 153.391C216.764 154.677 219.084 154.833 220.667 153.743L214.469 148.126H214.464Z" fill="#BAD734"/>
<path d="M271.65 167.27C271.45 165.344 269.794 163.667 267.87 163.447L268.73 171.781C270.566 171.175 271.846 169.196 271.65 167.27Z" fill="#BAD734"/>
<path d="M264.808 167.401L260.329 168.08C260.251 169.454 261.633 170.71 262.986 170.505C264.344 170.299 265.286 168.691 264.808 167.401Z" fill="#BAD734"/>
<path d="M231.895 185.292C232.047 186.856 233.57 188.152 235.133 188.059C236.701 187.961 238.049 186.485 238.005 184.916L231.895 185.292Z" fill="#BAD734"/>
<path d="M204.086 208.028L197.385 210.57C198.069 212.3 200.247 213.268 201.99 212.608C203.729 211.948 204.725 209.778 204.086 208.028Z" fill="#BAD734"/>
<path d="M211.241 208.081C209.365 208.228 207.807 210.105 208.012 211.977L215.035 211.429C214.948 209.547 213.116 207.934 211.241 208.081Z" fill="#BAD734"/>
<path d="M231.172 179.865C232.637 173.09 230.093 165.597 224.803 161.119C219.514 156.641 211.705 155.38 205.272 157.956C198.84 160.532 194.064 166.843 193.321 173.736C197.707 179.308 204.217 183.346 211.202 184.553C218.186 185.761 225.17 183.644 231.167 179.865H231.172Z" fill="#A92A23"/>
<path d="M205.644 159.691C206.869 164.32 208.1 168.955 209.326 173.584" stroke="black" stroke-width="2" stroke-linecap="round" stroke-linejoin="round"/>
<path d="M211.68 159.647C212.515 163.783 213.355 167.923 214.191 172.059" stroke="black" stroke-width="2" stroke-linecap="round" stroke-linejoin="round"/>
<path d="M217.126 159.286C218.176 163.123 219.226 166.96 220.281 170.798" stroke="black" stroke-width="2" stroke-linecap="round" stroke-linejoin="round"/>
<path d="M269.501 158.039C269.282 151.107 264.993 144.459 258.771 141.404C252.554 138.349 244.671 139.023 239.06 143.086C233.448 147.148 230.347 154.431 231.299 161.299C236.906 165.64 244.198 167.972 251.269 167.444C258.337 166.916 264.598 163.167 269.501 158.039Z" fill="#A92A23"/>
<path d="M244.925 142.259L241.516 152.646" stroke="black" stroke-width="2" stroke-linecap="round" stroke-linejoin="round"/>
<path d="M250.562 142.074C249.384 146.034 248.207 149.988 247.035 153.948" stroke="black" stroke-width="2" stroke-linecap="round" stroke-linejoin="round"/>
<path d="M255.45 142.661C254.84 146.562 254.229 150.468 253.619 154.369" stroke="black" stroke-width="2" stroke-linecap="round" stroke-linejoin="round"/>
<path d="M191.417 160.467C193.332 158.55 193.332 155.443 191.417 153.526C189.502 151.61 186.397 151.61 184.483 153.526C182.568 155.443 182.568 158.55 184.483 160.467C186.398 162.384 189.502 162.384 191.417 160.467Z" fill="#FFA000"/>
<path d="M193.673 166.437C193.673 164.315 191.954 162.59 189.829 162.59C187.705 162.59 185.986 164.311 185.986 166.437C185.986 168.563 187.705 170.284 189.829 170.284C191.954 170.284 193.673 168.563 193.673 166.437Z" fill="#FFA000"/>
<path d="M198.005 145.828C198.005 143.707 196.286 141.981 194.162 141.981C192.037 141.981 190.318 143.702 190.318 145.828C190.318 147.955 192.037 149.676 194.162 149.676C196.286 149.676 198.005 147.955 198.005 145.828Z" fill="#FFA000"/>
<path d="M199.89 179.23C199.89 177.108 198.171 175.383 196.046 175.383C193.922 175.383 192.203 177.104 192.203 179.23C192.203 181.356 193.922 183.077 196.046 183.077C198.171 183.077 199.89 181.356 199.89 179.23Z" fill="#FFA000"/>
<path d="M205.735 188.357C208.371 187.734 210.003 185.091 209.381 182.453C208.759 179.815 206.118 178.181 203.482 178.804C200.846 179.426 199.214 182.07 199.836 184.708C200.458 187.346 203.099 188.98 205.735 188.357Z" fill="#FFA000"/>
<path d="M226.957 119.94C221.18 121.275 216.027 125.117 213.102 130.279C213.517 128.25 213.854 126.114 214.269 124.085C209.443 126.305 205.527 130.426 203.539 135.353C201.551 140.28 201.522 145.97 203.461 150.917L213.81 146.229C221.092 142.778 226.23 135.182 226.728 127.136C224.926 128.446 223.128 129.756 221.326 131.066C223.377 127.405 224.906 123.602 226.957 119.945V119.94Z" fill="#BAD734"/>
<path d="M215.358 132.015C210.933 139.284 206.503 146.553 202.078 153.821" stroke="black" stroke-width="2" stroke-linecap="round" stroke-linejoin="round"/>
<path d="M297.843 175.329C292.29 174.958 286.468 178.316 283.895 183.253C284.105 178.932 284.32 174.464 284.534 170.143C277.843 174.943 273.282 183.473 272.901 191.7C272.315 189.319 271.724 186.939 271.138 184.553C268.486 191.138 267.314 198.309 267.724 205.392C281.311 199.482 291.826 188.87 297.848 175.324L297.843 175.329Z" fill="#BAD734"/>
<path d="M270.864 192.047C270.908 195.401 270.957 198.754 271.001 202.108" stroke="black" stroke-width="2" stroke-linecap="round" stroke-linejoin="round"/>
<path d="M279.636 181.635C278.557 187.198 277.472 192.761 276.393 198.323" stroke="black" stroke-width="2" stroke-linecap="round" stroke-linejoin="round"/>
<path d="M259.9 208.383C259.68 201.451 255.392 194.803 249.17 191.748C242.952 188.693 235.07 189.368 229.458 193.43C223.846 197.492 220.745 204.775 221.697 211.643C227.304 215.984 234.596 218.316 241.668 217.788C248.735 217.26 254.996 213.511 259.9 208.383Z" fill="#A92A23"/>
<path d="M236.305 192.423C235.533 196.319 234.767 200.215 233.995 204.106" stroke="black" stroke-width="2" stroke-linecap="round" stroke-linejoin="round"/>
<path d="M242.781 193.17C242.044 196.827 241.311 200.483 240.574 204.144" stroke="black" stroke-width="2" stroke-linecap="round" stroke-linejoin="round"/>
<path d="M247.836 194.07C247.274 197.971 246.718 201.872 246.156 205.772" stroke="black" stroke-width="2" stroke-linecap="round" stroke-linejoin="round"/>
<path d="M165.834 180.416C166.748 180.964 167.666 181.511 168.579 182.059" stroke="black" stroke-width="2" stroke-linecap="round" stroke-linejoin="round"/>
<path d="M163.779 189.427C164.623 188.806 165.468 188.19 166.318 187.569" stroke="black" stroke-width="2" stroke-linecap="round" stroke-linejoin="round"/>
<path d="M160.419 194.403C160.843 194.706 161.273 195.014 161.698 195.317" stroke="black" stroke-width="2" stroke-linecap="round" stroke-linejoin="round"/>
<path d="M144.316 195.702V197.53" stroke="black" stroke-width="2" stroke-linecap="round" stroke-linejoin="round"/>
<path d="M170.816 207.595H172.828" stroke="black" stroke-width="2" stroke-linecap="round" stroke-linejoin="round"/>
<path d="M153.634 202.654C153.693 203.509 153.757 204.36 153.816 205.215" stroke="black" stroke-width="2" stroke-linecap="round" stroke-linejoin="round"/>
<path d="M184.936 187.628C186.391 187.178 187.847 186.733 189.302 186.283" stroke="black" stroke-width="2" stroke-linecap="round" stroke-linejoin="round"/>
<path d="M192.565 188.023V190.765" stroke="black" stroke-width="2" stroke-linecap="round" stroke-linejoin="round"/>
<path d="M174.836 184.362C175.26 185.154 175.69 185.946 176.115 186.738" stroke="black" stroke-width="2" stroke-linecap="round" stroke-linejoin="round"/>
<path d="M181.234 170.827C181.966 170.646 182.694 170.46 183.427 170.279" stroke="black" stroke-width="2" stroke-linecap="round" stroke-linejoin="round"/>
<path d="M187.632 173.935V175.763" stroke="black" stroke-width="2" stroke-linecap="round" stroke-linejoin="round"/>
<path d="M174.103 147.22C174.958 146.854 175.808 146.492 176.662 146.125" stroke="black" stroke-width="2" stroke-linecap="round" stroke-linejoin="round"/>
<path d="M181.014 146.512C181.385 147.426 181.752 148.34 182.123 149.25" stroke="black" stroke-width="2" stroke-linecap="round" stroke-linejoin="round"/>
<path d="M168.418 143.545C168.902 143.179 169.39 142.807 169.874 142.44" stroke="black" stroke-width="2" stroke-linecap="round" stroke-linejoin="round"/>
<path d="M207.197 153.057C207.808 153.297 208.418 153.536 209.029 153.776" stroke="black" stroke-width="2" stroke-linecap="round" stroke-linejoin="round"/>
<path d="M198.23 157.471C197.927 158.141 197.62 158.81 197.317 159.485" stroke="black" stroke-width="2" stroke-linecap="round" stroke-linejoin="round"/>
<path d="M224.73 157.29C225.522 157.231 226.313 157.168 227.104 157.109" stroke="black" stroke-width="2" stroke-linecap="round" stroke-linejoin="round"/>
<path d="M227.289 138.084C228.144 138.632 228.994 139.184 229.849 139.732" stroke="black" stroke-width="2" stroke-linecap="round" stroke-linejoin="round"/>
<path d="M234.42 169.913C235.397 169.668 236.369 169.424 237.345 169.179" stroke="black" stroke-width="2" stroke-linecap="round" stroke-linejoin="round"/>
<path d="M234.733 173.705C235.075 174.629 235.412 175.553 235.753 176.477" stroke="black" stroke-width="2" stroke-linecap="round" stroke-linejoin="round"/>
<path d="M249.59 171.012C250.625 170.709 251.66 170.401 252.696 170.098" stroke="black" stroke-width="2" stroke-linecap="round" stroke-linejoin="round"/>
<path d="M266.239 175.196L267.714 176.643" stroke="black" stroke-width="2" stroke-linecap="round" stroke-linejoin="round"/>
<path d="M272.617 174.849C273.228 174.482 273.834 174.116 274.444 173.749" stroke="black" stroke-width="2" stroke-linecap="round" stroke-linejoin="round"/>
<path d="M274.078 162.961V165.337" stroke="black" stroke-width="2" stroke-linecap="round" stroke-linejoin="round"/>
<path d="M263.465 198.054C264.315 197.624 265.17 197.194 266.019 196.764" stroke="black" stroke-width="2" stroke-linecap="round" stroke-linejoin="round"/>
<path d="M261.526 200.963C261.902 201.442 262.278 201.921 262.654 202.4" stroke="black" stroke-width="2" stroke-linecap="round" stroke-linejoin="round"/>
<path d="M250.317 184.914C250.137 185.584 249.951 186.254 249.77 186.928" stroke="black" stroke-width="2" stroke-linecap="round" stroke-linejoin="round"/>
<path d="M243.192 186.194C243.558 186.619 243.924 187.049 244.291 187.475" stroke="black" stroke-width="2" stroke-linecap="round" stroke-linejoin="round"/>
<path d="M200.609 202.991C201.341 203.054 202.069 203.118 202.801 203.181" stroke="black" stroke-width="2" stroke-linecap="round" stroke-linejoin="round"/>
<path d="M191.08 211.257C191.143 212.171 191.207 213.085 191.266 213.999" stroke="black" stroke-width="2" stroke-linecap="round" stroke-linejoin="round"/>
<path d="M180.501 213.232L183.06 213.242" stroke="black" stroke-width="2" stroke-linecap="round" stroke-linejoin="round"/>
<path d="M218.152 212.718C218.455 213.388 218.762 214.058 219.065 214.732" stroke="black" stroke-width="2" stroke-linecap="round" stroke-linejoin="round"/>
<path d="M207.368 215.094C206.455 215.339 205.541 215.583 204.628 215.828" stroke="black" stroke-width="2" stroke-linecap="round" stroke-linejoin="round"/>
<path d="M205.156 227.076C179.325 227.076 154.973 221.166 136.58 210.432C117.401 199.238 106.837 184.084 106.837 167.752C106.837 151.42 117.401 136.267 136.58 125.073C154.973 114.338 179.325 108.428 205.156 108.428C230.987 108.428 255.339 114.338 273.732 125.073C292.911 136.267 303.475 151.42 303.475 167.752C303.475 184.084 292.911 199.238 273.732 210.432C255.339 221.166 230.987 227.076 205.156 227.076ZM205.156 117.765C180.951 117.765 158.265 123.225 141.278 133.138C125.078 142.592 116.16 154.886 116.16 167.757C116.16 180.628 125.083 192.922 141.278 202.376C158.265 212.289 180.951 217.749 205.156 217.749C229.361 217.749 252.047 212.289 269.033 202.376C285.233 192.922 294.152 180.628 294.152 167.757C294.152 154.886 285.233 142.592 269.033 133.138C252.047 123.225 229.361 117.765 205.156 117.765Z" fill="white"/>
<path d="M112.981 224.462C105.386 237.626 109.894 254.462 123.047 262.058C136.199 269.659 153.02 265.147 160.609 251.983L112.981 224.457V224.462Z" fill="#FF4E00"/>
<path d="M130.993 239.205L114.983 241.928C113.933 242.104 112.937 241.361 112.844 240.305C112.536 236.786 113 233.168 114.304 229.722C114.68 228.725 115.847 228.28 116.81 228.735L131.476 235.705C132.199 236.047 132.619 236.82 132.507 237.612V237.636C132.394 238.438 131.784 239.073 130.993 239.21V239.205Z" fill="#F7E2DA"/>
<path d="M133.078 242.504L122.08 255.18C121.498 255.849 120.463 255.898 119.833 255.272C117.367 252.823 115.511 249.905 114.314 246.747C114.002 245.916 114.47 244.992 115.32 244.733L131.369 239.865C132.053 239.654 132.761 239.967 133.152 240.568L133.166 240.593C133.557 241.189 133.547 241.962 133.078 242.504Z" fill="#F7E2DA"/>
<path d="M138.03 262.253C134.284 262.449 130.455 261.774 126.861 260.137C125.713 259.614 125.254 258.23 125.879 257.14C127.974 253.489 131.94 246.586 133.737 243.492C134.186 242.72 135.075 242.304 135.95 242.48H135.979C136.868 242.656 137.556 243.355 137.693 244.25L140.028 259.819C140.213 261.06 139.285 262.19 138.035 262.258L138.03 262.253Z" fill="#F7E2DA"/>
<path d="M154.973 253.967C152.453 256.886 149.327 259.086 145.893 260.493C144.775 260.953 143.505 260.356 143.154 259.198L138.548 244C138.294 243.159 138.607 242.255 139.32 241.747L139.344 241.732C140.047 241.224 141 241.224 141.708 241.732L154.626 250.956C155.613 251.66 155.764 253.058 154.973 253.977V253.967Z" fill="#F7E2DA"/>
<path d="M259.534 265.826C259.402 261.505 259.729 257.188 260.115 252.882C260.74 245.872 256.75 238.994 249.878 236.276C243.006 233.559 235.392 235.841 231.06 241.38C228.398 244.787 225.693 248.16 222.64 251.22C218.367 255.507 213.131 261.309 211.485 265.479C206.416 278.316 212.696 292.834 225.522 297.913C238.347 302.987 252.852 296.7 257.927 283.864C259.573 279.694 259.724 271.878 259.534 265.821V265.826Z" fill="#27AE60"/>
<path d="M232.677 296.74C237.424 297.214 242.323 296.09 246.391 293.592C250.459 291.094 253.678 287.237 255.407 282.784" stroke="black" stroke-width="2" stroke-linecap="round" stroke-linejoin="round"/>
<path d="M245.679 279.849C250.474 274.524 250.049 266.318 244.729 261.519C239.41 256.72 231.211 257.146 226.416 262.47C221.621 267.794 222.047 276.001 227.366 280.8C232.686 285.598 240.885 285.173 245.679 279.849Z" fill="#A92A23"/>
<path d="M226.836 269.503C227.232 266.981 228.717 264.649 230.831 263.222C232.951 261.799 235.666 261.301 238.152 261.892" stroke="white" stroke-width="2" stroke-linecap="round" stroke-linejoin="round"/>
</svg>
