<svg width="393" height="302" viewBox="0 0 393 302" fill="none" xmlns="http://www.w3.org/2000/svg">
<path d="M0 0H248.254C328.14 0 393 64.831 393 144.682V302H0V0Z" fill="#EAAA08"/>
<path d="M205.633 68.6475C187.695 61.2502 167.595 59.1984 148.535 62.8338C129.475 66.4618 111.537 75.7622 97.5652 89.2408C78.3717 107.76 69.9708 136.932 69.9856 163.622C70.0005 190.304 79.7235 216.882 96.9264 237.267C110.46 253.296 127.336 267.406 147.265 273.934C167.194 280.454 189.789 279.383 208.359 269.637C226.929 259.89 240.93 241.245 243.686 220.436L205.625 68.6549L205.633 68.6475Z" fill="#FF0000"/>
<path d="M201.815 249.088C201.867 247.861 200.917 246.828 199.691 246.776C198.466 246.723 197.433 247.675 197.381 248.902C197.329 250.129 198.28 251.162 199.505 251.214C200.731 251.266 201.763 250.314 201.815 249.088Z" fill="white"/>
<path d="M171.138 174.454C171.19 173.227 170.239 172.194 169.014 172.142C167.788 172.09 166.756 173.041 166.704 174.268C166.652 175.495 167.603 176.528 168.828 176.58C170.054 176.632 171.086 175.681 171.138 174.454Z" fill="#FF4600"/>
<path d="M128.02 283.731C128.072 282.505 127.121 281.471 125.895 281.419C124.67 281.367 123.637 282.319 123.585 283.546C123.533 284.772 124.484 285.806 125.71 285.858C126.935 285.91 127.968 284.958 128.02 283.731Z" fill="#FFBE00"/>
<path d="M278.136 246.799C278.188 245.572 277.238 244.539 276.012 244.487C274.786 244.435 273.754 245.386 273.702 246.613C273.65 247.84 274.601 248.873 275.826 248.925C277.052 248.977 278.084 248.025 278.136 246.799Z" fill="#FF4600"/>
<path d="M54.9965 147.086C55.0485 145.86 54.0978 144.826 52.8722 144.774C51.6466 144.722 50.6141 145.674 50.5621 146.901C50.5101 148.127 51.4609 149.161 52.6865 149.213C53.9121 149.265 54.9446 148.313 54.9965 147.086Z" fill="#FFBE00"/>
<path d="M133.62 93.7383C133.672 92.5116 132.721 91.4782 131.496 91.4262C130.27 91.3741 129.238 92.3257 129.186 93.5524C129.134 94.7791 130.084 95.8124 131.31 95.8645C132.536 95.9165 133.568 94.9649 133.62 93.7383Z" fill="#FFBE00"/>
<path d="M180.839 240.583C180.839 239.84 180.237 239.237 179.495 239.237C178.752 239.237 178.15 239.84 178.15 240.583C178.15 241.326 178.752 241.929 179.495 241.929C180.237 241.929 180.839 241.326 180.839 240.583Z" fill="#FFBE00"/>
<path d="M157.575 162.069C158.317 162.069 158.919 161.466 158.919 160.723C158.919 159.98 158.317 159.377 157.575 159.377C156.832 159.377 156.23 159.98 156.23 160.723C156.23 161.466 156.832 162.069 157.575 162.069Z" fill="white"/>
<path d="M59.1559 169.317C59.8984 169.317 60.5003 168.715 60.5003 167.971C60.5003 167.228 59.8984 166.626 59.1559 166.626C58.4134 166.626 57.8115 167.228 57.8115 167.971C57.8115 168.715 58.4134 169.317 59.1559 169.317Z" fill="#FF9A7D"/>
<path d="M117.829 110.993C118.571 110.993 119.173 110.391 119.173 109.648C119.173 108.905 118.571 108.302 117.829 108.302C117.086 108.302 116.484 108.905 116.484 109.648C116.484 110.391 117.086 110.993 117.829 110.993Z" fill="white"/>
<path d="M104.377 105.774C105.119 105.774 105.721 105.171 105.721 104.428C105.721 103.685 105.119 103.082 104.377 103.082C103.634 103.082 103.032 103.685 103.032 104.428C103.032 105.171 103.634 105.774 104.377 105.774Z" fill="white"/>
<path d="M255.363 251.273C255.363 250.53 254.761 249.927 254.018 249.927C253.276 249.927 252.674 250.53 252.674 251.273C252.674 252.016 253.276 252.619 254.018 252.619C254.761 252.619 255.363 252.016 255.363 251.273Z" fill="white"/>
<path d="M142.511 287.152C143.254 287.152 143.856 286.549 143.856 285.806C143.856 285.063 143.254 284.461 142.511 284.461C141.769 284.461 141.167 285.063 141.167 285.806C141.167 286.549 141.769 287.152 142.511 287.152Z" fill="#FF9A7D"/>
<path d="M165.627 259.317C166.369 259.317 166.971 258.715 166.971 257.972C166.971 257.229 166.369 256.626 165.627 256.626C164.884 256.626 164.282 257.229 164.282 257.972C164.282 258.715 164.884 259.317 165.627 259.317Z" fill="#FF9A7D"/>
<path d="M196.987 271.429L189.329 272.306L193.919 278.507L196.987 271.429Z" fill="#FF4600"/>
<path d="M265.346 112.74L262.256 105.677L257.688 111.892L265.346 112.74Z" fill="#FF4600"/>
<path d="M75.1114 139.415L70.8924 132.962L67.4161 139.839L75.1114 139.415Z" fill="#FF4600"/>
<path d="M276.436 227.103L274.645 234.604L282.029 232.411L276.436 227.103Z" fill="#FFBE00"/>
<path d="M151.358 7.93848C142.199 27.7512 143.7 52.1286 155.22 70.6625C163.562 49.4968 162.292 27.885 151.358 7.93848Z" fill="#95BA29"/>
<path d="M151.581 27.8415C152.791 43.8181 153.995 59.7946 155.205 75.7711" stroke="black" stroke-width="2" stroke-linecap="round" stroke-linejoin="round"/>
<path d="M178.878 26.2198C166.392 37.3194 159.989 54.8942 162.403 71.4358C174.733 59.1318 180.445 43.5791 178.878 26.2198Z" fill="#95BA29"/>
<path d="M175.253 37.1259C170.522 49.7644 165.783 62.4028 161.051 75.0487" stroke="black" stroke-width="2" stroke-linecap="round" stroke-linejoin="round"/>
<path d="M188.549 50.7302C178.068 53.8526 169.4 62.5063 166.258 72.9888C176.977 69.108 184.679 61.458 188.549 50.7302Z" fill="#95BA29"/>
<path d="M164.223 74.7124L182.065 56.8699" stroke="black" stroke-width="2" stroke-linecap="round" stroke-linejoin="round"/>
<path d="M132.588 262.448C132.29 266.188 120.302 271.593 106.137 270.455C91.9721 269.325 80.9937 262.084 81.2909 258.337C81.588 254.597 93.3165 252.479 107.481 253.616C121.646 254.746 132.885 258.701 132.588 262.448Z" fill="#E6E9F1"/>
<path d="M150.154 175.865L129.527 167.011L101.376 164.587L77.6883 170.066L81.2908 258.343L132.588 262.446L150.154 175.865Z" fill="#E6E9F1"/>
<path d="M114.709 163.101C134.719 164.7 150.6 170.29 150.177 175.576L145.616 175.212C144.554 174.312 141.984 172.766 136.807 171.16C130.664 169.249 122.701 167.83 114.382 167.168C106.063 166.499 97.9739 166.633 91.6082 167.547C86.2379 168.313 83.4599 169.428 82.2715 170.149L77.7108 169.785C78.1341 164.499 94.6982 161.51 114.709 163.109V163.101Z" fill="white"/>
<path d="M298.749 171.74C303.844 180.884 287.941 210.02 257.695 226.903C227.449 243.787 194.328 242.032 189.232 232.888C184.137 223.744 204.519 202.637 234.765 185.754C265.011 168.87 293.66 162.596 298.756 171.74H298.749Z" fill="#E6E9F1"/>
<path d="M224.508 67.1535L194.9 72.655L161.668 90.9436L133.799 121.655L169.683 151.935L188.579 231.067L297.939 170.618L239.861 110.994L224.508 67.1535Z" fill="#E6E9F1"/>
<path d="M175.446 79.3383C161.371 87.1964 149.895 95.9691 143.692 103.084L131.11 117.388L138.664 117.99L152.977 101.515C159.41 95.7535 168.338 89.568 178.113 84.1112C187.888 78.6543 197.834 74.2978 206.116 71.8444C213.091 69.7776 217.102 69.5844 218.959 69.7999L224.322 66.8039C220.86 60.5887 198.978 66.1942 175.454 79.3308L175.446 79.3383Z" fill="white"/>
<path d="M236.585 232.419C258.415 225.468 277.683 210.718 290.088 191.441" stroke="black" stroke-width="2" stroke-linecap="round" stroke-linejoin="round"/>
<path d="M77.1347 67.7969L69.4862 70.3391L106.009 180.42L113.657 177.878L77.1347 67.7969Z" fill="white"/>
<path d="M78.3123 71.1442L81.2835 80.0952L75.46 88.1541L72.4146 78.9726L78.3123 71.1442Z" fill="#FA101D"/>
<path d="M77.4582 94.1684L83.7273 87.47L86.0076 94.3319L80.6002 103.647L77.4582 94.1684Z" fill="#FA101D"/>
<path d="M82.7836 110.219L89.3126 104.309L91.229 110.078L84.9451 116.724L82.7836 110.219Z" fill="#FA101D"/>
<path d="M88.0428 126.062L93.6583 117.386L97.3648 128.553L90.65 133.913L88.0428 126.062Z" fill="#FA101D"/>
<path d="M92.938 140.822L100.069 136.711L102.201 143.127L96.1765 150.583L92.938 140.822Z" fill="#FA101D"/>
<path d="M98.1599 156.56L105.008 151.594L107.266 158.404L101.45 166.471L98.1599 156.56Z" fill="#FA101D"/>
<path d="M103.604 172.968L110.572 168.343L113.721 177.845L106.07 180.387L103.604 172.968Z" fill="#FA101D"/>
<path d="M288 169.339C287.807 168.99 287.554 168.67 287.28 168.373H287.295L236.83 116.555L232.581 104.43C232.581 104.43 181.106 87.7394 135.707 107.344C132.379 108.779 129.393 110.912 126.994 113.633C118.638 123.112 99.682 149.973 90.4789 206.236H127.113L130.463 118.8L138.039 120.235L175.84 152.129L192.255 220.89C192.367 221.455 192.552 221.982 192.82 222.473C197.247 230.42 226.03 231.944 252.309 217.276C278.589 202.601 292.412 177.287 287.985 169.339H288Z" fill="#27AE60"/>
<path d="M189.217 156.723C184.664 167.154 189.418 179.301 199.839 183.859C210.26 188.416 222.397 183.658 226.951 173.228L189.217 156.716V156.723Z" fill="#FF4E00"/>
<path d="M203.85 166.194L192.166 169.554C191.401 169.777 190.592 169.302 190.436 168.521C189.916 165.926 189.96 163.198 190.644 160.522C190.844 159.748 191.669 159.317 192.426 159.577L203.925 163.54C204.489 163.733 204.868 164.276 204.853 164.871V164.893C204.838 165.495 204.437 166.023 203.858 166.194H203.85Z" fill="#FFBE00"/>
<path d="M205.678 168.468L198.547 178.817C198.168 179.367 197.403 179.486 196.883 179.077C194.848 177.457 193.221 175.442 192.07 173.197C191.765 172.602 192.04 171.881 192.649 171.613L204.185 166.647C204.675 166.439 205.232 166.602 205.566 167.019L205.581 167.034C205.923 167.442 205.975 168.022 205.67 168.461L205.678 168.468Z" fill="#FFBE00"/>
<path d="M211.003 182.752C208.233 183.212 205.328 183.027 202.513 182.105C201.614 181.815 201.154 180.819 201.533 179.956C202.788 177.064 205.165 171.593 206.242 169.147C206.509 168.537 207.141 168.15 207.802 168.21H207.824C208.5 168.262 209.072 168.73 209.243 169.384L212.273 180.774C212.519 181.681 211.917 182.603 210.988 182.752H211.003Z" fill="#FFBE00"/>
<path d="M222.925 175.175C221.291 177.554 219.152 179.457 216.715 180.788C215.921 181.219 214.925 180.884 214.569 180.052L209.874 169.131C209.614 168.528 209.77 167.83 210.261 167.391L210.275 167.376C210.758 166.937 211.464 166.863 212.036 167.175L222.42 172.959C223.215 173.398 223.445 174.431 222.925 175.175Z" fill="#FFBE00"/>
<path d="M223.69 154.752C231.831 158.967 241.851 155.778 246.063 147.63C250.274 139.482 247.088 129.453 238.947 125.237L223.698 154.752H223.69Z" fill="#FF4E00"/>
<path d="M232.076 143.467L234.163 153.049C234.297 153.674 233.881 154.298 233.242 154.388C231.133 154.67 228.934 154.492 226.825 153.8C226.216 153.6 225.911 152.908 226.164 152.313L229.952 143.266C230.137 142.82 230.591 142.545 231.073 142.589H231.088C231.571 142.634 231.972 142.983 232.076 143.459V143.467Z" fill="#FFBE00"/>
<path d="M234 142.121L241.948 148.403C242.371 148.738 242.431 149.362 242.067 149.756C240.663 151.31 238.955 152.514 237.083 153.325C236.593 153.54 236.021 153.28 235.842 152.775L232.463 143.221C232.322 142.812 232.485 142.374 232.834 142.128H232.849C233.198 141.868 233.666 141.853 234 142.121Z" fill="#FFBE00"/>
<path d="M245.759 138.574C245.981 140.826 245.677 143.161 244.793 145.376C244.511 146.082 243.686 146.402 243.01 146.053C240.752 144.885 236.481 142.692 234.565 141.689C234.089 141.436 233.815 140.915 233.896 140.38V140.365C233.978 139.823 234.379 139.391 234.914 139.28L244.228 137.436C244.971 137.288 245.677 137.815 245.751 138.574H245.759Z" fill="#FFBE00"/>
<path d="M240.299 128.582C242.126 130.024 243.537 131.846 244.481 133.883C244.785 134.544 244.466 135.332 243.775 135.57L234.75 138.774C234.252 138.953 233.695 138.789 233.369 138.373V138.358C233.034 137.949 233.005 137.369 233.294 136.931L238.486 128.879C238.88 128.262 239.719 128.136 240.299 128.589V128.582Z" fill="#FFBE00"/>
<path d="M224.7 197.352C226.649 197.352 228.229 195.771 228.229 193.821C228.229 191.871 226.649 190.29 224.7 190.29C222.752 190.29 221.172 191.871 221.172 193.821C221.172 195.771 222.752 197.352 224.7 197.352Z" fill="#EA050C"/>
<path d="M210.12 204.571C210.12 202.623 208.537 201.039 206.591 201.039C204.645 201.039 203.063 202.623 203.063 204.571C203.063 206.518 204.645 208.102 206.591 208.102C208.537 208.102 210.12 206.518 210.12 204.571Z" fill="#EA050C"/>
<path d="M207.46 192.705C207.46 190.757 205.878 189.174 203.932 189.174C201.986 189.174 200.404 190.757 200.404 192.705C200.404 194.653 201.986 196.237 203.932 196.237C205.878 196.237 207.46 194.653 207.46 192.705Z" fill="#EA050C"/>
<path d="M284.42 169.853C284.42 167.905 282.838 166.322 280.892 166.322C278.946 166.322 277.364 167.905 277.364 169.853C277.364 171.801 278.946 173.385 280.892 173.385C282.838 173.385 284.42 171.801 284.42 169.853Z" fill="#EA050C"/>
<path d="M215.014 153.831C215.014 151.883 213.432 150.3 211.486 150.3C209.54 150.3 207.958 151.883 207.958 153.831C207.958 155.779 209.54 157.362 211.486 157.362C213.432 157.362 215.014 155.779 215.014 153.831Z" fill="#EA050C"/>
<path d="M166.421 134.317C166.421 132.369 164.839 130.786 162.893 130.786C160.947 130.786 159.365 132.369 159.365 134.317C159.365 136.265 160.947 137.848 162.893 137.848C164.839 137.848 166.421 136.265 166.421 134.317Z" fill="#EA050C"/>
<path d="M217.384 200.743C217.384 199.554 216.418 198.587 215.23 198.587C214.041 198.587 213.075 199.554 213.075 200.743C213.075 201.933 214.041 202.899 215.23 202.899C216.418 202.899 217.384 201.933 217.384 200.743Z" fill="#EA050C"/>
<path d="M197.737 200.327C197.737 199.137 196.772 198.171 195.583 198.171C194.395 198.171 193.429 199.137 193.429 200.327C193.429 201.516 194.395 202.483 195.583 202.483C196.772 202.483 197.737 201.516 197.737 200.327Z" fill="#EA050C"/>
<path d="M244.102 162.508C244.102 161.319 243.136 160.352 241.948 160.352C240.759 160.352 239.794 161.319 239.794 162.508C239.794 163.698 240.759 164.664 241.948 164.664C243.136 164.664 244.102 163.698 244.102 162.508Z" fill="#EA050C"/>
<path d="M205.596 123.232C205.596 122.042 204.63 121.076 203.442 121.076C202.253 121.076 201.288 122.042 201.288 123.232C201.288 124.421 202.253 125.388 203.442 125.388C204.63 125.388 205.596 124.421 205.596 123.232Z" fill="#EA050C"/>
<path d="M218.721 146.278C219.911 146.278 220.875 145.312 220.875 144.122C220.875 142.931 219.911 141.966 218.721 141.966C217.531 141.966 216.567 142.931 216.567 144.122C216.567 145.312 217.531 146.278 218.721 146.278Z" fill="#EA050C"/>
<path d="M153.259 125.47C153.259 124.281 152.294 123.314 151.105 123.314C149.917 123.314 148.951 124.281 148.951 125.47C148.951 126.66 149.917 127.626 151.105 127.626C152.294 127.626 153.259 126.66 153.259 125.47Z" fill="#EA050C"/>
<path d="M170.225 126.905C170.225 125.716 169.259 124.749 168.071 124.749C166.882 124.749 165.916 125.716 165.916 126.905C165.916 128.095 166.882 129.061 168.071 129.061C169.259 129.061 170.225 128.095 170.225 126.905Z" fill="#EA050C"/>
<path d="M285.037 179.674C285.037 178.484 284.071 177.518 282.883 177.518C281.694 177.518 280.729 178.484 280.729 179.674C280.729 180.863 281.694 181.83 282.883 181.83C284.071 181.83 285.037 180.863 285.037 179.674Z" fill="#EA050C"/>
<path d="M277.973 191.509C277.973 190.32 277.007 189.353 275.819 189.353C274.63 189.353 273.665 190.32 273.665 191.509C273.665 192.699 274.63 193.665 275.819 193.665C277.007 193.665 277.973 192.699 277.973 191.509Z" fill="#EA050C"/>
<path d="M262.813 147.809C262.813 146.619 261.847 145.653 260.659 145.653C259.47 145.653 258.505 146.619 258.505 147.809C258.505 148.998 259.47 149.965 260.659 149.965C261.847 149.965 262.813 148.998 262.813 147.809Z" fill="#EA050C"/>
<path d="M274.964 183.258C274.964 182.068 273.999 181.102 272.81 181.102C271.622 181.102 270.656 182.068 270.656 183.258C270.656 184.447 271.622 185.414 272.81 185.414C273.999 185.414 274.964 184.447 274.964 183.258Z" fill="#EA050C"/>
<path d="M255.318 143.505C255.318 142.315 254.352 141.349 253.164 141.349C251.975 141.349 251.01 142.315 251.01 143.505C251.01 144.694 251.975 145.661 253.164 145.661C254.352 145.661 255.318 144.694 255.318 143.505Z" fill="#EA050C"/>
<path d="M229.625 105.567C201.778 112.116 173.3 115.99 144.717 117.112" stroke="black" stroke-width="2" stroke-linecap="round" stroke-linejoin="round"/>
<path d="M191.616 129.493C193.169 130.563 194.327 132.942 195.167 135.47C196.734 140.198 193.34 145.15 188.363 145.395C185.704 145.529 183.067 145.298 181.507 144.235C177.437 141.44 177.927 136.927 180.72 132.853C183.512 128.779 187.546 126.697 191.609 129.485L191.616 129.493Z" fill="#EA050C"/>
<path d="M179.888 132.28L173.633 136.146L180.006 136.02L179.732 141.031L183.044 135.329L187.479 137.484L185.132 132.489L188.504 129.946L184.047 130.243L184.597 124.541L181.143 130.444L178.565 129.827L179.888 132.28Z" fill="#95BA29"/>
<path d="M189.552 132.273H191.847" stroke="black" stroke-width="2" stroke-linecap="round" stroke-linejoin="round"/>
<path d="M192.314 134.571L192.568 136.868" stroke="black" stroke-width="2" stroke-linecap="round" stroke-linejoin="round"/>
<path d="M190.042 139.907C189.782 140.331 189.529 140.755 189.269 141.179" stroke="black" stroke-width="2" stroke-linecap="round" stroke-linejoin="round"/>
<path d="M191.847 141.453H193.377" stroke="black" stroke-width="2" stroke-linecap="round" stroke-linejoin="round"/>
<path d="M184.151 142.012C184.471 142.369 184.79 142.726 185.11 143.083" stroke="black" stroke-width="2" stroke-linecap="round" stroke-linejoin="round"/>
<path d="M269.839 171.609C269.654 173.49 268.123 175.653 266.311 177.601C262.924 181.251 256.952 180.657 254.345 176.412C252.948 174.137 251.879 171.72 252.064 169.839C252.555 164.925 256.744 163.186 261.654 163.669C266.564 164.16 270.33 166.687 269.847 171.601L269.839 171.609Z" fill="#EA050C"/>
<path d="M261.75 162.657L255.347 159.037L258.534 164.568L254.018 166.739L260.599 166.902L260.844 171.824L264.09 167.363L267.938 169.095L265.538 165.326L270.797 163.066L263.964 162.88L263.258 160.323L261.75 162.657Z" fill="#95BA29"/>
<path d="M256.045 172.308C256.127 172.821 256.217 173.326 256.299 173.839" stroke="black" stroke-width="2" stroke-linecap="round" stroke-linejoin="round"/>
<path d="M258.594 176.642C259.188 176.813 259.782 176.984 260.376 177.155" stroke="black" stroke-width="2" stroke-linecap="round" stroke-linejoin="round"/>
<path d="M261.141 173.58C261.565 173.327 261.988 173.067 262.412 172.814" stroke="black" stroke-width="2" stroke-linecap="round" stroke-linejoin="round"/>
<path d="M265.472 173.831V175.615" stroke="black" stroke-width="2" stroke-linecap="round" stroke-linejoin="round"/>
<path d="M261.781 165.17C261.699 163.385 261.609 161.601 261.527 159.817" stroke="black" stroke-width="2" stroke-linecap="round" stroke-linejoin="round"/>
<path d="M207.646 214.511C212.92 221.967 223.237 223.737 230.687 218.458C238.137 213.18 239.905 202.854 234.631 195.397L207.653 214.511H207.646Z" fill="#EA050C"/>
<path d="M209.503 213.195C214.049 219.626 222.947 221.15 229.372 216.6C235.797 212.05 237.32 203.144 232.774 196.713L209.503 213.195Z" fill="#FFE6D2"/>
<path d="M215.757 208.764C212.987 214.459 224.017 219.217 224.953 210.34C233.123 212.682 235.396 200.133 226.527 201.136L215.757 208.764Z" fill="white"/>
<path d="M221.142 208.118V210.668" stroke="black" stroke-width="2" stroke-linecap="round" stroke-linejoin="round"/>
<path d="M225.213 205.819C226.401 205.648 227.59 205.478 228.778 205.314" stroke="black" stroke-width="2" stroke-linecap="round" stroke-linejoin="round"/>
<path d="M244.124 213.56C253.179 212.393 259.567 204.104 258.401 195.041C257.234 185.978 248.952 179.585 239.898 180.752L244.124 213.568V213.56Z" fill="#EA050C"/>
<path d="M243.835 211.301C251.641 210.297 257.153 203.145 256.15 195.332C255.147 187.518 248.002 182.002 240.195 183.005L243.842 211.301H243.835Z" fill="#FFE6D2"/>
<path d="M242.854 203.702C246.583 208.817 255.95 201.301 248.551 196.312C254.449 190.186 244.436 182.291 241.168 190.61L242.854 203.709V203.702Z" fill="white"/>
<path d="M244.786 192.78L246.576 191.003" stroke="black" stroke-width="2" stroke-linecap="round" stroke-linejoin="round"/>
<path d="M245.855 200.216L247.638 201.748" stroke="black" stroke-width="2" stroke-linecap="round" stroke-linejoin="round"/>
<path d="M305.761 101.849C300.212 82.5563 284.435 67.851 266.497 65.249C256.507 63.7993 237.424 65.0408 221.781 89.5967C221.781 89.5967 232.366 95.8416 232.485 95.6557C234.646 97.3433 237.417 98.3023 240.41 98.109C246.108 97.7522 250.794 93.1874 251.3 87.5001C251.374 86.6823 251.359 85.872 251.27 85.0914C250.839 81.337 253.417 77.9469 257.153 77.3968C259.641 77.0325 262.174 77.0325 264.737 77.3968C277.772 79.2851 289.798 90.7341 293.965 105.239C297.367 117.059 295.25 129.14 288.186 139.928C286.99 141.749 284.688 142.619 282.63 141.898C281.91 141.645 281.13 141.511 280.328 141.511C276.443 141.511 273.286 144.663 273.286 148.559C273.286 152.098 284.777 161.971 284.777 161.971C304.32 145.355 311.963 123.438 305.753 101.841L305.761 101.849Z" fill="#E6E9F1"/>
<path d="M235.612 79.9618C239.14 74.8321 244.325 70.8621 250.193 68.8028" stroke="white" stroke-width="2" stroke-linecap="round" stroke-linejoin="round"/>
<path d="M283.878 157.1C299.046 147.086 307.551 127.839 304.758 109.862" stroke="black" stroke-width="2" stroke-linecap="round" stroke-linejoin="round"/>
<path d="M224.322 66.8103L218.959 69.8063C218.164 71.5014 215.891 74.8172 210.476 79.6719C204.043 85.4335 195.115 91.6189 185.34 97.0757C175.565 102.533 165.619 106.889 157.337 109.342L131.117 117.387C129.386 119.357 131.28 122.368 133.798 121.654L159.179 114.48C159.224 114.465 160.056 114.227 160.227 114.175C168.338 111.64 178.024 107.424 188.007 101.849C211.531 88.7121 227.798 73.0255 224.329 66.8103H224.322Z" fill="white"/>
<path d="M84.0837 204.695L85.9556 250.632C85.703 253.814 95.0398 259.977 107.095 260.936C119.143 261.903 129.342 257.308 129.602 254.119L139.867 203.528C139.867 203.528 113.268 195.298 84.0912 204.695H84.0837Z" fill="#27AE60"/>
<path d="M110.23 214.902C110.23 212.954 108.648 211.371 106.702 211.371C104.756 211.371 103.173 212.954 103.173 214.902C103.173 216.85 104.756 218.434 106.702 218.434C108.648 218.434 110.23 216.85 110.23 214.902Z" fill="#EA050C"/>
<path d="M102.252 225.622C102.252 224.433 101.287 223.466 100.098 223.466C98.9097 223.466 97.9441 224.433 97.9441 225.622C97.9441 226.812 98.9097 227.778 100.098 227.778C101.287 227.778 102.252 226.812 102.252 225.622Z" fill="#EA050C"/>
<path d="M122.53 247.48C122.53 246.291 121.564 245.324 120.376 245.324C119.188 245.324 118.222 246.291 118.222 247.48C118.222 248.67 119.188 249.636 120.376 249.636C121.564 249.636 122.53 248.67 122.53 247.48Z" fill="#EA050C"/>
<path d="M113.379 250.788C113.379 249.599 112.414 248.632 111.225 248.632C110.037 248.632 109.071 249.599 109.071 250.788C109.071 251.978 110.037 252.944 111.225 252.944C112.414 252.944 113.379 251.978 113.379 250.788Z" fill="#EA050C"/>
<path d="M93.8587 217.058C93.8587 215.868 92.8931 214.902 91.7046 214.902C90.5162 214.902 89.5505 215.868 89.5505 217.058C89.5505 218.247 90.5162 219.214 91.7046 219.214C92.8931 219.214 93.8587 218.247 93.8587 217.058Z" fill="#EA050C"/>
<path d="M85.8516 206.353C103.522 208.531 121.542 207.869 139.005 204.405" stroke="black" stroke-width="2" stroke-linecap="round" stroke-linejoin="round"/>
<path d="M106.352 239.569C107.028 241.331 106.642 243.948 105.899 246.513C104.517 251.301 98.9168 253.464 94.6829 250.847C92.4174 249.449 90.3673 247.769 89.684 246.007C87.9087 241.398 90.865 237.956 95.4703 236.179C100.076 234.402 104.577 234.967 106.352 239.569Z" fill="#EA050C"/>
<path d="M95.0991 235.227L87.7529 234.877L93.0861 238.379L90.0258 242.356L95.983 239.531L98.4119 243.821L99.3032 238.371L103.522 238.186L99.682 235.903L103.359 231.51L97.1715 234.424L95.3962 232.461L95.0991 235.227Z" fill="#95BA29"/>
<path d="M96.3097 247.776C96.6514 248.029 96.9857 248.289 97.3273 248.542" stroke="black" stroke-width="2" stroke-linecap="round" stroke-linejoin="round"/>
<path d="M101.153 248.542C101.665 248.289 102.17 248.029 102.683 247.776" stroke="black" stroke-width="2" stroke-linecap="round" stroke-linejoin="round"/>
<path d="M101.651 242.469C102.074 242.551 102.497 242.64 102.921 242.722" stroke="black" stroke-width="2" stroke-linecap="round" stroke-linejoin="round"/>
<path d="M99.6757 245.234C99.5937 245.658 99.5116 246.089 99.4296 246.513" stroke="black" stroke-width="2" stroke-linecap="round" stroke-linejoin="round"/>
<path d="M91.4295 244.974L91.683 246.758" stroke="black" stroke-width="2" stroke-linecap="round" stroke-linejoin="round"/>
<path d="M107.66 240.231C115.407 245.055 125.598 242.684 130.426 234.93C135.247 227.176 132.877 216.976 125.13 212.143L107.66 240.231Z" fill="#EA050C"/>
<path d="M108.863 238.297C115.548 242.46 124.335 240.416 128.495 233.725C132.654 227.034 130.612 218.239 123.927 214.076L108.863 238.297Z" fill="#FFE6D2"/>
<path d="M112.904 231.792C112.562 238.119 124.566 238.223 121.988 229.673C130.426 228.662 127.663 216.21 119.871 220.581L112.897 231.792H112.904Z" fill="white"/>
<path d="M117.665 229.941C117.918 230.707 118.178 231.473 118.43 232.239" stroke="black" stroke-width="2" stroke-linecap="round" stroke-linejoin="round"/>
<path d="M120.257 225.34L123.317 224.321" stroke="black" stroke-width="2" stroke-linecap="round" stroke-linejoin="round"/>
<path d="M94.6166 165.294C88.3104 171.955 88.5926 182.468 95.2406 188.787C101.896 195.099 112.399 194.816 118.713 188.162L94.6166 165.302V165.294Z" fill="#FFA000"/>
<path d="M103.114 176.484L93.3318 175.83C92.693 175.785 92.2102 175.213 92.3067 174.573C92.6187 172.462 93.3986 170.403 94.6539 168.566C95.0179 168.031 95.7607 167.934 96.2658 168.336L103.902 174.492C104.28 174.796 104.414 175.309 104.236 175.755V175.77C104.05 176.224 103.604 176.514 103.122 176.484H103.114Z" fill="#FFDC00"/>
<path d="M103.879 178.713L95.6417 184.608C95.2035 184.92 94.5869 184.801 94.3047 184.348C93.2054 182.564 92.522 180.586 92.262 178.571C92.1952 178.036 92.5963 177.56 93.1311 177.531L103.24 176.928C103.671 176.906 104.043 177.181 104.191 177.59V177.605C104.34 178.014 104.228 178.46 103.879 178.713Z" fill="#FFBE00"/>
<path d="M104.013 191.002C101.785 190.593 99.6306 189.656 97.7513 188.184C97.1497 187.716 97.0754 186.839 97.5953 186.289C99.3409 184.437 102.639 180.943 104.124 179.382C104.496 178.988 105.075 178.877 105.565 179.1H105.58C106.078 179.33 106.382 179.843 106.338 180.386L105.521 189.857C105.454 190.615 104.756 191.143 104.006 191.009L104.013 191.002Z" fill="#FFBE00"/>
<path d="M115.125 188.527C113.238 189.887 111.091 190.735 108.878 191.077C108.157 191.189 107.496 190.661 107.452 189.932L106.88 180.364C106.85 179.836 107.162 179.346 107.652 179.152H107.667C108.15 178.944 108.714 179.078 109.056 179.479L115.347 186.713C115.83 187.263 115.719 188.111 115.125 188.534V188.527Z" fill="#FFBE00"/>
<path d="M82.2711 170.142C83.3333 171.042 85.9033 172.588 91.0805 174.194C97.2234 176.105 105.186 177.525 113.505 178.186C121.824 178.856 129.913 178.722 136.279 177.807C141.649 177.042 144.427 175.926 145.616 175.205L150.176 175.57C149.753 180.855 133.189 183.844 113.178 182.246C93.1678 180.647 77.287 175.057 77.7104 169.771L82.2711 170.135V170.142Z" fill="white"/>
<path d="M108.581 57.2416C103.678 64.9511 105.951 75.1733 113.647 80.08C121.349 84.9867 131.562 82.7119 136.465 75.0098L108.581 57.249V57.2416Z" fill="#FF4600"/>
<path d="M110.497 58.4677C106.271 65.114 108.224 73.9313 114.865 78.1615C121.505 82.3916 130.315 80.4364 134.541 73.79L110.49 58.4677H110.497Z" fill="#FFE6D2"/>
<path d="M116.959 62.5795C110.646 62.1706 110.415 74.1846 118.98 71.6941C119.908 80.147 132.372 77.5078 128.086 69.6719L116.952 62.5795H116.959Z" fill="white"/>
<path d="M115.675 67.9019C116.44 67.8944 117.205 67.887 117.97 67.8721" stroke="black" stroke-width="2" stroke-linecap="round" stroke-linejoin="round"/>
<path d="M123.318 70.8166L124.335 73.3666" stroke="black" stroke-width="2" stroke-linecap="round" stroke-linejoin="round"/>
<path d="M244.08 285.11C247.154 284.384 249.058 281.3 248.332 278.223C247.607 275.146 244.526 273.241 241.452 273.967C238.378 274.693 236.474 277.776 237.199 280.853C237.925 283.93 241.005 285.836 244.08 285.11Z" fill="#EA050C"/>
<path d="M237.038 272.372C238.1 273.584 239.162 274.803 240.225 276.015" stroke="black" stroke-width="2" stroke-linecap="round" stroke-linejoin="round"/>
<path d="M302.076 227.722C305.235 227.722 307.796 225.159 307.796 221.997C307.796 218.836 305.235 216.273 302.076 216.273C298.918 216.273 296.357 218.836 296.357 221.997C296.357 225.159 298.918 227.722 302.076 227.722Z" fill="#EA050C"/>
<path d="M304 217.201C304.527 216.064 305.062 214.926 305.59 213.781" stroke="black" stroke-width="2" stroke-linecap="round" stroke-linejoin="round"/>
</svg>
