<svg width="30" height="30" viewBox="0 0 30 30" fill="none" xmlns="http://www.w3.org/2000/svg">
<path d="M28.5003 28.5001L21.9858 21.9856M21.9858 21.9856C23.1001 20.8712 23.9841 19.5483 24.5871 18.0924C25.1902 16.6364 25.5006 15.076 25.5006 13.5001C25.5006 11.9242 25.1902 10.3637 24.5872 8.90775C23.9841 7.4518 23.1001 6.1289 21.9858 5.01457C20.8715 3.90023 19.5486 3.0163 18.0926 2.41323C16.6367 1.81015 15.0762 1.49976 13.5003 1.49976C11.9244 1.49976 10.3639 1.81015 8.90799 2.41323C7.45204 3.0163 6.12914 3.90023 5.01481 5.01457C2.76431 7.26506 1.5 10.3174 1.5 13.5001C1.5 16.6827 2.76431 19.7351 5.01481 21.9856C7.2653 24.2361 10.3176 25.5004 13.5003 25.5004C16.683 25.5004 19.7353 24.2361 21.9858 21.9856Z" stroke="#994E33" stroke-width="3" stroke-linecap="round" stroke-linejoin="round"/>
</svg>
