<svg width="22" height="22" viewBox="0 0 22 22" fill="none" xmlns="http://www.w3.org/2000/svg">
<path fill-rule="evenodd" clip-rule="evenodd" d="M9.07283 1.57795C9.67062 0.140682 11.7067 0.140687 12.3045 1.57795L14.3206 6.42537C14.3566 6.51193 14.438 6.57107 14.5315 6.57856L19.7647 6.9981C21.3163 7.1225 21.9455 9.05889 20.7633 10.0716L16.7761 13.487C16.7049 13.548 16.6738 13.6437 16.6956 13.7348L17.9137 18.8416C18.2749 20.3557 16.6277 21.5524 15.2993 20.7411L10.819 18.0045C10.739 17.9556 10.6383 17.9556 10.5583 18.0045L6.07798 20.7411C4.74956 21.5525 3.10237 20.3557 3.46355 18.8416L4.68169 13.7348C4.70344 13.6437 4.67234 13.548 4.60115 13.487L0.614003 10.0716C-0.568189 9.05888 0.0609881 7.1225 1.61263 6.9981L6.84583 6.57856C6.93927 6.57107 7.02068 6.51193 7.05668 6.42537L9.07283 1.57795ZM10.9195 2.15399C10.8341 1.94867 10.5432 1.94867 10.4578 2.15399L8.44166 7.00141C8.18965 7.60732 7.61983 8.02132 6.9657 8.07376L1.7325 8.4933C1.51083 8.51108 1.42096 8.7877 1.58984 8.93237L5.57698 12.3478C6.07536 12.7747 6.29301 13.4446 6.14075 14.0829L4.92261 19.1896C4.87101 19.4059 5.10633 19.5769 5.2961 19.461L9.77645 16.7244C10.3365 16.3823 11.0408 16.3823 11.6008 16.7244L16.0812 19.4609C16.271 19.5769 16.5063 19.4059 16.4547 19.1896L15.2365 14.0829C15.0843 13.4446 15.3019 12.7747 15.8003 12.3478L19.7874 8.93237C19.9563 8.7877 19.8665 8.51107 19.6448 8.4933L14.4116 8.07376C13.7575 8.02132 13.1876 7.60732 12.9356 7.00141L10.9195 2.15399Z" fill="#1A202C"/>
</svg>
