<svg width="12" height="15" viewBox="0 0 12 15" fill="none" xmlns="http://www.w3.org/2000/svg">
<path d="M5.99935 7.49992C6.36602 7.49992 6.68002 7.36925 6.94135 7.10792C7.20224 6.84703 7.33268 6.53325 7.33268 6.16659C7.33268 5.79992 7.20224 5.48592 6.94135 5.22459C6.68002 4.9637 6.36602 4.83325 5.99935 4.83325C5.63268 4.83325 5.3189 4.9637 5.05802 5.22459C4.79668 5.48592 4.66602 5.79992 4.66602 6.16659C4.66602 6.53325 4.79668 6.84703 5.05802 7.10792C5.3189 7.36925 5.63268 7.49992 5.99935 7.49992ZM5.99935 12.3999C7.3549 11.1555 8.36046 10.0248 9.01602 9.00792C9.67157 7.99147 9.99935 7.08881 9.99935 6.29992C9.99935 5.08881 9.61313 4.09703 8.84068 3.32459C8.06868 2.55259 7.12157 2.16659 5.99935 2.16659C4.87713 2.16659 3.92979 2.55259 3.15735 3.32459C2.38535 4.09703 1.99935 5.08881 1.99935 6.29992C1.99935 7.08881 2.32713 7.99147 2.98268 9.00792C3.63824 10.0248 4.64379 11.1555 5.99935 12.3999ZM5.99935 14.1666C4.21046 12.6444 2.87446 11.2304 1.99135 9.92459C1.10779 8.61925 0.666016 7.41103 0.666016 6.29992C0.666016 4.63325 1.20224 3.30547 2.27468 2.31659C3.34668 1.3277 4.58824 0.833252 5.99935 0.833252C7.41046 0.833252 8.65202 1.3277 9.72402 2.31659C10.7965 3.30547 11.3327 4.63325 11.3327 6.29992C11.3327 7.41103 10.8911 8.61925 10.008 9.92459C9.12446 11.2304 7.78824 12.6444 5.99935 14.1666Z" fill="#1A202C"/>
</svg>
