<svg width="16" height="10" viewBox="0 0 16 10" fill="none" xmlns="http://www.w3.org/2000/svg">
<path d="M5.33333 9.16667C5.68696 9.16667 6.02609 9.02619 6.27614 8.77614C6.52619 8.52609 6.66667 8.18696 6.66667 7.83333C6.66667 7.47971 6.52619 7.14057 6.27614 6.89052C6.02609 6.64048 5.68696 6.5 5.33333 6.5C4.97971 6.5 4.64057 6.64048 4.39052 6.89052C4.14048 7.14057 4 7.47971 4 7.83333C4 8.18696 4.14048 8.52609 4.39052 8.77614C4.64057 9.02619 4.97971 9.16667 5.33333 9.16667ZM12 9.16667C12.3536 9.16667 12.6928 9.02619 12.9428 8.77614C13.1929 8.52609 13.3333 8.18696 13.3333 7.83333C13.3333 7.47971 13.1929 7.14057 12.9428 6.89052C12.6928 6.64048 12.3536 6.5 12 6.5C11.6464 6.5 11.3072 6.64048 11.0572 6.89052C10.8071 7.14057 10.6667 7.47971 10.6667 7.83333C10.6667 8.18696 10.8071 8.52609 11.0572 8.77614C11.3072 9.02619 11.6464 9.16667 12 9.16667Z" stroke="#1A202C" stroke-miterlimit="1.5" stroke-linecap="round" stroke-linejoin="round"/>
<path d="M6.69935 7.83333H9.99935V0.9C9.99935 0.793913 9.95721 0.692172 9.88219 0.617157C9.80718 0.542143 9.70543 0.5 9.59935 0.5H0.666016M3.76602 7.83333H2.39935C2.34682 7.83333 2.29481 7.82299 2.24628 7.80289C2.19775 7.78278 2.15365 7.75332 2.11651 7.71618C2.07936 7.67903 2.0499 7.63494 2.0298 7.58641C2.0097 7.53788 1.99935 7.48586 1.99935 7.43333V4.16667" stroke="#1A202C" stroke-linecap="round"/>
<path d="M1.33203 2.5H3.9987" stroke="#1A202C" stroke-linecap="round" stroke-linejoin="round"/>
<path d="M10 2.5H13.74C13.8173 2.50002 13.893 2.52245 13.9578 2.56457C14.0226 2.60669 14.0739 2.6667 14.1053 2.73733L15.2987 5.42267C15.3214 5.47366 15.3332 5.52884 15.3333 5.58467V7.43333C15.3333 7.48586 15.323 7.53788 15.3029 7.58641C15.2828 7.63494 15.2533 7.67903 15.2162 7.71618C15.179 7.75332 15.1349 7.78278 15.0864 7.80289C15.0379 7.82299 14.9859 7.83333 14.9333 7.83333H13.6667M10 7.83333H10.6667" stroke="#1A202C" stroke-linecap="round"/>
</svg>
