<svg width="25" height="25" viewBox="0 0 25 25" fill="none" xmlns="http://www.w3.org/2000/svg">
<path fill-rule="evenodd" clip-rule="evenodd" d="M12.4996 3.25C10.5469 3.25 8.96387 4.83299 8.96387 6.78571C8.96387 8.73844 10.5469 10.3214 12.4996 10.3214C14.4523 10.3214 16.0353 8.73844 16.0353 6.78571C16.0353 4.83299 14.4523 3.25 12.4996 3.25ZM7.46387 6.78571C7.46387 4.00457 9.71843 1.75 12.4996 1.75C15.2807 1.75 17.5353 4.00457 17.5353 6.78571C17.5353 9.56686 15.2807 11.8214 12.4996 11.8214C9.71843 11.8214 7.46387 9.56686 7.46387 6.78571Z" fill="#802200"/>
<path fill-rule="evenodd" clip-rule="evenodd" d="M4.80958 16.6661C6.36682 15.0023 8.89944 13.75 12.7857 13.75C16.672 13.75 19.2046 15.0023 20.7618 16.6661C22.2995 18.3088 22.8214 20.2847 22.8214 21.6429C22.8214 22.0571 22.4856 22.3929 22.0714 22.3929H3.5C3.08579 22.3929 2.75 22.0571 2.75 21.6429C2.75 20.2847 3.27196 18.3088 4.80958 16.6661ZM4.31378 20.8929H21.2576C21.1016 19.9301 20.64 18.7309 19.6667 17.6911C18.4382 16.3786 16.328 15.25 12.7857 15.25C9.24342 15.25 7.13318 16.3786 5.90471 17.6911C4.93143 18.7309 4.46986 19.9301 4.31378 20.8929Z" fill="#802200"/>
</svg>
