<svg width="24" height="25" viewBox="0 0 24 25" fill="none" xmlns="http://www.w3.org/2000/svg">
<path fill-rule="evenodd" clip-rule="evenodd" d="M22.25 12.5C22.25 12.9142 21.9142 13.25 21.5 13.25L3.49931 13.25C3.0851 13.25 2.74931 12.9142 2.74931 12.5C2.74931 12.0858 3.0851 11.75 3.49931 11.75L21.5 11.75C21.9142 11.75 22.25 12.0858 22.25 12.5Z" fill="#333333"/>
<path fill-rule="evenodd" clip-rule="evenodd" d="M7.98013 19.0761C7.66193 19.3413 7.189 19.2983 6.92382 18.9801L2.19039 13.3002C1.80407 12.8367 1.80407 12.1633 2.19039 11.6997L6.92382 6.01983C7.189 5.70163 7.66193 5.65864 7.98013 5.92382C8.29833 6.189 8.34132 6.66193 8.07614 6.98013L3.47609 12.5L8.07614 18.0198C8.34132 18.338 8.29833 18.811 7.98013 19.0761Z" fill="#333333"/>
</svg>
