<svg width="132" height="111" viewBox="0 0 132 111" fill="none" xmlns="http://www.w3.org/2000/svg">
<path opacity="0.3" d="M66.7 101.6C94.7 101.6 117.4 78.9 117.4 50.8C117.4 22.7 94.7 0 66.7 0C38.7 0 16 22.7 16 50.8C16 78.9 38.7 101.6 66.7 101.6Z" fill="#758494"/>
<path opacity="0.3" d="M123.2 29.9002C125.464 29.9002 127.3 28.0646 127.3 25.8002C127.3 23.5358 125.464 21.7002 123.2 21.7002C120.935 21.7002 119.1 23.5358 119.1 25.8002C119.1 28.0646 120.935 29.9002 123.2 29.9002Z" fill="#C0C0C0"/>
<path opacity="0.3" d="M129.2 13.8002C130.747 13.8002 132 12.5466 132 11.0002C132 9.4538 130.747 8.2002 129.2 8.2002C127.654 8.2002 126.4 9.4538 126.4 11.0002C126.4 12.5466 127.654 13.8002 129.2 13.8002Z" fill="#C0C0C0"/>
<path opacity="0.3" d="M12.4992 32.8002C14.0456 32.8002 15.2992 31.5466 15.2992 30.0002C15.2992 28.4538 14.0456 27.2002 12.4992 27.2002C10.9528 27.2002 9.69922 28.4538 9.69922 30.0002C9.69922 31.5466 10.9528 32.8002 12.4992 32.8002Z" fill="#C0C0C0"/>
<path opacity="0.3" d="M17.7 93.6998C20.5719 93.6998 22.9 91.3717 22.9 88.4998C22.9 85.6279 20.5719 83.2998 17.7 83.2998C14.8281 83.2998 12.5 85.6279 12.5 88.4998C12.5 91.3717 14.8281 93.6998 17.7 93.6998Z" fill="#C0C0C0"/>
<g filter="url(#filter0_d_397_10747)">
<path d="M113.7 30.5002H26.9996C25.0996 30.5002 23.5996 29.0002 23.5996 27.1002V7.6002C23.5996 5.7002 25.0996 4.2002 26.9996 4.2002H113.6C115.5 4.2002 117 5.7002 117 7.6002V27.1002C117.1 29.0002 115.5 30.5002 113.7 30.5002Z" fill="white"/>
</g>
<path d="M44.5996 17.2998C44.5996 19.4998 43.5996 21.4998 42.0996 22.8998C40.7996 24.0998 38.9996 24.7998 37.0996 24.7998C35.1996 24.7998 33.3996 24.0998 32.0996 22.8998C30.4996 21.4998 29.5996 19.4998 29.5996 17.2998C29.5996 13.1998 32.9996 9.7998 37.0996 9.7998C41.1996 9.7998 44.5996 13.1998 44.5996 17.2998Z" fill="#F2F2F2"/>
<path d="M42.0996 22.9002C40.7996 24.1002 38.9996 24.8002 37.0996 24.8002C35.1996 24.8002 33.3996 24.1002 32.0996 22.9002C32.6996 22.7002 33.3996 22.4002 34.2996 22.0002C34.4996 21.9002 34.6996 21.7002 34.7996 21.5002C34.8996 21.4002 34.8996 21.2002 34.8996 21.1002V19.2002L34.7996 19.1002C34.5996 18.9002 34.4996 18.6002 34.4996 18.3002L34.2996 18.2002C33.7996 18.3002 33.8996 17.8002 33.6996 16.8002C33.6996 16.4002 33.6996 16.3002 33.8996 16.2002L34.0996 16.0002C33.1996 13.9002 33.5996 12.6002 34.5996 12.1002C34.2996 11.4002 34.2996 11.2002 34.2996 11.2002C34.2996 11.2002 36.2996 11.5002 36.8996 11.4002C37.7996 11.2002 39.0996 11.4002 39.5996 12.6002C40.3996 12.9002 40.6996 13.4002 40.7996 14.0002C40.8996 14.9002 40.3996 15.9002 40.2996 16.2002C40.3996 16.3002 40.4996 16.4002 40.3996 16.7002C40.2996 17.6002 40.2996 18.2002 39.7996 18.1002L39.3996 19.0002C39.3996 19.1002 39.3996 19.1002 39.3996 19.2002C39.3996 19.3002 39.3996 19.6002 39.3996 21.2002C39.3996 21.4002 39.4996 21.6002 39.4996 21.7002C39.5996 21.9002 39.7996 22.0002 39.8996 22.1002C40.7996 22.4002 41.4996 22.7002 42.0996 22.9002Z" fill="white"/>
<path d="M40.3265 16.3002C40.3265 16.092 40.2224 15.7798 40.1183 15.5716V15.4676C39.702 14.6349 38.8693 14.3227 38.0367 14.3227C35.955 14.2186 35.7469 14.6349 35.0183 14.0104C35.2265 14.3227 35.2265 14.8431 34.9142 15.4676C34.7061 15.8839 34.2897 16.092 33.8734 16.1961C32.9367 14.0104 33.353 12.6573 34.3938 12.1369C34.0816 11.4084 34.0816 11.2002 34.0816 11.2002C34.0816 11.2002 36.1632 11.5124 36.7877 11.4084C37.7244 11.2002 39.0775 11.4084 39.5979 12.6573C40.4306 12.9696 40.7428 13.49 40.8469 14.1145C40.951 14.8431 40.4306 15.8839 40.3265 16.3002Z" fill="#758494"/>
<path d="M39.5008 21.7006V22.1006H34.8008V21.6006C34.9008 21.5006 34.9008 21.3006 34.9008 21.2006V19.3006L34.8008 19.2006V19.1006C34.9008 19.3006 35.0008 19.4006 35.2008 19.6006L36.7008 20.6006C37.0008 20.9006 37.5008 20.9006 37.9008 20.6006L39.3008 19.4006L39.4008 19.3006C39.4008 19.4006 39.4008 19.7006 39.4008 21.3006C39.3008 21.4006 39.4008 21.5006 39.5008 21.7006Z" fill="url(#paint0_linear_397_10747)"/>
<path d="M69.1992 15.1H49.9992C49.4992 15.1 49.1992 14.7 49.1992 14.3V11.8C49.1992 11.3 49.5992 11 49.9992 11H69.1992C69.6992 11 69.9992 11.4 69.9992 11.8V14.3C69.9992 14.8 69.6992 15.1 69.1992 15.1Z" fill="#CED6E2"/>
<path d="M91.9992 23.6H49.9992C49.4992 23.6 49.1992 23.2 49.1992 22.8V20.3C49.1992 19.8 49.5992 19.5 49.9992 19.5H91.9992C92.4992 19.5 92.7992 19.9 92.7992 20.3V22.8C92.7992 23.3 92.3992 23.6 91.9992 23.6Z" fill="#CED6E2"/>
<g filter="url(#filter1_d_397_10747)">
<path d="M113.7 96.0998H26.9996C25.0996 96.0998 23.5996 94.5998 23.5996 92.6998V73.1998C23.5996 71.2998 25.0996 69.7998 26.9996 69.7998H113.6C115.5 69.7998 117 71.2998 117 73.1998V92.6998C117.1 94.5998 115.5 96.0998 113.7 96.0998Z" fill="white"/>
</g>
<path d="M44.5996 82.8994C44.5996 85.0994 43.5996 87.0994 42.0996 88.4994C40.7996 89.6994 38.9996 90.3994 37.0996 90.3994C35.1996 90.3994 33.3996 89.6994 32.0996 88.4994C30.4996 87.0994 29.5996 85.0994 29.5996 82.8994C29.5996 78.7994 32.9996 75.3994 37.0996 75.3994C41.1996 75.3994 44.5996 78.7994 44.5996 82.8994Z" fill="#F2F2F2"/>
<path d="M42.0996 88.4998C40.7996 89.6998 38.9996 90.3998 37.0996 90.3998C35.1996 90.3998 33.3996 89.6998 32.0996 88.4998C32.6996 88.2998 33.3996 87.9998 34.2996 87.5998C34.4996 87.4998 34.6996 87.2998 34.7996 87.0998C34.8996 86.9998 34.8996 86.7998 34.8996 86.6998V84.7998L34.7996 84.6998C34.5996 84.4998 34.4996 84.1998 34.4996 83.8998L34.2996 83.7998C33.7996 83.8998 33.8996 83.3998 33.6996 82.3998C33.6996 81.9998 33.6996 81.8998 33.8996 81.7998L34.0996 81.5998C33.1996 79.4998 33.5996 78.1998 34.5996 77.6998C34.2996 76.9998 34.2996 76.7998 34.2996 76.7998C34.2996 76.7998 36.2996 77.0998 36.8996 76.9998C37.7996 76.7998 39.0996 76.9998 39.5996 78.1998C40.3996 78.4998 40.6996 78.9998 40.7996 79.5998C40.8996 80.4998 40.3996 81.4998 40.2996 81.7998C40.3996 81.8998 40.4996 81.9998 40.3996 82.2998C40.2996 83.1998 40.2996 83.7998 39.7996 83.6998L39.3996 84.4998C39.3996 84.5998 39.3996 84.5998 39.3996 84.6998C39.3996 84.7998 39.3996 85.0998 39.3996 86.6998C39.3996 86.8998 39.4996 87.0998 39.4996 87.1998C39.5996 87.3998 39.7996 87.4998 39.8996 87.5998C40.7996 88.0998 41.4996 88.2998 42.0996 88.4998Z" fill="white"/>
<path d="M40.3265 81.8998C40.3265 81.6917 40.2224 81.3794 40.1183 81.1712V81.0672C39.702 80.2345 38.8693 79.9223 38.0367 79.9223C35.955 79.8182 35.7469 80.2345 35.0183 79.61C35.2265 79.9223 35.2265 80.4427 34.9142 81.0672C34.7061 81.4835 34.2897 81.6917 33.8734 81.7957C32.9367 79.61 33.353 78.257 34.3938 77.7365C34.0816 77.008 34.0816 76.7998 34.0816 76.7998C34.0816 76.7998 36.1632 77.112 36.7877 77.008C37.7244 76.7998 39.0775 77.008 39.5979 78.257C40.4306 78.5692 40.7428 79.0896 40.8469 79.7141C40.951 80.5468 40.4306 81.4835 40.3265 81.8998Z" fill="#758494"/>
<path d="M39.5008 87.3002V87.7002H34.8008V87.2002C34.9008 87.1002 34.9008 86.9002 34.9008 86.8002V84.9002L34.8008 84.8002V84.7002C34.9008 84.9002 35.0008 85.0002 35.2008 85.2002L36.7008 86.2002C37.0008 86.5002 37.5008 86.5002 37.9008 86.2002L39.3008 85.0002L39.4008 84.9002C39.4008 85.0002 39.4008 85.3002 39.4008 86.9002C39.3008 87.0002 39.4008 87.2002 39.5008 87.3002Z" fill="url(#paint1_linear_397_10747)"/>
<path d="M69.1992 80.8002H49.9992C49.4992 80.8002 49.1992 80.4002 49.1992 80.0002V77.5002C49.1992 77.0002 49.5992 76.7002 49.9992 76.7002H69.1992C69.6992 76.7002 69.9992 77.1002 69.9992 77.5002V80.0002C69.9992 80.4002 69.6992 80.8002 69.1992 80.8002Z" fill="#CED6E2"/>
<path d="M91.9992 89.3002H49.9992C49.4992 89.3002 49.1992 88.9002 49.1992 88.5002V86.0002C49.1992 85.5002 49.5992 85.2002 49.9992 85.2002H91.9992C92.4992 85.2002 92.7992 85.6002 92.7992 86.0002V88.5002C92.7992 88.9002 92.3992 89.3002 91.9992 89.3002Z" fill="#CED6E2"/>
<g filter="url(#filter2_d_397_10747)">
<path d="M99 63.3H12.4C10.5 63.3 9 61.8 9 59.9V40.4C9 38.5 10.5 37 12.4 37H99C100.9 37 102.4 38.5 102.4 40.4V59.9C102.5 61.8 100.9 63.3 99 63.3Z" fill="white"/>
</g>
<path d="M54.5996 47.8998H35.3996C34.8996 47.8998 34.5996 47.4998 34.5996 47.0998V44.5998C34.5996 44.0998 34.9996 43.7998 35.3996 43.7998H54.5996C55.0996 43.7998 55.3996 44.1998 55.3996 44.5998V47.0998C55.3996 47.5998 55.0996 47.8998 54.5996 47.8998Z" fill="#CED6E2"/>
<path d="M77.3996 56.4994H35.3996C34.8996 56.4994 34.5996 56.0994 34.5996 55.6994V53.1994C34.5996 52.6994 34.9996 52.3994 35.3996 52.3994H77.2996C77.7996 52.3994 78.0996 52.7994 78.0996 53.1994V55.6994C78.1996 56.0994 77.7996 56.4994 77.3996 56.4994Z" fill="#CED6E2"/>
<path d="M30.1 50.0996C30.1 52.1996 29.2 54.0996 27.8 55.4996C27.7 55.5996 27.7 55.5996 27.6 55.6996C26.3 56.8996 24.5 57.5996 22.6 57.5996C20.7 57.5996 19 56.8996 17.7 55.7996C17.7 55.7996 17.7 55.7996 17.6 55.7996C16 54.3996 15 52.3996 15 50.0996C15 45.9996 18.4 42.5996 22.5 42.5996C26.7 42.5996 30.1 45.9996 30.1 50.0996Z" fill="#F2F2F2"/>
<path d="M27.7697 55.6515C27.4655 54.9416 26.9585 54.3331 26.1472 53.9275C25.7415 53.7247 25.4373 53.6233 24.9303 53.6233H24.626C23.9162 53.6233 23.8148 53.5219 23.8148 53.5219V52.305C24.626 51.6965 25.2345 50.8852 25.4373 49.9725C25.9444 49.8711 26.2486 49.4655 26.1472 48.9584C26.1472 48.7556 25.9444 48.5528 25.9444 48.35C25.9444 48.2486 25.9444 48.1472 25.9444 48.0457C25.9444 47.9443 25.9444 47.9443 25.9444 47.8429C25.9444 47.7415 25.9444 47.7415 25.9444 47.6401C25.9444 47.2345 25.8429 46.9302 25.5387 46.5246C24.9303 45.4091 23.7133 44.6992 22.395 44.6992C22.0908 44.6992 21.888 44.6992 21.5837 44.8006C21.0767 44.902 20.671 45.1049 20.2654 45.4091C20.164 45.5105 20.164 45.5105 20.0626 45.6119C20.0626 45.6119 20.0626 45.6119 19.9612 45.7133C19.5555 46.119 19.2513 46.626 19.0485 47.1331C18.8457 47.6401 18.8457 48.2486 18.8457 48.857C18.8457 48.857 18.8457 48.857 18.8457 48.9584C18.8457 49.0598 18.8457 49.0598 18.8457 49.1612C18.8457 49.1612 18.8457 49.2627 18.7443 49.2627C18.9471 49.0598 18.8457 49.3641 18.9471 49.5669C19.1499 50.0739 19.4541 49.9725 19.8598 50.2768C19.8598 50.2768 19.8598 50.2768 19.7584 50.2768L19.3527 50.3782C17.1217 51.088 16.9189 53.4205 19.1499 53.9275C18.9471 54.0289 18.8457 54.1303 18.7443 54.1303C18.1358 54.6374 17.7302 55.2458 17.5273 55.8543C18.8457 56.9698 20.5696 57.6797 22.4964 57.6797C24.4232 57.6797 26.2486 56.9698 27.5669 55.7529C27.6683 55.8543 27.7697 55.7529 27.7697 55.6515C27.8711 55.6515 27.8711 55.6515 27.7697 55.6515ZM21.4823 53.2176C21.3809 53.1162 21.2795 53.0148 21.2795 53.0148C21.1781 52.9134 21.0767 52.9134 20.9753 52.812C20.9753 52.812 20.8739 52.812 20.8739 52.7106C20.5696 52.5078 20.2654 52.305 20.164 52.0007C20.164 51.8993 20.2654 51.6965 20.4682 51.4937C20.5696 51.5951 20.671 51.6965 20.7725 51.8993C20.8739 52.0007 20.9753 52.1021 21.0767 52.2035C21.1781 52.2035 21.2795 52.305 21.2795 52.4064C21.2795 52.4064 21.2795 52.4064 21.3809 52.4064C21.3809 52.4064 21.3809 52.4064 21.4823 52.4064V53.2176Z" fill="white"/>
<path d="M24.7484 53.5656C24.6484 53.9656 24.4484 54.2656 24.4484 54.2656L20.6484 53.6656L20.8484 52.6656C20.8484 52.6656 20.9484 52.6656 20.9484 52.7656C21.0484 52.8656 21.1484 52.8656 21.2484 52.9656C21.3484 52.9656 21.3484 53.0656 21.4484 53.1656V52.4656C21.4484 52.4656 21.4484 52.4656 21.3484 52.4656C21.9484 52.7656 22.7484 52.9656 23.8484 52.2656V53.4656C23.9484 53.4656 24.0484 53.5656 24.7484 53.5656Z" fill="url(#paint2_linear_397_10747)"/>
<path d="M23.9605 47.9886C24.6739 47.9886 25.3873 47.8866 25.9988 47.6828C25.9988 47.6828 25.9988 47.5809 26.1007 47.479C25.9988 47.1732 25.8969 46.7656 25.693 46.3579C25.0816 45.2368 23.8586 44.5234 22.5337 44.5234C22.2279 44.5234 21.9347 44.5452 21.5257 44.6472C20.9815 44.8135 20.7289 44.9597 20.5999 45.0378C20.5999 45.0378 20.302 45.2381 20.0877 45.4407C19.8734 45.6432 19.3743 46.3579 19.1705 46.8675C18.9667 47.479 18.8022 47.9987 18.9041 48.6102C19.006 48.6102 19.1705 48.4981 19.2724 48.4981C20.0877 48.0905 20.6992 47.5809 21.005 46.7656C21.8203 47.479 22.8394 47.8866 23.9605 47.9886Z" fill="#758494"/>
<path d="M20.5 51.5996C20.6 51.6996 20.7 51.7996 20.8 51.8996C20.7 51.7996 20.6 51.6996 20.5 51.5996Z" fill="#3973F4"/>
<path d="M21.9001 55.2998C21.6001 55.6998 21.1001 55.6998 20.6001 55.6998C21.1001 55.1998 20.8001 53.6998 19.2001 53.8998C16.9001 53.4998 17.2001 51.0998 19.4001 50.3998L19.8001 50.2998C19.8001 50.2998 19.8001 50.2998 19.9001 50.3998C20.1001 50.8998 20.3001 51.1998 20.6001 51.5998C19.7001 52.3998 21.0001 52.5998 21.6001 53.1998C22.0001 53.3998 22.4001 54.6998 21.9001 55.2998Z" fill="#758494"/>
<defs>
<filter id="filter0_d_397_10747" x="14.5996" y="0.200195" width="111.404" height="44.3" filterUnits="userSpaceOnUse" color-interpolation-filters="sRGB">
<feFlood flood-opacity="0" result="BackgroundImageFix"/>
<feColorMatrix in="SourceAlpha" type="matrix" values="0 0 0 0 0 0 0 0 0 0 0 0 0 0 0 0 0 0 127 0" result="hardAlpha"/>
<feOffset dy="5"/>
<feGaussianBlur stdDeviation="4.5"/>
<feColorMatrix type="matrix" values="0 0 0 0 0.397708 0 0 0 0 0.47749 0 0 0 0 0.575 0 0 0 0.17 0"/>
<feBlend mode="normal" in2="BackgroundImageFix" result="effect1_dropShadow_397_10747"/>
<feBlend mode="normal" in="SourceGraphic" in2="effect1_dropShadow_397_10747" result="shape"/>
</filter>
<filter id="filter1_d_397_10747" x="14.5996" y="65.7998" width="111.404" height="44.2998" filterUnits="userSpaceOnUse" color-interpolation-filters="sRGB">
<feFlood flood-opacity="0" result="BackgroundImageFix"/>
<feColorMatrix in="SourceAlpha" type="matrix" values="0 0 0 0 0 0 0 0 0 0 0 0 0 0 0 0 0 0 127 0" result="hardAlpha"/>
<feOffset dy="5"/>
<feGaussianBlur stdDeviation="4.5"/>
<feColorMatrix type="matrix" values="0 0 0 0 0.397708 0 0 0 0 0.47749 0 0 0 0 0.575 0 0 0 0.17 0"/>
<feBlend mode="normal" in2="BackgroundImageFix" result="effect1_dropShadow_397_10747"/>
<feBlend mode="normal" in="SourceGraphic" in2="effect1_dropShadow_397_10747" result="shape"/>
</filter>
<filter id="filter2_d_397_10747" x="0" y="33" width="111.404" height="44.3" filterUnits="userSpaceOnUse" color-interpolation-filters="sRGB">
<feFlood flood-opacity="0" result="BackgroundImageFix"/>
<feColorMatrix in="SourceAlpha" type="matrix" values="0 0 0 0 0 0 0 0 0 0 0 0 0 0 0 0 0 0 127 0" result="hardAlpha"/>
<feOffset dy="5"/>
<feGaussianBlur stdDeviation="4.5"/>
<feColorMatrix type="matrix" values="0 0 0 0 0.397708 0 0 0 0 0.47749 0 0 0 0 0.575 0 0 0 0.17 0"/>
<feBlend mode="normal" in2="BackgroundImageFix" result="effect1_dropShadow_397_10747"/>
<feBlend mode="normal" in="SourceGraphic" in2="effect1_dropShadow_397_10747" result="shape"/>
</filter>
<linearGradient id="paint0_linear_397_10747" x1="37.1522" y1="22.1188" x2="37.1522" y2="20.4662" gradientUnits="userSpaceOnUse">
<stop stop-color="white"/>
<stop offset="1" stop-color="#E2E5EC"/>
</linearGradient>
<linearGradient id="paint1_linear_397_10747" x1="37.1522" y1="87.7185" x2="37.1522" y2="86.0658" gradientUnits="userSpaceOnUse">
<stop stop-color="white"/>
<stop offset="1" stop-color="#E2E5EC"/>
</linearGradient>
<linearGradient id="paint2_linear_397_10747" x1="22.6997" y1="54.2778" x2="22.6997" y2="53.176" gradientUnits="userSpaceOnUse">
<stop stop-color="white"/>
<stop offset="1" stop-color="#E2E5EC"/>
</linearGradient>
</defs>
</svg>
