<svg width="24" height="24" viewBox="0 0 24 24" fill="none" xmlns="http://www.w3.org/2000/svg">
<g clip-path="url(#clip0_3408_38981)">
<g clip-path="url(#clip1_3408_38981)">
<path d="M2.69484 2.23779L19.965 19.508C20.2927 19.8357 20.4768 20.2801 20.4768 20.7436C20.4768 21.207 20.2927 21.6515 19.965 21.9792C19.6372 22.3068 19.1928 22.4908 18.7294 22.4908C18.266 22.4908 17.8215 22.3068 17.4938 21.9792L13.275 17.6878C12.9989 17.4074 12.844 17.0299 12.8437 16.6364V16.3772C12.8438 16.1785 12.8044 15.9818 12.7278 15.7985C12.6511 15.6152 12.5389 15.4489 12.3975 15.3094L11.8528 14.8064C11.6679 14.6358 11.4431 14.5144 11.199 14.4535C10.9548 14.3925 10.6993 14.394 10.4559 14.4576C10.0721 14.5578 9.66876 14.5559 9.28591 14.452C8.90306 14.3482 8.55403 14.146 8.27344 13.8656L4.26891 9.86061C1.89328 7.48498 1.01906 3.89764 2.69484 2.23779Z" stroke="#802200" stroke-width="1.6" stroke-linejoin="round"/>
<path d="M18.75 1.5L15.1289 5.12109C14.8503 5.39968 14.6292 5.73043 14.4784 6.09445C14.3276 6.45847 14.25 6.84863 14.25 7.24266V7.93922C14.25 8.03777 14.2306 8.13536 14.1929 8.22641C14.1552 8.31746 14.0999 8.40018 14.0302 8.46984L13.5 9M15 10.5L15.5302 9.96984C15.5998 9.90013 15.6825 9.84484 15.7736 9.80711C15.8646 9.76939 15.9622 9.74998 16.0608 9.75H16.7573C17.1514 9.75 17.5415 9.67238 17.9056 9.52158C18.2696 9.37078 18.6003 9.14974 18.8789 8.87109L22.5 5.25M20.625 3.375L16.875 7.125M9.375 17.25L4.70062 21.9506C4.34901 22.3021 3.87218 22.4996 3.375 22.4996C2.87782 22.4996 2.40099 22.3021 2.04938 21.9506C1.69787 21.599 1.5004 21.1222 1.5004 20.625C1.5004 20.1278 1.69787 19.651 2.04938 19.2994L6 15.375" stroke="#802200" stroke-width="1.6" stroke-linecap="round" stroke-linejoin="round"/>
</g>
</g>
<defs>
<clipPath id="clip0_3408_38981">
<rect width="24" height="24" fill="white"/>
</clipPath>
<clipPath id="clip1_3408_38981">
<rect width="24" height="24" fill="white"/>
</clipPath>
</defs>
</svg>
