<svg width="60" height="60" viewBox="0 0 60 60" fill="none" xmlns="http://www.w3.org/2000/svg">
<rect width="60" height="60" rx="10" fill="#FCFCFD"/>
<path d="M18.305 23.5959C20.319 23.5959 21.9517 22.2898 21.9517 20.6786C21.9517 19.0674 20.319 17.7612 18.305 17.7612C16.291 17.7612 14.6583 19.0674 14.6583 20.6786C14.6583 22.2898 16.291 23.5959 18.305 23.5959Z" fill="#EAAA08"/>
<path d="M25.395 25.8067V41.9921H31.6767V33.9881C31.6767 31.8761 32.1733 29.8307 35.4467 29.8307C38.675 29.8307 38.715 32.2454 38.715 34.1214V41.9934H45V33.1174C45 28.7574 43.8267 25.4067 37.4567 25.4067C34.3983 25.4067 32.3483 26.7494 31.51 28.0201H31.425V25.8067H25.395ZM15.1583 25.8067H21.45V41.9921H15.1583V25.8067Z" fill="#EAAA08"/>
</svg>
