<svg width="60" height="60" viewBox="0 0 60 60" fill="none" xmlns="http://www.w3.org/2000/svg">
<rect width="60" height="60" rx="10" fill="#FCFCFD"/>
<path d="M24.9 38.9398C27.0114 38.9504 29.1045 38.6256 31.0577 37.9841C33.011 37.3426 34.7856 36.3972 36.2787 35.2028C37.7717 34.0083 38.9534 32.5886 39.7553 31.026C40.5572 29.4634 40.9633 27.789 40.95 26.0998V25.5098C42.0445 24.8683 42.9918 24.08 43.75 23.1798C42.7194 23.5404 41.6289 23.7796 40.5125 23.8898C41.6961 23.3256 42.5842 22.4375 43.0125 21.3898C41.9094 21.9193 40.6998 22.2915 39.4375 22.4898C38.5874 21.7652 37.4625 21.2849 36.2368 21.1232C35.0112 20.9615 33.7531 21.1275 32.6572 21.5955C31.5613 22.0634 30.6887 22.8073 30.1745 23.7119C29.6603 24.6165 29.533 25.6315 29.8125 26.5998C27.57 26.5118 25.3759 26.0468 23.3729 25.2353C21.37 24.4238 19.6032 23.2839 18.1875 21.8898C17.4737 22.881 17.2573 24.0521 17.5822 25.1661C17.9071 26.2801 18.749 27.2537 19.9375 27.8898C19.0608 27.8628 18.2043 27.6709 17.4375 27.3298V27.3798C17.4297 28.4157 17.8659 29.4223 18.6734 30.2321C19.4809 31.0418 20.6108 31.6057 21.875 31.8298C21.0595 32.0053 20.2054 32.0326 19.375 31.9098C19.741 32.7932 20.4396 33.5644 21.3751 34.1176C22.3105 34.6708 23.437 34.979 24.6 34.9998C22.6115 36.2803 20.1401 36.9852 17.5875 36.9998C17.1399 36.9895 16.6934 36.9594 16.25 36.9098C18.8337 38.2267 21.8365 38.921 24.9 38.9098" fill="#EAAA08"/>
</svg>
