<svg width="18" height="19" viewBox="0 0 18 19" fill="none" xmlns="http://www.w3.org/2000/svg">
<path d="M5.8 1.5H12.2M6.6 1.5V2.5744M11.4 1.5V3.7312C11.4 4.36303 11.5871 4.98072 11.9376 5.5064L12.4624 6.2936C12.8131 6.81951 13.0001 7.4375 13 8.0696V8.9744M5.64 6.14L5.5376 6.2936C5.18692 6.81951 4.99986 7.4375 5 8.0696V15.9C5 16.3243 5.16857 16.7313 5.46863 17.0314C5.76869 17.3314 6.17565 17.5 6.6 17.5H11.4C11.8243 17.5 12.2313 17.3314 12.5314 17.0314C12.8314 16.7313 13 16.3243 13 15.9V13.5" stroke="#994E33" stroke-width="1.5" stroke-linecap="round" stroke-linejoin="round"/>
<path d="M5 11.9C5.6334 11.6346 6.31327 11.498 7 11.498C7.68673 11.498 8.3666 11.6346 9 11.9C9.8674 12.2634 10.8174 12.3837 11.748 12.248M1 1.5L17 17.5" stroke="#994E33" stroke-width="1.5" stroke-linecap="round" stroke-linejoin="round"/>
</svg>
