<svg width="103" height="114" viewBox="0 0 103 114" fill="none" xmlns="http://www.w3.org/2000/svg">
<g clip-path="url(#clip0_339_796)">
<path d="M58.6794 6.17143C60.3788 6.17143 61.7563 4.78991 61.7563 3.08571C61.7563 1.38152 60.3788 0 58.6794 0C56.9801 0 55.6025 1.38152 55.6025 3.08571C55.6025 4.78991 56.9801 6.17143 58.6794 6.17143Z" fill="#ED2526"/>
<g clip-path="url(#clip1_339_796)">
<path d="M90.0138 105C90.0138 98.4908 80.6933 93.2139 69.1958 93.2139C57.6983 93.2139 48.3778 98.4908 48.3778 105C48.3778 111.509 57.6983 116.786 69.1958 116.786C80.6933 116.786 90.0138 111.509 90.0138 105Z" stroke="#EA050C" stroke-miterlimit="10"/>
<path d="M99.3687 105C99.3687 98.4908 90.0481 93.2139 78.5507 93.2139C67.0532 93.2139 57.7327 98.4908 57.7327 105C57.7327 111.509 67.0532 116.786 78.5507 116.786C90.0481 116.786 99.3687 111.509 99.3687 105Z" stroke="#EA050C" stroke-miterlimit="10"/>
<path d="M109.804 105C109.804 98.4908 100.484 93.2139 88.9862 93.2139C77.4888 93.2139 68.1682 98.4908 68.1682 105C68.1682 111.509 77.4888 116.786 88.9862 116.786C100.484 116.786 109.804 111.509 109.804 105Z" stroke="#EA050C" stroke-miterlimit="10"/>
<path d="M120.187 105C120.187 98.4908 110.866 93.2139 99.3687 93.2139C87.8712 93.2139 78.5507 98.4908 78.5507 105C78.5507 111.509 87.8712 116.786 99.3687 116.786C110.866 116.786 120.187 111.509 120.187 105Z" stroke="#EA050C" stroke-miterlimit="10"/>
<path d="M130.622 105C130.622 98.4908 121.302 93.2139 109.804 93.2139C98.3067 93.2139 88.9862 98.4908 88.9862 105C88.9862 111.509 98.3067 116.786 109.804 116.786C121.302 116.786 130.622 111.509 130.622 105Z" stroke="#EA050C" stroke-miterlimit="10"/>
</g>
<path d="M35.6502 72.1333L15.6029 27.9714C15.6029 27.9714 12.3171 22.5904 4.88123 23.7999C4.88123 23.7999 10.7596 25.1904 12.488 33.6856L33.9313 95.5999L42.0604 77.5618L35.6502 72.1237V72.1333Z" fill="#FBAA19"/>
<path d="M43.257 17.8953L56.97 6.20963C57.7772 5.52392 58.9643 5.53344 59.7525 6.2382L72.8958 17.8953L64.3679 21.0763H47.1411L43.2665 17.8953H43.257Z" fill="#0BB257"/>
<path d="M43.257 27.9715V17.8857C43.257 17.8857 61.6898 20.1905 72.8958 17.8857V27.9715L59.3822 36.0476L43.257 27.9715Z" fill="#FBAA19"/>
<path d="M43.2569 27.9714L31.7566 94.7048C30.617 101.324 34.1782 107.886 40.37 110.448C48.7365 113.905 61.5854 116.467 76.6185 110.067C82.7058 107.476 86.115 100.924 84.9755 94.3905L73.3326 27.9714C73.3326 27.9714 53.4373 31.2191 43.2569 27.9714Z" fill="#0BB257"/>
<path d="M73.4751 43.3906C75.27 37.581 79.211 32.162 84.871 29.9906C90.531 27.8191 97.8623 29.7334 100.692 35.1144C102.174 37.9334 102.316 41.3144 101.708 44.4382C101.101 47.562 99.7996 50.5144 98.5081 53.4286L88.9925 74.8858L80.4361 94.2001" stroke="#FBAA19" stroke-width="2" stroke-miterlimit="10"/>
<path d="M18.5183 61.0857C18.7367 62.3333 19.2496 63.619 20.2942 64.3333C21.3388 65.0476 22.9912 64.9428 23.6465 63.8476C23.9694 63.3047 23.9979 62.619 23.8554 61.9904C23.713 61.3619 23.3996 60.8 23.0862 60.2476C22.4404 59.0952 20.5601 56.9619 19.9238 55.1238C19.2875 53.2857 18.2904 59.8 18.5183 61.0762V61.0857Z" fill="#E92C2C"/>
<path d="M51.652 55.5239C50.1515 52.8191 47.8628 50.6572 45.7451 48.4096C43.6273 46.162 41.5951 43.6667 40.8069 40.6762C40.389 39.0858 40.3415 37.4191 39.9617 35.8191C39.5818 34.2191 38.7556 32.6096 37.2931 31.8667C35.5742 30.9905 33.3425 31.6286 32.0225 33.0477C30.7025 34.4667 30.1897 36.4858 30.2277 38.4191C30.2467 39.5524 30.3701 40.9334 30.693 42.1905C32.013 40.9429 32.9342 42.6858 33.5895 43.581C34.2447 44.4858 34.9095 44.4858 35.8876 44.8382C37.4451 45.4001 38.7651 46.6953 39.7812 48.162L37.1507 63.4191C38.8411 65.9429 41.5476 67.8762 44.558 68.2191C47.5874 68.562 50.8448 67.1048 52.2787 64.4096C53.7317 61.6762 53.1334 58.2382 51.6425 55.5334L51.652 55.5239Z" fill="#FAAA19"/>
<path d="M30.0852 37.5143C29.8288 37.9429 29.6009 38.4001 29.5344 38.8953C29.4679 39.3905 29.5914 39.9334 29.9523 40.2763C30.3606 40.6667 30.9874 40.7239 31.5287 40.581C32.07 40.4382 32.5448 40.1143 33.0007 39.7905C32.5923 41.2286 32.2409 42.7429 32.5828 44.1905C32.7822 45.0191 33.4375 45.9239 34.2827 45.7715C34.7385 45.6858 35.0899 45.2953 35.2514 44.8572C35.4128 44.4191 35.4318 43.9524 35.4413 43.4858L35.5932 37.6477C35.6122 37.0001 35.6217 36.3334 35.4413 35.7048C35.2609 35.0763 34.8525 34.4858 34.2447 34.2477C32.5923 33.6001 30.7595 36.381 30.0852 37.5048V37.5143Z" fill="#0BB257"/>
<path d="M25.014 48.6857L35.6597 72.1238L39.7907 48.1619C38.7746 46.6857 37.4546 45.4 35.8971 44.8381C34.919 44.4857 34.2542 44.4857 33.599 43.581C32.9247 42.6572 31.975 40.8381 30.598 42.2857C30.0092 42.9048 30.0662 44.0286 30.7215 44.581C28.4803 45.4476 26.0397 46.5334 25.014 48.6857Z" fill="#E92C2C"/>
<path d="M6.58118 24.543V101.286" stroke="#E92C2C" stroke-miterlimit="10"/>
<path d="M4.42546 100.638L1.97534 97.5906" stroke="#E92C2C" stroke-miterlimit="10"/>
<path d="M4.42545 102.276L0.246948 104.829" stroke="#E92C2C" stroke-miterlimit="10"/>
<path d="M7.8822 103.552L10.6932 106.695" stroke="#E92C2C" stroke-miterlimit="10"/>
<path d="M9.05969 100.638L12.3265 97.5906" stroke="#E92C2C" stroke-miterlimit="10"/>
<path d="M9.28772 102.276H13.5327" stroke="#E92C2C" stroke-miterlimit="10"/>
</g>
<defs>
<clipPath id="clip0_339_796">
<rect width="103" height="114" fill="white"/>
</clipPath>
<clipPath id="clip1_339_796">
<rect width="24" height="83" fill="white" transform="translate(48 117) rotate(-90)"/>
</clipPath>
</defs>
</svg>
