<svg width="1031" height="516" viewBox="0 0 1031 516" fill="none" xmlns="http://www.w3.org/2000/svg">
<path d="M836 283H1030.55V419.719C1030.55 436.744 1016.73 450.582 999.681 450.582H836V283Z" fill="#FFAA00"/>
<path d="M855.793 380.922H1006.54V391.892C1006.54 407.022 994.238 419.316 979.103 419.316H883.227C868.092 419.316 855.793 407.022 855.793 391.892V380.922Z" fill="#00B157"/>
<path d="M960.73 380.923H900.191C893.009 380.923 886.516 376.662 883.63 370.087L871.582 342.512H989.322L977.274 370.087C974.405 376.662 967.895 380.923 960.713 380.923H960.73Z" fill="#00B157"/>
<path d="M970.882 315.507H902.439V342.528H970.882V315.507Z" fill="#00B157"/>
<path d="M988.432 356.618C993.622 356.618 997.829 354.876 997.829 352.727C997.829 350.577 993.622 348.835 988.432 348.835C983.243 348.835 979.036 350.577 979.036 352.727C979.036 354.876 983.243 356.618 988.432 356.618Z" stroke="#00B157" stroke-miterlimit="10"/>
<path d="M1012.38 317.285H970.881V324.028H1012.38V317.285Z" stroke="#00B157" stroke-miterlimit="10"/>
<path d="M592 63H701.13V139.688C701.13 149.238 693.374 157 683.812 157H592V63Z" fill="#FFAA00"/>
<path d="M603.102 117.927H687.658V124.08C687.658 132.566 680.759 139.462 672.269 139.462H618.49C610.001 139.462 603.102 132.566 603.102 124.08V117.927Z" fill="#00B157"/>
<path d="M661.964 117.927H628.006C623.978 117.927 620.335 115.537 618.716 111.849L611.959 96.3813H678.001L671.244 111.849C669.634 115.537 665.982 117.927 661.954 117.927H661.964Z" fill="#00B157"/>
<path d="M667.658 81.2336H629.267V96.3907H667.658V81.2336Z" fill="#00B157"/>
<path d="M677.503 104.294C680.413 104.294 682.773 103.316 682.773 102.111C682.773 100.905 680.413 99.9282 677.503 99.9282C674.592 99.9282 672.232 100.905 672.232 102.111C672.232 103.316 674.592 104.294 677.503 104.294Z" stroke="#00B157" stroke-miterlimit="10"/>
<path d="M690.933 82.231H667.658V86.0132H690.933V82.231Z" stroke="#00B157" stroke-miterlimit="10"/>
<path d="M140 158H232.47C251.145 158 266.297 173.146 266.297 191.815V271.991H140V158Z" fill="#FF0000"/>
<path d="M188.61 257.328C203.907 255.108 214.019 237.553 211.197 218.118C208.374 198.683 193.686 184.727 178.389 186.947C163.092 189.167 152.979 206.722 155.802 226.157C158.624 245.592 173.313 259.548 188.61 257.328Z" fill="#FFAA00"/>
<path d="M241.4 226.143C244.222 206.708 234.109 189.153 218.813 186.933C203.516 184.713 188.827 198.669 186.005 218.104C183.182 237.539 193.295 255.094 208.592 257.314C223.889 259.534 238.577 245.578 241.4 226.143Z" fill="#FFAA00"/>
<path d="M197.939 170.664L201.748 180.308L211.681 177.272L206.513 186.263L215.07 192.134L204.801 193.694L205.556 204.043L197.939 196.998L190.321 204.043L191.076 193.694L180.807 192.134L189.381 186.263L184.197 177.272L194.13 180.308L197.939 170.664Z" fill="#00B157"/>
<path d="M714 0.458008H837.736C862.725 0.458008 883 20.7255 883 45.7063V152.991H714V0.458008Z" fill="#FF0000"/>
<path d="M779.046 133.37C799.514 130.4 813.046 106.909 809.269 80.903C805.493 54.8965 785.838 36.2221 765.369 39.1926C744.9 42.163 731.368 65.6535 735.145 91.6599C738.922 117.666 758.577 136.341 779.046 133.37Z" fill="#FFAA00"/>
<path d="M849.684 91.6412C853.461 65.6347 839.929 42.1443 819.46 39.1739C798.991 36.2034 779.336 54.8778 775.56 80.8843C771.783 106.891 785.315 130.381 805.783 133.352C826.252 136.322 845.907 117.648 849.684 91.6412Z" fill="#FFAA00"/>
<path d="M791.528 17.4036L796.625 30.3092L809.917 26.2467L803.002 38.277L814.452 46.1326L800.712 48.22L801.722 62.0683L791.528 52.6415L781.335 62.0683L782.345 48.22L768.604 46.1326L780.078 38.277L773.14 26.2467L786.432 30.3092L791.528 17.4036Z" fill="#00B157"/>
<g clip-path="url(#clip0_402_454)">
<path d="M403.279 2H522V158H366V39.2785C366 18.7002 382.7 2 403.279 2Z" fill="#ED2224"/>
<path d="M446.058 139.479C477.625 139.479 503.216 113.889 503.216 82.3216C503.216 50.7542 477.625 25.1638 446.058 25.1638C414.491 25.1638 388.9 50.7542 388.9 82.3216C388.9 113.889 414.491 139.479 446.058 139.479Z" fill="#FBAA19"/>
<path d="M454.276 34.7011C456.967 36.759 460.37 37.6692 463.734 37.2338C469.486 36.4951 475.026 39.6874 477.255 45.0431C478.561 48.1694 481.041 50.6626 484.181 51.9685C489.536 54.1978 492.729 59.7382 491.99 65.4896C491.555 68.8533 492.465 72.2435 494.523 74.9477C498.045 79.5514 498.045 85.9492 494.523 90.553C492.465 93.244 491.555 96.6473 491.99 100.011C492.729 105.763 489.536 111.303 484.181 113.532C481.054 114.838 478.561 117.318 477.255 120.458C475.026 125.813 469.486 129.006 463.734 128.267C460.37 127.832 456.98 128.742 454.276 130.8C449.672 134.322 443.275 134.322 438.671 130.8C435.98 128.742 432.576 127.832 429.213 128.267C423.461 129.006 417.921 125.813 415.692 120.458C414.386 117.331 411.906 114.838 408.766 113.532C403.411 111.303 400.218 105.763 400.957 100.011C401.392 96.6473 400.482 93.2572 398.424 90.553C394.902 85.9492 394.902 79.5514 398.424 74.9477C400.482 72.2567 401.392 68.8533 400.957 65.4896C400.218 59.7382 403.411 54.1978 408.766 51.9685C411.893 50.6626 414.386 48.1826 415.692 45.0431C417.921 39.6874 423.461 36.4951 429.213 37.2338C432.576 37.6692 435.967 36.759 438.671 34.7011C443.275 31.1791 449.672 31.1791 454.276 34.7011Z" fill="#07B257"/>
<path d="M417.222 32.96L475.197 131.512" stroke="#ED2224" stroke-width="0.25" stroke-miterlimit="10"/>
<path d="M495.472 53.248L396.934 111.224" stroke="#ED2224" stroke-width="0.25" stroke-miterlimit="10"/>
<path d="M458.972 26.5093L433.447 137.962" stroke="#ED2224" stroke-width="0.25" stroke-miterlimit="10"/>
<path d="M501.923 94.9985L390.483 69.4734" stroke="#ED2224" stroke-width="0.25" stroke-miterlimit="10"/>
<path d="M411.22 69.1569C413.711 69.1569 415.731 67.137 415.731 64.6455C415.731 62.1539 413.711 60.134 411.22 60.134C408.728 60.134 406.708 62.1539 406.708 64.6455C406.708 67.137 408.728 69.1569 411.22 69.1569Z" stroke="#FBAA19" stroke-miterlimit="10"/>
<path d="M433.447 113.466C435.939 113.466 437.958 111.446 437.958 108.955C437.958 106.463 435.939 104.443 433.447 104.443C430.955 104.443 428.936 106.463 428.936 108.955C428.936 111.446 430.955 113.466 433.447 113.466Z" stroke="#FBAA19" stroke-miterlimit="10"/>
<path d="M460.436 69.1569C462.928 69.1569 464.948 67.137 464.948 64.6455C464.948 62.1539 462.928 60.134 460.436 60.134C457.945 60.134 455.925 62.1539 455.925 64.6455C455.925 67.137 457.945 69.1569 460.436 69.1569Z" stroke="#FBAA19" stroke-miterlimit="10"/>
<path d="M452.324 114.68C454.815 114.68 456.835 112.66 456.835 110.168C456.835 107.677 454.815 105.657 452.324 105.657C449.832 105.657 447.812 107.677 447.812 110.168C447.812 112.66 449.832 114.68 452.324 114.68Z" stroke="#FBAA19" stroke-miterlimit="10"/>
<path d="M483.007 104.786C485.498 104.786 487.518 102.767 487.518 100.275C487.518 97.7835 485.498 95.7637 483.007 95.7637C480.515 95.7637 478.495 97.7835 478.495 100.275C478.495 102.767 480.515 104.786 483.007 104.786Z" stroke="#FBAA19" stroke-miterlimit="10"/>
<path d="M468.311 81.8073C470.803 81.8073 472.823 79.7874 472.823 77.2958C472.823 74.8043 470.803 72.7844 468.311 72.7844C465.82 72.7844 463.8 74.8043 463.8 77.2958C463.8 79.7874 465.82 81.8073 468.311 81.8073Z" stroke="#FBAA19" stroke-miterlimit="10"/>
<path d="M421.641 90.4872C424.132 90.4872 426.152 88.4674 426.152 85.9758C426.152 83.4842 424.132 81.4644 421.641 81.4644C419.149 81.4644 417.129 83.4842 417.129 85.9758C417.129 88.4674 419.149 90.4872 421.641 90.4872Z" stroke="#FBAA19" stroke-miterlimit="10"/>
<path d="M443.261 62.7721C445.753 62.7721 447.773 60.7523 447.773 58.2607C447.773 55.7691 445.753 53.7493 443.261 53.7493C440.77 53.7493 438.75 55.7691 438.75 58.2607C438.75 60.7523 440.77 62.7721 443.261 62.7721Z" stroke="#FBAA19" stroke-miterlimit="10"/>
<path d="M427.643 67.6661C429.311 67.6661 430.664 66.3137 430.664 64.6453C430.664 62.977 429.311 61.6245 427.643 61.6245C425.975 61.6245 424.622 62.977 424.622 64.6453C424.622 66.3137 425.975 67.6661 427.643 67.6661Z" stroke="#FBAA19" stroke-miterlimit="10"/>
<path d="M409.729 99.932C411.397 99.932 412.75 98.5795 412.75 96.9112C412.75 95.2428 411.397 93.8904 409.729 93.8904C408.061 93.8904 406.708 95.2428 406.708 96.9112C406.708 98.5795 408.061 99.932 409.729 99.932Z" stroke="#FBAA19" stroke-miterlimit="10"/>
<path d="M418.752 111.052C420.42 111.052 421.773 109.7 421.773 108.032C421.773 106.363 420.42 105.011 418.752 105.011C417.084 105.011 415.731 106.363 415.731 108.032C415.731 109.7 417.084 111.052 418.752 111.052Z" stroke="#FBAA19" stroke-miterlimit="10"/>
<path d="M444 126.183C445.668 126.183 447.021 124.83 447.021 123.162C447.021 121.494 445.668 120.141 444 120.141C442.332 120.141 440.979 121.494 440.979 123.162C440.979 124.83 442.332 126.183 444 126.183Z" stroke="#FBAA19" stroke-miterlimit="10"/>
<path d="M466.834 101.357C468.502 101.357 469.855 100.004 469.855 98.3357C469.855 96.6674 468.502 95.3149 466.834 95.3149C465.166 95.3149 463.813 96.6674 463.813 98.3357C463.813 100.004 465.166 101.357 466.834 101.357Z" stroke="#FBAA19" stroke-miterlimit="10"/>
<path d="M484.932 87.5191C486.601 87.5191 487.953 86.1667 487.953 84.4983C487.953 82.83 486.601 81.4775 484.932 81.4775C483.264 81.4775 481.912 82.83 481.912 84.4983C481.912 86.1667 483.264 87.5191 484.932 87.5191Z" stroke="#FBAA19" stroke-miterlimit="10"/>
<path d="M462.692 51.2298C464.36 51.2298 465.713 49.8774 465.713 48.209C465.713 46.5407 464.36 45.1882 462.692 45.1882C461.024 45.1882 459.671 46.5407 459.671 48.209C459.671 49.8774 461.024 51.2298 462.692 51.2298Z" stroke="#FBAA19" stroke-miterlimit="10"/>
<path d="M434.924 46.9823C436.593 46.9823 437.945 45.6298 437.945 43.9615C437.945 42.2931 436.593 40.9407 434.924 40.9407C433.256 40.9407 431.904 42.2931 431.904 43.9615C431.904 45.6298 433.256 46.9823 434.924 46.9823Z" stroke="#FBAA19" stroke-miterlimit="10"/>
</g>
<g clip-path="url(#clip1_402_454)">
<path d="M169.871 287H265V412H140V316.871C140 300.382 153.382 287 169.871 287Z" fill="#ED2224"/>
<path d="M204.149 397.16C229.443 397.16 249.948 376.655 249.948 351.36C249.948 326.066 229.443 305.561 204.149 305.561C178.855 305.561 158.349 326.066 158.349 351.36C158.349 376.655 178.855 397.16 204.149 397.16Z" fill="#FBAA19"/>
<path d="M210.734 313.203C212.89 314.852 215.617 315.581 218.313 315.232C222.921 314.64 227.36 317.198 229.147 321.49C230.193 323.995 232.18 325.992 234.696 327.039C238.987 328.825 241.545 333.265 240.953 337.873C240.605 340.568 241.334 343.285 242.983 345.452C245.805 349.141 245.805 354.267 242.983 357.956C241.334 360.112 240.605 362.839 240.953 365.535C241.545 370.143 238.987 374.582 234.696 376.369C232.191 377.415 230.193 379.402 229.147 381.918C227.36 386.209 222.921 388.767 218.313 388.175C215.617 387.827 212.901 388.556 210.734 390.205C207.045 393.027 201.919 393.027 198.23 390.205C196.073 388.556 193.346 387.827 190.651 388.175C186.043 388.767 181.603 386.209 179.817 381.918C178.771 379.413 176.783 377.415 174.268 376.369C169.976 374.582 167.418 370.143 168.01 365.535C168.359 362.839 167.63 360.123 165.981 357.956C163.159 354.267 163.159 349.141 165.981 345.452C167.63 343.295 168.359 340.568 168.01 337.873C167.418 333.265 169.976 328.825 174.268 327.039C176.773 325.992 178.771 324.005 179.817 321.49C181.603 317.198 186.043 314.64 190.651 315.232C193.346 315.581 196.063 314.852 198.23 313.203C201.919 310.381 207.045 310.381 210.734 313.203Z" fill="#07B257"/>
<path d="M181.043 311.808L227.498 390.776" stroke="#ED2224" stroke-width="0.25" stroke-miterlimit="10"/>
<path d="M243.744 328.064L164.786 374.519" stroke="#ED2224" stroke-width="0.25" stroke-miterlimit="10"/>
<path d="M214.497 306.639L194.044 395.944" stroke="#ED2224" stroke-width="0.25" stroke-miterlimit="10"/>
<path d="M248.912 361.518L159.618 341.065" stroke="#ED2224" stroke-width="0.25" stroke-miterlimit="10"/>
<path d="M176.234 340.812C178.23 340.812 179.849 339.193 179.849 337.197C179.849 335.2 178.23 333.582 176.234 333.582C174.237 333.582 172.619 335.2 172.619 337.197C172.619 339.193 174.237 340.812 176.234 340.812Z" stroke="#FBAA19" stroke-miterlimit="10"/>
<path d="M194.044 376.316C196.041 376.316 197.659 374.698 197.659 372.701C197.659 370.705 196.041 369.086 194.044 369.086C192.048 369.086 190.429 370.705 190.429 372.701C190.429 374.698 192.048 376.316 194.044 376.316Z" stroke="#FBAA19" stroke-miterlimit="10"/>
<path d="M215.67 340.812C217.667 340.812 219.285 339.193 219.285 337.197C219.285 335.2 217.667 333.582 215.67 333.582C213.674 333.582 212.055 335.2 212.055 337.197C212.055 339.193 213.674 340.812 215.67 340.812Z" stroke="#FBAA19" stroke-miterlimit="10"/>
<path d="M209.17 377.288C211.166 377.288 212.785 375.67 212.785 373.674C212.785 371.677 211.166 370.059 209.17 370.059C207.173 370.059 205.555 371.677 205.555 373.674C205.555 375.67 207.173 377.288 209.17 377.288Z" stroke="#FBAA19" stroke-miterlimit="10"/>
<path d="M233.755 369.361C235.752 369.361 237.37 367.742 237.37 365.746C237.37 363.75 235.752 362.131 233.755 362.131C231.759 362.131 230.14 363.75 230.14 365.746C230.14 367.742 231.759 369.361 233.755 369.361Z" stroke="#FBAA19" stroke-miterlimit="10"/>
<path d="M221.98 350.948C223.977 350.948 225.595 349.33 225.595 347.333C225.595 345.337 223.977 343.718 221.98 343.718C219.984 343.718 218.365 345.337 218.365 347.333C218.365 349.33 219.984 350.948 221.98 350.948Z" stroke="#FBAA19" stroke-miterlimit="10"/>
<path d="M184.584 357.903C186.58 357.903 188.199 356.285 188.199 354.288C188.199 352.292 186.58 350.673 184.584 350.673C182.587 350.673 180.969 352.292 180.969 354.288C180.969 356.285 182.587 357.903 184.584 357.903Z" stroke="#FBAA19" stroke-miterlimit="10"/>
<path d="M201.908 335.696C203.905 335.696 205.523 334.077 205.523 332.081C205.523 330.084 203.905 328.466 201.908 328.466C199.912 328.466 198.293 330.084 198.293 332.081C198.293 334.077 199.912 335.696 201.908 335.696Z" stroke="#FBAA19" stroke-miterlimit="10"/>
<path d="M189.393 339.617C190.73 339.617 191.814 338.533 191.814 337.197C191.814 335.86 190.73 334.776 189.393 334.776C188.056 334.776 186.973 335.86 186.973 337.197C186.973 338.533 188.056 339.617 189.393 339.617Z" stroke="#FBAA19" stroke-miterlimit="10"/>
<path d="M175.039 365.471C176.376 365.471 177.46 364.387 177.46 363.051C177.46 361.714 176.376 360.63 175.039 360.63C173.703 360.63 172.619 361.714 172.619 363.051C172.619 364.387 173.703 365.471 175.039 365.471Z" stroke="#FBAA19" stroke-miterlimit="10"/>
<path d="M182.269 374.382C183.606 374.382 184.69 373.298 184.69 371.961C184.69 370.624 183.606 369.541 182.269 369.541C180.932 369.541 179.849 370.624 179.849 371.961C179.849 373.298 180.932 374.382 182.269 374.382Z" stroke="#FBAA19" stroke-miterlimit="10"/>
<path d="M202.5 386.505C203.837 386.505 204.921 385.422 204.921 384.085C204.921 382.748 203.837 381.664 202.5 381.664C201.163 381.664 200.08 382.748 200.08 384.085C200.08 385.422 201.163 386.505 202.5 386.505Z" stroke="#FBAA19" stroke-miterlimit="10"/>
<path d="M220.796 366.613C222.133 366.613 223.217 365.529 223.217 364.192C223.217 362.855 222.133 361.772 220.796 361.772C219.46 361.772 218.376 362.855 218.376 364.192C218.376 365.529 219.46 366.613 220.796 366.613Z" stroke="#FBAA19" stroke-miterlimit="10"/>
<path d="M235.298 355.525C236.635 355.525 237.719 354.441 237.719 353.104C237.719 351.768 236.635 350.684 235.298 350.684C233.962 350.684 232.878 351.768 232.878 353.104C232.878 354.441 233.962 355.525 235.298 355.525Z" stroke="#FBAA19" stroke-miterlimit="10"/>
<path d="M217.478 326.447C218.814 326.447 219.898 325.363 219.898 324.026C219.898 322.69 218.814 321.606 217.478 321.606C216.141 321.606 215.057 322.69 215.057 324.026C215.057 325.363 216.141 326.447 217.478 326.447Z" stroke="#FBAA19" stroke-miterlimit="10"/>
<path d="M195.228 323.043C196.565 323.043 197.648 321.96 197.648 320.623C197.648 319.286 196.565 318.202 195.228 318.202C193.891 318.202 192.807 319.286 192.807 320.623C192.807 321.96 193.891 323.043 195.228 323.043Z" stroke="#FBAA19" stroke-miterlimit="10"/>
</g>
<g clip-path="url(#clip2_402_454)">
<path d="M0 122H126V441H61.5967C27.5921 441 0 413.41 0 379.444V122Z" fill="#07B257"/>
<path d="M89.1072 317.284H42.8647L51.9696 172.598C52.3612 166.467 57.4358 161.706 63.5874 161.706H68.3846C74.5361 161.706 79.6107 166.484 80.0023 172.598L89.1072 317.284Z" fill="#FBAA19"/>
<path d="M92.1749 247.216L64.9254 296.135L37.676 247.216V354.919C37.676 367.247 47.662 377.226 59.9977 377.226H69.8369C82.1725 377.226 92.1585 367.247 92.1585 354.919V247.216H92.1749Z" fill="#ED2224"/>
<path d="M57.1421 163.646V282.144" stroke="#07B257" stroke-miterlimit="10"/>
<path d="M74.8298 163.646V278.377" stroke="#07B257" stroke-miterlimit="10"/>
<path d="M51.5945 178.648H80.3777" stroke="#07B257" stroke-miterlimit="10"/>
<path d="M50.1096 194.954H82.5642" stroke="#07B257" stroke-miterlimit="10"/>
<path d="M45.4919 211.261H85.8439" stroke="#07B257" stroke-miterlimit="10"/>
<path d="M45.4919 227.567H85.8439" stroke="#07B257" stroke-miterlimit="10"/>
<path d="M45.4919 243.873H85.8439" stroke="#07B257" stroke-miterlimit="10"/>
<path d="M45.4919 260.179H85.5013" stroke="#07B257" stroke-miterlimit="10"/>
<path d="M53.9929 276.486H75.874" stroke="#07B257" stroke-miterlimit="10"/>
</g>
<g clip-path="url(#clip3_402_454)">
<path d="M687 172H823V516H753.485C716.782 516 687 486.247 687 449.62V172Z" fill="#07B257"/>
<path d="M783.179 382.589H733.267L743.094 226.564C743.517 219.952 748.994 214.818 755.634 214.818H760.812C767.452 214.818 772.929 219.97 773.352 226.564L783.179 382.589Z" fill="#FBAA19"/>
<path d="M786.49 307.029L757.078 359.782L727.666 307.029V423.173C727.666 436.467 738.445 447.228 751.759 447.228H762.379C775.694 447.228 786.473 436.467 786.473 423.173V307.029H786.49Z" fill="#ED2224"/>
<path d="M748.677 216.91V344.695" stroke="#07B257" stroke-miterlimit="10"/>
<path d="M767.769 216.91V340.633" stroke="#07B257" stroke-miterlimit="10"/>
<path d="M742.689 233.088H773.757" stroke="#07B257" stroke-miterlimit="10"/>
<path d="M741.087 250.672H776.117" stroke="#07B257" stroke-miterlimit="10"/>
<path d="M736.102 268.256H779.657" stroke="#07B257" stroke-miterlimit="10"/>
<path d="M736.102 285.84H779.657" stroke="#07B257" stroke-miterlimit="10"/>
<path d="M736.102 303.424H779.657" stroke="#07B257" stroke-miterlimit="10"/>
<path d="M736.102 321.009H779.287" stroke="#07B257" stroke-miterlimit="10"/>
<path d="M745.278 338.593H768.896" stroke="#07B257" stroke-miterlimit="10"/>
</g>
<g clip-path="url(#clip4_402_454)">
<path d="M525.598 172H674V367H479V218.598C479 192.875 499.875 172 525.598 172Z" fill="#ED2224"/>
<path d="M561.264 193.65L541.972 274.084C544.594 274.876 546.523 277.283 546.523 280.169C546.523 283.697 543.654 286.566 540.125 286.566C539.746 286.566 539.367 286.517 539.004 286.451L526.456 338.804H594.209L561.264 193.65Z" fill="#07B257"/>
<path d="M618.91 310.541C618.382 310.69 617.838 310.789 617.261 310.789C613.732 310.789 610.863 307.92 610.863 304.391C610.863 301.275 613.089 298.686 616.041 298.125L604.169 246.679C603.608 246.844 603.031 246.943 602.421 246.943C598.892 246.943 596.023 244.074 596.023 240.545C596.023 237.396 598.299 234.791 601.3 234.263L591.917 193.634H561.248L594.209 338.787H625.407L618.893 310.541H618.91Z" fill="#56BB6E"/>
<path opacity="0.55" d="M560.242 249.548C563.775 249.548 566.64 246.684 566.64 243.15C566.64 239.617 563.775 236.753 560.242 236.753C556.708 236.753 553.844 239.617 553.844 243.15C553.844 246.684 556.708 249.548 560.242 249.548Z" fill="#158C47"/>
<path opacity="0.55" d="M564.133 288.512C567.667 288.512 570.531 285.648 570.531 282.114C570.531 278.581 567.667 275.717 564.133 275.717C560.6 275.717 557.735 278.581 557.735 282.114C557.735 285.648 560.6 288.512 564.133 288.512Z" fill="#158C47"/>
<path opacity="0.55" d="M551.14 323.584C554.673 323.584 557.537 320.72 557.537 317.187C557.537 313.653 554.673 310.789 551.14 310.789C547.606 310.789 544.742 313.653 544.742 317.187C544.742 320.72 547.606 323.584 551.14 323.584Z" fill="#158C47"/>
<path d="M598.018 281.009C601.552 281.009 604.416 278.145 604.416 274.612C604.416 271.078 601.552 268.214 598.018 268.214C594.485 268.214 591.62 271.078 591.62 274.612C591.62 278.145 594.485 281.009 598.018 281.009Z" fill="#0AA04A"/>
</g>
<g clip-path="url(#clip5_402_454)">
<path d="M111.808 3H194V111H86V28.8082C86 14.5616 97.5616 3 111.808 3Z" fill="#ED2224"/>
<path d="M131.562 14.9907L120.877 59.5387C122.329 59.977 123.397 61.3104 123.397 62.9085C123.397 64.8629 121.808 66.4519 119.854 66.4519C119.644 66.4519 119.434 66.4245 119.233 66.388L112.283 95.3834H149.808L131.562 14.9907Z" fill="#07B257"/>
<path d="M163.489 79.7305C163.196 79.8127 162.895 79.8675 162.575 79.8675C160.621 79.8675 159.032 78.2785 159.032 76.3242C159.032 74.5981 160.265 73.1643 161.9 72.8538L155.324 44.3607C155.014 44.452 154.694 44.5068 154.356 44.5068C152.402 44.5068 150.813 42.9178 150.813 40.9634C150.813 39.2191 152.073 37.7762 153.735 37.484L148.539 14.9817H131.552L149.808 95.3744H167.087L163.479 79.7305H163.489Z" fill="#56BB6E"/>
<path opacity="0.55" d="M130.996 45.9498C132.952 45.9498 134.539 44.3634 134.539 42.4064C134.539 40.4495 132.952 38.863 130.996 38.863C129.039 38.863 127.452 40.4495 127.452 42.4064C127.452 44.3634 129.039 45.9498 130.996 45.9498Z" fill="#158C47"/>
<path opacity="0.55" d="M133.151 67.5296C135.108 67.5296 136.694 65.9432 136.694 63.9862C136.694 62.0293 135.108 60.4429 133.151 60.4429C131.194 60.4429 129.607 62.0293 129.607 63.9862C129.607 65.9432 131.194 67.5296 133.151 67.5296Z" fill="#158C47"/>
<path opacity="0.55" d="M125.955 86.9542C127.911 86.9542 129.498 85.3678 129.498 83.4108C129.498 81.4539 127.911 79.8674 125.955 79.8674C123.998 79.8674 122.411 81.4539 122.411 83.4108C122.411 85.3678 123.998 86.9542 125.955 86.9542Z" fill="#158C47"/>
<path d="M151.918 63.3744C153.875 63.3744 155.461 61.7879 155.461 59.831C155.461 57.874 153.875 56.2876 151.918 56.2876C149.961 56.2876 148.375 57.874 148.375 59.831C148.375 61.7879 149.961 63.3744 151.918 63.3744Z" fill="#0AA04A"/>
</g>
<g clip-path="url(#clip6_402_454)">
<path d="M861.808 164H944V272H836V189.808C836 175.562 847.562 164 861.808 164Z" fill="#ED2224"/>
<path d="M881.562 175.991L870.877 220.539C872.329 220.977 873.397 222.31 873.397 223.909C873.397 225.863 871.808 227.452 869.854 227.452C869.644 227.452 869.434 227.425 869.233 227.388L862.283 256.383H899.808L881.562 175.991Z" fill="#07B257"/>
<path d="M913.489 240.731C913.196 240.813 912.895 240.868 912.575 240.868C910.621 240.868 909.032 239.278 909.032 237.324C909.032 235.598 910.265 234.164 911.9 233.854L905.324 205.361C905.014 205.452 904.694 205.507 904.356 205.507C902.402 205.507 900.813 203.918 900.813 201.963C900.813 200.219 902.073 198.776 903.735 198.484L898.539 175.982H881.552L899.808 256.374H917.087L913.479 240.731H913.489Z" fill="#56BB6E"/>
<path opacity="0.55" d="M880.995 206.95C882.952 206.95 884.539 205.363 884.539 203.406C884.539 201.449 882.952 199.863 880.995 199.863C879.038 199.863 877.452 201.449 877.452 203.406C877.452 205.363 879.038 206.95 880.995 206.95Z" fill="#158C47"/>
<path opacity="0.55" d="M883.151 228.53C885.108 228.53 886.694 226.943 886.694 224.986C886.694 223.029 885.108 221.443 883.151 221.443C881.194 221.443 879.607 223.029 879.607 224.986C879.607 226.943 881.194 228.53 883.151 228.53Z" fill="#158C47"/>
<path opacity="0.55" d="M875.954 247.954C877.911 247.954 879.498 246.368 879.498 244.411C879.498 242.454 877.911 240.867 875.954 240.867C873.997 240.867 872.411 242.454 872.411 244.411C872.411 246.368 873.997 247.954 875.954 247.954Z" fill="#158C47"/>
<path d="M901.918 224.374C903.875 224.374 905.461 222.788 905.461 220.831C905.461 218.874 903.875 217.288 901.918 217.288C899.961 217.288 898.374 218.874 898.374 220.831C898.374 222.788 899.961 224.374 901.918 224.374Z" fill="#0AA04A"/>
</g>
<g clip-path="url(#clip7_402_454)">
<path d="M277 173H467V314.224C467 326.788 456.819 337 444.265 337H277V173Z" fill="#FBAA19"/>
<path d="M337.681 269.699V255.972C337.681 253.137 339.72 250.699 342.512 250.216L353.423 248.31C356.215 247.827 358.254 245.401 358.254 242.554C358.254 239.323 355.647 236.711 352.422 236.711H332.331C329.106 236.711 326.499 234.099 326.499 230.869V207.164C326.499 203.933 329.106 201.322 332.331 201.322H350.297C351.396 201.322 352.484 201.012 353.423 200.418L384.832 180.464C387.093 179.028 390.034 179.313 391.974 181.157L413.523 201.656C417.329 205.27 414.796 211.695 409.557 211.732L369.202 212.029C366.088 212.054 363.542 214.529 363.419 217.649V217.797C363.283 221.102 365.927 223.863 369.239 223.863H381.953C385.178 223.863 387.785 226.474 387.785 229.705V249.708C387.785 252.753 385.462 255.279 382.435 255.526L355.128 257.779C352.101 258.027 349.778 260.564 349.778 263.597V272.559L337.706 269.699H337.681Z" fill="white"/>
<path d="M316.873 269.699H419.936V278.141C419.936 303.801 399.14 324.634 373.526 324.634H363.283C337.669 324.634 316.873 303.801 316.873 278.141V269.699Z" fill="#ED2224"/>
<path d="M334.184 291.411C337.289 291.411 339.806 288.889 339.806 285.779C339.806 282.668 337.289 280.147 334.184 280.147C331.079 280.147 328.562 282.668 328.562 285.779C328.562 288.889 331.079 291.411 334.184 291.411Z" fill="#B72025"/>
<path d="M398.152 269.699C398.152 269.699 406.134 321.119 356.104 324.065C358.439 324.424 360.849 324.622 363.283 324.622H373.526C399.153 324.622 419.936 303.802 419.936 278.129V269.687H398.152V269.699Z" fill="#B72025"/>
</g>
<g clip-path="url(#clip8_402_454)">
<path d="M894 50H1013V138.696C1013 146.586 1006.62 153 998.761 153H894V50Z" fill="#FBAA19"/>
<path d="M932.005 110.732V102.11C932.005 100.33 933.282 98.7984 935.031 98.4952L941.865 97.298C943.614 96.9948 944.891 95.471 944.891 93.683C944.891 91.6539 943.258 90.0136 941.238 90.0136H928.655C926.635 90.0136 925.002 88.3732 925.002 86.3442V71.4566C925.002 69.4276 926.635 67.7872 928.655 67.7872H939.907C940.596 67.7872 941.277 67.5929 941.865 67.2197L961.537 54.6877C962.953 53.7859 964.795 53.9647 966.01 55.1231L979.506 67.9971C981.89 70.2672 980.304 74.302 977.022 74.3253L951.747 74.5119C949.797 74.5274 948.203 76.0822 948.125 78.0413V78.1346C948.04 80.2103 949.696 81.944 951.77 81.944H959.734C961.754 81.944 963.386 83.5843 963.386 85.6134V98.1764C963.386 100.089 961.932 101.675 960.036 101.83L942.933 103.245C941.037 103.401 939.582 104.994 939.582 106.899V112.528L932.021 110.732H932.005Z" fill="white"/>
<path d="M918.973 110.732H983.523V116.034C983.523 132.15 970.498 145.233 954.456 145.233H948.04C931.998 145.233 918.973 132.15 918.973 116.034V110.732Z" fill="#ED2224"/>
<path d="M929.815 124.368C931.76 124.368 933.337 122.784 933.337 120.83C933.337 118.877 931.76 117.293 929.815 117.293C927.871 117.293 926.294 118.877 926.294 120.83C926.294 122.784 927.871 124.368 929.815 124.368Z" fill="#B72025"/>
<path d="M969.879 110.732C969.879 110.732 974.879 143.026 943.544 144.876C945.007 145.101 946.516 145.226 948.04 145.226H954.456C970.506 145.226 983.523 132.149 983.523 116.026V110.724H969.879V110.732Z" fill="#B72025"/>
</g>
<defs>
<clipPath id="clip0_402_454">
<rect width="156" height="156" fill="white" transform="translate(366 2)"/>
</clipPath>
<clipPath id="clip1_402_454">
<rect width="125" height="125" fill="white" transform="translate(140 287)"/>
</clipPath>
<clipPath id="clip2_402_454">
<rect width="126" height="319" fill="white" transform="translate(0 122)"/>
</clipPath>
<clipPath id="clip3_402_454">
<rect width="136" height="344" fill="white" transform="translate(687 172)"/>
</clipPath>
<clipPath id="clip4_402_454">
<rect width="195" height="195" fill="white" transform="translate(479 172)"/>
</clipPath>
<clipPath id="clip5_402_454">
<rect width="108" height="108" fill="white" transform="translate(86 3)"/>
</clipPath>
<clipPath id="clip6_402_454">
<rect width="108" height="108" fill="white" transform="translate(836 164)"/>
</clipPath>
<clipPath id="clip7_402_454">
<rect width="190" height="164" fill="white" transform="translate(277 173)"/>
</clipPath>
<clipPath id="clip8_402_454">
<rect width="119" height="103" fill="white" transform="translate(894 50)"/>
</clipPath>
</defs>
</svg>
