<svg width="161" height="105" viewBox="0 0 161 105" fill="none" xmlns="http://www.w3.org/2000/svg">
<g clip-path="url(#clip0_339_762)">
<g clip-path="url(#clip1_339_762)">
<path d="M113 70.1699L4.26971 70.1699" stroke="#0BB257" stroke-miterlimit="10"/>
<path d="M110.541 74.8564L1.82234 74.8564" stroke="#0BB257" stroke-miterlimit="10"/>
<path d="M107.274 80.2122L-1.4559 80.2122" stroke="#0BB257" stroke-miterlimit="10"/>
<path d="M104.269 85.5583L-4.44963 85.5583" stroke="#0BB257" stroke-miterlimit="10"/>
<path d="M101.002 90.2061L-7.72797 90.206" stroke="#0BB257" stroke-miterlimit="10"/>
<path d="M97.724 95.0864L-10.9949 95.0864" stroke="#0BB257" stroke-miterlimit="10"/>
<path d="M94.7303 100.2L-14 100.2" stroke="#0BB257" stroke-miterlimit="10"/>
</g>
<path d="M0.416626 -19L35.7708 29.7177" stroke="#ED2526" stroke-width="2" stroke-miterlimit="10"/>
<path d="M39.3749 42.5038L33.7812 35.328C32.427 33.584 32.7708 31.0519 34.552 29.7597L36.1979 28.5514C37.8541 27.3327 40.1666 27.6374 41.4687 29.2343L47.4479 36.5888" stroke="#ED2526" stroke-width="2" stroke-miterlimit="10"/>
<path d="M35.7709 29.7178L41.198 37.4609" stroke="#ED2526" stroke-width="2" stroke-miterlimit="10"/>
<path d="M3.34375 50.7197H152.615" stroke="#ED2224" stroke-width="2" stroke-miterlimit="10"/>
<path d="M50.9584 83.0792C65.197 83.0792 76.7396 71.4372 76.7396 57.0761C76.7396 42.715 65.197 31.073 50.9584 31.073C36.7198 31.073 25.1771 42.715 25.1771 57.0761C25.1771 71.4372 36.7198 83.0792 50.9584 83.0792Z" fill="#FBAA19"/>
<path d="M84.7292 76.723C100.084 76.723 112.531 64.1685 112.531 48.6817C112.531 33.1949 100.084 20.6404 84.7292 20.6404C69.3745 20.6404 56.9271 33.1949 56.9271 48.6817C56.9271 64.1685 69.3745 76.723 84.7292 76.723Z" fill="#FBAA19"/>
<path d="M10.4271 50.7197H145.146V59.1038C145.146 73.7705 133.333 85.6847 118.792 85.6847H36.7813C22.2396 85.6847 10.4271 73.7705 10.4271 59.1038V50.7197Z" fill="#ED2526"/>
<path d="M29 49.0809C31.3125 42.6616 36.4063 37.3244 42.6771 34.7503C48.9479 32.1763 56.2917 32.4074 62.3854 35.3702" stroke="#07B257" stroke-miterlimit="10"/>
<path d="M32.25 49.207C35.0208 44.3531 39.4062 40.4553 44.5417 38.3015C49.6771 36.1477 55.5 35.738 60.875 37.1668" stroke="#07B257" stroke-miterlimit="10"/>
<path d="M37.0416 49.2806C43.4375 43.0818 52.7604 40.0876 61.5312 41.4219" stroke="#07B257" stroke-miterlimit="10"/>
<path d="M43.9166 49.8057C49.9479 46.1915 57.1875 44.6786 64.1458 45.5927" stroke="#07B257" stroke-miterlimit="10"/>
<path d="M54.9584 49.9424L63.2813 48.9863" stroke="#07B257" stroke-miterlimit="10"/>
<path d="M64.25 33.626C69.1458 28.7406 75.6354 25.3996 82.5 24.7902C89.3646 24.1808 96.5208 26.4292 101.479 31.2411C106.438 36.053 108.958 43.4494 107.5 50.2365" stroke="#07B257" stroke-miterlimit="10"/>
<path d="M64.0521 38.5851C68.573 35.097 73.5625 32.0502 79.0938 30.6949C84.625 29.3396 90.7813 29.8439 95.5417 33.0063C100.302 36.1687 103.26 42.2623 101.906 47.8412" stroke="#07B257" stroke-miterlimit="10"/>
<path d="M64.7188 42.9242C69.2708 38.4485 75.4688 35.7169 81.8125 35.3912C85.4792 35.202 89.3333 35.8639 92.25 38.1228C95.1667 40.3817 96.8438 44.4791 95.5313 47.9462" stroke="#07B257" stroke-miterlimit="10"/>
<path d="M68.1041 45.7819C70.6145 43.7752 73.1666 41.7475 76.1458 40.5708C79.125 39.3941 82.6354 39.1735 85.427 40.7599C88.2187 42.3464 89.8854 46.0446 88.5625 48.9864" stroke="#07B257" stroke-miterlimit="10"/>
<path d="M70.6354 49.3541C71.9687 48.3875 73.3125 47.421 74.8333 46.8116C76.3541 46.2022 78.0937 45.9921 79.625 46.5805C81.1562 47.1688 82.3958 48.6712 82.3541 50.3312" stroke="#07B257" stroke-miterlimit="10"/>
<path d="M57.8646 29.2765C56.323 25.074 54.7084 20.7559 51.7188 17.4464C50.0209 15.5658 47.8021 14.0739 45.3646 13.391C43.2084 12.7816 39.5834 12.1512 40.6771 15.3241C42.2813 19.9994 45.8646 24.0233 50.0417 26.5133C52.4376 27.9422 55.1042 28.9088 57.8646 29.2765Z" fill="#07B257"/>
<path d="M126.427 27.3432C127.677 26.1245 129.375 25.4101 131.115 25.3575C132.354 25.326 133.646 25.6517 134.583 26.4607C135.521 27.2697 136.052 28.625 135.708 29.8227C135.375 30.9679 134.354 31.7769 133.302 32.3232C131.198 33.4159 127.625 34.1828 125.375 33.0271C123.125 31.8715 125.198 28.5304 126.427 27.3327V27.3432Z" fill="#ED2526"/>
<path d="M152.573 30.0435C152.76 29.4131 153.188 28.7092 153.833 28.7512C154.323 28.7827 154.677 29.2765 154.729 29.7703C154.781 30.2641 154.615 30.7369 154.448 31.1992C155.104 30.096 155.375 28.7932 156.021 27.6795C156.667 26.5659 157.917 25.6098 159.146 25.9775C160.375 26.3347 160.917 27.7951 160.99 29.0769C161.146 31.8295 159.844 34.6242 157.646 36.2632C156.896 36.82 156.021 37.2613 155.094 37.3453C154.167 37.4294 153.167 37.1352 152.552 36.4208C151.781 35.5278 152.156 34.7293 152.25 33.7207C152.365 32.4599 152.208 31.3042 152.583 30.0435H152.573Z" fill="#FAAA19"/>
<path d="M131.448 40.0979C138.802 41.947 147.167 38.1543 150.677 31.3777L157.479 37.5974C151.604 45.0779 141.927 48.1668 132.844 50.8564C130.01 51.6969 127.177 52.5374 124.281 53.0942C121.563 53.6195 118.656 53.8822 116.083 52.8421C111.531 51.0035 108.063 43.0292 111.656 38.8687C117.073 32.6069 125.479 38.5955 131.448 40.0979Z" fill="#0BB257"/>
<path d="M124.281 29.7914C123.667 29.5812 123.042 30.1801 122.854 30.8105C122.542 31.8611 123.031 33.0903 123.969 33.6367C124.042 34.6348 124.365 35.6434 125.073 36.3368C125.781 37.0302 126.917 37.3244 127.792 36.8726C128.49 36.5049 128.906 35.7694 129.208 35.034C129.594 34.0779 129.854 33.0168 129.656 32.0082C129.458 30.9996 128.719 30.033 127.708 29.8439C126.385 29.5917 126.448 30.7264 125.646 31.0416C124.687 31.4198 125.177 30.117 124.292 29.8019L124.281 29.7914Z" fill="#FAAA19"/>
</g>
<defs>
<clipPath id="clip0_339_762">
<rect width="161" height="105" fill="white"/>
</clipPath>
<clipPath id="clip1_339_762">
<rect width="31" height="127" fill="white" transform="translate(113 69.6848) rotate(90)"/>
</clipPath>
</defs>
</svg>
