<svg width="320" height="302" viewBox="0 0 320 302" fill="none" xmlns="http://www.w3.org/2000/svg">
<path d="M206.733 163.615H319.397V242.787C319.397 252.646 311.39 260.659 301.518 260.659H206.733V163.615Z" fill="#FFAA00"/>
<path d="M218.195 220.321H305.488V226.673C305.488 235.434 298.366 242.554 289.602 242.554H234.081C225.317 242.554 218.195 235.434 218.195 226.673V220.321Z" fill="#00B157"/>
<path d="M278.962 220.321H243.905C239.746 220.321 235.986 217.854 234.315 214.046L227.338 198.078H295.519L288.543 214.046C286.881 217.854 283.111 220.321 278.952 220.321H278.962Z" fill="#00B157"/>
<path d="M284.841 182.439H245.207V198.087H284.841V182.439Z" fill="#00B157"/>
<path d="M295.004 206.246C298.009 206.246 300.445 205.237 300.445 203.993C300.445 202.748 298.009 201.74 295.004 201.74C291.999 201.74 289.563 202.748 289.563 203.993C289.563 205.237 291.999 206.246 295.004 206.246Z" stroke="#00B157" stroke-miterlimit="10"/>
<path d="M308.87 183.469H284.841V187.374H308.87V183.469Z" stroke="#00B157" stroke-miterlimit="10"/>
<path d="M65.4365 36.217H128.632V80.6261C128.632 86.1561 124.141 90.6509 118.603 90.6509H65.4365V36.217Z" fill="#FFAA00"/>
<path d="M71.8656 68.0242H120.83V71.5874C120.83 76.5017 116.835 80.4953 111.919 80.4953H80.7767C75.8606 80.4953 71.8656 76.5017 71.8656 71.5874V68.0242Z" fill="#00B157"/>
<path d="M105.951 68.0242H86.2869C83.9542 68.0242 81.845 66.6403 80.9075 64.5046L76.9943 55.5476H115.238L111.325 64.5046C110.393 66.6403 108.279 68.0242 105.946 68.0242H105.951Z" fill="#00B157"/>
<path d="M109.249 46.7759H87.0172V55.5531H109.249V46.7759Z" fill="#00B157"/>
<path d="M114.95 60.1296C116.635 60.1296 118.002 59.5637 118.002 58.8656C118.002 58.1675 116.635 57.6016 114.95 57.6016C113.264 57.6016 111.898 58.1675 111.898 58.8656C111.898 59.5637 113.264 60.1296 114.95 60.1296Z" stroke="#00B157" stroke-miterlimit="10"/>
<path d="M122.727 47.3533H109.249V49.5435H122.727V47.3533Z" stroke="#00B157" stroke-miterlimit="10"/>
<path d="M136.085 0H207.738C222.209 0 233.95 11.7365 233.95 26.2025V88.3295H136.085V0Z" fill="#FF0000"/>
<path d="M173.752 76.9674C185.605 75.2472 193.441 61.6443 191.254 46.5844C189.067 31.5245 177.685 20.7104 165.832 22.4306C153.978 24.1507 146.142 37.7536 148.329 52.8136C150.516 67.8735 161.898 78.6875 173.752 76.9674Z" fill="#FFAA00"/>
<path d="M214.657 52.8028C216.844 37.7429 209.008 24.14 197.155 22.4198C185.302 20.6997 173.92 31.5137 171.733 46.5736C169.546 61.6336 177.382 75.2365 189.235 76.9566C201.088 78.6768 212.47 67.8627 214.657 52.8028Z" fill="#FFAA00"/>
<path d="M180.98 9.81299L183.932 17.2864L191.629 14.9339L187.624 21.9005L194.255 26.4495L186.298 27.6583L186.883 35.6776L180.98 30.2187L175.077 35.6776L175.662 27.6583L167.705 26.4495L174.349 21.9005L170.332 14.9339L178.029 17.2864L180.98 9.81299Z" fill="#00B157"/>
<g clip-path="url(#clip0_402_455)">
<path d="M120 99H199V299H158.62C137.3 299 120 281.702 120 260.407V99Z" fill="#07B257"/>
<path d="M175.869 221.435H146.875L152.584 130.723C152.83 126.879 156.011 123.894 159.868 123.894H162.876C166.733 123.894 169.915 126.889 170.16 130.723L175.869 221.435Z" fill="#FBAA19"/>
<path d="M177.792 177.505L160.707 208.176L143.622 177.505V245.031C143.622 252.76 149.883 259.016 157.618 259.016H163.787C171.521 259.016 177.782 252.76 177.782 245.031V177.505H177.792Z" fill="#ED2224"/>
<path d="M155.827 125.111V199.404" stroke="#07B257" stroke-miterlimit="10"/>
<path d="M166.917 125.111V197.042" stroke="#07B257" stroke-miterlimit="10"/>
<path d="M152.349 134.516H170.395" stroke="#07B257" stroke-miterlimit="10"/>
<path d="M151.418 144.74H171.766" stroke="#07B257" stroke-miterlimit="10"/>
<path d="M148.523 154.963H173.823" stroke="#07B257" stroke-miterlimit="10"/>
<path d="M148.523 165.186H173.823" stroke="#07B257" stroke-miterlimit="10"/>
<path d="M148.523 175.409H173.823" stroke="#07B257" stroke-miterlimit="10"/>
<path d="M148.523 185.633H173.608" stroke="#07B257" stroke-miterlimit="10"/>
<path d="M153.853 195.856H167.572" stroke="#07B257" stroke-miterlimit="10"/>
</g>
<g clip-path="url(#clip1_402_455)">
<path d="M27.003 99H113V212H0V126.003C0 111.097 12.0969 99 27.003 99Z" fill="#ED2224"/>
<path d="M47.6709 111.546L36.4913 158.156C38.0106 158.615 39.1286 160.01 39.1286 161.682C39.1286 163.727 37.466 165.39 35.4212 165.39C35.2014 165.39 34.9816 165.361 34.7714 165.323L27.4999 195.66H66.7623L47.6709 111.546Z" fill="#07B257"/>
<path d="M81.076 179.283C80.7702 179.369 80.4549 179.426 80.1204 179.426C78.0756 179.426 76.413 177.764 76.413 175.719C76.413 173.913 77.703 172.413 79.4134 172.088L72.5336 142.276C72.2087 142.371 71.8743 142.428 71.5208 142.428C69.4759 142.428 67.8133 140.766 67.8133 138.721C67.8133 136.896 69.1319 135.386 70.871 135.08L65.4341 111.536H47.6614L66.7623 195.651H84.8407L81.0664 179.283H81.076Z" fill="#56BB6E"/>
<path opacity="0.55" d="M47.0785 143.938C49.1261 143.938 50.7859 142.278 50.7859 140.231C50.7859 138.183 49.1261 136.523 47.0785 136.523C45.031 136.523 43.3711 138.183 43.3711 140.231C43.3711 142.278 45.031 143.938 47.0785 143.938Z" fill="#158C47"/>
<path opacity="0.55" d="M49.3335 166.517C51.3811 166.517 53.0409 164.857 53.0409 162.81C53.0409 160.762 51.3811 159.102 49.3335 159.102C47.286 159.102 45.6261 160.762 45.6261 162.81C45.6261 164.857 47.286 166.517 49.3335 166.517Z" fill="#158C47"/>
<path opacity="0.55" d="M41.804 186.841C43.8515 186.841 45.5114 185.181 45.5114 183.134C45.5114 181.086 43.8515 179.426 41.804 179.426C39.7564 179.426 38.0966 181.086 38.0966 183.134C38.0966 185.181 39.7564 186.841 41.804 186.841Z" fill="#158C47"/>
<path d="M68.9695 162.169C71.0171 162.169 72.6769 160.51 72.6769 158.462C72.6769 156.415 71.0171 154.755 68.9695 154.755C66.922 154.755 65.2621 156.415 65.2621 158.462C65.2621 160.51 66.922 162.169 68.9695 162.169Z" fill="#0AA04A"/>
</g>
<g clip-path="url(#clip2_402_455)">
<path d="M221.816 95H269V157H207V109.816C207 101.637 213.637 95 221.816 95Z" fill="#ED2224"/>
<path d="M233.156 101.884L227.022 127.457C227.855 127.709 228.469 128.474 228.469 129.392C228.469 130.514 227.557 131.426 226.435 131.426C226.314 131.426 226.194 131.41 226.078 131.389L222.089 148.035H243.631L233.156 101.884Z" fill="#07B257"/>
<path d="M251.484 139.049C251.316 139.096 251.143 139.128 250.96 139.128C249.838 139.128 248.926 138.215 248.926 137.094C248.926 136.103 249.634 135.28 250.572 135.101L246.797 118.744C246.619 118.797 246.435 118.828 246.241 118.828C245.12 118.828 244.207 117.916 244.207 116.794C244.207 115.793 244.931 114.964 245.885 114.796L242.902 101.878H233.151L243.631 148.03H253.55L251.479 139.049H251.484Z" fill="#56BB6E"/>
<path opacity="0.55" d="M232.831 119.656C233.954 119.656 234.865 118.746 234.865 117.622C234.865 116.499 233.954 115.588 232.831 115.588C231.707 115.588 230.797 116.499 230.797 117.622C230.797 118.746 231.707 119.656 232.831 119.656Z" fill="#158C47"/>
<path opacity="0.55" d="M234.068 132.045C235.192 132.045 236.102 131.134 236.102 130.011C236.102 128.887 235.192 127.977 234.068 127.977C232.945 127.977 232.034 128.887 232.034 130.011C232.034 131.134 232.945 132.045 234.068 132.045Z" fill="#158C47"/>
<path opacity="0.55" d="M229.937 143.196C231.06 143.196 231.971 142.285 231.971 141.162C231.971 140.038 231.06 139.128 229.937 139.128C228.813 139.128 227.903 140.038 227.903 141.162C227.903 142.285 228.813 143.196 229.937 143.196Z" fill="#158C47"/>
<path d="M244.842 129.659C245.965 129.659 246.876 128.749 246.876 127.625C246.876 126.502 245.965 125.591 244.842 125.591C243.718 125.591 242.808 126.502 242.808 127.625C242.808 128.749 243.718 129.659 244.842 129.659Z" fill="#0AA04A"/>
</g>
<g clip-path="url(#clip3_402_455)">
<path d="M240 29H309V79.8062C309 84.3261 305.303 88 300.744 88H240V29Z" fill="#FBAA19"/>
<path d="M262.037 63.7882V58.8496C262.037 57.8299 262.777 56.9526 263.791 56.7789L267.753 56.0931C268.768 55.9195 269.508 55.0466 269.508 54.0224C269.508 52.8601 268.561 51.9205 267.39 51.9205H260.094C258.923 51.9205 257.976 50.9809 257.976 49.8186V41.2908C257.976 40.1285 258.923 39.1889 260.094 39.1889H266.618C267.018 39.1889 267.412 39.0776 267.753 38.8638L279.16 31.6853C279.981 31.1688 281.049 31.2712 281.754 31.9347L289.579 39.3091C290.961 40.6095 290.042 42.9207 288.139 42.934L273.484 43.0409C272.353 43.0498 271.429 43.9404 271.384 45.0626V45.1161C271.334 46.3051 272.295 47.2981 273.497 47.2981H278.114C279.286 47.2981 280.232 48.2377 280.232 49.4V56.5963C280.232 57.6918 279.389 58.6003 278.289 58.6893L268.373 59.4998C267.273 59.5889 266.43 60.5018 266.43 61.5928V64.8169L262.046 63.7882H262.037Z" fill="white"/>
<path d="M254.48 63.7881H291.908V66.8251C291.908 76.0566 284.356 83.5512 275.054 83.5512H271.334C262.032 83.5512 254.48 76.0566 254.48 66.8251V63.7881Z" fill="#ED2224"/>
<path d="M260.767 71.599C261.894 71.599 262.808 70.6919 262.808 69.5728C262.808 68.4538 261.894 67.5466 260.767 67.5466C259.639 67.5466 258.725 68.4538 258.725 69.5728C258.725 70.6919 259.639 71.599 260.767 71.599Z" fill="#B72025"/>
<path d="M283.997 63.7881C283.997 63.7881 286.896 82.2866 268.727 83.3464C269.575 83.4756 270.45 83.5468 271.334 83.5468H275.054C284.361 83.5468 291.908 76.0566 291.908 66.8208V63.7837H283.997V63.7881Z" fill="#B72025"/>
</g>
<g clip-path="url(#clip4_402_455)">
<path d="M18 220H113V290.612C113 296.894 107.909 302 101.632 302H18V220Z" fill="#FBAA19"/>
<path d="M48.3405 268.35V261.486C48.3405 260.068 49.3599 258.849 50.7562 258.608L56.2114 257.655C57.6076 257.413 58.627 256.2 58.627 254.777C58.627 253.161 57.3234 251.855 55.711 251.855H45.6654C44.053 251.855 42.7494 250.55 42.7494 248.934V237.082C42.7494 235.467 44.053 234.161 45.6654 234.161H54.6483C55.1982 234.161 55.7418 234.006 56.2114 233.709L71.916 223.732C73.0466 223.014 74.517 223.156 75.4869 224.079L86.2614 234.328C88.1643 236.135 86.8978 239.347 84.2783 239.366L64.1008 239.514C62.5439 239.527 61.2712 240.765 61.2094 242.324V242.398C61.1415 244.051 62.4636 245.431 64.1193 245.431H70.4765C72.089 245.431 73.3926 246.737 73.3926 248.352V258.354C73.3926 259.877 72.2311 261.139 70.7175 261.263L57.0639 262.389C55.5503 262.513 54.3889 263.782 54.3889 265.298V269.779L48.3529 268.35H48.3405Z" fill="white"/>
<path d="M37.9366 268.35H89.4678V272.571C89.4678 285.401 79.0702 295.817 66.263 295.817H61.1414C48.3343 295.817 37.9366 285.401 37.9366 272.571V268.35Z" fill="#ED2224"/>
<path d="M46.5921 279.205C48.1446 279.205 49.4032 277.945 49.4032 276.389C49.4032 274.834 48.1446 273.573 46.5921 273.573C45.0397 273.573 43.7811 274.834 43.7811 276.389C43.7811 277.945 45.0397 279.205 46.5921 279.205Z" fill="#B72025"/>
<path d="M78.5759 268.349C78.5759 268.349 82.567 294.059 57.552 295.532C58.7197 295.712 59.9244 295.811 61.1415 295.811H66.2631C79.0764 295.811 89.4679 285.401 89.4679 272.564V268.343H78.5759V268.349Z" fill="#B72025"/>
</g>
<defs>
<clipPath id="clip0_402_455">
<rect width="79" height="200" fill="white" transform="translate(120 99)"/>
</clipPath>
<clipPath id="clip1_402_455">
<rect width="113" height="113" fill="white" transform="translate(0 99)"/>
</clipPath>
<clipPath id="clip2_402_455">
<rect width="62" height="62" fill="white" transform="translate(207 95)"/>
</clipPath>
<clipPath id="clip3_402_455">
<rect width="69" height="59" fill="white" transform="translate(240 29)"/>
</clipPath>
<clipPath id="clip4_402_455">
<rect width="95" height="82" fill="white" transform="translate(18 220)"/>
</clipPath>
</defs>
</svg>
