<svg width="24" height="24" viewBox="0 0 24 24" fill="none" xmlns="http://www.w3.org/2000/svg">
<path d="M12 16C11.7167 16 11.479 15.904 11.287 15.712C11.095 15.52 10.9993 15.2827 11 15V7.85005L9.125 9.72505C8.925 9.92505 8.69167 10.025 8.425 10.025C8.15834 10.025 7.91667 9.91672 7.7 9.70005C7.5 9.50005 7.40434 9.26272 7.413 8.98805C7.42167 8.71338 7.51733 8.48405 7.7 8.30005L11.3 4.70005C11.4 4.60005 11.5083 4.52938 11.625 4.48805C11.7417 4.44672 11.8667 4.42572 12 4.42505C12.1333 4.42505 12.2583 4.44605 12.375 4.48805C12.4917 4.53005 12.6 4.60072 12.7 4.70005L16.3 8.30005C16.5 8.50005 16.596 8.73771 16.588 9.01305C16.58 9.28838 16.484 9.51738 16.3 9.70005C16.1 9.90005 15.8623 10.0044 15.587 10.013C15.3117 10.0217 15.0743 9.92572 14.875 9.72505L13 7.85005V15C13 15.2834 12.904 15.521 12.712 15.713C12.52 15.905 12.2827 16.0007 12 16ZM6 20C5.45 20 4.979 19.804 4.587 19.412C4.195 19.02 3.99934 18.5494 4 18V16C4 15.7167 4.096 15.479 4.288 15.287C4.48 15.095 4.71733 14.9994 5 15C5.28333 15 5.521 15.096 5.713 15.288C5.905 15.48 6.00067 15.7174 6 16V18H18V16C18 15.7167 18.096 15.479 18.288 15.287C18.48 15.095 18.7173 14.9994 19 15C19.2833 15 19.521 15.096 19.713 15.288C19.905 15.48 20.0007 15.7174 20 16V18C20 18.55 19.804 19.021 19.412 19.413C19.02 19.805 18.5493 20.0007 18 20H6Z" fill="#9C9C9C"/>
</svg>
