<svg width="163" height="128" viewBox="0 0 163 128" fill="none" xmlns="http://www.w3.org/2000/svg">
<g clip-path="url(#clip0_29_16741)">
<path d="M95.5336 1.35669H77.5333V11.609H95.5336V1.35669Z" fill="#24AE5F"/>
<path d="M85.264 124.084C80.7457 124.084 75.9272 123.906 70.8086 123.548C55.5908 122.484 43.1471 120.12 42.4252 119.974C35.1164 118.966 31.9203 115.051 30.5251 111.939C29.0163 108.584 29.2677 105.481 29.2758 105.351L31.4985 105.537L30.3872 105.44L31.4985 105.529C31.466 105.96 30.7928 116.123 42.7578 117.764H42.8227C42.9443 117.796 55.5177 120.234 70.9952 121.314C91.3722 122.744 107.507 121.192 117.655 116.838L117.711 116.813C117.768 116.797 123.317 114.726 125.223 110.599C126.034 108.844 126.067 106.927 125.312 104.904L127.405 104.132C128.37 106.74 128.314 109.234 127.243 111.549C124.996 116.391 119.058 118.698 118.506 118.901C110.468 122.346 99.3219 124.076 85.2721 124.076L85.264 124.084Z" fill="#1E1E1E"/>
<path d="M125.994 111.557C123.682 115.847 118.093 117.87 118.093 117.87C92.8648 128.699 42.6037 118.869 42.6037 118.869C35.9844 117.967 32.9262 114.596 31.5309 111.46C27.1262 113.068 24.6196 114.921 24.6196 116.895C24.6196 123.02 48.8092 127.992 78.6447 127.992C108.48 127.992 132.67 123.02 132.67 116.895C132.67 114.961 130.252 113.133 126.002 111.549L125.994 111.557Z" fill="#1E1E1E"/>
<path d="M79.2368 73.0257C71.3764 73.0257 64.311 72.4732 58.3406 71.7258C39.5778 69.378 27.3046 64.6255 27.1829 64.5768L26.4772 64.3006V63.5369C26.4772 47.1186 35.5544 34.9815 52.7272 28.4336C65.5358 23.5512 78.1255 23.4943 78.6527 23.4943C97.8617 23.4943 112.203 28.3849 121.289 38.0198C131.98 49.3689 131.323 63.017 131.291 63.5938L131.25 64.3412L130.544 64.5849C111.993 71.0191 94.1789 73.0175 79.2368 73.0175V73.0257ZM28.7161 62.7652C31.5714 63.7888 42.7334 67.5339 58.6894 69.5243C75.5946 71.6365 101.471 72.1483 129.076 62.7408C129.044 59.8162 128.322 48.719 119.642 39.539C110.995 30.3833 97.2046 25.7365 78.6527 25.7365C78.523 25.7365 65.8928 25.8015 53.4654 30.5458C46.2377 33.308 40.4945 37.0937 36.3899 41.7974C31.4416 47.4598 28.8621 54.5113 28.7161 62.7652Z" fill="#1E1E1E"/>
<path d="M81.1187 80.6134C56.2234 80.6134 36.2276 74.9754 28.5376 72.457C26.2094 71.6934 24.8872 69.2399 25.5362 66.8759L26.5258 63.2445L28.6755 63.8294L27.6858 67.4608C27.3532 68.6794 28.0346 69.9386 29.2352 70.3367C36.8279 72.8226 56.5641 78.3874 81.1106 78.3874C95.6065 78.3874 111.782 76.4458 128.119 70.7916C129.109 70.4504 129.879 69.6624 130.179 68.6794C130.715 66.9328 130.439 65.4623 129.36 64.2925L130.999 62.7733C132.629 64.5362 133.083 66.8028 132.313 69.3293C131.802 70.9866 130.512 72.3189 128.849 72.8957C112.252 78.6393 95.8337 80.6053 81.1187 80.6053V80.6134Z" fill="#1E1E1E"/>
<path d="M92.9621 107.487C92.8891 107.487 92.808 107.487 92.735 107.487C89.3199 107.382 86.6186 105.188 85.8561 101.89C85.8237 101.744 85.7912 101.589 85.7669 101.435C85.556 100.184 85.6128 98.9408 85.6777 97.7385C85.7507 96.2112 85.8237 94.7733 85.3207 93.5222C84.6556 91.8487 82.8872 90.5245 80.6077 89.9802C78.6528 89.5171 76.6086 89.6065 74.4508 89.6959L73.7451 89.7284C61.6422 90.2077 49.5068 88.5666 37.7689 86.9825C35.0758 86.6169 32.2934 86.2432 29.6895 85.0652C26.6557 83.7004 24.4736 81.3933 23.711 78.7367C22.835 75.6984 24.9116 71.4496 27.913 70.1498L28.7972 72.197C26.826 73.05 25.2929 76.1452 25.8607 78.1112C26.4448 80.1341 28.1726 81.9213 30.6143 83.018C32.918 84.0579 35.5382 84.4153 38.0772 84.7565C49.7177 86.3326 61.7639 87.9574 73.664 87.4862L74.3616 87.4537C76.5761 87.3562 78.8718 87.2587 81.1269 87.7949C84.1121 88.5017 86.4564 90.3295 87.3974 92.6855C88.0788 94.3915 87.9895 96.1462 87.9084 97.8441C87.8516 98.9815 87.803 100.046 87.9733 101.061C87.9895 101.167 88.0139 101.281 88.0382 101.386C88.6791 104.148 90.926 105.196 92.808 105.253C94.6981 105.318 97.2127 104.359 98.0645 101.492C98.3646 100.493 98.608 99.4689 98.8595 98.4209C99.5895 95.3338 100.425 91.8243 102.672 89.1272C104.919 86.4301 109.162 84.6347 112.609 86.6088C114.094 87.3643 114.994 89.0216 115.221 91.3938C115.254 91.7106 115.27 92.0355 115.294 92.3605C115.367 93.506 115.44 94.5946 115.919 95.4313C115.976 95.5369 116.049 95.6344 116.13 95.7482C116.852 96.6824 117.947 97.1455 119.147 96.9992C120.405 96.853 121.459 96.0812 121.978 94.9358C122.838 93.0185 123.438 90.3783 123.755 87.1043C123.966 84.8865 125.791 82.1163 130.269 80.9708C131.242 80.719 131.648 78.7286 131.542 76.8926C131.429 74.7723 130.398 72.4082 129.579 72.3757L129.676 70.1417C130.585 70.1823 131.867 70.686 132.848 72.9038C133.448 74.2686 133.724 75.7959 133.773 76.7708C134.057 81.9051 131.591 82.9449 130.828 83.1399C127.47 84.001 126.115 85.9264 125.986 87.3237C125.645 90.8495 124.988 93.7172 124.022 95.8619C123.179 97.7304 121.459 98.9896 119.415 99.2252C117.444 99.4527 115.562 98.6646 114.369 97.113C114.223 96.9261 114.102 96.7312 113.988 96.5443C113.258 95.2607 113.161 93.7984 113.08 92.5149C113.063 92.2143 113.039 91.9056 113.015 91.6131C112.934 90.7113 112.633 89.1191 111.603 88.5991L111.538 88.5666C109.226 87.2262 106.087 88.5342 104.4 90.5651C102.485 92.8642 101.723 96.0975 101.042 98.949C100.782 100.029 100.531 101.086 100.214 102.142C99.1109 105.862 95.8256 107.503 92.9783 107.503L92.9621 107.487Z" fill="#1E1E1E"/>
<path d="M72.7068 101.8C53.9034 101.8 38.5558 97.6492 30.2006 94.7814C26.2663 93.4329 23.8733 89.3222 24.6358 85.2277L25.3902 81.1983L27.5804 81.6126L26.826 85.642C26.2663 88.656 28.0266 91.6781 30.9225 92.6692C41.111 96.1625 61.9018 101.614 86.6105 98.7784L86.862 100.996C81.9786 101.557 77.2413 101.8 72.7068 101.8Z" fill="#1E1E1E"/>
<path d="M115.074 95.3254L99.7773 97.5767L100.102 99.787L115.399 97.5357L115.074 95.3254Z" fill="#1E1E1E"/>
<path d="M123.073 96.5118L122.895 94.2859C126.48 93.9934 128.857 92.8642 129.968 90.9226C131.899 87.5349 129.555 82.5956 129.53 82.5469L131.534 81.572C131.656 81.8157 134.422 87.6162 131.907 92.0274C130.415 94.6514 127.438 96.1625 123.073 96.5118Z" fill="#1E1E1E"/>
<path d="M81.8732 111.882C79.3747 111.882 77.0547 111.029 74.8077 110.201C74.4346 110.062 74.0614 109.924 73.6883 109.794C71.5467 109.031 68.4237 108.121 66.0956 109.063C60.5714 111.281 54.4064 111.5 48.7443 109.681C47.7952 109.38 46.8623 109.014 45.9538 108.665C43.869 107.861 41.8979 107.105 39.8374 107C38.8478 106.951 37.85 107.057 36.7874 107.17C35.2137 107.333 33.5913 107.503 31.9446 107.17C28.9107 106.553 26.2987 104.124 25.447 101.142C24.5952 98.161 25.5362 94.7164 27.7913 92.588L29.3244 94.2128C27.6615 95.7888 26.9639 98.3316 27.5885 100.533C28.2131 102.735 30.1437 104.53 32.3907 104.985C33.7049 105.253 35.092 105.107 36.5602 104.953C37.6553 104.839 38.7991 104.717 39.951 104.774C42.3764 104.888 44.6072 105.749 46.765 106.585C47.6411 106.927 48.5496 107.276 49.4338 107.56C54.5361 109.193 60.3037 108.99 65.2763 106.992C68.2777 105.789 71.7577 106.732 74.4508 107.69C74.8321 107.828 75.2133 107.967 75.5946 108.105C77.8172 108.925 79.9344 109.697 82.0922 109.648C83.7551 109.608 85.3775 109.079 87.0891 108.527C88.5411 108.056 90.0499 107.568 91.6318 107.373C94.26 107.049 96.8396 107.56 99.3299 108.056C101.52 108.486 104.002 108.982 106.314 108.665C108.156 108.413 110.476 107.438 111.473 105.448C112.544 103.287 115.359 102.418 119.399 102.995C119.934 103.068 120.469 103.165 120.981 103.255C122.798 103.571 124.509 103.872 126.091 103.458C127.908 102.987 129.417 101.508 129.928 99.7045C130.447 97.8929 129.944 95.8457 128.654 94.4808L130.277 92.9454C132.102 94.8708 132.808 97.7629 132.078 100.322C131.347 102.873 129.222 104.953 126.659 105.627C124.598 106.163 122.57 105.806 120.599 105.464C120.072 105.375 119.577 105.286 119.082 105.213C117.987 105.058 114.345 104.684 113.469 106.447C112.301 108.803 109.737 110.461 106.614 110.883C103.937 111.249 101.261 110.712 98.9 110.249C96.58 109.794 94.1789 109.315 91.9076 109.591C90.5367 109.762 89.1982 110.192 87.7786 110.656C85.9859 111.24 84.1283 111.842 82.1409 111.89C82.0516 111.89 81.9705 111.89 81.8894 111.89L81.8732 111.882Z" fill="#1E1E1E"/>
<path d="M54.017 39.8721C54.68 39.8721 55.2175 39.3337 55.2175 38.6697C55.2175 38.0057 54.68 37.4674 54.017 37.4674C53.3539 37.4674 52.8164 38.0057 52.8164 38.6697C52.8164 39.3337 53.3539 39.8721 54.017 39.8721Z" fill="#1E1E1E"/>
<path d="M81.2973 60.2305C82.2784 60.2305 83.0738 59.434 83.0738 58.4514C83.0738 57.4688 82.2784 56.6723 81.2973 56.6723C80.3161 56.6723 79.5208 57.4688 79.5208 58.4514C79.5208 59.434 80.3161 60.2305 81.2973 60.2305Z" fill="#1E1E1E"/>
<path d="M61.05 56.0142C61.9236 56.0142 62.6318 55.305 62.6318 54.4301C62.6318 53.5552 61.9236 52.8459 61.05 52.8459C60.1763 52.8459 59.4681 53.5552 59.4681 54.4301C59.4681 55.305 60.1763 56.0142 61.05 56.0142Z" fill="#1E1E1E"/>
<path d="M95.5336 50.6768C96.1966 50.6768 96.7341 50.1385 96.7341 49.4745C96.7341 48.8105 96.1966 48.2722 95.5336 48.2722C94.8705 48.2722 94.333 48.8105 94.333 49.4745C94.333 50.1385 94.8705 50.6768 95.5336 50.6768Z" fill="#1E1E1E"/>
<path d="M71.0682 34.3478C71.4893 34.3478 71.8307 34.0059 71.8307 33.5842C71.8307 33.1624 71.4893 32.8205 71.0682 32.8205C70.6471 32.8205 70.3057 33.1624 70.3057 33.5842C70.3057 34.0059 70.6471 34.3478 71.0682 34.3478Z" fill="#1E1E1E"/>
<path d="M42.7658 51.538C43.635 51.538 44.3395 50.8323 44.3395 49.9619C44.3395 49.0915 43.635 48.3859 42.7658 48.3859C41.8967 48.3859 41.1921 49.0915 41.1921 49.9619C41.1921 50.8323 41.8967 51.538 42.7658 51.538Z" fill="#1E1E1E"/>
<path d="M90.0499 38.491C90.919 38.491 91.6236 37.7854 91.6236 36.915C91.6236 36.0445 90.919 35.3389 90.0499 35.3389C89.1808 35.3389 88.4762 36.0445 88.4762 36.915C88.4762 37.7854 89.1808 38.491 90.0499 38.491Z" fill="#1E1E1E"/>
<path d="M75.5783 47.5816C76.6535 47.5816 77.5252 46.7087 77.5252 45.6319C77.5252 44.5551 76.6535 43.6822 75.5783 43.6822C74.5031 43.6822 73.6315 44.5551 73.6315 45.6319C73.6315 46.7087 74.5031 47.5816 75.5783 47.5816Z" fill="#1E1E1E"/>
<path d="M97.4561 94.4159C97.3588 94.4159 97.2696 94.3996 97.1722 94.3752C96.6693 94.2209 96.3854 93.6847 96.5395 93.181C96.6206 92.9129 96.7017 92.6448 96.7748 92.3849C96.9289 91.8568 97.0911 91.3044 97.2939 90.7357C97.4724 90.2402 98.0159 89.9802 98.5188 90.1589C99.0136 90.3377 99.2732 90.8901 99.0948 91.3856C98.9082 91.8974 98.7622 92.393 98.6161 92.9211C98.535 93.1973 98.4539 93.4735 98.3728 93.7497C98.243 94.164 97.8699 94.424 97.4561 94.424V94.4159Z" fill="#1E1E1E"/>
<path d="M92.3537 103.035C91.648 103.035 90.9666 102.84 90.4069 102.45C89.9688 102.15 89.8634 101.557 90.1635 101.118C90.4637 100.688 91.0558 100.574 91.4939 100.874C91.9562 101.191 92.6701 101.199 93.2704 100.899C94.0167 100.517 94.5034 99.7858 94.7711 99.2415C95.1523 98.4616 95.3794 97.5598 95.5985 96.6905C95.7283 96.1787 96.2474 95.8619 96.7585 95.9919C97.2695 96.1219 97.5859 96.6418 97.4561 97.1536C97.2127 98.1285 96.9613 99.1277 96.4908 100.086C95.9148 101.248 95.1036 102.117 94.1383 102.605C93.5705 102.889 92.9621 103.035 92.3618 103.035H92.3537Z" fill="#1E1E1E"/>
<path d="M64.7003 85.8045C64.7003 85.8045 64.6516 85.8045 64.6273 85.8045C63.1509 85.6989 61.8206 85.5852 60.547 85.4796C58.5677 85.309 56.6939 85.1546 54.6659 85.049C54.1386 85.0246 53.7331 84.5697 53.7574 84.0416C53.7817 83.5136 54.236 83.0993 54.7633 83.1318C56.8156 83.2374 58.7056 83.3999 60.7012 83.5705C61.9747 83.6761 63.297 83.7898 64.7652 83.8954C65.2925 83.936 65.69 84.391 65.6494 84.919C65.6088 85.4227 65.1951 85.8045 64.7003 85.8045Z" fill="#1E1E1E"/>
<path d="M51.8674 84.7241C51.8674 84.7241 51.8187 84.7241 51.7863 84.7241C41.9222 83.9198 33.8428 81.8563 31.7175 80.9383C29.8761 80.1422 27.4182 78.7693 27.4182 76.1452C27.4182 75.6172 27.8481 75.1866 28.3754 75.1866C28.9027 75.1866 29.3326 75.6172 29.3326 76.1452C29.3326 77.307 30.306 78.2412 32.48 79.1836C34.4431 80.0366 42.4252 82.0432 51.9485 82.8231C52.4758 82.8637 52.8652 83.3268 52.8246 83.8548C52.784 84.3585 52.3622 84.7322 51.8755 84.7322L51.8674 84.7241Z" fill="#1E1E1E"/>
<path d="M124.931 61.1891C124.46 61.1891 124.055 60.8479 123.99 60.3686C123.69 58.3295 123.203 56.3392 122.538 54.4544C122.36 53.9589 122.619 53.4065 123.122 53.2359C123.617 53.0571 124.168 53.3171 124.339 53.8208C125.045 55.8274 125.564 57.9396 125.88 60.1005C125.953 60.6205 125.596 61.1079 125.069 61.1891C125.02 61.1891 124.98 61.1973 124.931 61.1973V61.1891Z" fill="#1E1E1E"/>
<path d="M120.835 49.5395C120.502 49.5395 120.177 49.3689 119.999 49.052C116.105 42.1792 109.048 36.72 99.6057 33.2673C99.1109 33.0886 98.8513 32.5362 99.0379 32.0406C99.2245 31.5451 99.768 31.2851 100.263 31.4719C110.135 35.079 117.533 40.8307 121.662 48.1097C121.921 48.5727 121.759 49.1495 121.305 49.4176C121.159 49.4989 120.997 49.5395 120.835 49.5395Z" fill="#1E1E1E"/>
<path d="M77.5333 11.609H95.5336V1.35669H77.5333V30.0178" stroke="#1E1E1E" stroke-width="3" stroke-miterlimit="10"/>
<path d="M73.6315 29.2379C73.6315 29.2379 77.8983 31.3095 81.9137 29.2379" stroke="#1E1E1E" stroke-width="3" stroke-linecap="round" stroke-linejoin="round"/>
<path d="M22.2346 6.80783C21.1477 8.58696 20.0526 10.3986 19.5172 12.4133C18.9818 14.428 19.0954 16.7109 20.2878 18.4169C21.4802 20.1229 23.9381 20.9921 25.7714 20.0092C27.6047 19.0262 28.059 16.0203 26.3555 14.818C24.7737 13.6969 22.4131 14.6799 21.4072 16.3372C20.4014 17.9944 20.4176 20.0579 20.5474 21.9914C20.6366 23.4212 20.7988 24.8997 21.537 26.1346C22.2752 27.3694 23.7516 28.2549 25.1306 27.8812C26.5096 27.5075 27.2721 25.5009 26.2338 24.5179C25.6173 23.9411 24.6277 23.9086 23.8732 24.2823C23.1188 24.656 22.5835 25.3709 22.2265 26.1346C20.8881 29.0023 22.113 32.8043 24.8791 34.3397" stroke="#24AE5F" stroke-width="3" stroke-miterlimit="10"/>
<path d="M161.864 75.2597C161.15 73.3019 160.42 71.3196 159.171 69.6461C157.922 67.9726 156.072 66.6403 153.996 66.5184C151.919 66.3965 149.713 67.7776 149.34 69.8248C148.966 71.872 151.035 74.098 153.039 73.5131C154.896 72.9688 155.602 70.5072 154.929 68.6956C154.255 66.884 152.633 65.6085 151.043 64.5037C149.867 63.6832 148.609 62.887 147.19 62.7002C145.77 62.5133 144.148 63.1145 143.588 64.4387C143.029 65.7629 144.116 67.5989 145.527 67.3958C146.362 67.2739 147.003 66.5184 147.182 65.6979C147.36 64.8774 147.133 64.0081 146.76 63.2526C145.357 60.4174 141.617 59.0201 138.697 60.2305" stroke="#24AE5F" stroke-width="3" stroke-miterlimit="10"/>
<path d="M1.11938 45.3638C2.07659 43.1378 4.2749 41.5049 6.68413 41.2369C9.09336 40.9688 11.5999 42.0817 13.0114 44.0477C14.0984 45.5588 14.6987 47.6141 16.394 48.3778C18.0002 49.1089 20.1498 48.0609 20.5717 46.3387" stroke="#24AE5F" stroke-width="3" stroke-miterlimit="10"/>
<path d="M123.471 28.1168C129.044 25.6227 133.465 20.6672 135.322 14.8423" stroke="#24AE5F" stroke-width="3" stroke-miterlimit="10"/>
<path d="M130.755 44.7464C134.665 40.7494 139.873 38.036 145.389 37.1343C147.206 36.8337 149.096 36.7362 150.865 37.2562C152.633 37.7761 154.263 39.0109 154.896 40.7494C155.659 42.8291 154.661 45.445 152.633 46.3549C150.605 47.2648 147.896 46.1437 147.23 44.0315C146.468 41.6187 148.277 39.1328 150.329 37.6542C153.055 35.6882 156.413 34.6159 159.771 34.6565L158.749 34.8352" stroke="#24AE5F" stroke-width="3" stroke-miterlimit="10"/>
<path d="M108.123 19.9685C110.143 18.8799 110.954 16.3777 111.116 14.0868C111.279 11.7959 110.995 9.43994 111.636 7.23025C112.512 4.23253 115.189 1.84411 118.263 1.32418C121.337 0.80425 124.655 2.17719 126.464 4.71996" stroke="#24AE5F" stroke-width="3" stroke-miterlimit="10"/>
<path d="M46.2053 23.7705C46.8299 22.2676 46.6108 20.4478 45.6536 19.1318C44.6964 17.8157 43.0335 17.0521 41.4111 17.1902" stroke="#24AE5F" stroke-width="3" stroke-miterlimit="10"/>
<path d="M13.7739 56.786L10.8374 63.2363L18.5761 61.0754L13.7739 56.786Z" fill="#24AE5F"/>
<path d="M151.579 14.8423L148.642 21.2927L156.381 19.1318L151.579 14.8423Z" fill="#24AE5F"/>
<path d="M47.1381 5.2399L53.3112 8.70068L51.8024 0.80426L47.1381 5.2399Z" fill="#24AE5F"/>
</g>
<defs>
<clipPath id="clip0_29_16741">
<rect width="163" height="128" fill="white"/>
</clipPath>
</defs>
</svg>
