<svg width="138" height="117" viewBox="0 0 138 117" fill="none" xmlns="http://www.w3.org/2000/svg">
<g clip-path="url(#clip0_29_17530)">
<path d="M14.9907 1.22103L1.30176 9.13782L5.79657 16.9363L19.4855 9.01954L14.9907 1.22103Z" fill="#ED2024"/>
<path d="M62.8775 114.838C91.2738 114.838 114.294 110.11 114.294 104.277C114.294 98.4451 91.2738 93.717 62.8775 93.717C34.4812 93.717 11.4614 98.4451 11.4614 104.277C11.4614 110.11 34.4812 114.838 62.8775 114.838Z" fill="#1E1E1E"/>
<path d="M16.9532 93.3674C16.9532 93.3674 16.0058 104.434 28.5856 106.154C28.5856 106.154 76.4187 115.509 100.424 105.198C100.424 105.198 111.53 102.194 108.324 93.5101" fill="white"/>
<path d="M69.1884 111.113C64.8859 111.113 60.2985 110.942 55.4261 110.599C40.9373 109.586 29.0984 107.331 28.4145 107.203C21.4551 106.24 18.4134 102.515 17.0885 99.5538C15.6567 96.3571 15.8917 93.403 15.8989 93.2817L18.0145 93.4601L16.9602 93.3674L18.0145 93.453C17.9789 93.8669 17.3378 103.543 28.7351 105.098H28.7921C28.9132 105.134 40.8803 107.446 55.6042 108.48C75.001 109.843 90.3518 108.366 100.011 104.22L100.153 104.17C100.203 104.156 105.389 102.708 107.22 99.1471C108.025 97.5773 108.067 95.8505 107.334 93.874L109.321 93.139C110.254 95.6721 110.183 98.0268 109.1 100.132C106.949 104.313 101.528 105.99 100.787 106.204C93.137 109.472 82.5446 111.113 69.1955 111.113H69.1884Z" fill="#1E1E1E"/>
<path d="M93.9639 93.5672C89.7825 94.7659 85.5726 95.8505 81.206 95.3653C78.4707 95.0585 75.8279 94.3307 73.1353 93.7884C70.5139 93.2604 67.8854 93.5529 65.2854 94.0239C62.6569 94.4948 59.893 95.1798 57.2076 94.9943C54.6004 94.8159 52.207 93.9168 49.7779 93.0177C47.819 92.2899 45.9456 91.6263 44.122 91.5907C42.4409 91.5621 40.7669 91.7191 39.0858 91.6906C37.6825 91.662 36.2864 91.4836 35.0327 91.0626C34.534 91.3195 33.9713 91.4194 33.3943 91.3409C31.9055 91.1411 30.951 89.9138 30.4809 88.5795C22.1751 89.5285 16.9395 90.9199 16.9395 92.4683C16.9395 95.3368 34.8546 97.6558 56.9582 97.6558C75.6285 97.6558 91.3069 96.0004 95.7305 93.7527C95.1463 93.7028 94.5622 93.6457 93.971 93.5672H93.9639Z" fill="white"/>
<path d="M56.951 98.7118C46.2161 98.7118 36.1224 98.1695 28.5218 97.1849C17.3809 95.7435 15.8779 93.9882 15.8779 92.4612C15.8779 90.7344 18.25 89.8496 20.3086 89.2716C22.7092 88.5938 26.0928 88.0087 30.3596 87.5163L31.2002 87.4236L31.4851 88.2227C31.6846 88.7864 32.2829 90.1136 33.5438 90.2849C33.8999 90.3348 34.249 90.2777 34.5553 90.1136L34.9542 89.9067L35.3816 90.0494C36.4358 90.4062 37.6895 90.5988 39.1142 90.6274C39.9262 90.6416 40.7312 90.6131 41.5789 90.5774C42.4123 90.5417 43.2813 90.5132 44.1432 90.5275C46.0808 90.5632 47.9329 91.1982 50.1553 92.0188L50.2693 92.0616C52.6342 92.9393 54.871 93.767 57.2858 93.9311C59.3586 94.0738 61.5526 93.6528 63.6754 93.2461C64.1526 93.1533 64.6299 93.0606 65.1 92.9749C67.5505 92.5325 70.4497 92.1615 73.3488 92.7466C74.1894 92.9179 75.0299 93.1034 75.8491 93.2889C77.7226 93.7099 79.4891 94.1023 81.327 94.3093C85.4514 94.7659 89.5259 93.7384 93.6788 92.5468L93.8854 92.4897L94.0991 92.5183C94.6903 92.5896 95.2673 92.6467 95.8158 92.6967L99.5555 93.0035L96.2076 94.7017C91.5489 97.0636 75.4075 98.719 56.9581 98.719L56.951 98.7118ZM18.0933 92.4541C18.5777 92.8608 20.7503 94.1095 29.8396 95.2012C37.2194 96.0931 46.8501 96.5783 56.951 96.5783C64.3521 96.5783 71.4612 96.3072 77.5445 95.8291C76.8179 95.6793 76.0913 95.5152 75.379 95.3582C74.5741 95.1798 73.7406 94.9943 72.9214 94.8302C70.3713 94.3164 67.7214 94.6589 65.4633 95.0656C65.0003 95.1512 64.5302 95.2369 64.06 95.3296C61.8019 95.7649 59.4726 96.2144 57.1219 96.0503C54.4008 95.8648 51.9148 94.9443 49.5142 94.0524L49.4003 94.0096C47.3701 93.2532 45.689 92.6752 44.0934 92.6467C43.2884 92.6324 42.4906 92.661 41.6501 92.6967C40.8095 92.7323 39.9334 92.7609 39.0572 92.7466C37.5827 92.7181 36.2506 92.5325 35.0824 92.1829C34.4983 92.397 33.8714 92.4683 33.2446 92.3827C31.7843 92.1829 30.5591 91.2268 29.804 89.714C21.8829 90.6702 18.7842 91.8404 18.0862 92.4541H18.0933Z" fill="#1E1E1E"/>
<path d="M123.361 81.8294L123.19 79.7101C126.602 79.4318 128.861 78.3615 129.922 76.5134C131.76 73.2882 129.53 68.586 129.502 68.536L131.411 67.6084C131.525 67.8439 134.16 73.3596 131.767 77.5624C130.342 80.0598 127.514 81.5011 123.361 81.8365V81.8294Z" fill="#1E1E1E"/>
<path d="M82.9081 96.457C80.536 96.457 78.3278 95.6436 76.1837 94.8587C75.8275 94.7302 75.4714 94.5947 75.1223 94.4734C73.0851 93.7455 70.1146 92.8822 67.8922 93.7741C62.6352 95.8862 56.7727 96.0931 51.3803 94.3663C50.4757 94.0738 49.5852 93.7313 48.7233 93.403C46.7359 92.6395 44.8625 91.9117 42.8964 91.819C41.9562 91.7762 41.0016 91.876 39.9901 91.9759C38.4942 92.1329 36.9485 92.297 35.3813 91.9759L35.8087 89.8924C37.0625 90.1493 38.3803 90.0137 39.7764 89.8639C40.8236 89.7568 41.8992 89.6427 43.0033 89.6926C45.3113 89.8068 47.434 90.6202 49.4855 91.4123C50.3189 91.7333 51.1809 92.0687 52.0214 92.3399C56.8724 93.8954 62.3716 93.6956 67.1015 91.7976C69.9579 90.6488 73.2631 91.555 75.8275 92.4683C76.1908 92.5967 76.547 92.7323 76.9103 92.8607C79.0259 93.6385 81.0347 94.3735 83.0933 94.3306C84.6747 94.295 86.2205 93.7955 87.8517 93.2603C89.2336 92.8108 90.6654 92.347 92.1755 92.1615C94.6758 91.8547 97.1262 92.3399 99.4983 92.8108C101.585 93.2247 103.943 93.6885 106.144 93.3959C107.897 93.1604 110.105 92.2328 111.052 90.3348C112.071 88.2798 114.749 87.4521 118.596 88.0015C119.102 88.0729 119.615 88.1656 120.106 88.2512C121.83 88.5509 123.461 88.8363 124.971 88.4439C126.702 87.9944 128.134 86.5887 128.626 84.869C129.117 83.1494 128.64 81.1943 127.415 79.8956L128.953 78.4329C130.684 80.2667 131.361 83.021 130.663 85.4541C129.965 87.8873 127.942 89.8639 125.506 90.4989C123.547 91.0127 121.609 90.6702 119.736 90.3419C119.237 90.2563 118.767 90.1707 118.29 90.1065C117.25 89.9566 113.781 89.607 112.947 91.2838C111.829 93.5243 109.393 95.1013 106.422 95.508C103.872 95.8505 101.329 95.351 99.0852 94.9015C96.8769 94.4662 94.5904 94.0167 92.4249 94.2807C91.1213 94.4377 89.8462 94.8515 88.4999 95.2939C86.7974 95.8505 85.0309 96.4213 83.1361 96.4642C83.0577 96.4642 82.9722 96.4642 82.8939 96.4642L82.9081 96.457Z" fill="#1E1E1E"/>
<path d="M77.4801 93.5886C76.9957 93.5886 76.4971 93.5101 75.9984 93.346C74.7234 92.9393 73.6264 92.0188 72.9069 90.7558C71.7031 88.6509 71.6603 86.4246 71.6247 84.2697C71.6105 83.6275 71.6034 83.021 71.5606 82.4145C71.4253 80.3951 70.7913 77.8335 68.5688 77.0986C67.8351 76.856 67.0088 76.913 66.2395 77.2484C65.2992 77.6623 64.7365 78.2902 64.2236 79.4747C63.6324 80.8447 62.9628 82.3931 61.5381 83.4562C60.9825 83.8701 60.3556 84.1484 59.7217 84.2626C57.6132 84.6407 56.3523 83.3421 55.3408 82.2932C54.4433 81.3656 53.8948 80.8447 53.0685 80.9446C52.5841 81.0017 52.1781 81.2799 51.9288 81.5011C51.2236 82.1219 50.7819 82.9996 50.3189 83.9272C49.7348 85.0903 49.0652 86.4175 47.7687 87.3379C46.8213 88.0087 45.6887 88.2441 44.6559 87.9873C42.9035 87.5449 42.3194 86.0321 41.8849 84.9261C41.5287 84.0057 41.2794 83.4348 40.7594 83.2493C40.2964 83.0852 39.7265 83.2636 39.3419 83.6846C38.5654 84.5408 38.3731 85.6183 38.1451 86.8741C38.0169 87.5877 37.8887 88.3226 37.6323 89.0504C37.155 90.4347 36.1292 91.5907 34.961 92.0687C34.0706 92.4326 33.1517 92.397 32.304 91.9617C31.5703 91.5907 30.9791 90.9342 30.63 90.1136C30.0032 88.6437 30.2454 87.1025 30.4306 85.868L31.9621 75.9569C32.2969 73.7877 34.092 71.3617 36.0438 70.4412C37.7106 69.6563 39.5057 69.3851 41.0871 69.1425C54.8066 67.0447 68.7968 65.5891 82.6516 64.8113C85.0522 64.6757 87.4741 64.4831 89.8248 64.3047C97.347 63.7125 105.133 63.0988 112.691 64.3546C114.087 64.583 115.255 65.4464 115.896 66.7165C116.544 68.008 116.537 69.485 115.882 70.7694C115.476 71.5615 115.134 72.4391 114.792 73.3382C113.403 76.9915 108.972 79.018 105.304 77.6694C104.499 77.3768 103.794 76.9559 103.11 76.5563C102.49 76.1924 101.906 75.8427 101.293 75.6144C99.4057 74.9008 97.2615 75.2433 95.8511 76.4492C95.5876 78.1903 95.1815 80.2382 93.4221 81.6082C92.1897 82.5643 90.5229 82.6928 89.2763 81.915C87.9656 81.1016 87.6379 79.7315 87.353 78.5185C87.061 77.2912 86.8473 76.5135 86.0494 76.1567C85.2089 75.7785 84.1475 76.0211 83.4067 76.7632C82.3026 77.8621 81.925 79.5888 82.2242 82.179C82.2741 82.6357 82.3453 83.1137 82.4094 83.5704C82.6374 85.1545 82.8653 86.7885 82.6018 88.4582C82.3026 90.342 81.2412 92.0545 79.8165 92.925C79.0971 93.3674 78.3064 93.5957 77.4943 93.5957L77.4801 93.5886ZM67.6285 74.8224C68.177 74.8224 68.7184 74.908 69.2313 75.0792C71.8456 75.9355 73.4198 78.49 73.6762 82.2718C73.719 82.9282 73.7332 83.5918 73.7475 84.234C73.7831 86.2105 73.8187 88.0729 74.7519 89.7069C75.2078 90.5061 75.8845 91.084 76.6467 91.3338C77.3804 91.5693 78.0713 91.4979 78.6911 91.1197C79.5815 90.5703 80.2867 89.3929 80.4861 88.13C80.6998 86.7742 80.5004 85.3614 80.2867 83.8701C80.2226 83.3992 80.1513 82.9068 80.0944 82.4216C79.7239 79.175 80.3152 76.8346 81.8894 75.2576C83.25 73.8947 85.2659 73.4809 86.9042 74.223C88.6922 75.0293 89.084 76.6918 89.3974 78.0333C89.6538 79.1108 89.8462 79.7886 90.3733 80.1169C90.8719 80.4237 91.5629 80.3523 92.1043 79.9313C93.2298 79.0537 93.5147 77.6551 93.7925 75.7714L93.8424 75.4217L94.0917 75.172C96.072 73.2097 99.2632 72.589 102.027 73.6307C102.811 73.9233 103.502 74.33 104.171 74.7296C104.805 75.1006 105.403 75.4574 106.023 75.6857C108.595 76.6348 111.822 75.1577 112.79 72.5961C113.154 71.6399 113.517 70.7052 113.973 69.8133C114.322 69.1354 114.322 68.3576 113.98 67.6798C113.652 67.0233 113.047 66.5809 112.327 66.4596C105.019 65.2466 97.7103 65.8245 89.9744 66.4311C87.6166 66.6166 85.1804 66.8092 82.7585 66.9448C68.9677 67.7154 55.0488 69.1639 41.3934 71.2546C39.9545 71.4758 38.3161 71.7256 36.9271 72.382C35.6164 73.0028 34.2629 74.8295 34.0421 76.2994L32.5106 86.2105C32.3468 87.2809 32.1758 88.3868 32.5605 89.3002C32.7172 89.6641 32.9522 89.9424 33.2372 90.0851C33.5364 90.2349 33.8284 90.2492 34.1418 90.1208C34.7331 89.8782 35.3386 89.1646 35.6092 88.3797C35.8087 87.8089 35.9227 87.181 36.0366 86.5245C36.286 85.1474 36.5638 83.5847 37.7534 82.2789C38.7221 81.2157 40.1753 80.8161 41.4504 81.2657C42.9178 81.7866 43.4306 83.1066 43.8509 84.1769C44.2854 85.2901 44.5348 85.7895 45.1616 85.9465C45.589 86.0536 46.0876 85.9394 46.5293 85.6254C47.3983 85.0046 47.8898 84.0271 48.417 82.9924C48.9512 81.9293 49.5068 80.8233 50.5183 79.9313C51.2093 79.3177 52.0071 78.9466 52.8263 78.8539C54.7353 78.6327 55.9178 79.8528 56.8652 80.8375C57.8126 81.8151 58.3967 82.3645 59.3441 82.1933C59.6576 82.1362 59.9852 81.9935 60.2773 81.7723C61.2461 81.0516 61.7732 79.8314 62.2789 78.6541C62.9984 76.9844 63.9529 75.964 65.3776 75.329C66.1042 75.0079 66.8664 74.8438 67.6214 74.8438L67.6285 74.8224Z" fill="#1E1E1E"/>
<path d="M86.3274 83.5133C84.6036 83.5133 82.8655 83.4563 81.0918 83.3564L81.22 81.2371C97.4398 82.2075 111.216 78.6684 127.308 69.3994C128.298 68.8286 129.21 67.9366 128.96 67.4015C128.797 67.0518 128.141 66.8521 127.023 66.8092L111.929 66.2955L112 64.1691L127.094 64.6829C127.913 64.7114 130.086 64.7828 130.884 66.4953C131.632 68.0936 130.67 69.9132 128.369 71.2332C113.645 79.7173 100.788 83.5133 86.3346 83.5133H86.3274Z" fill="#1E1E1E"/>
<path d="M37.7181 72.5427C46.3918 63.8542 51.4252 54.8093 48.9605 52.3404C46.4958 49.8715 37.4663 54.9135 28.7926 63.602C20.1189 72.2905 15.0854 81.3354 17.5501 83.8043C20.0148 86.2732 29.0443 81.2312 37.7181 72.5427Z" fill="white"/>
<path d="M19.3609 85.4827C18.2852 85.4827 17.4233 85.1759 16.8036 84.548C15.2222 82.9639 15.6639 79.8386 18.0715 75.5073C20.2441 71.6114 23.7844 67.1089 28.0442 62.8419C32.3039 58.5749 36.7987 55.0286 40.6881 52.8523C45.0119 50.4405 48.1319 49.9981 49.7133 51.5822C51.2947 53.1663 50.853 56.2916 48.4454 60.6228C46.2728 64.5188 42.7325 69.0212 38.4727 73.2882C34.213 77.5552 29.7182 81.1015 25.8288 83.2779C23.2074 84.7406 21.0277 85.4756 19.368 85.4756L19.3609 85.4827ZM47.1275 52.7738C46.0591 52.7738 44.2925 53.2804 41.7209 54.7146C37.9955 56.7911 33.6716 60.2161 29.5401 64.3475C25.4157 68.4789 21.9965 72.8101 19.9236 76.542C17.7795 80.3951 17.7154 82.4501 18.3066 83.0424C18.8978 83.6346 20.9565 83.5633 24.7959 81.4226C28.5214 79.3462 32.8453 75.9212 36.9768 71.7898C41.1012 67.6584 44.5204 63.3271 46.5933 59.5882C48.7374 55.735 48.8015 53.68 48.2103 53.0878C48.018 52.8951 47.6618 52.7667 47.1275 52.7667V52.7738Z" fill="#1E1E1E"/>
<path d="M34.9812 69.9515C43.655 61.2629 48.6884 52.2181 46.2237 49.7492C43.759 47.2803 34.7295 52.3223 26.0558 61.0108C17.382 69.6993 12.3486 78.7442 14.8133 81.2131C17.278 83.682 26.3075 78.64 34.9812 69.9515Z" fill="white"/>
<path d="M16.6255 82.8997C15.5499 82.8997 14.688 82.5929 14.0682 81.9649C12.4869 80.3809 12.9285 77.2555 15.3362 72.9243C17.5088 69.0284 21.0491 64.5259 25.3088 60.2589C29.5686 55.9919 34.0634 52.4456 37.9527 50.2693C42.2766 47.8575 45.3966 47.4151 46.978 48.9991C48.5593 50.5832 48.1177 53.7085 45.71 58.0398C43.5374 61.9357 39.9971 66.4382 35.7374 70.7052C31.4776 74.9722 26.9828 78.5185 23.0935 80.6948C20.4721 82.1576 18.2924 82.8925 16.6326 82.8925L16.6255 82.8997ZM44.4064 50.1765C41.5856 50.1765 34.5976 53.9654 26.8047 61.7716C22.6803 65.903 19.2611 70.2342 17.1882 73.9732C15.0441 77.8264 14.98 79.8814 15.5713 80.4736C17.0885 81.9863 25.1094 78.3544 34.2415 69.2139C38.3659 65.0825 41.7851 60.7512 43.8579 57.0123C46.0021 53.1591 46.0662 51.1041 45.4749 50.5119C45.2541 50.2907 44.8908 50.1765 44.4064 50.1765Z" fill="#1E1E1E"/>
<path d="M25.6042 72.6004C28.5501 69.6494 30.2595 66.5772 29.4222 65.7384C28.5848 64.8997 25.5179 66.612 22.5719 69.5629C19.626 72.5139 17.9166 75.5861 18.7539 76.4249C19.5912 77.2636 22.6582 75.5513 25.6042 72.6004Z" fill="white"/>
<path d="M19.3535 77.705C18.805 77.705 18.3491 77.5266 18.0001 77.177C15.799 74.9721 21.1913 69.435 21.8182 68.8143C23.307 67.3229 24.8883 66.0742 26.2631 65.3036C28.0582 64.3046 29.3689 64.1976 30.1667 64.9897C30.9574 65.7817 30.8506 67.0946 29.8533 68.8999C29.084 70.277 27.8445 71.8611 26.3486 73.3524C24.8599 74.8437 23.2785 76.0924 21.9037 76.863C20.8993 77.4196 20.0516 77.705 19.3535 77.705ZM28.5426 66.6237C27.7163 66.8163 25.7289 67.9081 23.3212 70.3198C20.9135 72.7316 19.8165 74.7224 19.6313 75.5501C20.4576 75.3575 22.4451 74.2657 24.8527 71.854C27.2604 69.4422 28.3503 67.4514 28.5426 66.6237Z" fill="#1E1E1E"/>
<path d="M39.1012 59.4587C42.0472 56.5077 43.7566 53.4355 42.9192 52.5967C42.0819 51.758 39.0149 53.4703 36.069 56.4213C33.123 59.3722 31.4137 62.4444 32.251 63.2832C33.0883 64.1219 36.1553 62.4096 39.1012 59.4587Z" fill="white"/>
<path d="M32.8525 64.5616C32.304 64.5616 31.8481 64.3832 31.4991 64.0335C30.7084 63.2415 30.8153 61.9286 31.8125 60.1233C32.5818 58.7462 33.8213 57.1621 35.3172 55.6708C35.9369 55.05 41.4646 49.6413 43.6657 51.8462C44.4564 52.6382 44.3567 53.9583 43.3523 55.7564C42.583 57.1336 41.3435 58.7176 39.8476 60.2089C38.3589 61.7003 36.7775 62.949 35.4027 63.7196C34.3983 64.2762 33.5506 64.5616 32.8525 64.5616ZM42.0416 53.4802C41.2153 53.6729 39.2279 54.7646 36.8202 57.1764C34.4125 59.5882 33.3155 61.579 33.1303 62.4067C33.9566 62.214 35.9441 61.1223 38.3517 58.7105C40.7594 56.2987 41.8564 54.3008 42.0416 53.4802Z" fill="#1E1E1E"/>
<path d="M127.229 54.1127C128.131 50.7399 119.256 45.4294 107.407 42.2513C95.5579 39.0731 85.2215 39.2309 84.3199 42.6036C83.4184 45.9763 92.2931 51.2869 104.142 54.465C115.991 57.6432 126.328 57.4854 127.229 54.1127Z" fill="white"/>
<path d="M119.28 57.8114C114.906 57.8114 109.464 56.9908 103.865 55.4924C98.045 53.9297 92.7311 51.8105 88.9058 49.52C84.6603 46.9798 82.7157 44.4895 83.2998 42.3275C83.8768 40.1655 86.7973 38.981 91.748 38.9025C96.2001 38.8311 101.863 39.6588 107.683 41.2144C113.503 42.777 118.817 44.8963 122.642 47.1867C126.887 49.727 128.832 52.2172 128.248 54.3793C127.671 56.5413 124.75 57.7258 119.8 57.8043C119.629 57.8043 119.451 57.8043 119.28 57.8043V57.8114ZM104.413 53.4374C110.048 54.9501 115.504 55.7421 119.771 55.6779C124.173 55.6066 125.983 54.6433 126.204 53.8298C126.417 53.0235 125.334 51.2754 121.559 49.0134C117.898 46.8228 112.776 44.7821 107.142 43.2694C101.507 41.7567 96.0505 40.9575 91.7837 41.0288C87.3815 41.1002 85.5721 42.0635 85.3513 42.8769C84.7957 44.9462 91.9475 50.0909 104.42 53.4374H104.413Z" fill="#1E1E1E"/>
<path d="M128.106 50.4555C129.007 47.0828 120.133 41.7722 108.283 38.5941C96.4344 35.416 86.0979 35.5737 85.1964 38.9464C84.2948 42.3192 93.1696 47.6297 105.019 50.8079C116.868 53.986 127.204 53.8283 128.106 50.4555Z" fill="white"/>
<path d="M120.149 54.1509C115.776 54.1509 110.333 53.3304 104.734 51.8319C98.9147 50.2693 93.6007 48.15 89.7755 45.8595C85.53 43.3193 83.5853 40.8291 84.1694 38.667C84.7464 36.505 87.667 35.3205 92.6177 35.242C97.0769 35.1778 102.733 35.9984 108.553 37.5539C114.372 39.1094 119.686 41.2358 123.511 43.5263C127.757 46.0665 129.702 48.5568 129.118 50.7188C128.541 52.8808 125.62 54.0653 120.669 54.1438C120.498 54.1438 120.32 54.1438 120.149 54.1438V54.1509ZM93.1377 37.3684C92.9738 37.3684 92.8029 37.3684 92.639 37.3684C88.2368 37.4397 86.4275 38.403 86.2067 39.2164C85.993 40.0227 87.0757 41.7709 90.8511 44.0329C94.5125 46.2235 99.6341 48.2642 105.269 49.7769C110.903 51.2896 116.36 52.0817 120.627 52.0174C125.029 51.9461 126.838 50.9828 127.059 50.1694C127.273 49.3631 126.19 47.6149 122.415 45.3529C118.753 43.1624 113.631 41.1216 107.997 39.6089C102.576 38.1533 97.3262 37.3612 93.1377 37.3612V37.3684Z" fill="#1E1E1E"/>
<path d="M105.485 44.1032C105.792 42.9573 102.777 41.1534 98.753 40.074C94.7285 38.9946 91.2178 39.0484 90.9115 40.1942C90.6052 41.34 93.6194 43.1439 97.6438 44.2234C101.668 45.3028 105.179 45.249 105.485 44.1032Z" fill="white"/>
<path d="M102.818 46.0593C100.489 46.0593 97.846 45.3815 97.3616 45.253C96.5139 45.0247 89.0772 42.9411 89.8821 39.9228C90.1742 38.8383 91.3638 38.2746 93.4153 38.2389C94.9895 38.2103 96.984 38.5029 99.0213 39.0452C99.869 39.2735 107.306 41.3571 106.501 44.3754C106.152 45.674 104.578 46.0593 102.818 46.0593ZM92.1046 40.5151C92.6816 41.1359 94.6262 42.3132 97.9101 43.198C101.201 44.0828 103.466 44.0329 104.278 43.7831C103.701 43.1623 101.757 41.985 98.4728 41.1002C95.1819 40.2154 92.9166 40.2653 92.1046 40.5151Z" fill="#1E1E1E"/>
<path d="M123.6 49.2459C123.906 48.1001 120.892 46.2962 116.868 45.2167C112.843 44.1373 109.333 44.1911 109.026 45.3369C108.72 46.4827 111.734 48.2867 115.759 49.3661C119.783 50.4455 123.294 50.3917 123.6 49.2459Z" fill="white"/>
<path d="M120.89 51.1968C119.344 51.1968 117.428 50.9114 115.476 50.3834C113.439 49.834 111.573 49.0919 110.219 48.2784C108.453 47.2224 107.705 46.1378 107.997 45.0532C108.289 43.9686 109.478 43.4049 111.53 43.3693C113.111 43.3478 115.099 43.6333 117.136 44.1756C117.984 44.4039 125.42 46.4874 124.615 49.5057C124.323 50.5903 123.134 51.154 121.082 51.1897C121.018 51.1897 120.961 51.1897 120.897 51.1897L120.89 51.1968ZM116.025 48.3355C119.316 49.2203 121.588 49.1704 122.393 48.9206C121.816 48.2999 119.871 47.1225 116.587 46.2377C113.296 45.3529 111.024 45.4029 110.219 45.6526C110.796 46.2734 112.741 47.4507 116.025 48.3355Z" fill="#1E1E1E"/>
<path d="M72.596 81.2757L60.8882 81.5378L60.9356 83.6636L72.6434 83.4016L72.596 81.2757Z" fill="#1E1E1E"/>
<path d="M52.99 49.8126L51.7292 52.6311C51.1095 54.0225 51.6793 55.6565 53.0399 56.3487C62.1079 60.9867 95.7085 76.2352 133.776 69.4137C134.901 69.2139 135.877 68.4932 136.376 67.4657C136.96 66.2669 137.337 64.5758 136.212 62.8919" fill="white"/>
<path d="M113.973 72.2108C84.411 72.2108 60.2914 61.2579 52.5555 57.2977C50.6963 56.3487 49.9056 54.1081 50.7604 52.1958L52.0212 49.3773L53.9588 50.2478L52.698 53.0664C52.3062 53.944 52.6695 54.9715 53.5171 55.4068C61.1391 59.3027 84.8882 70.0915 113.958 70.0915C120.284 70.0915 126.866 69.5778 133.583 68.379C134.388 68.2363 135.072 67.7226 135.414 67.009C136.048 65.7104 136.012 64.5259 135.321 63.4912L137.081 62.3068C138.206 63.9907 138.292 65.9387 137.323 67.9366C136.682 69.2567 135.421 70.2057 133.954 70.4697C127.108 71.697 120.412 72.2179 113.973 72.2179V72.2108Z" fill="#1E1E1E"/>
<path d="M132.742 64.4617C130.577 64.4617 127.621 64.3047 123.931 63.9836C115.939 63.2986 105.375 61.95 94.2053 60.1947C83.0359 58.4393 72.5718 56.4771 64.7504 54.679C60.9252 53.8013 57.9334 53.0021 55.8534 52.31C53.2249 51.4395 51.8429 50.7259 52.0353 49.4772C52.2347 48.2285 53.7662 47.9716 56.5372 47.9502C58.7241 47.9288 61.8227 48.0858 65.7334 48.4212C73.7258 49.1062 84.2896 50.4548 95.459 52.2101C106.635 53.9654 117.093 55.9277 124.914 57.7258C128.739 58.6035 131.731 59.4026 133.811 60.0948C136.439 60.9653 137.821 61.6788 137.629 62.9275C137.43 64.1763 135.898 64.4331 133.127 64.4545C133.006 64.4545 132.878 64.4545 132.742 64.4545V64.4617ZM55.8534 50.0766C60.6901 51.782 74.317 54.9216 94.533 58.0968C114.749 61.2721 128.675 62.4637 133.804 62.3282C128.967 60.6228 115.34 57.4832 95.1242 54.3079C74.9082 51.1326 60.975 49.941 55.8534 50.0766Z" fill="#1E1E1E"/>
<path d="M35.4312 22.3554C35.8324 22.3554 36.1577 22.0295 36.1577 21.6275C36.1577 21.2256 35.8324 20.8997 35.4312 20.8997C35.0299 20.8997 34.7046 21.2256 34.7046 21.6275C34.7046 22.0295 35.0299 22.3554 35.4312 22.3554Z" fill="#1E1E1E"/>
<path d="M4.18836 61.7787C4.18836 61.7787 53.3392 64.5616 96.9696 31.3318C96.9696 31.3318 87.4884 -4.54529 38.8504 11.4167C38.8504 11.4167 -7.33004 26.5724 4.18124 61.7859L4.18836 61.7787Z" fill="white"/>
<path d="M6.9593 62.8919C5.1571 62.8919 4.15984 62.8419 4.12422 62.8348L3.39764 62.792L3.1697 62.0998C-1.68841 47.2438 2.9275 33.5723 16.5259 22.5552C26.6695 14.3351 38.0383 10.5462 38.5156 10.3892C55.8822 4.68799 70.3069 4.8521 81.3766 10.8744C94.4051 17.9671 97.8457 30.5112 97.9882 31.0392L98.1734 31.7242L97.6106 32.1523C74.9086 49.4415 50.7178 56.8624 34.4197 60.0377C21.6761 62.5208 11.6251 62.8705 6.9593 62.8705V62.8919ZM4.9719 60.7441C7.85684 60.8226 19.0618 60.8939 34.0849 57.9613C49.9984 54.8502 73.5552 47.6363 95.7372 30.9322C94.8396 28.2921 90.9076 18.4737 80.3437 12.7368C69.8083 7.02128 55.9677 6.91425 39.1923 12.4157C39.0783 12.4514 27.6739 16.2546 17.8366 24.2463C12.1166 28.8914 8.04204 34.0218 5.71984 39.4947C2.92038 46.0879 2.67819 53.2305 4.97902 60.7441H4.9719Z" fill="#1E1E1E"/>
<path d="M20.7216 32.5876C21.355 32.5876 21.8684 32.0733 21.8684 31.4388C21.8684 30.8043 21.355 30.29 20.7216 30.29C20.0882 30.29 19.5747 30.8043 19.5747 31.4388C19.5747 32.0733 20.0882 32.5876 20.7216 32.5876Z" fill="#1E1E1E"/>
<path d="M51.2522 42.934C52.1846 42.934 52.9404 42.1769 52.9404 41.2429C52.9404 40.309 52.1846 39.5518 51.2522 39.5518C50.3198 39.5518 49.564 40.309 49.564 41.2429C49.564 42.1769 50.3198 42.934 51.2522 42.934Z" fill="#1E1E1E"/>
<path d="M31.7486 45.1103C32.5787 45.1103 33.2516 44.4362 33.2516 43.6047C33.2516 42.7732 32.5787 42.0992 31.7486 42.0992C30.9185 42.0992 30.2456 42.7732 30.2456 43.6047C30.2456 44.4362 30.9185 45.1103 31.7486 45.1103Z" fill="#1E1E1E"/>
<path d="M61.4667 30.0403C62.1001 30.0403 62.6135 29.5259 62.6135 28.8915C62.6135 28.257 62.1001 27.7426 61.4667 27.7426C60.8333 27.7426 60.3198 28.257 60.3198 28.8915C60.3198 29.5259 60.8333 30.0403 61.4667 30.0403Z" fill="#1E1E1E"/>
<path d="M13.8902 46.5017C14.7203 46.5017 15.3932 45.8277 15.3932 44.9962C15.3932 44.1646 14.7203 43.4906 13.8902 43.4906C13.0601 43.4906 12.3872 44.1646 12.3872 44.9962C12.3872 45.8277 13.0601 46.5017 13.8902 46.5017Z" fill="#1E1E1E"/>
<path d="M52.7979 20.6643C53.628 20.6643 54.301 19.9902 54.301 19.1587C54.301 18.3272 53.628 17.6531 52.7979 17.6531C51.9678 17.6531 51.2949 18.3272 51.2949 19.1587C51.2949 19.9902 51.9678 20.6643 52.7979 20.6643Z" fill="#1E1E1E"/>
<path d="M42.2837 33.1941C43.3066 33.1941 44.1358 32.3635 44.1358 31.3389C44.1358 30.3143 43.3066 29.4837 42.2837 29.4837C41.2608 29.4837 40.4316 30.3143 40.4316 31.3389C40.4316 32.3635 41.2608 33.1941 42.2837 33.1941Z" fill="#1E1E1E"/>
<path d="M91.2422 30.8109C90.9074 30.8109 90.5868 30.6254 90.4301 30.3043C89.5611 28.549 88.5282 26.8935 87.3671 25.3808C87.0608 24.9812 87.132 24.4104 87.5309 24.1036C87.9298 23.7967 88.4997 23.8681 88.806 24.2677C90.0383 25.8732 91.1353 27.6285 92.0542 29.4908C92.2751 29.9404 92.097 30.4898 91.6482 30.711C91.52 30.7752 91.3775 30.8038 91.2422 30.8038V30.8109Z" fill="#1E1E1E"/>
<path d="M84.0835 21.4848C83.8626 21.4848 83.6489 21.4063 83.4709 21.2494C77.9147 16.1903 69.9223 13.3433 60.3628 13.0222C59.8642 13.0079 59.4653 12.5869 59.4867 12.0803C59.5009 11.5808 59.9212 11.1884 60.4269 11.2026C70.421 11.538 78.8193 14.542 84.7032 19.9008C85.0736 20.2361 85.1021 20.8141 84.7673 21.1851C84.5892 21.3849 84.3399 21.4848 84.0906 21.4848H84.0835Z" fill="#1E1E1E"/>
<path d="M36.3857 73.8448C36.3857 73.8448 73.3415 73.2954 92.9235 69.3495Z" fill="white"/>
<path d="M36.4001 74.9008L36.3716 72.7745C36.742 72.7745 73.4556 72.1822 92.717 68.3005L93.1373 70.3841C82.9581 72.432 68.0703 73.5522 57.3711 74.1302C45.7957 74.7581 36.4998 74.9008 36.4072 74.9008H36.4001Z" fill="#1E1E1E"/>
<path d="M7.85681 113.425C9.11179 113.425 10.1291 113.109 10.1291 112.719C10.1291 112.329 9.11179 112.012 7.85681 112.012C6.60183 112.012 5.58447 112.329 5.58447 112.719C5.58447 113.109 6.60183 113.425 7.85681 113.425Z" fill="#1E1E1E"/>
<path d="M114.293 110.749C115.548 110.749 116.566 110.433 116.566 110.043C116.566 109.653 115.548 109.337 114.293 109.337C113.038 109.337 112.021 109.653 112.021 110.043C112.021 110.433 113.038 110.749 114.293 110.749Z" fill="#1E1E1E"/>
<path d="M8.69002 108.024C9.31948 108.024 9.82975 107.864 9.82975 107.667C9.82975 107.47 9.31948 107.31 8.69002 107.31C8.06057 107.31 7.55029 107.47 7.55029 107.667C7.55029 107.864 8.06057 108.024 8.69002 108.024Z" fill="#1E1E1E"/>
<path d="M110.041 113.075C110.67 113.075 111.18 112.916 111.18 112.719C111.18 112.522 110.67 112.362 110.041 112.362C109.411 112.362 108.901 112.522 108.901 112.719C108.901 112.916 109.411 113.075 110.041 113.075Z" fill="#1E1E1E"/>
<path d="M21.911 117C24.4564 117 26.5198 116.358 26.5198 115.566C26.5198 114.774 24.4564 114.132 21.911 114.132C19.3657 114.132 17.3022 114.774 17.3022 115.566C17.3022 116.358 19.3657 117 21.911 117Z" fill="#1E1E1E"/>
<path d="M27.5957 23.3686L15.2154 1.45563L1.45312 9.26181L5.88383 17.0965L19.6389 9.29749" stroke="#1E1E1E" stroke-width="3" stroke-miterlimit="10"/>
<path d="M24.2832 24.6958C24.2832 24.6958 28.4432 24.81 30.915 21.6989" stroke="#1E1E1E" stroke-width="3" stroke-linecap="round" stroke-linejoin="round"/>
</g>
<defs>
<clipPath id="clip0_29_17530">
<rect width="138" height="117" fill="white"/>
</clipPath>
</defs>
</svg>
