<svg width="280" height="211" viewBox="0 0 280 211" fill="none" xmlns="http://www.w3.org/2000/svg">
<path d="M207.114 44.0636H279.466V151.811H141.117V106.136C141.117 71.8779 170.689 44.0652 207.114 44.0652V44.0636Z" fill="#FF0000"/>
<path d="M199.129 80.5488C205.18 71.193 216.619 65.3549 228.013 65.8041C239.407 66.2549 250.316 72.9772 255.558 82.779C259.519 90.1845 261.589 98.6024 260.425 106.865C259.262 115.126 254.889 123.005 248.125 128.171C241.361 133.337 232.229 135.622 223.807 133.862C216.775 132.392 209.263 132.456 202.652 135.2C197.713 137.251 192.064 137.696 186.721 137.131C181.378 136.568 176.047 134.142 173.048 129.825C169.542 124.781 168.311 117.542 170.445 111.824C172.577 106.106 177.537 101.445 183.505 99.5498C191.8 96.9147 194.496 87.7092 199.127 80.5472L199.129 80.5488Z" fill="#EAAA08"/>
<path d="M168.435 111.435C169.52 113.787 172.426 114.867 174.925 113.847C177.426 112.827 178.575 110.094 177.49 107.743L168.435 111.437V111.435Z" fill="#FA101D"/>
<path d="M169.158 111.141C170.004 112.977 172.275 113.82 174.227 113.025C176.18 112.229 177.076 110.094 176.23 108.257L169.16 111.141H169.158Z" fill="white"/>
<path d="M235.423 134.387C233.122 135.76 232.439 138.628 233.899 140.793C235.359 142.957 238.408 143.599 240.71 142.226L235.423 134.389V134.387Z" fill="#FA101D"/>
<path d="M235.845 135.012C234.049 136.085 233.516 138.324 234.656 140.013C235.796 141.704 238.178 142.204 239.974 141.132L235.845 135.012Z" fill="white"/>
<path d="M237.345 74.5358C236.195 76.8593 237.265 79.621 239.735 80.7028C242.206 81.7847 245.142 80.7788 246.292 78.4552L237.345 74.5358Z" fill="#FA101D"/>
<path d="M238.059 74.849C237.161 76.6632 237.995 78.8191 239.924 79.6637C241.853 80.5083 244.145 79.7238 245.045 77.9096L238.059 74.849Z" fill="white"/>
<path d="M243.026 83.725C243.026 86.289 245.236 88.3658 247.961 88.3658C250.685 88.3658 252.895 86.2874 252.895 83.725H243.025H243.026Z" fill="#FA101D"/>
<path d="M243.813 83.725C243.813 85.7259 245.539 87.3487 247.666 87.3487C249.794 87.3487 251.519 85.7259 251.519 83.725H243.812H243.813Z" fill="white"/>
<path d="M165.386 117.539C165.386 117.112 165.018 116.766 164.564 116.766C164.11 116.766 163.741 117.112 163.741 117.539C163.741 117.966 164.11 118.313 164.564 118.313C165.018 118.313 165.386 117.966 165.386 117.539Z" fill="#FF6400"/>
<path d="M167.877 94.9774C167.877 94.5503 167.508 94.2039 167.054 94.2039C166.6 94.2039 166.232 94.5503 166.232 94.9774C166.232 95.4044 166.6 95.7508 167.054 95.7508C167.508 95.7508 167.877 95.4044 167.877 94.9774Z" fill="#FFBE00"/>
<path d="M218.559 75.6503C218.559 75.2232 218.191 74.8768 217.737 74.8768C217.283 74.8768 216.915 75.2232 216.915 75.6503C216.915 76.0773 217.283 76.4237 217.737 76.4237C218.191 76.4237 218.559 76.0773 218.559 75.6503Z" fill="#FF6400"/>
<path d="M219.364 60.7064C219.364 60.2793 218.995 59.9329 218.541 59.9329C218.087 59.9329 217.719 60.2793 217.719 60.7064C217.719 61.1334 218.087 61.4798 218.541 61.4798C218.995 61.4798 219.364 61.1334 219.364 60.7064Z" fill="#FF6400"/>
<path d="M250.757 105.429C250.757 105.002 250.389 104.656 249.934 104.656C249.48 104.656 249.112 105.002 249.112 105.429C249.112 105.856 249.48 106.203 249.934 106.203C250.389 106.203 250.757 105.856 250.757 105.429Z" fill="white"/>
<path d="M259.781 91.2637C259.781 90.8366 259.412 90.4902 258.958 90.4902C258.504 90.4902 258.136 90.8366 258.136 91.2637C258.136 91.6908 258.504 92.0371 258.958 92.0371C259.412 92.0371 259.781 91.6908 259.781 91.2637Z" fill="#FF9A7D"/>
<path d="M237.429 118.83C237.429 118.403 237.06 118.056 236.606 118.056C236.152 118.056 235.784 118.403 235.784 118.83C235.784 119.257 236.152 119.603 236.606 119.603C237.06 119.603 237.429 119.257 237.429 118.83Z" fill="#FF6400"/>
<path d="M200.225 133.68C200.225 133.253 199.857 132.907 199.403 132.907C198.949 132.907 198.58 133.253 198.58 133.68C198.58 134.107 198.949 134.454 199.403 134.454C199.857 134.454 200.225 134.107 200.225 133.68Z" fill="#FFBE00"/>
<path d="M175.056 128.4C175.056 128.141 174.832 127.932 174.558 127.932C174.284 127.932 174.061 128.143 174.061 128.4C174.061 128.658 174.284 128.869 174.558 128.869C174.832 128.869 175.056 128.658 175.056 128.4Z" fill="white"/>
<path d="M175.056 90.1154C175.331 90.1154 175.554 89.9058 175.554 89.6473C175.554 89.3887 175.331 89.1791 175.056 89.1791C174.781 89.1791 174.558 89.3887 174.558 89.6473C174.558 89.9058 174.781 90.1154 175.056 90.1154Z" fill="#FF6400"/>
<path d="M171.42 99.6103C171.42 99.3509 171.196 99.1422 170.922 99.1422C170.648 99.1422 170.425 99.3525 170.425 99.6103C170.425 99.8681 170.648 100.079 170.922 100.079C171.196 100.079 171.42 99.8681 171.42 99.6103Z" fill="white"/>
<path d="M212.258 75.4385C212.258 75.1791 212.034 74.9703 211.76 74.9703C211.486 74.9703 211.262 75.1807 211.262 75.4385C211.262 75.6963 211.486 75.9067 211.76 75.9067C212.034 75.9067 212.258 75.6963 212.258 75.4385Z" fill="#FFBE00"/>
<path d="M217.593 71.6078C217.593 71.3484 217.369 71.1396 217.095 71.1396C216.821 71.1396 216.597 71.35 216.597 71.6078C216.597 71.8657 216.821 72.076 217.095 72.076C217.369 72.076 217.593 71.8657 217.593 71.6078Z" fill="#FF9A7D"/>
<path d="M255.057 102.525C255.332 102.525 255.554 102.316 255.554 102.057C255.554 101.798 255.332 101.589 255.057 101.589C254.782 101.589 254.559 101.798 254.559 102.057C254.559 102.316 254.782 102.525 255.057 102.525Z" fill="#FF6400"/>
<path d="M245.17 64.5832C245.17 64.3238 244.946 64.115 244.672 64.115C244.398 64.115 244.175 64.3254 244.175 64.5832C244.175 64.841 244.398 65.0514 244.672 65.0514C244.946 65.0514 245.17 64.841 245.17 64.5832Z" fill="#FF9A7D"/>
<path d="M244.023 118.36C244.023 118.101 243.799 117.892 243.525 117.892C243.251 117.892 243.027 118.102 243.027 118.36C243.027 118.618 243.251 118.828 243.525 118.828C243.799 118.828 244.023 118.618 244.023 118.36Z" fill="#FF9A7D"/>
<path d="M254.559 112.889C254.834 112.889 255.057 112.679 255.057 112.42C255.057 112.162 254.834 111.952 254.559 111.952C254.284 111.952 254.062 112.162 254.062 112.42C254.062 112.679 254.284 112.889 254.559 112.889Z" fill="#FFBE00"/>
<path d="M250.757 96.8278C251.032 96.8278 251.255 96.6182 251.255 96.3597C251.255 96.1011 251.032 95.8915 250.757 95.8915C250.482 95.8915 250.259 96.1011 250.259 96.3597C250.259 96.6182 250.482 96.8278 250.757 96.8278Z" fill="#FF9A7D"/>
<path d="M209.583 67.2579C209.583 66.9985 209.359 66.7897 209.085 66.7897C208.811 66.7897 208.587 67 208.587 67.2579C208.587 67.5157 208.811 67.726 209.085 67.726C209.359 67.726 209.583 67.5157 209.583 67.2579Z" fill="white"/>
<path d="M199.9 67.2579C199.9 66.9985 199.677 66.7897 199.403 66.7897C199.128 66.7897 198.905 67 198.905 67.2579C198.905 67.5157 199.128 67.726 199.403 67.726C199.677 67.726 199.9 67.5157 199.9 67.2579Z" fill="#FF9A7D"/>
<path d="M225.574 57.4245C225.574 57.1651 225.351 56.9563 225.076 56.9563C224.802 56.9563 224.579 57.1667 224.579 57.4245C224.579 57.6823 224.802 57.8927 225.076 57.8927C225.351 57.8927 225.574 57.6823 225.574 57.4245Z" fill="#FFBE00"/>
<path d="M174.352 120.027L171.878 121.37L174.352 122.713V120.027Z" fill="#FFBE00"/>
<path d="M229.185 70.7344L226.711 72.0772L229.185 73.4201V70.7344Z" fill="white"/>
<path d="M205.053 66.7721C202.869 65.26 201.851 62.4082 202.621 59.9613C202.922 60.5386 203.331 60.8692 203.632 61.4465C203.879 59.6497 204.609 57.9146 205.736 56.4452C205.887 57.3958 206.066 58.3147 206.217 59.2653C207.023 57.6314 208.195 56.1589 209.634 54.971C209.54 56.7441 209.174 58.6248 208.558 60.3029C209.426 59.6181 210.294 58.9316 211.161 58.2467C211.084 60.2824 210.339 62.3006 208.861 63.7874C209.471 63.4964 210.083 63.2038 210.694 62.9128C209.771 65.0307 207.463 66.4574 205.053 66.7721Z" fill="#BAD734"/>
<path d="M204.298 68.3457L207.435 60.5891" stroke="black" stroke-width="2" stroke-linecap="round" stroke-linejoin="round"/>
<path d="M240.701 130.05C240.828 127.502 242.783 125.121 245.373 124.367C245.03 124.924 244.965 125.425 244.622 125.982C246.347 125.178 248.288 124.786 250.212 124.851C249.455 125.498 248.742 126.146 247.985 126.793C249.877 126.517 251.831 126.616 253.679 127.083C252.06 127.994 250.193 128.75 248.367 129.201C249.455 129.5 250.543 129.797 251.631 130.096C249.788 131.165 247.59 131.705 245.454 131.372C246.051 131.689 246.648 132.003 247.245 132.32C244.86 132.774 242.318 131.76 240.7 130.05H240.701Z" fill="#FFDC00"/>
<path d="M238.091 130.893C240.848 129.932 243.602 128.97 246.359 128.008" stroke="black" stroke-width="2" stroke-linecap="round" stroke-linejoin="round"/>
<path d="M240.088 89.769L230.137 83.7238L212.163 80.2393L190.48 84.1192L179.338 95.4885L181.693 107.252L191.768 118.265C195.33 122.355 202.942 125.182 211.759 125.182C220.576 125.182 228.188 122.355 231.75 118.265L241.827 107.252L244.556 97.5795L240.085 89.769H240.088Z" fill="#E6E9F1"/>
<path d="M211.76 116.645C226.454 116.645 238.366 110.113 238.366 102.055C238.366 93.9977 226.454 87.4657 211.76 87.4657C197.067 87.4657 185.155 93.9977 185.155 102.055C185.155 110.113 197.067 116.645 211.76 116.645Z" fill="#27AE60"/>
<path d="M200.224 104.699C199.007 106.992 199.997 109.779 202.436 110.924C204.874 112.069 207.837 111.138 209.055 108.844L200.224 104.699Z" fill="#FA101D"/>
<path d="M200.929 105.029C199.979 106.819 200.752 108.996 202.656 109.89C204.56 110.783 206.874 110.056 207.824 108.265L200.929 105.029Z" fill="white"/>
<path d="M209.685 106.108C210.309 108.602 212.966 110.149 215.62 109.562C218.274 108.975 219.917 106.476 219.293 103.98L209.685 106.108Z" fill="#FA101D"/>
<path d="M210.451 105.939C210.938 107.887 213.014 109.094 215.084 108.635C217.156 108.177 218.439 106.225 217.951 104.278L210.449 105.939H210.451Z" fill="white"/>
<path d="M225.402 103.311C226.31 103.109 226.872 102.254 226.658 101.4C226.444 100.547 225.534 100.018 224.627 100.22C223.719 100.421 223.157 101.276 223.371 102.13C223.585 102.984 224.495 103.512 225.402 103.311Z" fill="#FFA000"/>
<path d="M231.629 106.039C232.289 105.418 232.289 104.413 231.629 103.793C230.97 103.173 229.901 103.173 229.241 103.793C228.582 104.413 228.582 105.418 229.241 106.039C229.901 106.659 230.97 106.659 231.629 106.039Z" fill="#FFA000"/>
<path d="M230.988 101.479C230.988 100.793 230.396 100.234 229.664 100.234C228.933 100.234 228.341 100.791 228.341 101.479C228.341 102.167 228.933 102.724 229.664 102.724C230.396 102.724 230.988 102.167 230.988 101.479Z" fill="#FFA000"/>
<path d="M193.473 99.9093C193.136 98.8875 192.371 98.1663 191.312 97.7772C191.214 95.819 189.879 93.9589 187.983 93.1412C188.093 93.6173 187.975 94.1123 188.084 94.5884C187.285 93.3215 186.488 92.053 185.69 90.786C185.632 92.6746 185.923 94.7007 186.794 96.4042C185.996 95.5422 185.409 94.5062 185.096 93.4006C184.692 96.0025 185.378 98.6851 187.102 100.754C188.466 102.393 191.803 101.276 193.473 99.9093Z" fill="#BAD734"/>
<path d="M186.842 94.4209C187.953 96.2446 189.063 98.0683 190.175 99.8936" stroke="black" stroke-width="2" stroke-linecap="round" stroke-linejoin="round"/>
<path d="M189.018 94.9333C189.467 95.9172 189.914 96.8994 190.363 97.8832" stroke="black" stroke-width="2" stroke-linecap="round" stroke-linejoin="round"/>
<path d="M186.078 97.2757C186.86 98.1583 187.642 99.0425 188.424 99.9251" stroke="black" stroke-width="2" stroke-linecap="round" stroke-linejoin="round"/>
<path d="M200.898 95.3611C201.557 94.741 201.557 93.7355 200.898 93.1153C200.238 92.4951 199.169 92.4951 198.51 93.1153C197.85 93.7355 197.85 94.741 198.51 95.3611C199.169 95.9813 200.238 95.9813 200.898 95.3611Z" fill="#FFA000"/>
<path d="M194.404 105.013C195.311 104.812 195.873 103.956 195.659 103.103C195.445 102.249 194.536 101.72 193.628 101.922C192.72 102.123 192.158 102.979 192.372 103.832C192.587 104.686 193.496 105.214 194.404 105.013Z" fill="#FFA000"/>
<path d="M194.063 108.733C194.971 108.531 195.533 107.676 195.319 106.822C195.104 105.969 194.195 105.44 193.287 105.641C192.38 105.843 191.818 106.698 192.032 107.552C192.246 108.405 193.156 108.934 194.063 108.733Z" fill="#FFA000"/>
<path d="M192.716 94.9697C193.623 94.7682 194.185 93.9129 193.971 93.0593C193.757 92.2057 192.848 91.6771 191.94 91.8786C191.032 92.08 190.47 92.9353 190.684 93.7889C190.899 94.6425 191.808 95.1712 192.716 94.9697Z" fill="#FFA000"/>
<path d="M192.716 101.722C193.624 101.52 194.186 100.665 193.972 99.8113C193.757 98.9578 192.848 98.4291 191.94 98.6306C191.033 98.832 190.471 99.6873 190.685 100.541C190.899 101.395 191.809 101.923 192.716 101.722Z" fill="#FFA000"/>
<path d="M197.598 93.6158C198.257 92.9957 198.257 91.9902 197.598 91.37C196.938 90.7498 195.869 90.7498 195.21 91.37C194.55 91.9902 194.55 92.9957 195.21 93.6158C195.869 94.236 196.938 94.236 197.598 93.6158Z" fill="#FFA000"/>
<path d="M197.264 95.9387C197.264 95.2522 196.672 94.6938 195.94 94.6938C195.208 94.6938 194.616 95.2506 194.616 95.9387C194.616 96.6267 195.208 97.1835 195.94 97.1835C196.672 97.1835 197.264 96.6267 197.264 95.9387Z" fill="#FFA000"/>
<path d="M187.736 104.067C187.736 103.38 187.144 102.822 186.413 102.822C185.681 102.822 185.089 103.379 185.089 104.067C185.089 104.755 185.681 105.312 186.413 105.312C187.144 105.312 187.736 104.755 187.736 104.067Z" fill="#FFA000"/>
<path d="M191.966 104.698C191.966 104.012 191.374 103.453 190.643 103.453C189.911 103.453 189.319 104.01 189.319 104.698C189.319 105.386 189.911 105.943 190.643 105.943C191.374 105.943 191.966 105.386 191.966 104.698Z" fill="#FFA000"/>
<path d="M197.726 100.812C197.726 100.125 197.134 99.567 196.402 99.567C195.671 99.567 195.079 100.124 195.079 100.812C195.079 101.5 195.671 102.057 196.402 102.057C197.134 102.057 197.726 101.5 197.726 100.812Z" fill="#FFA000"/>
<path d="M190.606 102.057C190.606 101.37 190.014 100.812 189.282 100.812C188.551 100.812 187.959 101.369 187.959 102.057C187.959 102.745 188.551 103.302 189.282 103.302C190.014 103.302 190.606 102.745 190.606 102.057Z" fill="#FFA000"/>
<path d="M199.049 97.9174C199.049 97.2309 198.457 96.6726 197.726 96.6726C196.994 96.6726 196.402 97.2294 196.402 97.9174C196.402 98.6055 196.994 99.1622 197.726 99.1622C198.457 99.1622 199.049 98.6055 199.049 97.9174Z" fill="#FFA000"/>
<path d="M202.393 97.5787C202.393 96.8923 201.801 96.3339 201.069 96.3339C200.338 96.3339 199.746 96.8907 199.746 97.5787C199.746 98.2668 200.338 98.8235 201.069 98.8235C201.801 98.8235 202.393 98.2668 202.393 97.5787Z" fill="#FFA000"/>
<path d="M189.632 106.503C189.632 105.816 189.04 105.258 188.308 105.258C187.577 105.258 186.985 105.815 186.985 106.503C186.985 107.191 187.577 107.748 188.308 107.748C189.04 107.748 189.632 107.191 189.632 106.503Z" fill="#FFA000"/>
<path d="M227.912 84.4226C226.366 85.204 225.276 86.7335 225.096 88.3753C224.871 87.4231 224.644 86.4709 224.419 85.5171C223.285 87.0277 223.166 89.1551 224.123 90.77L226.85 90.2749C227.611 88.4212 228.085 86.4029 227.91 84.421L227.912 84.4226Z" fill="#BAD734"/>
<path d="M224.418 87.6777C224.548 88.5651 224.677 89.4524 224.805 90.3397" stroke="black" stroke-width="2" stroke-linecap="round" stroke-linejoin="round"/>
<path d="M226.558 87.0278C226.39 87.8756 226.221 88.7249 226.055 89.5727" stroke="black" stroke-width="2" stroke-linecap="round" stroke-linejoin="round"/>
<path d="M220.616 92.7161C221.276 92.0959 221.276 91.0905 220.616 90.4703C219.957 89.8501 218.888 89.8501 218.229 90.4703C217.569 91.0905 217.569 92.0959 218.229 92.7161C218.888 93.3363 219.957 93.3363 220.616 92.7161Z" fill="#FFA000"/>
<path d="M224.31 90.0057C224.31 89.3193 223.718 88.7609 222.987 88.7609C222.255 88.7609 221.663 89.3177 221.663 90.0057C221.663 90.6938 222.255 91.2505 222.987 91.2505C223.718 91.2505 224.31 90.6938 224.31 90.0057Z" fill="#FFA000"/>
<path d="M202.684 100.825C201.816 100.515 200.737 100.898 200.3 101.667L203.875 102.943C204.092 102.095 203.552 101.135 202.684 100.825Z" fill="#BAD734"/>
<path d="M198.616 108.357L196.038 109.694C196.465 110.224 197.323 110.395 197.942 110.074C198.561 109.752 198.865 108.979 198.616 108.356V108.357Z" fill="#BAD734"/>
<path d="M214.966 91.9931C214.646 92.5372 214.779 93.2806 215.269 93.6966C215.758 94.1126 216.557 94.1632 217.102 93.8105L214.968 91.9931H214.966Z" fill="#BAD734"/>
<path d="M234.658 98.1873C234.589 97.5641 234.019 97.0216 233.356 96.9504L233.652 99.6472C234.285 99.4511 234.725 98.8105 234.658 98.1873Z" fill="#BAD734"/>
<path d="M232.302 98.2297L230.759 98.4496C230.732 98.8941 231.208 99.3006 231.674 99.2341C232.142 99.1677 232.466 98.6473 232.302 98.2297Z" fill="#BAD734"/>
<path d="M220.968 104.019C221.02 104.525 221.545 104.944 222.083 104.914C222.623 104.883 223.087 104.405 223.072 103.897L220.968 104.019Z" fill="#BAD734"/>
<path d="M211.392 111.376L209.085 112.198C209.32 112.758 210.07 113.071 210.671 112.858C211.27 112.644 211.613 111.942 211.392 111.376Z" fill="#BAD734"/>
<path d="M213.856 111.393C213.21 111.44 212.674 112.048 212.744 112.653L215.163 112.476C215.132 111.867 214.502 111.345 213.856 111.393Z" fill="#BAD734"/>
<path d="M220.719 102.263C221.223 100.071 220.347 97.6459 218.526 96.1971C216.705 94.7482 214.015 94.3402 211.801 95.1737C209.586 96.0073 207.941 98.0493 207.685 100.279C209.196 102.083 211.437 103.389 213.842 103.78C216.247 104.17 218.652 103.486 220.717 102.263H220.719Z" fill="#A92A23"/>
<path d="M211.928 95.7352C212.351 97.2331 212.774 98.7326 213.196 100.23" stroke="black" stroke-width="2" stroke-linecap="round" stroke-linejoin="round"/>
<path d="M214.007 95.721C214.295 97.0591 214.584 98.3988 214.872 99.737" stroke="black" stroke-width="2" stroke-linecap="round" stroke-linejoin="round"/>
<path d="M215.882 95.6041C216.244 96.8457 216.605 98.0873 216.968 99.329" stroke="black" stroke-width="2" stroke-linecap="round" stroke-linejoin="round"/>
<path d="M233.918 95.2002C233.842 92.9573 232.365 90.8062 230.223 89.8176C228.082 88.829 225.368 89.0473 223.435 90.3617C221.503 91.6761 220.435 94.0329 220.763 96.2552C222.694 97.6597 225.205 98.4142 227.64 98.2434C230.073 98.0725 232.229 96.8594 233.918 95.2002Z" fill="#A92A23"/>
<path d="M225.455 90.0942L224.281 93.4553" stroke="black" stroke-width="2" stroke-linecap="round" stroke-linejoin="round"/>
<path d="M227.396 90.0345C226.99 91.3157 226.585 92.5953 226.181 93.8764" stroke="black" stroke-width="2" stroke-linecap="round" stroke-linejoin="round"/>
<path d="M229.079 90.2244C228.869 91.4866 228.659 92.7504 228.449 94.0126" stroke="black" stroke-width="2" stroke-linecap="round" stroke-linejoin="round"/>
<path d="M207.03 95.986C207.689 95.3659 207.689 94.3604 207.03 93.7402C206.37 93.12 205.301 93.12 204.642 93.7402C203.982 94.3604 203.982 95.3658 204.642 95.986C205.301 96.6062 206.37 96.6062 207.03 95.986Z" fill="#FFA000"/>
<path d="M207.806 97.9178C207.806 97.2313 207.214 96.673 206.483 96.673C205.751 96.673 205.159 97.2297 205.159 97.9178C205.159 98.6058 205.751 99.1626 206.483 99.1626C207.214 99.1626 207.806 98.6058 207.806 97.9178Z" fill="#FFA000"/>
<path d="M209.298 91.2494C209.298 90.563 208.706 90.0046 207.974 90.0046C207.243 90.0046 206.651 90.5614 206.651 91.2494C206.651 91.9375 207.243 92.4942 207.974 92.4942C208.706 92.4942 209.298 91.9375 209.298 91.2494Z" fill="#FFA000"/>
<path d="M209.947 102.057C209.947 101.371 209.355 100.812 208.624 100.812C207.892 100.812 207.3 101.369 207.3 102.057C207.3 102.745 207.892 103.302 208.624 103.302C209.355 103.302 209.947 102.745 209.947 102.057Z" fill="#FFA000"/>
<path d="M211.96 105.01C212.868 104.809 213.43 103.954 213.216 103.1C213.001 102.247 212.092 101.718 211.184 101.919C210.277 102.121 209.715 102.976 209.929 103.83C210.143 104.683 211.052 105.212 211.96 105.01Z" fill="#FFA000"/>
<path d="M219.268 82.8722C217.278 83.304 215.504 84.5472 214.497 86.2175C214.64 85.5611 214.756 84.8699 214.899 84.2135C213.237 84.9316 211.888 86.265 211.204 87.8593C210.519 89.4537 210.509 91.2948 211.177 92.8955L214.74 91.3786C217.248 90.2619 219.017 87.804 219.189 85.2005C218.568 85.6244 217.949 86.0483 217.329 86.4722C218.035 85.2875 218.561 84.0569 219.268 82.8738V82.8722Z" fill="#BAD734"/>
<path d="M215.274 86.7792C213.75 89.1312 212.225 91.4832 210.701 93.8352" stroke="black" stroke-width="2" stroke-linecap="round" stroke-linejoin="round"/>
<path d="M243.676 100.795C241.764 100.674 239.759 101.761 238.873 103.358C238.945 101.96 239.019 100.515 239.093 99.1163C236.789 100.67 235.218 103.43 235.087 106.092C234.885 105.321 234.682 104.551 234.48 103.779C233.567 105.91 233.163 108.23 233.304 110.522C237.983 108.61 241.604 105.176 243.677 100.793L243.676 100.795Z" fill="#BAD734"/>
<path d="M234.386 106.204C234.401 107.289 234.418 108.374 234.433 109.459" stroke="black" stroke-width="2" stroke-linecap="round" stroke-linejoin="round"/>
<path d="M237.406 102.835C237.034 104.635 236.661 106.435 236.289 108.235" stroke="black" stroke-width="2" stroke-linecap="round" stroke-linejoin="round"/>
<path d="M230.611 111.49C230.535 109.248 229.059 107.096 226.916 106.108C224.775 105.119 222.061 105.338 220.128 106.652C218.196 107.966 217.128 110.323 217.456 112.545C219.387 113.95 221.898 114.704 224.333 114.534C226.766 114.363 228.922 113.15 230.611 111.49Z" fill="#A92A23"/>
<path d="M222.486 106.326C222.22 107.587 221.956 108.847 221.691 110.106" stroke="black" stroke-width="2" stroke-linecap="round" stroke-linejoin="round"/>
<path d="M224.716 106.568C224.463 107.751 224.21 108.934 223.956 110.119" stroke="black" stroke-width="2" stroke-linecap="round" stroke-linejoin="round"/>
<path d="M226.457 106.859C226.263 108.121 226.072 109.384 225.878 110.646" stroke="black" stroke-width="2" stroke-linecap="round" stroke-linejoin="round"/>
<path d="M198.22 102.44C198.535 102.618 198.851 102.795 199.165 102.972" stroke="black" stroke-width="2" stroke-linecap="round" stroke-linejoin="round"/>
<path d="M197.512 105.356C197.803 105.155 198.094 104.956 198.386 104.755" stroke="black" stroke-width="2" stroke-linecap="round" stroke-linejoin="round"/>
<path d="M196.355 106.966C196.501 107.064 196.649 107.164 196.796 107.263" stroke="black" stroke-width="2" stroke-linecap="round" stroke-linejoin="round"/>
<path d="M190.81 107.386V107.978" stroke="black" stroke-width="2" stroke-linecap="round" stroke-linejoin="round"/>
<path d="M199.935 111.235H200.628" stroke="black" stroke-width="2" stroke-linecap="round" stroke-linejoin="round"/>
<path d="M194.019 109.636C194.039 109.913 194.061 110.188 194.082 110.465" stroke="black" stroke-width="2" stroke-linecap="round" stroke-linejoin="round"/>
<path d="M204.797 104.774C205.299 104.628 205.8 104.484 206.301 104.339" stroke="black" stroke-width="2" stroke-linecap="round" stroke-linejoin="round"/>
<path d="M207.424 104.902V105.789" stroke="black" stroke-width="2" stroke-linecap="round" stroke-linejoin="round"/>
<path d="M201.32 103.717C201.466 103.974 201.614 104.23 201.76 104.486" stroke="black" stroke-width="2" stroke-linecap="round" stroke-linejoin="round"/>
<path d="M203.523 99.338C203.775 99.2793 204.026 99.219 204.278 99.1603" stroke="black" stroke-width="2" stroke-linecap="round" stroke-linejoin="round"/>
<path d="M205.726 100.343V100.935" stroke="black" stroke-width="2" stroke-linecap="round" stroke-linejoin="round"/>
<path d="M201.067 91.6992C201.361 91.5805 201.654 91.4635 201.948 91.3448" stroke="black" stroke-width="2" stroke-linecap="round" stroke-linejoin="round"/>
<path d="M203.447 91.4702C203.575 91.7659 203.701 92.0617 203.829 92.3559" stroke="black" stroke-width="2" stroke-linecap="round" stroke-linejoin="round"/>
<path d="M199.11 90.5101C199.276 90.3915 199.445 90.2713 199.611 90.1526" stroke="black" stroke-width="2" stroke-linecap="round" stroke-linejoin="round"/>
<path d="M212.463 93.5878C212.673 93.6656 212.883 93.7433 213.094 93.821" stroke="black" stroke-width="2" stroke-linecap="round" stroke-linejoin="round"/>
<path d="M209.375 95.016C209.271 95.2327 209.165 95.4494 209.061 95.6677" stroke="black" stroke-width="2" stroke-linecap="round" stroke-linejoin="round"/>
<path d="M218.5 94.9582C218.773 94.939 219.045 94.9182 219.318 94.899" stroke="black" stroke-width="2" stroke-linecap="round" stroke-linejoin="round"/>
<path d="M219.382 88.7431C219.676 88.9203 219.969 89.099 220.263 89.2761" stroke="black" stroke-width="2" stroke-linecap="round" stroke-linejoin="round"/>
<path d="M221.837 99.0425C222.173 98.9632 222.508 98.8839 222.844 98.8046" stroke="black" stroke-width="2" stroke-linecap="round" stroke-linejoin="round"/>
<path d="M221.945 100.269C222.062 100.568 222.178 100.867 222.296 101.166" stroke="black" stroke-width="2" stroke-linecap="round" stroke-linejoin="round"/>
<path d="M227.06 99.3983C227.417 99.2999 227.773 99.2 228.13 99.1016" stroke="black" stroke-width="2" stroke-linecap="round" stroke-linejoin="round"/>
<path d="M232.794 100.751L233.302 101.22" stroke="black" stroke-width="2" stroke-linecap="round" stroke-linejoin="round"/>
<path d="M234.99 100.639C235.2 100.52 235.409 100.402 235.619 100.283" stroke="black" stroke-width="2" stroke-linecap="round" stroke-linejoin="round"/>
<path d="M235.493 96.7925V97.5613" stroke="black" stroke-width="2" stroke-linecap="round" stroke-linejoin="round"/>
<path d="M231.838 108.148C232.131 108.008 232.425 107.869 232.718 107.73" stroke="black" stroke-width="2" stroke-linecap="round" stroke-linejoin="round"/>
<path d="M231.171 109.089C231.3 109.244 231.43 109.399 231.559 109.554" stroke="black" stroke-width="2" stroke-linecap="round" stroke-linejoin="round"/>
<path d="M227.311 103.896C227.249 104.113 227.185 104.329 227.123 104.548" stroke="black" stroke-width="2" stroke-linecap="round" stroke-linejoin="round"/>
<path d="M224.857 104.31C224.983 104.448 225.109 104.587 225.236 104.724" stroke="black" stroke-width="2" stroke-linecap="round" stroke-linejoin="round"/>
<path d="M210.194 109.745C210.446 109.766 210.697 109.786 210.949 109.807" stroke="black" stroke-width="2" stroke-linecap="round" stroke-linejoin="round"/>
<path d="M206.913 112.42C206.935 112.715 206.957 113.011 206.977 113.307" stroke="black" stroke-width="2" stroke-linecap="round" stroke-linejoin="round"/>
<path d="M203.27 113.059L204.152 113.062" stroke="black" stroke-width="2" stroke-linecap="round" stroke-linejoin="round"/>
<path d="M216.235 112.892C216.339 113.109 216.445 113.326 216.549 113.544" stroke="black" stroke-width="2" stroke-linecap="round" stroke-linejoin="round"/>
<path d="M212.522 113.661C212.207 113.741 211.893 113.82 211.578 113.899" stroke="black" stroke-width="2" stroke-linecap="round" stroke-linejoin="round"/>
<path d="M211.761 117.539C202.866 117.539 194.481 115.627 188.147 112.153C181.543 108.531 177.905 103.628 177.905 98.3434C177.905 93.0589 181.543 88.1557 188.147 84.5335C194.481 81.0601 202.866 79.1478 211.761 79.1478C220.655 79.1478 229.041 81.0601 235.374 84.5335C241.978 88.1557 245.616 93.0589 245.616 98.3434C245.616 103.628 241.978 108.531 235.374 112.153C229.041 115.627 220.655 117.539 211.761 117.539ZM211.761 82.1689C203.426 82.1689 195.614 83.9357 189.765 87.1434C184.187 90.2024 181.116 94.1804 181.116 98.345C181.116 102.51 184.188 106.488 189.765 109.547C195.614 112.754 203.426 114.521 211.761 114.521C220.095 114.521 227.907 112.754 233.756 109.547C239.335 106.488 242.405 102.51 242.405 98.345C242.405 94.1804 239.335 90.2024 233.756 87.1434C227.907 83.9357 220.095 82.1689 211.761 82.1689Z" fill="white"/>
<path d="M180.021 116.693C177.405 120.952 178.958 126.4 183.487 128.858C188.016 131.317 193.808 129.857 196.421 125.598L180.021 116.691V116.693Z" fill="#FF4E00"/>
<path d="M186.223 121.463L180.71 122.344C180.348 122.401 180.005 122.161 179.973 121.819C179.867 120.68 180.027 119.51 180.476 118.395C180.605 118.072 181.007 117.928 181.339 118.075L186.389 120.331C186.638 120.441 186.783 120.691 186.744 120.948V120.955C186.705 121.215 186.495 121.42 186.223 121.465V121.463Z" fill="#F7E2DA"/>
<path d="M186.941 122.531L183.153 126.632C182.953 126.849 182.597 126.864 182.38 126.662C181.53 125.87 180.891 124.925 180.479 123.904C180.372 123.635 180.533 123.336 180.826 123.252L186.352 121.676C186.587 121.608 186.831 121.71 186.966 121.904L186.971 121.912C187.105 122.105 187.102 122.355 186.941 122.531Z" fill="#F7E2DA"/>
<path d="M188.646 128.921C187.356 128.984 186.038 128.766 184.8 128.236C184.405 128.067 184.247 127.619 184.462 127.266C185.183 126.085 186.549 123.851 187.168 122.85C187.323 122.6 187.629 122.466 187.93 122.523H187.94C188.246 122.58 188.483 122.806 188.53 123.095L189.334 128.133C189.398 128.535 189.078 128.9 188.648 128.922L188.646 128.921Z" fill="#F7E2DA"/>
<path d="M194.48 126.24C193.612 127.184 192.536 127.896 191.354 128.351C190.969 128.5 190.531 128.307 190.41 127.932L188.825 123.015C188.737 122.743 188.845 122.45 189.09 122.286L189.099 122.281C189.341 122.116 189.669 122.116 189.913 122.281L194.361 125.266C194.701 125.493 194.753 125.946 194.48 126.243V126.24Z" fill="#F7E2DA"/>
<path d="M230.484 130.077C230.439 128.678 230.551 127.282 230.684 125.888C230.9 123.62 229.526 121.395 227.159 120.515C224.793 119.636 222.171 120.374 220.68 122.166C219.763 123.269 218.831 124.36 217.78 125.35C216.309 126.738 214.506 128.615 213.939 129.964C212.193 134.118 214.356 138.816 218.772 140.459C223.189 142.101 228.184 140.067 229.931 135.913C230.498 134.564 230.55 132.035 230.484 130.075V130.077Z" fill="#27AE60"/>
<path d="M221.236 140.079C222.871 140.233 224.558 139.869 225.958 139.061C227.359 138.252 228.468 137.005 229.063 135.564" stroke="black" stroke-width="2" stroke-linecap="round" stroke-linejoin="round"/>
<path d="M225.714 134.614C227.365 132.891 227.219 130.236 225.387 128.683C223.555 127.13 220.732 127.268 219.081 128.991C217.43 130.714 217.576 133.369 219.408 134.922C221.24 136.475 224.063 136.337 225.714 134.614Z" fill="#A92A23"/>
<path d="M219.225 131.267C219.361 130.451 219.873 129.696 220.601 129.234C221.331 128.774 222.266 128.613 223.122 128.804" stroke="white" stroke-width="2" stroke-linecap="round" stroke-linejoin="round"/>
<path d="M0 0.909729H129.338V93.0125C129.338 113.809 111.387 130.692 89.2758 130.692H0V0.909729Z" fill="#27AE60"/>
<path d="M64.0107 105.41C71.0606 106.573 78.4805 106.677 85.2109 104.387C91.9412 102.096 97.8896 97.1282 99.8572 90.6559C101.825 84.1835 97.2539 78.5242 93.2967 72.9139C88.0883 65.5273 86.2048 56.1984 83.9344 47.5971C82.3149 41.4632 78.5747 35.8418 73.4151 31.7911C68.2571 27.7403 60.696 25.3061 53.9925 24.86C42.6373 24.104 31.0164 28.4568 23.3224 36.348C15.6284 44.2391 12.0211 55.5024 13.8004 66.0777C15.6183 76.8745 22.4967 86.6083 31.6656 93.3242C40.8345 100.042 52.5613 103.525 64.009 105.412L64.0107 105.41Z" fill="#FF0000"/>
<path d="M56.4366 33.0329C56.9093 33.0329 57.2926 32.6725 57.2926 32.2278C57.2926 31.7832 56.9093 31.4227 56.4366 31.4227C55.9638 31.4227 55.5806 31.7832 55.5806 32.2278C55.5806 32.6725 55.9638 33.0329 56.4366 33.0329Z" fill="#FFBE00"/>
<path d="M35.1119 41.305C35.1119 40.8606 34.7285 40.4999 34.2559 40.4999C33.7833 40.4999 33.3999 40.8606 33.3999 41.305C33.3999 41.7495 33.7833 42.1101 34.2559 42.1101C34.7285 42.1101 35.1119 41.7495 35.1119 41.305Z" fill="#FF9A7D"/>
<path d="M25.0987 70.5208C25.0987 70.0764 24.7153 69.7158 24.2427 69.7158C23.7702 69.7158 23.3867 70.0764 23.3867 70.5208C23.3867 70.9653 23.7702 71.3259 24.2427 71.3259C24.7153 71.3259 25.0987 70.9653 25.0987 70.5208Z" fill="#FF9A7D"/>
<path d="M78.6593 100.501C78.6593 100.056 78.2758 99.6956 77.8033 99.6956C77.3307 99.6956 76.9473 100.056 76.9473 100.501C76.9473 100.945 77.3307 101.306 77.8033 101.306C78.2758 101.306 78.6593 100.945 78.6593 100.501Z" fill="#FF6400"/>
<path d="M106.827 81.8857C106.827 81.4412 106.443 81.0806 105.971 81.0806C105.498 81.0806 105.115 81.4412 105.115 81.8857C105.115 82.3301 105.498 82.6907 105.971 82.6907C106.443 82.6907 106.827 82.3301 106.827 81.8857Z" fill="#FF6400"/>
<path d="M113.244 65.3599C113.717 65.3599 114.1 64.9995 114.1 64.5548C114.1 64.1102 113.717 63.7498 113.244 63.7498C112.771 63.7498 112.388 64.1102 112.388 64.5548C112.388 64.9995 112.771 65.3599 113.244 65.3599Z" fill="#FF6400"/>
<path d="M52.6002 35.2725C52.6002 34.828 52.2168 34.4674 51.7442 34.4674C51.2716 34.4674 50.8882 34.828 50.8882 35.2725C50.8882 35.717 51.2716 36.0776 51.7442 36.0776C52.2168 36.0776 52.6002 35.717 52.6002 35.2725Z" fill="#FF6400"/>
<path d="M72.4096 36.0447C72.6957 36.0447 72.9276 35.8266 72.9276 35.5575C72.9276 35.2885 72.6957 35.0704 72.4096 35.0704C72.1235 35.0704 71.8916 35.2885 71.8916 35.5575C71.8916 35.8266 72.1235 36.0447 72.4096 36.0447Z" fill="#FFBE00"/>
<path d="M41.8201 40.8163C41.8201 40.5474 41.5881 40.3292 41.3022 40.3292C41.0163 40.3292 40.7842 40.5474 40.7842 40.8163C40.7842 41.0852 41.0163 41.3035 41.3022 41.3035C41.5881 41.3035 41.8201 41.0852 41.8201 40.8163Z" fill="white"/>
<path d="M31.0321 48.5575C31.0321 48.2886 30.8 48.0703 30.5141 48.0703C30.2282 48.0703 29.9961 48.2886 29.9961 48.5575C29.9961 48.8264 30.2282 49.0446 30.5141 49.0446C30.8 49.0446 31.0321 48.8264 31.0321 48.5575Z" fill="white"/>
<path d="M21.4442 44.138C21.4442 43.8691 21.2121 43.6508 20.9262 43.6508C20.6403 43.6508 20.4082 43.8691 20.4082 44.138C20.4082 44.4069 20.6403 44.6252 20.9262 44.6252C21.2121 44.6252 21.4442 44.4069 21.4442 44.138Z" fill="white"/>
<path d="M27.4061 51.7744C27.4061 51.5055 27.174 51.2872 26.8881 51.2872C26.6022 51.2872 26.3701 51.5055 26.3701 51.7744C26.3701 52.0433 26.6022 52.2616 26.8881 52.2616C27.174 52.2616 27.4061 52.0433 27.4061 51.7744Z" fill="#FFBE00"/>
<path d="M20.0585 66.3245C20.3446 66.3245 20.5765 66.1064 20.5765 65.8373C20.5765 65.5683 20.3446 65.3502 20.0585 65.3502C19.7724 65.3502 19.5405 65.5683 19.5405 65.8373C19.5405 66.1064 19.7724 66.3245 20.0585 66.3245Z" fill="#FF6400"/>
<path d="M84.3065 96.7093C84.3065 96.4404 84.0744 96.2222 83.7885 96.2222C83.5026 96.2222 83.2705 96.4404 83.2705 96.7093C83.2705 96.9782 83.5026 97.1965 83.7885 97.1965C84.0744 97.1965 84.3065 96.9782 84.3065 96.7093Z" fill="#FF9A7D"/>
<path d="M84.5604 102.268C84.5604 101.999 84.3283 101.78 84.0424 101.78C83.7565 101.78 83.5244 101.999 83.5244 102.268C83.5244 102.537 83.7565 102.755 84.0424 102.755C84.3283 102.755 84.5604 102.537 84.5604 102.268Z" fill="#FFBE00"/>
<path d="M111.475 78.3297C111.475 78.0608 111.243 77.8425 110.957 77.8425C110.671 77.8425 110.439 78.0608 110.439 78.3297C110.439 78.5986 110.671 78.8169 110.957 78.8169C111.243 78.8169 111.475 78.5986 111.475 78.3297Z" fill="#FFBE00"/>
<path d="M103.966 68.2257C103.966 67.9568 103.734 67.7385 103.448 67.7385C103.162 67.7385 102.93 67.9568 102.93 68.2257C102.93 68.4946 103.162 68.7129 103.448 68.7129C103.734 68.7129 103.966 68.4946 103.966 68.2257Z" fill="#FF9A7D"/>
<path d="M113.446 55.525C113.732 55.525 113.964 55.3069 113.964 55.0378C113.964 54.7688 113.732 54.5507 113.446 54.5507C113.16 54.5507 112.928 54.7688 112.928 55.0378C112.928 55.3069 113.16 55.525 113.446 55.525Z" fill="white"/>
<path d="M96.8655 46.9189C96.8655 46.65 96.6335 46.4317 96.3476 46.4317C96.0617 46.4317 95.8296 46.65 95.8296 46.9189C95.8296 47.1878 96.0617 47.406 96.3476 47.406C96.6335 47.406 96.8655 47.1878 96.8655 46.9189Z" fill="#FFBE00"/>
<path d="M92.0257 43.8865C92.0257 43.6176 91.7936 43.3993 91.5077 43.3993C91.2218 43.3993 90.9897 43.6176 90.9897 43.8865C90.9897 44.1554 91.2218 44.3736 91.5077 44.3736C91.7936 44.3736 92.0257 44.1554 92.0257 43.8865Z" fill="#FF9A7D"/>
<path d="M105.898 66.3248C105.898 66.0559 105.666 65.8376 105.38 65.8376C105.094 65.8376 104.862 66.0559 104.862 66.3248C104.862 66.5937 105.094 66.812 105.38 66.812C105.666 66.812 105.898 66.5937 105.898 66.3248Z" fill="white"/>
<path d="M64.8364 39.5576L65.6302 36.8655L62.7544 37.5662L64.8364 39.5576Z" fill="white"/>
<path d="M93.2077 102.823L95.5857 101.149L92.8545 100.048L93.2077 102.823Z" fill="#FFBE00"/>
<path d="M22.9776 38.0946L21.3379 35.7663L20.0127 38.267L22.9776 38.0946Z" fill="#FF6400"/>
<path d="M13.4926 71.9099L15.8891 70.2601L13.1714 69.1324L13.4926 71.9099Z" fill="#FF9A7D"/>
<path d="M37.1841 103.606C39.7891 106.955 44.7856 107.683 48.3442 105.234C51.9044 102.784 52.6781 98.0847 50.0747 94.7379L37.1841 103.608V103.606Z" fill="#FA101D"/>
<path d="M38.0437 103.015C40.3006 105.916 44.6311 106.547 47.7154 104.424C50.7998 102.301 51.4708 98.2284 49.2139 95.3276L38.042 103.015H38.0437Z" fill="#FF6400"/>
<path d="M41.7549 100.462C42.5117 101.436 43.9647 101.647 45.0007 100.935C46.0366 100.223 46.262 98.8567 45.5035 97.8824L41.7549 100.462Z" fill="#FA101D"/>
<path d="M41.4813 102.333C41.6646 101.964 41.3131 101.541 40.8893 101.621C40.6102 101.673 40.3461 101.795 40.1359 101.977C39.9257 102.159 39.7743 102.398 39.6953 102.656C39.5725 103.056 40.0115 103.416 40.4218 103.263C40.6505 103.178 40.8641 103.056 41.0373 102.912C41.219 102.76 41.3703 102.556 41.4796 102.333H41.4813Z" fill="#FF8200"/>
<path d="M42.9407 102.746C42.9239 102.392 42.4715 102.211 42.1923 102.448C41.9838 102.624 41.8156 102.844 41.7063 103.086C41.5936 103.337 41.5466 103.613 41.5634 103.883C41.5836 104.209 41.9956 104.386 42.2731 104.19C42.5119 104.022 42.707 103.804 42.8079 103.548C42.9037 103.304 42.9559 103.019 42.9424 102.744L42.9407 102.746Z" fill="#FF8200"/>
<path d="M44.7894 102.925C44.6044 102.616 44.1537 102.594 43.9417 102.887C43.7668 103.127 43.6626 103.413 43.6575 103.706C43.6508 104.016 43.7551 104.324 43.9401 104.581C44.1335 104.848 44.5623 104.834 44.749 104.562C44.9172 104.318 45.0282 104.038 45.0382 103.757C45.0483 103.48 44.9474 103.186 44.791 102.925H44.7894Z" fill="#FF8200"/>
<path d="M47.2593 103.497C47.2425 103.855 46.8305 104.084 46.4891 103.928C46.2536 103.82 46.0468 103.656 45.9022 103.45C45.7508 103.235 45.6684 102.979 45.66 102.721C45.6465 102.346 46.0569 102.083 46.4218 102.232C46.6674 102.332 46.8927 102.487 47.0525 102.672C47.2307 102.877 47.2745 103.187 47.2593 103.496V103.497Z" fill="#FF8200"/>
<path d="M48.9075 101.52C49.005 101.862 48.7225 102.2 48.3475 102.207C48.0616 102.213 47.774 102.145 47.5285 102.008C47.2997 101.879 47.1114 101.69 46.9819 101.471C46.7666 101.109 47.029 100.666 47.4696 100.639C47.7959 100.62 48.1288 100.668 48.3929 100.802C48.6855 100.951 48.8217 101.22 48.9075 101.519V101.52Z" fill="#FF8200"/>
<path d="M49.2993 98.9231C49.6542 99.075 49.6996 99.5463 49.3615 99.7282C49.0874 99.8769 48.7729 99.9655 48.4568 99.9734C48.1271 99.9829 47.7975 99.9086 47.5066 99.7662C47.1685 99.6017 47.1601 99.1288 47.4998 98.9674C47.7639 98.8409 48.0632 98.7697 48.3592 98.7428C48.6619 98.7144 48.9949 98.7903 49.301 98.9216L49.2993 98.9231Z" fill="#FF8200"/>
<path d="M48.3324 96.7372C48.6822 96.6454 48.9933 96.9586 48.8773 97.2813C48.7814 97.5486 48.6099 97.7937 48.3795 97.9756C48.1356 98.1686 47.8295 98.2872 47.5117 98.322C47.1737 98.36 46.9332 98.0183 47.0744 97.7257C47.1888 97.4916 47.3486 97.2813 47.5689 97.1057C47.7892 96.9301 48.0532 96.8083 48.3324 96.734V96.7372Z" fill="#FF8200"/>
<path d="M58.0024 98.0613C55.0643 101.155 55.3486 105.903 58.6381 108.667C61.9276 111.43 66.9762 111.163 69.9142 108.069L58.0024 98.0613Z" fill="#FA101D"/>
<path d="M58.7974 98.7288C56.2512 101.41 56.4968 105.525 59.3473 107.92C62.1979 110.315 66.5738 110.084 69.12 107.403L58.7974 98.7288Z" fill="#FF6400"/>
<path d="M62.2271 101.611C61.3728 102.511 61.4552 103.891 62.4121 104.695C63.369 105.498 64.8372 105.421 65.6915 104.521L62.2271 101.611Z" fill="#FA101D"/>
<path d="M60.224 101.748C60.6462 101.84 61.0128 101.429 60.8396 101.055C60.7269 100.81 60.5453 100.592 60.3132 100.437C60.0794 100.282 59.8002 100.193 59.516 100.174C59.0737 100.144 58.7912 100.624 59.0367 100.97C59.173 101.163 59.3445 101.334 59.5312 101.464C59.7262 101.598 59.9701 101.694 60.2257 101.75L60.224 101.748Z" fill="#FF8200"/>
<path d="M60.0982 103.178C60.4631 103.088 60.5556 102.635 60.2512 102.427C60.0242 102.272 59.7618 102.162 59.486 102.113C59.2018 102.063 58.9058 102.075 58.6267 102.148C58.292 102.234 58.1928 102.65 58.4551 102.865C58.6805 103.048 58.9462 103.183 59.2338 103.222C59.5062 103.26 59.814 103.247 60.0982 103.178Z" fill="#FF8200"/>
<path d="M60.298 104.913C60.5805 104.679 60.5082 104.26 60.1601 104.126C59.8742 104.015 59.553 103.98 59.2486 104.034C58.9257 104.093 58.6263 104.252 58.3976 104.475C58.1588 104.709 58.2648 105.1 58.586 105.216C58.8752 105.32 59.1881 105.363 59.4824 105.314C59.7733 105.265 60.0575 105.111 60.2963 104.913H60.298Z" fill="#FF8200"/>
<path d="M60.217 107.306C59.8419 107.365 59.5174 107.034 59.6082 106.688C59.6704 106.449 59.7982 106.224 59.9815 106.049C60.1732 105.864 60.4221 105.736 60.6879 105.674C61.0747 105.584 61.4346 105.905 61.3555 106.273C61.3017 106.52 61.189 106.759 61.0293 106.946C60.8527 107.153 60.5399 107.257 60.2153 107.308L60.217 107.306Z" fill="#FF8200"/>
<path d="M62.619 108.41C62.2843 108.572 61.874 108.382 61.7882 108.037C61.7226 107.774 61.7327 107.496 61.8252 107.241C61.911 107.004 62.0674 106.792 62.2692 106.628C62.6022 106.354 63.1168 106.504 63.2362 106.903C63.3236 107.199 63.3438 107.515 63.2597 107.787C63.1655 108.088 62.915 108.269 62.6207 108.41H62.619Z" fill="#FF8200"/>
<path d="M65.3986 108.228C65.3145 108.586 64.8352 108.727 64.5745 108.455C64.3626 108.233 64.2062 107.963 64.1306 107.673C64.0515 107.373 64.0599 107.053 64.1474 106.756C64.2483 106.411 64.7377 106.305 64.9765 106.583C65.1632 106.8 65.2994 107.059 65.3885 107.327C65.481 107.6 65.4709 107.922 65.3986 108.23V108.228Z" fill="#FF8200"/>
<path d="M67.4707 106.884C67.6389 107.186 67.3782 107.537 67.0183 107.498C66.719 107.466 66.4297 107.358 66.1926 107.184C65.942 106.999 65.7536 106.743 65.6511 106.458C65.5417 106.155 65.8461 105.862 66.1791 105.932C66.4465 105.987 66.6988 106.091 66.9258 106.258C67.1546 106.424 67.3362 106.64 67.4707 106.884Z" fill="#FF8200"/>
<path d="M101.011 74.203C101.011 82.9783 87.5047 89.3573 82.4275 91.0324C77.6362 92.6125 71.2859 93.484 64.5454 93.484C57.805 93.484 51.4496 92.6125 46.66 91.0324C41.5828 89.3573 28.0767 81.4709 28.0767 74.6269C28.0767 74.426 28.1826 73.7838 28.3659 72.8427C28.6602 71.3069 29.153 68.9755 29.7012 66.4479C31.0113 60.4058 32.6393 53.2612 32.6393 53.2612L40.6545 48.2535L62.9158 44.5175L88.9106 48.5366L96.3272 52.88C96.3272 52.88 98.0493 60.2666 99.4065 66.3546C99.9883 68.966 100.503 71.3385 100.784 72.789C100.928 73.5339 101.013 74.0369 101.013 74.2046L101.011 74.203Z" fill="#A92A23"/>
<path d="M100.782 72.7872C98.7676 74.5982 95.6614 76.2274 91.5798 77.5734C84.3382 79.9618 74.7371 81.2778 64.544 81.2778C54.3509 81.2778 44.7464 79.9618 37.5048 77.5734C33.4652 76.2416 30.3792 74.633 28.3628 72.8425C28.6571 71.3067 29.1499 68.9753 29.6981 66.4477C30.2346 68.7633 33.6923 71.0821 39.3715 72.8947C46.0767 75.0348 55.0152 76.2131 64.544 76.2131C74.0728 76.2131 83.0079 75.0364 89.7131 72.8947C95.4663 71.0584 98.9408 68.6985 99.405 66.3528C99.9869 68.9642 100.502 71.3367 100.782 72.7872Z" fill="#952116"/>
<path d="M52.5244 91.1241C62.8335 93.106 73.7817 92.9842 83.625 89.4871" stroke="black" stroke-width="2" stroke-linecap="round" stroke-linejoin="round"/>
<path d="M64.8826 64.7419C56.7581 64.7419 34.2731 58.9655 35.7345 57.6748C37.3406 56.256 39.7909 54.9812 42.9946 53.9246C48.7664 52.0202 56.4201 50.9731 64.5446 50.9731C72.6691 50.9731 80.3228 52.0218 86.0946 53.9246C89.3403 54.9954 91.8125 56.2893 93.4169 57.7318C94.838 59.0082 73.0072 64.7419 64.8843 64.7419H64.8826Z" fill="#FFA000"/>
<path d="M53.8911 61.77C54.2409 61.7906 54.589 61.8112 54.9388 61.8318" stroke="black" stroke-width="2" stroke-linecap="round" stroke-linejoin="round"/>
<path d="M57.5454 60.4157L57.6028 61.2777" stroke="black" stroke-width="2" stroke-linecap="round" stroke-linejoin="round"/>
<path d="M60.3052 61.8316L61.025 61.8935" stroke="black" stroke-width="2" stroke-linecap="round" stroke-linejoin="round"/>
<path d="M73.8555 61.4015C74.2053 61.3396 74.5534 61.2777 74.9032 61.2159" stroke="black" stroke-width="2" stroke-linecap="round" stroke-linejoin="round"/>
<path d="M75.4263 60.4774C75.7105 60.6624 75.993 60.8475 76.2772 61.031" stroke="black" stroke-width="2" stroke-linecap="round" stroke-linejoin="round"/>
<path d="M80.9792 60.3462C80.8934 60.4493 80.806 60.5524 80.7202 60.6571" stroke="black" stroke-width="2" stroke-linecap="round" stroke-linejoin="round"/>
<path d="M86.9478 57.8304L87.9955 57.5829" stroke="black" stroke-width="2" stroke-linecap="round" stroke-linejoin="round"/>
<path d="M90.1548 57.1528C90.0236 57.3995 89.8924 57.6447 89.7612 57.8914" stroke="black" stroke-width="2" stroke-linecap="round" stroke-linejoin="round"/>
<path d="M60.1084 52.0422H60.8938" stroke="black" stroke-width="2" stroke-linecap="round" stroke-linejoin="round"/>
<path d="M56.0508 51.7971L55.854 52.1672" stroke="black" stroke-width="2" stroke-linecap="round" stroke-linejoin="round"/>
<path d="M45.9043 55.7373C46.1885 55.696 46.471 55.6548 46.7553 55.6135" stroke="black" stroke-width="2" stroke-linecap="round" stroke-linejoin="round"/>
<path d="M44.672 54.2613C44.6501 54.4052 44.6264 54.5492 44.6045 54.6915" stroke="black" stroke-width="2" stroke-linecap="round" stroke-linejoin="round"/>
<path d="M46.3623 56.7211H46.9509" stroke="black" stroke-width="2" stroke-linecap="round" stroke-linejoin="round"/>
<path d="M38.9 56.4759L38.6377 56.7852" stroke="black" stroke-width="2" stroke-linecap="round" stroke-linejoin="round"/>
<path d="M79.6755 57.6152C80.1901 55.2838 78.6563 52.7072 76.275 51.9005C73.8936 51.0938 71.1809 52.3576 69.997 54.4613C68.8097 53.8096 67.249 53.8096 66.0617 54.4613C64.8744 55.1145 64.1075 56.3925 64.1294 57.6864C69.0384 58.5389 74.8068 58.6417 79.6771 57.6136L79.6755 57.6152Z" fill="#FF4600"/>
<path d="M66.3105 55.3533C66.7865 55.7488 67.2607 56.1426 67.7367 56.538" stroke="black" stroke-width="2" stroke-linecap="round" stroke-linejoin="round"/>
<path d="M67.2456 54.9642C67.5904 55.2568 67.9334 55.5495 68.2782 55.8421" stroke="black" stroke-width="2" stroke-linecap="round" stroke-linejoin="round"/>
<path d="M74.6215 52.5157C74.339 53.5833 74.0565 54.651 73.7739 55.7171" stroke="black" stroke-width="2" stroke-linecap="round" stroke-linejoin="round"/>
<path d="M76.0329 53.2023C75.7908 54.0644 75.5503 54.9248 75.3081 55.7868" stroke="black" stroke-width="2" stroke-linecap="round" stroke-linejoin="round"/>
<path d="M79.4468 58.8035C79.2181 57.8292 78.1939 57.2139 77.1579 57.429C76.122 57.6441 75.4678 58.6074 75.6965 59.5817C75.9252 60.556 76.9494 61.1713 77.9853 60.9562C79.0213 60.7411 79.6755 59.7778 79.4468 58.8035ZM76.7459 59.229C76.6164 58.6801 76.9864 58.136 77.5699 58.0142C78.1535 57.8924 78.732 58.2404 78.8615 58.7893C78.991 59.3381 78.621 59.8822 78.0375 60.004C77.4539 60.1258 76.8754 59.7778 76.7459 59.229Z" fill="#95BA29"/>
<path d="M82.37 58.824C83.0629 58.3273 83.1974 57.3957 82.6694 56.744C82.1413 56.0924 81.1507 55.9658 80.4579 56.4625C79.765 56.9592 79.6304 57.8908 80.1585 58.5424C80.6866 59.1941 81.6771 59.3206 82.37 58.824ZM81.1003 57.0762C81.4921 56.7962 82.0505 56.8674 82.3481 57.2344C82.6458 57.6029 82.5701 58.128 82.18 58.408C81.7898 58.688 81.2298 58.6168 80.9321 58.2498C80.6344 57.8813 80.7101 57.3562 81.1003 57.0762Z" fill="#95BA29"/>
<path d="M71.8899 60.0309C71.7588 59.3729 70.9868 58.8937 70.2906 59.0408C69.596 59.1863 69.1134 59.9297 69.2916 60.5766C70.2654 60.7791 71.0676 60.5608 71.8883 60.0309H71.8899Z" fill="#FFBE00"/>
<path d="M68.8664 60.3851C68.8899 59.9232 68.5469 59.4677 68.076 59.3348C67.6051 59.202 66.9862 59.3048 66.7373 59.7018C66.2815 58.8904 65.2305 58.4174 64.2719 58.5914C63.3133 58.7654 62.5262 59.5737 62.4253 60.4863C64.5342 61.1601 66.8802 61.3294 68.8664 60.3835V60.3851Z" fill="#FFBE00"/>
<path d="M49.2147 56.3055C50.1262 56.8148 51.3051 56.5317 51.8467 55.6744C52.3882 54.8171 52.0872 53.7083 51.1757 53.199C50.2641 52.6897 49.0852 52.9728 48.5437 53.8301C48.0022 54.6874 48.3032 55.7962 49.2147 56.3055ZM50.7317 54.1623C51.2463 54.4502 51.4161 55.0749 51.1101 55.5589C50.804 56.0429 50.1397 56.2027 49.6251 55.9148C49.1105 55.6269 48.9406 55.0022 49.2467 54.5182C49.5528 54.0342 50.2171 53.8744 50.7317 54.1623Z" fill="#BAD734"/>
<path d="M47.7587 54.1277C48.4516 53.631 48.5861 52.6994 48.058 52.0477C47.53 51.3961 46.5394 51.2695 45.8465 51.7662C45.1536 52.2629 45.0191 53.1945 45.5472 53.8462C46.0752 54.4978 47.0658 54.6244 47.7587 54.1277ZM46.489 52.3799C46.8808 52.0999 47.4391 52.1711 47.7368 52.5381C48.0345 52.9066 47.9588 53.4317 47.5686 53.7117C47.1785 53.9917 46.6185 53.9205 46.3208 53.5535C46.0231 53.1866 46.0988 52.6599 46.489 52.3799Z" fill="#BAD734"/>
<path d="M54.6891 52.5288C53.6279 52.5288 52.7686 53.3371 52.7686 54.3351C52.7686 55.3332 53.6279 56.1414 54.6891 56.1414C55.7503 56.1414 56.6097 55.3332 56.6097 54.3351C56.6097 53.3371 55.7503 52.5288 54.6891 52.5288ZM54.5495 55.1007C53.9508 55.1007 53.4665 54.6451 53.4665 54.082C53.4665 53.519 53.9508 53.0634 54.5495 53.0634C55.1482 53.0634 55.6326 53.519 55.6326 54.082C55.6326 54.6451 55.1482 55.1007 54.5495 55.1007Z" fill="#BAD734"/>
<path d="M50.9468 58.561C50.9989 57.7891 50.528 57.0078 49.7982 56.6535C49.0683 56.2992 48.1181 56.3893 47.479 56.8765C46.84 57.3621 46.5473 58.2162 46.7643 58.9628C48.1702 59.5448 49.6098 59.2696 50.9485 58.561H50.9468Z" fill="#FFBE00"/>
<path d="M54.9609 57.7642C54.8448 57.1806 54.2495 56.7156 53.6188 56.7156C52.9882 56.7156 52.3912 57.1774 52.2734 57.7611C53.0319 58.1486 54.1705 58.0901 54.9609 57.7642Z" fill="#FFBE00"/>
<path d="M56.1993 60.2299C56.1068 59.4279 55.4273 58.7178 54.5898 58.5485C53.7523 58.3793 52.8206 58.7636 52.3867 59.458C53.3773 60.29 54.9749 60.7155 56.2009 60.2299H56.1993Z" fill="#FFBE00"/>
<path d="M59.4933 53.6611C59.6329 52.9477 58.967 52.1948 58.195 52.1948C57.4248 52.1948 56.7571 52.9477 56.8984 53.6611C57.7309 54.028 58.6525 54.0106 59.4933 53.6611Z" fill="#FFBE00"/>
<path d="M64.1555 55.9119C64.1639 55.3077 63.5821 54.7525 62.9396 54.7525C62.2972 54.7525 61.7153 55.3077 61.7237 55.9119C62.4233 56.2156 63.4711 56.2425 64.1555 55.9119Z" fill="#FFBE00"/>
<path d="M60.8563 56.9237C61.719 57.0392 61.9713 58.1195 61.2363 58.5592C60.6797 58.8929 60.044 59.1096 59.3864 59.1729C57.9082 59.3137 56.3727 58.6731 55.4948 57.5469C55.1064 57.0487 54.8524 56.465 54.7414 55.8576C54.5884 55.0304 55.6529 54.4974 56.3206 55.0557C56.9243 55.5603 57.6239 55.9683 58.3673 56.2499C59.1358 56.5409 59.9969 56.8098 60.8579 56.9253L60.8563 56.9237Z" fill="white"/>
<path d="M56.709 57.2734C57.1731 57.9519 57.9518 58.4344 58.7994 58.5656" stroke="black" stroke-width="2" stroke-linecap="round" stroke-linejoin="round"/>
<path d="M62.0507 52.0342C62.5401 51.5044 63.4853 51.8349 63.4786 52.5372C63.4752 53.0687 63.3457 53.6001 63.0884 54.0746C62.5099 55.1407 61.3057 55.8825 60.0343 55.9537C59.4726 55.9853 58.9076 55.8857 58.3913 55.6785C57.6866 55.3969 57.7741 54.4289 58.5107 54.236C59.1783 54.062 59.814 53.7773 60.3757 53.404C60.9559 53.018 61.563 52.5609 62.0507 52.0326V52.0342Z" fill="white"/>
<path d="M60.4985 55.174C61.4925 54.8165 62.3216 54.0747 62.7504 53.1605" stroke="black" stroke-width="2" stroke-linecap="round" stroke-linejoin="round"/>
<path d="M84.0265 59.5754C83.7188 59.0297 83.0646 58.6738 82.4087 58.696C81.7528 58.7181 81.1255 59.1136 80.8564 59.6766C82.0942 59.9629 82.856 60.0483 84.0265 59.5754Z" fill="#FFBE00"/>
<path d="M86.2853 58.9727C86.2399 58.4871 85.7757 58.0664 85.2577 58.0427C84.7398 58.019 84.2336 58.3938 84.1377 58.8715C84.6658 59.2954 85.7084 59.3365 86.2836 58.9727H86.2853Z" fill="#FFBE00"/>
<path d="M89.2762 56.8542C88.9365 55.8783 87.8551 55.176 86.7637 55.2251C85.6722 55.2741 84.6665 56.0681 84.4277 57.0709C86.0489 57.479 87.7542 57.5201 89.2745 56.8527L89.2762 56.8542Z" fill="#FF4600"/>
<path d="M86.243 55.6773C86.1974 55.9842 86.1518 56.2926 86.1079 56.5994" stroke="black" stroke-width="2" stroke-linecap="round" stroke-linejoin="round"/>
<path d="M87.0781 55.7375V56.5996" stroke="black" stroke-width="2" stroke-linecap="round" stroke-linejoin="round"/>
<path d="M45.5056 57.7838C45.366 56.3651 43.9769 55.155 42.4633 55.1297C40.9497 55.1044 39.5169 56.2686 39.3218 57.681C41.4996 58.3817 43.4622 58.7819 45.5056 57.7854V57.7838Z" fill="#FF4600"/>
<path d="M41.4575 55.7954C41.6543 56.2668 41.8511 56.7381 42.0495 57.211" stroke="black" stroke-width="2" stroke-linecap="round" stroke-linejoin="round"/>
<path d="M42.4951 55.492C42.776 55.9649 43.0568 56.4394 43.3377 56.9124" stroke="black" stroke-width="2" stroke-linecap="round" stroke-linejoin="round"/>
<path d="M51.7444 61.359C51.6317 60.6393 51.0768 59.9955 50.3502 59.7425C49.6237 59.491 48.7576 59.6397 48.1741 60.1189C47.9857 59.2711 47.202 58.5704 46.2922 58.436C45.3823 58.3015 44.4086 58.7412 43.9512 59.4941C45.8196 61.6801 48.9847 62.425 51.7427 61.359H51.7444Z" fill="#FF4600"/>
<path d="M45.8384 58.754V59.8011" stroke="black" stroke-width="2" stroke-linecap="round" stroke-linejoin="round"/>
<path d="M46.5073 59.0609C46.5276 59.3693 46.5478 59.6762 46.5698 59.9846" stroke="black" stroke-width="2" stroke-linecap="round" stroke-linejoin="round"/>
<path d="M49.1104 59.9844C49.1759 60.2929 49.2415 60.5997 49.3071 60.9082" stroke="black" stroke-width="2" stroke-linecap="round" stroke-linejoin="round"/>
<path d="M49.9399 59.9277C49.9855 60.1744 50.0294 60.4196 50.075 60.6663" stroke="black" stroke-width="2" stroke-linecap="round" stroke-linejoin="round"/>
<path d="M64.5421 65.6648C56.1485 65.6648 48.2425 64.5813 42.2791 62.6152C35.959 60.5306 32.4795 57.6234 32.4795 54.4268C32.4795 51.2301 35.959 48.3229 42.2791 46.2383C48.2425 44.2722 56.1485 43.1887 64.5421 43.1887C72.9357 43.1887 80.8416 44.2722 86.8051 46.2383C93.1251 48.3229 96.6047 51.2301 96.6047 54.4268C96.6047 57.6234 93.1234 60.5306 86.8051 62.6152C80.8416 64.5813 72.9357 65.6648 64.5421 65.6648ZM64.5421 45.865C56.6967 45.865 49.3374 46.8361 43.8179 48.5982C38.7154 50.2273 35.7892 52.3516 35.7892 54.4268C35.7892 56.502 38.7154 58.6262 43.8179 60.2553C49.3374 62.0174 56.6984 62.9885 64.5421 62.9885C72.3858 62.9885 79.7468 62.0174 85.2663 60.2553C90.3687 58.6262 93.295 56.502 93.295 54.4268C93.295 52.3516 90.3687 50.2273 85.2663 48.5982C79.7468 46.8361 72.3858 45.865 64.5421 45.865Z" fill="#BE463C"/>
<path d="M97.9653 59.9842C97.9653 61.112 97.5482 62.2049 96.741 63.2425C96.3912 63.6917 96.2667 64.2611 96.3962 64.8021C96.5627 65.4917 97.3279 65.895 98.0409 65.6689L108.074 62.4786C108.735 62.2682 109.156 61.6576 109.088 61.0044C109.013 60.2547 108.819 59.5192 108.515 58.8232L106.572 54.3691C106.167 53.4407 105.054 52.982 104.055 53.3315L97.0033 55.7943L97.967 59.9842H97.9653Z" fill="#952116"/>
<path d="M98.4175 63.6569C101.421 62.632 104.425 61.6086 107.428 60.5837C107.901 60.4224 108.224 59.7802 108.232 59.3073" stroke="black" stroke-width="2" stroke-linecap="round" stroke-linejoin="round"/>
<path d="M31.1248 59.9842C31.1248 61.112 31.5418 62.2049 32.3491 63.2425C32.6989 63.6917 32.8233 64.2611 32.6938 64.8021C32.5274 65.4917 31.7622 65.895 31.0491 65.6689L21.0158 62.4786C20.3548 62.2682 19.9344 61.6576 20.0017 61.0044C20.0773 60.2547 20.2708 59.5192 20.5751 58.8232L22.5176 54.3691C22.9229 53.4407 24.0362 52.982 25.0352 53.3315L32.0632 55.7863L31.1231 59.9842H31.1248Z" fill="#952116"/>
<path d="M32.3386 64.1471C28.6303 62.8912 24.9237 61.6353 21.2155 60.3795C20.6807 60.1976 20.6555 59.402 20.7749 58.88" stroke="black" stroke-width="2" stroke-linecap="round" stroke-linejoin="round"/>
<path d="M107.3 43.3379C106.609 42.8255 105.588 43.2952 105.588 44.1225C105.588 44.9813 105.395 45.8402 105.013 46.62C104.645 47.3729 104.105 48.0498 103.444 48.5987C102.777 49.1554 103.074 50.193 103.954 50.3354C104.951 50.4983 105.994 50.356 106.848 49.8498C108.32 48.9767 109.123 47.2084 108.777 45.6029C108.577 44.6776 108.044 43.8899 107.299 43.3363L107.3 43.3379Z" fill="white"/>
<path d="M104.161 49.777C105.726 49.9653 107.366 49.0479 107.938 47.6655" stroke="black" stroke-width="2" stroke-linecap="round" stroke-linejoin="round"/>
<path d="M101.585 45.9191C102.459 46.0076 103.058 45.0997 102.59 44.399C102.104 43.6715 101.783 42.8474 101.665 41.9948C101.551 41.1724 101.627 40.3293 101.876 39.5353C102.128 38.7302 101.287 38.001 100.461 38.319C99.5244 38.6796 98.7206 39.3218 98.285 40.1775C97.5316 41.6532 97.8511 43.5528 99.0502 44.7391C99.7414 45.4224 100.639 45.8242 101.583 45.9191H101.585Z" fill="white"/>
<path d="M101.191 45.4285C101.423 45.5218 101.707 45.487 101.906 45.3415C102.104 45.196 102.21 44.9445 102.171 44.7104" stroke="black" stroke-width="2" stroke-linecap="round" stroke-linejoin="round"/>
<path d="M22.9935 92.0702C22.6639 92.8373 23.4274 93.6282 24.2716 93.3973C25.1478 93.1568 26.0795 93.092 26.9826 93.2185C27.8537 93.3403 28.6963 93.6393 29.4396 94.0821C30.1947 94.5298 31.1702 93.9714 31.0709 93.1363C30.9583 92.1904 30.5227 91.2873 29.7676 90.6577C28.4642 89.5727 26.4343 89.3402 24.8939 90.101C24.0059 90.5391 23.35 91.2414 22.9935 92.0686V92.0702Z" fill="white"/>
<path d="M26.7271 92.6347C27.8051 92.535 28.9217 92.8656 29.7458 93.5283" stroke="black" stroke-width="2" stroke-linecap="round" stroke-linejoin="round"/>
<path d="M22.5308 78.5104C21.6866 78.7429 21.5016 79.7963 22.218 80.2771C22.9614 80.7754 23.5937 81.4223 24.0495 82.1657C24.4884 82.8838 24.7608 83.6905 24.8533 84.5145C24.9475 85.3497 26.0205 85.7214 26.6545 85.1314C27.3726 84.4607 27.8553 83.5797 27.9124 82.6323C28.0083 80.9984 26.9421 79.3566 25.3528 78.6923C24.4363 78.3095 23.444 78.2604 22.5325 78.5119L22.5308 78.5104Z" fill="white"/>
<path d="M25.4536 84.3675C25.462 84.5889 25.6571 84.7914 25.8909 84.8183C26.1246 84.8452 26.3668 84.6949 26.4324 84.4814" stroke="black" stroke-width="2" stroke-linecap="round" stroke-linejoin="round"/>
<path d="M34.0664 146.835H90.2867C108.378 146.835 123.066 160.552 123.066 177.447V210.733H34.0664V146.835Z" fill="#EAAA08"/>
<path d="M80.1775 161.001C76.116 159.427 71.5652 158.991 67.2499 159.764C62.9345 160.536 58.8731 162.515 55.7097 165.382C51.364 169.322 49.462 175.529 49.4653 181.207C49.4687 186.884 51.6701 192.539 55.565 196.876C58.6292 200.286 62.4501 203.288 66.9623 204.677C71.4744 206.064 76.5903 205.836 80.7947 203.762C84.9991 201.689 88.1692 197.722 88.7931 193.295L80.1758 161.002L80.1775 161.001Z" fill="#FF0000"/>
<path d="M79.3126 199.39C79.3243 199.129 79.1091 198.91 78.8316 198.898C78.5541 198.887 78.3203 199.09 78.3086 199.351C78.2968 199.612 78.5121 199.832 78.7895 199.843C79.067 199.854 79.3008 199.651 79.3126 199.39Z" fill="white"/>
<path d="M72.3668 183.512C72.3785 183.251 72.1633 183.031 71.8858 183.02C71.6083 183.009 71.3745 183.211 71.3628 183.472C71.351 183.733 71.5663 183.953 71.8437 183.964C72.1212 183.975 72.355 183.773 72.3668 183.512Z" fill="#FF4600"/>
<path d="M62.6041 206.761C62.6158 206.5 62.4006 206.28 62.1231 206.269C61.8456 206.258 61.6118 206.46 61.6001 206.721C61.5883 206.982 61.8036 207.202 62.081 207.213C62.3585 207.224 62.5923 207.022 62.6041 206.761Z" fill="#FFBE00"/>
<path d="M96.5924 198.903C96.6041 198.642 96.3889 198.422 96.1114 198.411C95.8339 198.4 95.6001 198.603 95.5884 198.864C95.5766 199.125 95.7918 199.344 96.0693 199.355C96.3468 199.367 96.5806 199.164 96.5924 198.903Z" fill="#FF4600"/>
<path d="M46.0709 177.689C46.0826 177.428 45.8674 177.208 45.5899 177.197C45.3124 177.186 45.0786 177.389 45.0669 177.65C45.0551 177.911 45.2704 178.131 45.5478 178.142C45.8253 178.153 46.0591 177.95 46.0709 177.689Z" fill="#FFBE00"/>
<path d="M63.8726 166.339C63.8844 166.078 63.6691 165.858 63.3917 165.847C63.1142 165.836 62.8804 166.038 62.8686 166.299C62.8569 166.56 63.0721 166.78 63.3496 166.791C63.6271 166.802 63.8609 166.6 63.8726 166.339Z" fill="#FFBE00"/>
<path d="M74.5634 197.581C74.5634 197.423 74.4272 197.295 74.259 197.295C74.0908 197.295 73.9546 197.423 73.9546 197.581C73.9546 197.739 74.0908 197.867 74.259 197.867C74.4272 197.867 74.5634 197.739 74.5634 197.581Z" fill="#FFBE00"/>
<path d="M69.2956 180.876C69.4637 180.876 69.6 180.748 69.6 180.59C69.6 180.432 69.4637 180.304 69.2956 180.304C69.1275 180.304 68.9912 180.432 68.9912 180.59C68.9912 180.748 69.1275 180.876 69.2956 180.876Z" fill="white"/>
<path d="M47.0124 182.419C47.1805 182.419 47.3168 182.29 47.3168 182.132C47.3168 181.974 47.1805 181.846 47.0124 181.846C46.8443 181.846 46.708 181.974 46.708 182.132C46.708 182.29 46.8443 182.419 47.0124 182.419Z" fill="#FF9A7D"/>
<path d="M60.2971 170.01C60.4652 170.01 60.6015 169.882 60.6015 169.724C60.6015 169.566 60.4652 169.437 60.2971 169.437C60.129 169.437 59.9927 169.566 59.9927 169.724C59.9927 169.882 60.129 170.01 60.2971 170.01Z" fill="white"/>
<path d="M57.2512 168.9C57.4193 168.9 57.5556 168.771 57.5556 168.613C57.5556 168.455 57.4193 168.327 57.2512 168.327C57.0831 168.327 56.9468 168.455 56.9468 168.613C56.9468 168.771 57.0831 168.9 57.2512 168.9Z" fill="white"/>
<path d="M91.4359 199.855C91.4359 199.697 91.2997 199.569 91.1315 199.569C90.9634 199.569 90.8271 199.697 90.8271 199.855C90.8271 200.013 90.9634 200.142 91.1315 200.142C91.2997 200.142 91.4359 200.013 91.4359 199.855Z" fill="white"/>
<path d="M65.8855 207.489C66.0536 207.489 66.1898 207.361 66.1898 207.202C66.1898 207.044 66.0536 206.916 65.8855 206.916C65.7173 206.916 65.5811 207.044 65.5811 207.202C65.5811 207.361 65.7173 207.489 65.8855 207.489Z" fill="#FF9A7D"/>
<path d="M71.1189 201.567C71.287 201.567 71.4233 201.439 71.4233 201.28C71.4233 201.122 71.287 200.994 71.1189 200.994C70.9507 200.994 70.8145 201.122 70.8145 201.28C70.8145 201.439 70.9507 201.567 71.1189 201.567Z" fill="#FF9A7D"/>
<path d="M78.2192 204.143L76.4854 204.33L77.5247 205.649L78.2192 204.143Z" fill="#FF4600"/>
<path d="M93.6968 170.382L92.9972 168.879L91.9629 170.201L93.6968 170.382Z" fill="#FF4600"/>
<path d="M50.6246 176.057L49.6694 174.684L48.8823 176.147L50.6246 176.057Z" fill="#FF4600"/>
<path d="M96.2071 194.713L95.8018 196.309L97.4734 195.843L96.2071 194.713Z" fill="#FFBE00"/>
<path d="M67.889 148.085C65.8154 152.3 66.1551 157.486 68.7635 161.43C70.6521 156.927 70.3645 152.328 67.889 148.085Z" fill="#95BA29"/>
<path d="M67.9395 152.319C68.2136 155.718 68.486 159.118 68.7601 162.517" stroke="black" stroke-width="2" stroke-linecap="round" stroke-linejoin="round"/>
<path d="M74.1194 151.974C71.2924 154.335 69.8427 158.075 70.3893 161.594C73.181 158.976 74.4742 155.667 74.1194 151.974Z" fill="#95BA29"/>
<path d="M73.2985 154.294C72.2272 156.983 71.1543 159.672 70.083 162.363" stroke="black" stroke-width="2" stroke-linecap="round" stroke-linejoin="round"/>
<path d="M76.3096 157.189C73.9367 157.854 71.9741 159.695 71.2627 161.925C73.6895 161.099 75.4334 159.472 76.3096 157.189Z" fill="#95BA29"/>
<path d="M70.8018 162.292L74.8413 158.495" stroke="black" stroke-width="2" stroke-linecap="round" stroke-linejoin="round"/>
<path d="M63.6385 202.232C63.5712 203.028 60.8568 204.177 57.6497 203.935C54.4426 203.695 51.957 202.154 52.0243 201.357C52.0916 200.562 54.747 200.111 57.9541 200.353C61.1612 200.593 63.7057 201.435 63.6385 202.232Z" fill="#E6E9F1"/>
<path d="M67.6157 183.811L62.9454 181.927L56.5716 181.412L51.2085 182.578L52.0241 201.359L63.6383 202.232L67.6157 183.811Z" fill="#E6E9F1"/>
<path d="M59.5907 181.095C64.1213 181.435 67.7169 182.625 67.621 183.75L66.5884 183.672C66.3479 183.481 65.7661 183.152 64.5939 182.81C63.2031 182.403 61.4002 182.101 59.5167 181.961C57.6331 181.818 55.8017 181.847 54.3604 182.041C53.1445 182.204 52.5155 182.441 52.2465 182.595L51.2139 182.517C51.3097 181.393 55.06 180.757 59.5907 181.097V181.095Z" fill="white"/>
<path d="M101.259 182.934C102.413 184.879 98.8122 191.078 91.9641 194.67C85.116 198.262 77.6171 197.889 76.4634 195.943C75.3097 193.998 79.9244 189.507 86.7725 185.915C93.6206 182.323 100.107 180.988 101.261 182.934H101.259Z" fill="#E6E9F1"/>
<path d="M84.4501 160.683L77.7467 161.853L70.2225 165.744L63.9126 172.278L72.0371 178.72L76.3155 195.556L101.076 182.695L87.9263 170.01L84.4501 160.683Z" fill="#E6E9F1"/>
<path d="M73.3421 163.275C70.1552 164.947 67.5569 166.813 66.1526 168.327L63.3037 171.37L65.014 171.498L68.2548 167.993C69.7112 166.767 71.7326 165.451 73.9458 164.29C76.159 163.129 78.4109 162.203 80.286 161.681C81.8652 161.241 82.7733 161.2 83.1938 161.246L84.408 160.608C83.6243 159.286 78.6699 160.479 73.3438 163.273L73.3421 163.275Z" fill="white"/>
<path d="M87.1846 195.844C92.1272 194.365 96.4897 191.227 99.2982 187.126" stroke="black" stroke-width="2" stroke-linecap="round" stroke-linejoin="round"/>
<path d="M51.0838 160.82L49.3521 161.361L57.6212 184.781L59.3529 184.24L51.0838 160.82Z" fill="white"/>
<path d="M51.35 161.532L52.0227 163.436L50.7042 165.151L50.0146 163.197L51.35 161.532Z" fill="#FA101D"/>
<path d="M51.1567 166.43L52.5761 165.005L53.0924 166.465L51.8681 168.447L51.1567 166.43Z" fill="#FA101D"/>
<path d="M52.3628 169.845L53.8411 168.588L54.2749 169.815L52.8522 171.229L52.3628 169.845Z" fill="#FA101D"/>
<path d="M53.5532 173.216L54.8246 171.37L55.6638 173.746L54.1435 174.886L53.5532 173.216Z" fill="#FA101D"/>
<path d="M54.6616 176.356L56.2761 175.481L56.7588 176.846L55.3949 178.433L54.6616 176.356Z" fill="#FA101D"/>
<path d="M55.8442 179.704L57.3948 178.648L57.9061 180.097L56.5893 181.813L55.8442 179.704Z" fill="#FA101D"/>
<path d="M57.0762 183.195L58.6537 182.211L59.3667 184.233L57.6345 184.774L57.0762 183.195Z" fill="#FA101D"/>
<path d="M98.8261 182.424C98.7824 182.349 98.7252 182.281 98.663 182.218H98.6663L87.2405 171.194L86.2786 168.614C86.2786 168.614 74.624 165.063 64.3452 169.234C63.5917 169.539 62.9157 169.993 62.3725 170.572C60.4805 172.589 56.1887 178.303 54.105 190.274H62.3994L63.1578 171.671L64.8732 171.977L73.4317 178.762L77.1483 193.391C77.1736 193.512 77.2156 193.624 77.2761 193.728C78.2785 195.419 84.7953 195.743 90.7453 192.623C96.6953 189.5 99.8251 184.115 98.8227 182.424H98.8261Z" fill="#27AE60"/>
<path d="M76.4606 179.74C75.4297 181.959 76.506 184.543 78.8655 185.513C81.225 186.483 83.973 185.47 85.0039 183.251L76.4606 179.738V179.74Z" fill="#FF4E00"/>
<path d="M79.7742 181.755L77.1288 182.47C76.9556 182.517 76.7723 182.416 76.737 182.25C76.6193 181.698 76.6293 181.117 76.7841 180.548C76.8295 180.384 77.0161 180.292 77.1877 180.347L79.791 181.19C79.9188 181.231 80.0046 181.347 80.0013 181.473V181.478C79.9979 181.606 79.9071 181.718 79.7759 181.755H79.7742Z" fill="#FFBE00"/>
<path d="M80.1879 182.239L78.5734 184.441C78.4876 184.558 78.3144 184.583 78.1967 184.496C77.7359 184.151 77.3676 183.723 77.1069 183.245C77.0379 183.118 77.1002 182.965 77.2381 182.908L79.8498 181.851C79.9608 181.807 80.087 181.842 80.1626 181.931L80.166 181.934C80.2434 182.021 80.2551 182.144 80.1862 182.237L80.1879 182.239Z" fill="#FFBE00"/>
<path d="M81.3936 185.278C80.7663 185.376 80.1088 185.336 79.4714 185.14C79.2679 185.078 79.1636 184.866 79.2494 184.683C79.5336 184.068 80.0718 182.903 80.3156 182.383C80.3762 182.253 80.5191 182.171 80.6688 182.184H80.6739C80.8269 182.195 80.9564 182.294 80.9951 182.434L81.6812 184.857C81.7367 185.05 81.6005 185.246 81.3903 185.278H81.3936Z" fill="#FFBE00"/>
<path d="M84.0929 183.666C83.7229 184.172 83.2386 184.577 82.6869 184.86C82.507 184.952 82.2816 184.881 82.2009 184.703L81.138 182.38C81.0792 182.252 81.1145 182.103 81.2255 182.01L81.2289 182.007C81.3382 181.913 81.4979 181.897 81.6274 181.964L83.9785 183.194C84.1585 183.288 84.2106 183.508 84.0929 183.666Z" fill="#FFBE00"/>
<path d="M84.2661 179.321C86.1093 180.218 88.378 179.539 89.3315 177.806C90.2851 176.072 89.5636 173.938 87.7204 173.041L84.2678 179.321H84.2661Z" fill="#FF4E00"/>
<path d="M86.165 176.92L86.6376 178.959C86.6678 179.091 86.5737 179.224 86.429 179.243C85.9514 179.303 85.4536 179.265 84.976 179.118C84.8381 179.076 84.7691 178.929 84.8263 178.802L85.684 176.877C85.726 176.782 85.8286 176.724 85.938 176.733H85.9413C86.0506 176.743 86.1414 176.817 86.165 176.918V176.92Z" fill="#FFBE00"/>
<path d="M86.6003 176.634L88.3998 177.97C88.4956 178.041 88.5091 178.174 88.4267 178.258C88.1088 178.589 87.722 178.845 87.2982 179.017C87.1872 179.063 87.0577 179.008 87.0174 178.9L86.2522 176.868C86.2202 176.781 86.2572 176.687 86.3363 176.635H86.3396C86.4187 176.58 86.5246 176.577 86.6003 176.634Z" fill="#FFBE00"/>
<path d="M89.2622 175.879C89.3127 176.358 89.2437 176.855 89.0436 177.326C88.9797 177.477 88.793 177.545 88.64 177.47C88.1287 177.222 87.1617 176.755 86.7278 176.542C86.6202 176.488 86.558 176.377 86.5765 176.263V176.26C86.595 176.145 86.6858 176.053 86.8069 176.029L88.9158 175.637C89.084 175.605 89.2437 175.718 89.2606 175.879H89.2622Z" fill="#FFBE00"/>
<path d="M88.0268 173.753C88.4405 174.06 88.7601 174.447 88.9736 174.881C89.0426 175.022 88.9703 175.189 88.8139 175.24L86.7706 175.922C86.6579 175.959 86.5317 175.925 86.4578 175.836V175.833C86.3821 175.746 86.3753 175.623 86.4409 175.529L87.6165 173.816C87.7056 173.685 87.8956 173.658 88.0268 173.755V173.753Z" fill="#FFBE00"/>
<path d="M84.4941 188.383C84.9353 188.383 85.293 188.047 85.293 187.632C85.293 187.217 84.9353 186.881 84.4941 186.881C84.053 186.881 83.6953 187.217 83.6953 187.632C83.6953 188.047 84.053 188.383 84.4941 188.383Z" fill="#EA050C"/>
<path d="M81.1929 189.919C81.1929 189.505 80.8347 189.168 80.394 189.168C79.9534 189.168 79.5952 189.505 79.5952 189.919C79.5952 190.334 79.9534 190.671 80.394 190.671C80.8347 190.671 81.1929 190.334 81.1929 189.919Z" fill="#EA050C"/>
<path d="M80.5908 187.395C80.5908 186.98 80.2326 186.644 79.792 186.644C79.3514 186.644 78.9932 186.98 78.9932 187.395C78.9932 187.809 79.3514 188.146 79.792 188.146C80.2326 188.146 80.5908 187.809 80.5908 187.395Z" fill="#EA050C"/>
<path d="M98.0151 182.533C98.0151 182.118 97.6569 181.781 97.2163 181.781C96.7757 181.781 96.4175 182.118 96.4175 182.533C96.4175 182.947 96.7757 183.284 97.2163 183.284C97.6569 183.284 98.0151 182.947 98.0151 182.533Z" fill="#EA050C"/>
<path d="M82.3013 179.124C82.3013 178.71 81.9431 178.373 81.5024 178.373C81.0618 178.373 80.7036 178.71 80.7036 179.124C80.7036 179.539 81.0618 179.876 81.5024 179.876C81.9431 179.876 82.3013 179.539 82.3013 179.124Z" fill="#EA050C"/>
<path d="M71.2993 174.972C71.2993 174.558 70.9411 174.221 70.5005 174.221C70.0599 174.221 69.7017 174.558 69.7017 174.972C69.7017 175.387 70.0599 175.724 70.5005 175.724C70.9411 175.724 71.2993 175.387 71.2993 174.972Z" fill="#EA050C"/>
<path d="M82.8377 189.105C82.8377 188.852 82.6191 188.646 82.35 188.646C82.0809 188.646 81.8623 188.852 81.8623 189.105C81.8623 189.358 82.0809 189.563 82.35 189.563C82.6191 189.563 82.8377 189.358 82.8377 189.105Z" fill="#EA050C"/>
<path d="M78.3895 189.016C78.3895 188.763 78.1708 188.557 77.9018 188.557C77.6327 188.557 77.4141 188.763 77.4141 189.016C77.4141 189.269 77.6327 189.475 77.9018 189.475C78.1708 189.475 78.3895 189.269 78.3895 189.016Z" fill="#EA050C"/>
<path d="M88.887 180.97C88.887 180.717 88.6684 180.511 88.3993 180.511C88.1303 180.511 87.9116 180.717 87.9116 180.97C87.9116 181.223 88.1303 181.429 88.3993 181.429C88.6684 181.429 88.887 181.223 88.887 180.97Z" fill="#EA050C"/>
<path d="M80.1688 172.614C80.1688 172.361 79.9501 172.155 79.6811 172.155C79.412 172.155 79.1934 172.361 79.1934 172.614C79.1934 172.867 79.412 173.072 79.6811 173.072C79.9501 173.072 80.1688 172.867 80.1688 172.614Z" fill="#EA050C"/>
<path d="M83.1405 177.517C83.4099 177.517 83.6282 177.312 83.6282 177.058C83.6282 176.805 83.4099 176.6 83.1405 176.6C82.8712 176.6 82.6528 176.805 82.6528 177.058C82.6528 177.312 82.8712 177.517 83.1405 177.517Z" fill="#EA050C"/>
<path d="M68.3192 173.09C68.3192 172.837 68.1005 172.631 67.8315 172.631C67.5624 172.631 67.3438 172.837 67.3438 173.09C67.3438 173.343 67.5624 173.549 67.8315 173.549C68.1005 173.549 68.3192 173.343 68.3192 173.09Z" fill="#EA050C"/>
<path d="M72.1605 173.395C72.1605 173.142 71.9418 172.937 71.6728 172.937C71.4037 172.937 71.1851 173.142 71.1851 173.395C71.1851 173.648 71.4037 173.854 71.6728 173.854C71.9418 173.854 72.1605 173.648 72.1605 173.395Z" fill="#EA050C"/>
<path d="M98.1551 184.622C98.1551 184.369 97.9365 184.163 97.6674 184.163C97.3983 184.163 97.1797 184.369 97.1797 184.622C97.1797 184.875 97.3983 185.081 97.6674 185.081C97.9365 185.081 98.1551 184.875 98.1551 184.622Z" fill="#EA050C"/>
<path d="M96.5555 187.14C96.5555 186.887 96.3369 186.682 96.0678 186.682C95.7987 186.682 95.5801 186.887 95.5801 187.14C95.5801 187.393 95.7987 187.599 96.0678 187.599C96.3369 187.599 96.5555 187.393 96.5555 187.14Z" fill="#EA050C"/>
<path d="M93.1234 177.843C93.1234 177.59 92.9047 177.384 92.6357 177.384C92.3666 177.384 92.1479 177.59 92.1479 177.843C92.1479 178.096 92.3666 178.302 92.6357 178.302C92.9047 178.302 93.1234 178.096 93.1234 177.843Z" fill="#EA050C"/>
<path d="M95.8748 185.384C95.8748 185.131 95.6562 184.926 95.3871 184.926C95.118 184.926 94.8994 185.131 94.8994 185.384C94.8994 185.637 95.118 185.843 95.3871 185.843C95.6562 185.843 95.8748 185.637 95.8748 185.384Z" fill="#EA050C"/>
<path d="M91.4266 176.927C91.4266 176.674 91.208 176.468 90.9389 176.468C90.6698 176.468 90.4512 176.674 90.4512 176.927C90.4512 177.18 90.6698 177.386 90.9389 177.386C91.208 177.386 91.4266 177.18 91.4266 176.927Z" fill="#EA050C"/>
<path d="M85.6093 168.856C79.3045 170.249 72.8566 171.073 66.3853 171.312" stroke="black" stroke-width="2" stroke-linecap="round" stroke-linejoin="round"/>
<path d="M77.003 173.945C77.3545 174.173 77.6168 174.679 77.8069 175.217C78.1617 176.223 77.3932 177.276 76.2664 177.329C75.6643 177.357 75.0673 177.308 74.7141 177.082C73.7925 176.487 73.9035 175.527 74.5359 174.66C75.1682 173.793 76.0814 173.351 77.0013 173.944L77.003 173.945Z" fill="#EA050C"/>
<path d="M74.3477 174.538L72.9316 175.361L74.3746 175.334L74.3124 176.4L75.0624 175.187L76.0664 175.646L75.535 174.583L76.2985 174.042L75.2895 174.105L75.4139 172.892L74.6319 174.148L74.0483 174.016L74.3477 174.538Z" fill="#95BA29"/>
<path d="M76.5356 174.537H77.0553" stroke="black" stroke-width="2" stroke-linecap="round" stroke-linejoin="round"/>
<path d="M77.1616 175.026L77.219 175.515" stroke="black" stroke-width="2" stroke-linecap="round" stroke-linejoin="round"/>
<path d="M76.6466 176.161C76.5877 176.252 76.5305 176.342 76.4717 176.433" stroke="black" stroke-width="2" stroke-linecap="round" stroke-linejoin="round"/>
<path d="M77.0552 176.491H77.4016" stroke="black" stroke-width="2" stroke-linecap="round" stroke-linejoin="round"/>
<path d="M75.313 176.609C75.3853 176.685 75.4576 176.761 75.5299 176.838" stroke="black" stroke-width="2" stroke-linecap="round" stroke-linejoin="round"/>
<path d="M94.7128 182.907C94.6707 183.307 94.3243 183.767 93.9139 184.181C93.1471 184.958 91.7949 184.832 91.2046 183.928C90.8885 183.444 90.6463 182.93 90.6883 182.53C90.7993 181.485 91.7478 181.115 92.8595 181.217C93.9711 181.322 94.8238 181.86 94.7145 182.905L94.7128 182.907Z" fill="#EA050C"/>
<path d="M92.8811 181.002L91.4314 180.232L92.1529 181.409L91.1304 181.871L92.6204 181.905L92.6759 182.953L93.4108 182.004L94.282 182.372L93.7388 181.57L94.9294 181.089L93.3822 181.05L93.2225 180.506L92.8811 181.002Z" fill="#95BA29"/>
<path d="M91.5903 183.055C91.6089 183.165 91.6292 183.272 91.6477 183.382" stroke="black" stroke-width="2" stroke-linecap="round" stroke-linejoin="round"/>
<path d="M92.167 183.977C92.3015 184.014 92.4361 184.05 92.5706 184.087" stroke="black" stroke-width="2" stroke-linecap="round" stroke-linejoin="round"/>
<path d="M92.7437 183.326C92.8395 183.272 92.9354 183.217 93.0312 183.163" stroke="black" stroke-width="2" stroke-linecap="round" stroke-linejoin="round"/>
<path d="M93.7241 183.379V183.759" stroke="black" stroke-width="2" stroke-linecap="round" stroke-linejoin="round"/>
<path d="M92.8889 181.537C92.8704 181.157 92.8501 180.777 92.8315 180.398" stroke="black" stroke-width="2" stroke-linecap="round" stroke-linejoin="round"/>
<path d="M80.6323 192.035C81.8264 193.622 84.1623 193.998 85.8491 192.875C87.5359 191.752 87.9362 189.555 86.7421 187.968L80.634 192.035H80.6323Z" fill="#EA050C"/>
<path d="M81.0527 191.755C82.082 193.123 84.0967 193.447 85.5514 192.479C87.0061 191.511 87.3509 189.617 86.3217 188.248L81.0527 191.755Z" fill="#FFE6D2"/>
<path d="M82.469 190.812C81.8417 192.024 84.3391 193.036 84.551 191.148C86.4009 191.646 86.9155 188.976 84.9075 189.19L82.469 190.812Z" fill="white"/>
<path d="M83.6885 190.674V191.217" stroke="black" stroke-width="2" stroke-linecap="round" stroke-linejoin="round"/>
<path d="M84.6094 190.186C84.8785 190.149 85.1475 190.113 85.4166 190.078" stroke="black" stroke-width="2" stroke-linecap="round" stroke-linejoin="round"/>
<path d="M88.8915 191.832C90.9415 191.583 92.3878 189.82 92.1238 187.892C91.8598 185.964 89.9846 184.603 87.9346 184.852L88.8915 191.833V191.832Z" fill="#EA050C"/>
<path d="M88.826 191.351C90.5935 191.137 91.8414 189.616 91.6144 187.953C91.3873 186.291 89.7695 185.117 88.002 185.331L88.8277 191.351H88.826Z" fill="#FFE6D2"/>
<path d="M88.6039 189.734C89.4482 190.823 91.5689 189.223 89.8938 188.162C91.2291 186.859 88.9621 185.179 88.2222 186.949L88.6039 189.736V189.734Z" fill="white"/>
<path d="M89.0415 187.411L89.4468 187.033" stroke="black" stroke-width="2" stroke-linecap="round" stroke-linejoin="round"/>
<path d="M89.2837 188.992L89.6873 189.319" stroke="black" stroke-width="2" stroke-linecap="round" stroke-linejoin="round"/>
<path d="M102.847 168.065C101.591 163.96 98.0186 160.831 93.9572 160.278C91.6952 159.969 87.3748 160.233 83.833 165.458C83.833 165.458 86.2295 166.786 86.2564 166.747C86.7458 167.106 87.3731 167.31 88.0508 167.269C89.3407 167.193 90.4019 166.222 90.5163 165.012C90.5331 164.838 90.5297 164.665 90.5096 164.499C90.412 163.701 90.9956 162.979 91.8415 162.862C92.4049 162.785 92.9784 162.785 93.5586 162.862C96.51 163.264 99.2328 165.7 100.176 168.786C100.947 171.301 100.467 173.871 98.8679 176.166C98.5971 176.554 98.0758 176.739 97.6099 176.585C97.4468 176.531 97.2702 176.503 97.0886 176.503C96.209 176.503 95.4943 177.174 95.4943 178.002C95.4943 178.755 98.0959 180.856 98.0959 180.856C102.521 177.321 104.251 172.658 102.845 168.063L102.847 168.065Z" fill="#E6E9F1"/>
<path d="M86.9644 163.408C87.7632 162.317 88.9371 161.472 90.2656 161.034" stroke="white" stroke-width="2" stroke-linecap="round" stroke-linejoin="round"/>
<path d="M97.8926 179.82C101.327 177.689 103.252 173.594 102.62 169.769" stroke="black" stroke-width="2" stroke-linecap="round" stroke-linejoin="round"/>
<path d="M84.4087 160.61L83.1945 161.247C83.0145 161.608 82.4999 162.313 81.2739 163.346C79.8175 164.572 77.796 165.888 75.5829 167.049C73.3697 168.21 71.1178 169.137 69.2427 169.659L63.3061 171.37C62.9142 171.789 63.3431 172.43 63.9132 172.278L69.6597 170.752C69.6698 170.749 69.8582 170.698 69.8969 170.687C71.7333 170.148 73.9263 169.251 76.1866 168.064C81.5127 165.27 85.1957 161.932 84.4104 160.61H84.4087Z" fill="white"/>
<path d="M52.6577 189.946L53.0815 199.719C53.0243 200.396 55.1383 201.707 57.8678 201.911C60.5956 202.117 62.9046 201.14 62.9635 200.461L65.2877 189.698C65.2877 189.698 59.2653 187.947 52.6594 189.946H52.6577Z" fill="#27AE60"/>
<path d="M58.5781 192.118C58.5781 191.704 58.2199 191.367 57.7793 191.367C57.3387 191.367 56.9805 191.704 56.9805 192.118C56.9805 192.532 57.3387 192.869 57.7793 192.869C58.2199 192.869 58.5781 192.532 58.5781 192.118Z" fill="#EA050C"/>
<path d="M56.7718 194.399C56.7718 194.146 56.5532 193.94 56.2841 193.94C56.015 193.94 55.7964 194.146 55.7964 194.399C55.7964 194.652 56.015 194.858 56.2841 194.858C56.5532 194.858 56.7718 194.652 56.7718 194.399Z" fill="#EA050C"/>
<path d="M61.3631 199.049C61.3631 198.796 61.1445 198.59 60.8754 198.59C60.6063 198.59 60.3877 198.796 60.3877 199.049C60.3877 199.302 60.6063 199.508 60.8754 199.508C61.1445 199.508 61.3631 199.302 61.3631 199.049Z" fill="#EA050C"/>
<path d="M59.2913 199.753C59.2913 199.5 59.0727 199.294 58.8036 199.294C58.5345 199.294 58.3159 199.5 58.3159 199.753C58.3159 200.006 58.5345 200.212 58.8036 200.212C59.0727 200.212 59.2913 200.006 59.2913 199.753Z" fill="#EA050C"/>
<path d="M54.8714 192.577C54.8714 192.324 54.6528 192.118 54.3837 192.118C54.1146 192.118 53.896 192.324 53.896 192.577C53.896 192.83 54.1146 193.035 54.3837 193.035C54.6528 193.035 54.8714 192.83 54.8714 192.577Z" fill="#EA050C"/>
<path d="M53.0576 190.299C57.0585 190.762 61.1384 190.621 65.0922 189.884" stroke="black" stroke-width="2" stroke-linecap="round" stroke-linejoin="round"/>
<path d="M57.6997 197.365C57.8527 197.74 57.7653 198.297 57.5971 198.843C57.2843 199.861 56.0162 200.322 55.0576 199.765C54.5447 199.468 54.0805 199.11 53.9258 198.735C53.5239 197.755 54.1932 197.022 55.2359 196.644C56.2786 196.266 57.2977 196.386 57.6997 197.365Z" fill="#EA050C"/>
<path d="M55.1515 196.442L53.4883 196.368L54.6958 197.113L54.0029 197.959L55.3517 197.358L55.9016 198.27L56.1034 197.111L57.0586 197.072L56.1892 196.586L57.0216 195.651L55.6207 196.271L55.2188 195.854L55.1515 196.442Z" fill="#95BA29"/>
<path d="M55.4258 199.112C55.5031 199.166 55.5788 199.221 55.6562 199.275" stroke="black" stroke-width="2" stroke-linecap="round" stroke-linejoin="round"/>
<path d="M56.522 199.275C56.638 199.221 56.7524 199.166 56.8684 199.112" stroke="black" stroke-width="2" stroke-linecap="round" stroke-linejoin="round"/>
<path d="M56.6348 197.982C56.7306 198 56.8265 198.019 56.9223 198.037" stroke="black" stroke-width="2" stroke-linecap="round" stroke-linejoin="round"/>
<path d="M56.1875 198.571C56.169 198.661 56.1504 198.753 56.1318 198.844" stroke="black" stroke-width="2" stroke-linecap="round" stroke-linejoin="round"/>
<path d="M54.3208 198.516L54.3782 198.895" stroke="black" stroke-width="2" stroke-linecap="round" stroke-linejoin="round"/>
<path d="M57.9966 197.506C59.7506 198.532 62.058 198.028 63.1511 196.378C64.2426 194.728 63.7061 192.558 61.9521 191.53L57.9966 197.506Z" fill="#EA050C"/>
<path d="M58.269 197.095C59.7826 197.98 61.7721 197.545 62.7139 196.122C63.6557 194.698 63.1932 192.827 61.6796 191.941L58.269 197.095Z" fill="#FFE6D2"/>
<path d="M59.1838 195.711C59.1065 197.057 61.8242 197.079 61.2406 195.26C63.1511 195.045 62.5255 192.395 60.7613 193.325L59.1821 195.711H59.1838Z" fill="white"/>
<path d="M60.2612 195.317C60.3184 195.48 60.3773 195.643 60.4345 195.806" stroke="black" stroke-width="2" stroke-linecap="round" stroke-linejoin="round"/>
<path d="M60.8481 194.339L61.541 194.121" stroke="black" stroke-width="2" stroke-linecap="round" stroke-linejoin="round"/>
<path d="M55.0423 181.563C53.6145 182.981 53.6784 185.217 55.1836 186.561C56.6904 187.904 59.0684 187.844 60.4979 186.429L55.0423 181.565V181.563Z" fill="#FFA000"/>
<path d="M56.9663 183.944L54.7515 183.805C54.6068 183.795 54.4975 183.673 54.5194 183.537C54.59 183.088 54.7666 182.65 55.0508 182.259C55.1332 182.145 55.3014 182.125 55.4158 182.21L57.1446 183.52C57.2304 183.585 57.2606 183.694 57.2203 183.789V183.792C57.1782 183.888 57.0773 183.95 56.968 183.944H56.9663Z" fill="#FFDC00"/>
<path d="M57.1392 184.418L55.2742 185.672C55.175 185.739 55.0354 185.714 54.9715 185.617C54.7226 185.237 54.5678 184.817 54.509 184.388C54.4938 184.274 54.5847 184.173 54.7057 184.167L56.9946 184.039C57.0921 184.034 57.1762 184.092 57.2099 184.179V184.182C57.2435 184.269 57.2183 184.364 57.1392 184.418Z" fill="#FFBE00"/>
<path d="M57.1698 187.033C56.6653 186.946 56.1776 186.746 55.7521 186.433C55.6159 186.334 55.599 186.147 55.7168 186.03C56.112 185.636 56.8587 184.893 57.195 184.561C57.2791 184.477 57.4103 184.453 57.5213 184.5H57.5246C57.6373 184.55 57.7063 184.659 57.6962 184.774L57.5112 186.789C57.496 186.951 57.338 187.063 57.1681 187.034L57.1698 187.033Z" fill="#FFBE00"/>
<path d="M59.6855 186.506C59.2584 186.796 58.7724 186.976 58.2712 187.049C58.1081 187.072 57.9584 186.96 57.9483 186.805L57.8188 184.77C57.8121 184.657 57.8827 184.553 57.9937 184.512H57.9971C58.1064 184.467 58.2342 184.496 58.3116 184.581L59.736 186.12C59.8453 186.237 59.8201 186.418 59.6855 186.508V186.506Z" fill="#FFBE00"/>
<path d="M52.2469 182.594C52.4874 182.785 53.0692 183.114 54.2414 183.456C55.6322 183.863 57.4351 184.165 59.3186 184.305C61.2022 184.448 63.0336 184.419 64.4749 184.225C65.6908 184.062 66.3198 183.825 66.5888 183.671L67.6214 183.749C67.5256 184.873 63.7753 185.509 59.2446 185.169C54.714 184.829 51.1184 183.64 51.2143 182.515L52.2469 182.592V182.594Z" fill="white"/>
<path d="M58.2033 158.574C57.0934 160.215 57.608 162.39 59.3503 163.433C61.0943 164.477 63.4067 163.993 64.5166 162.355L58.2033 158.576V158.574Z" fill="#FF4600"/>
<path d="M58.6366 158.835C57.6797 160.249 58.122 162.125 59.6255 163.025C61.129 163.925 63.1235 163.509 64.0804 162.095L58.6349 158.835H58.6366Z" fill="#FFE6D2"/>
<path d="M60.1001 159.71C58.6706 159.623 58.6185 162.179 60.5575 161.649C60.7678 163.448 63.5897 162.886 62.6194 161.219L60.0984 159.71H60.1001Z" fill="white"/>
<path d="M59.8091 160.843C59.9823 160.841 60.1555 160.839 60.3287 160.836" stroke="black" stroke-width="2" stroke-linecap="round" stroke-linejoin="round"/>
<path d="M61.54 161.463L61.7704 162.005" stroke="black" stroke-width="2" stroke-linecap="round" stroke-linejoin="round"/>
<path d="M88.8831 207.055C89.5791 206.9 90.0102 206.244 89.8459 205.59C89.6816 204.935 88.9842 204.529 88.2881 204.684C87.5921 204.838 87.161 205.494 87.3253 206.149C87.4896 206.804 88.187 207.209 88.8831 207.055Z" fill="#EA050C"/>
<path d="M87.2886 204.345C87.5291 204.603 87.7696 204.862 88.01 205.12" stroke="black" stroke-width="2" stroke-linecap="round" stroke-linejoin="round"/>
<path d="M102.014 194.845C102.729 194.845 103.309 194.3 103.309 193.627C103.309 192.954 102.729 192.409 102.014 192.409C101.299 192.409 100.719 192.954 100.719 193.627C100.719 194.3 101.299 194.845 102.014 194.845Z" fill="#EA050C"/>
<path d="M102.45 192.607C102.569 192.365 102.69 192.123 102.81 191.879" stroke="black" stroke-width="2" stroke-linecap="round" stroke-linejoin="round"/>
<path d="M156.553 162.81H205.066V194.759H141.066V177.64C141.066 169.456 148.006 162.81 156.553 162.81Z" fill="#27AE60"/>
<path d="M141.066 0.244446H205.066V31.254H160.333C149.699 31.254 141.066 23.2299 141.066 13.3459V0.244446Z" fill="#EAAA08"/>
</svg>
