<svg width="348" height="251" viewBox="0 0 348 251" fill="none" xmlns="http://www.w3.org/2000/svg">
<g clip-path="url(#clip0_3733_42566)">
<path d="M171.587 249.937H158.219V146.992H169.091C169.617 146.992 170.122 147.201 170.496 147.572C170.869 147.944 171.08 148.448 171.083 148.975L171.587 249.937Z" fill="#BB671C"/>
<path d="M159.464 250.486H15.9062V177.172H159.464V250.486Z" fill="#EAEAEA"/>
<path d="M102.881 250.214H16.1797V177.445H159.192V193.872C159.175 208.81 153.237 223.131 142.68 233.693C132.124 244.256 117.811 250.198 102.881 250.214Z" fill="#6D2E00"/>
<path d="M169.407 149.916C169.335 150.053 169.279 150.197 169.24 150.347L164.29 169.439L158.92 179.613H16.4531V177.079L24.5642 169.439L34.0263 151.33C34.444 150.53 34.9925 149.806 35.6491 149.188C37.1473 147.778 39.1269 146.992 41.1841 146.992H167.646C167.989 146.992 168.327 147.081 168.625 147.25C168.924 147.419 169.175 147.662 169.352 147.957C169.529 148.251 169.627 148.586 169.637 148.929C169.647 149.273 169.567 149.613 169.407 149.916Z" fill="#6D2E00"/>
<path d="M159.464 250.486H15.9062V177.172H159.464V250.486ZM16.996 249.396H158.374V178.262H16.996V249.396Z" fill="#F8F8F8"/>
<path d="M166.933 159.684L164.288 169.439H24.5625L29.0774 161.319L166.933 159.684Z" fill="#BB671C"/>
<path d="M44.0876 215.586H21.2031V216.853H44.0876V215.586Z" fill="#EAEAEA"/>
<path d="M44.0876 220.023H21.2031V221.291H44.0876V220.023Z" fill="#EAEAEA"/>
<path d="M44.0876 224.457H21.2031V225.724H44.0876V224.457Z" fill="#EAEAEA"/>
<path d="M30.0674 201.472C34.6135 201.472 38.2988 197.785 38.2988 193.236C38.2988 188.687 34.6135 185 30.0674 185C25.5213 185 21.8359 188.687 21.8359 193.236C21.8359 197.785 25.5213 201.472 30.0674 201.472Z" fill="#EAEAEA"/>
<path d="M120.288 163.906H113.297V110.07H118.982C119.258 110.07 119.522 110.179 119.717 110.374C119.912 110.568 120.023 110.832 120.024 111.107L120.288 163.906Z" fill="#BB671C"/>
<path d="M113.949 164.192H38.875V125.852H113.949V164.192Z" fill="#EAEAEA"/>
<path d="M84.3566 164.051H39.0156V125.996H113.804V134.586C113.796 142.398 110.69 149.887 105.17 155.411C99.649 160.935 92.164 164.042 84.3566 164.051Z" fill="#6D2E00"/>
<path d="M119.144 111.6C119.106 111.671 119.077 111.746 119.057 111.825L116.468 121.809L113.66 127.13H39.1562V125.804L43.398 121.809L48.3462 112.339C48.5646 111.92 48.8515 111.542 49.1949 111.219C49.9783 110.481 51.0136 110.07 52.0894 110.07H118.223C118.402 110.07 118.579 110.117 118.735 110.205C118.892 110.293 119.022 110.421 119.115 110.575C119.208 110.728 119.259 110.904 119.264 111.083C119.269 111.263 119.228 111.441 119.144 111.6Z" fill="#6D2E00"/>
<path d="M113.949 164.192H38.875V125.852H113.949V164.192ZM39.4449 163.621H113.379V126.422H39.4449V163.621Z" fill="#F8F8F8"/>
<path d="M117.851 116.711L116.468 121.812H43.3984L45.7594 117.566L117.851 116.711Z" fill="#BB671C"/>
<path d="M53.6081 145.945H41.6406V146.608H53.6081V145.945Z" fill="#EAEAEA"/>
<path d="M53.6081 148.266H41.6406V148.928H53.6081V148.266Z" fill="#EAEAEA"/>
<path d="M53.6081 150.582H41.6406V151.245H53.6081V150.582Z" fill="#EAEAEA"/>
<path d="M46.2812 138.563C48.6586 138.563 50.5859 136.635 50.5859 134.256C50.5859 131.878 48.6586 129.949 46.2812 129.949C43.9038 129.949 41.9766 131.878 41.9766 134.256C41.9766 136.635 43.9038 138.563 46.2812 138.563Z" fill="#EAEAEA"/>
<path d="M326.318 250.445L326.274 250.212C325.567 246.31 325.717 242.3 326.715 238.461C327.713 234.623 329.534 231.048 332.052 227.985C333.479 226.278 335.114 224.758 336.92 223.459L337.092 223.335L337.167 223.534C338.065 225.903 339.199 228.276 339.716 229.327L340.064 221.486L340.263 221.38C341.175 220.891 342.212 220.687 343.24 220.793C344.269 220.899 345.242 221.311 346.035 221.976C346.855 222.635 347.459 223.525 347.768 224.53C348.078 225.536 348.08 226.611 347.774 227.618C347.503 228.539 347.247 229.495 347 230.419C346.149 233.595 345.27 236.879 343.566 239.644C342.255 241.724 340.497 243.486 338.419 244.799C336.342 246.113 333.997 246.945 331.556 247.236L326.318 250.445Z" fill="#90C9A8"/>
<path d="M269.358 84.3519L259.435 82.9297C256.078 88.5451 254.886 103.491 254.886 103.491L245.174 126.588C244.53 127.025 244.014 127.624 243.675 128.325C243.337 129.025 243.189 129.803 243.246 130.578C243.304 131.354 243.564 132.101 244.002 132.744C244.44 133.387 245.039 133.904 245.739 134.241C246.44 134.579 247.217 134.726 247.992 134.668C248.768 134.609 249.514 134.348 250.156 133.909C250.798 133.47 251.313 132.87 251.65 132.169C251.987 131.468 252.133 130.69 252.074 129.914L268.02 103.031L269.358 84.3519Z" fill="#D3AA8B"/>
<path d="M267.778 56.7887C269.314 57.0268 270.778 57.6006 272.067 58.4694C273.357 59.3381 274.439 60.4805 275.236 61.8153C276.034 63.15 276.528 64.6442 276.683 66.1917C276.838 67.7391 276.651 69.3018 276.133 70.7684L274.027 76.7408C274.027 76.7408 272.881 94.7239 268.509 99.8L255.094 98.585C255.094 98.585 257.547 89.5122 255.664 85.1225C254.51 82.4342 254.574 73.149 255.711 65.5958C255.924 64.2241 256.405 62.9079 257.127 61.7226C257.849 60.5372 258.798 59.506 259.918 58.688C261.039 57.8699 262.31 57.2811 263.659 56.9552C265.008 56.6293 266.407 56.5727 267.778 56.7887Z" fill="#E05428"/>
<path d="M300.579 243.384L294.602 243.383L291.758 220.312L300.581 220.313L300.579 243.384Z" fill="#D8C2B2"/>
<path d="M300.789 249.621L282.406 249.62V249.388C282.406 247.489 283.16 245.668 284.502 244.325C285.844 242.983 287.664 242.229 289.561 242.229L292.92 239.68L299.185 242.229L300.789 242.229L300.789 249.621Z" fill="#1A202C"/>
<path d="M274.591 214.788L269.069 217.078L257.609 196.858L265.76 193.477L274.591 214.788Z" fill="#D8C2B2"/>
<path d="M277.17 220.473L260.189 227.518L260.1 227.303C259.374 225.549 259.373 223.578 260.098 221.824C260.824 220.069 262.216 218.675 263.969 217.948L266.095 214.306L272.858 214.26L274.34 213.645L277.17 220.473Z" fill="#1A202C"/>
<path d="M307.407 112.141L264.984 116.575L259.309 135.7L239.656 167.3L261.355 207.19L268.997 200.327L261.662 168.116L283.556 144.466L287.707 142.742L291.003 230.5L303.192 230.701L308.526 133.865C311.089 125.311 310.317 118.247 307.407 112.141Z" fill="#1B7742"/>
<path d="M291.86 51.6029L284.897 43.7578L273.894 44.981L266.849 54.8451C263.1 55.7076 259.823 57.9752 257.694 61.1814C255.564 64.3876 254.743 68.2884 255.401 72.0815C258.135 87.8313 267.425 103.107 264.357 110.878C259.701 122.674 259.416 127.485 270.563 125.831C281.709 124.177 319.051 120.365 311.812 113.121C304.572 105.877 302.981 93.772 302.981 93.772L302.691 66.078C302.999 64.4077 302.958 62.6918 302.571 61.0381C302.184 59.3844 301.458 57.8288 300.441 56.4692C299.424 55.1096 298.136 53.9753 296.659 53.1378C295.183 52.3004 293.548 51.7777 291.86 51.6029Z" fill="#E05428"/>
<path d="M278.253 41.7461C284.998 41.7461 290.467 36.2747 290.467 29.5254C290.467 22.7761 284.998 17.3047 278.253 17.3047C271.507 17.3047 266.039 22.7761 266.039 29.5254C266.039 36.2747 271.507 41.7461 278.253 41.7461Z" fill="#D8C2B2"/>
<path d="M293.3 28.8021C292.755 31.2781 291.771 33.6366 290.395 35.7659C290.03 36.4919 289.484 37.1118 288.811 37.5659C288.47 37.7849 288.063 37.8773 287.66 37.827C287.258 37.7767 286.887 37.587 286.61 37.2907L286.313 37.0485C286.895 36.6892 287.416 36.2374 287.853 35.7108C288.07 35.4465 288.22 35.1343 288.292 34.8002C288.364 34.466 288.355 34.1195 288.266 33.7896C288.16 33.4641 287.933 33.1923 287.631 33.0311C287.33 32.87 286.977 32.832 286.648 32.9253C285.933 33.2061 285.499 34.241 284.75 34.0814C284.145 33.9492 284.019 33.151 284.019 32.5234C284.041 29.2425 282.456 24.5798 281.229 24.7229C279.99 24.7907 278.748 24.6245 277.57 24.233C276.391 23.8408 275.146 23.6818 273.906 23.765C273.818 23.7761 273.73 23.7926 273.637 23.8091C273.438 23.1857 273.164 22.5887 272.822 22.031C272.861 22.7042 272.828 23.3796 272.723 24.0458C271.736 24.4528 270.717 24.7751 269.675 25.0092C268.542 25.1688 266.05 28.5599 265.934 28.213C265.735 27.5897 265.462 26.9926 265.12 26.435C265.158 27.1082 265.125 27.7836 265.021 28.4498C265.015 28.4773 265.015 28.4993 265.01 28.5268C264.46 27.7946 264.124 26.9029 264.311 27.5855C262.468 23.4128 263.183 20.4236 266.083 16.9059C266.648 16.1495 267.395 15.5491 268.256 15.1608C268.687 14.9715 269.159 14.8963 269.627 14.9426C270.096 14.9888 270.544 15.155 270.93 15.4251C272.112 14.3402 273.563 13.5916 275.132 13.2567C276.701 12.9218 278.332 13.0128 279.854 13.5204C282.874 14.5718 285.201 15.1884 285.664 18.3592C288.161 17.9573 290.731 19.3776 292.106 21.497C293.476 23.6219 293.757 26.3194 293.3 28.8021Z" fill="black"/>
<path d="M283.398 130.307H279.344V99.0898H282.641C282.8 99.0898 282.953 99.1531 283.067 99.2658C283.18 99.3785 283.244 99.5314 283.245 99.6912L283.398 130.307Z" fill="black"/>
<path d="M279.72 130.474H236.188V108.242H279.72V130.474Z" fill="#EAEAEA"/>
<path d="M262.565 130.387H236.273V108.32H279.641V113.302C279.636 117.831 277.835 122.174 274.634 125.377C271.433 128.58 267.092 130.382 262.565 130.387Z" fill="#421313"/>
<path d="M282.734 99.9766C282.712 100.018 282.695 100.062 282.683 100.107L281.182 105.897L279.554 108.982H236.352V108.213L238.811 105.897L241.68 100.405C241.807 100.163 241.973 99.9432 242.173 99.7557C242.627 99.328 243.227 99.0898 243.851 99.0898H282.199C282.304 99.0898 282.406 99.1168 282.497 99.168C282.587 99.2192 282.663 99.293 282.717 99.3823C282.771 99.4715 282.8 99.5731 282.803 99.6772C282.806 99.7813 282.782 99.8845 282.734 99.9766Z" fill="#421313"/>
<path d="M279.72 130.474H236.188V108.242H279.72V130.474ZM236.518 130.144H279.39V108.573H236.518V130.144Z" fill="black"/>
<path d="M281.985 102.938L281.183 105.896H238.812L240.181 103.434L281.985 102.938Z" fill="#6D2E00"/>
<path d="M244.736 119.891H237.797V120.275H244.736V119.891Z" fill="#EAEAEA"/>
<path d="M244.736 121.234H237.797V121.619H244.736V121.234Z" fill="#EAEAEA"/>
<path d="M244.736 122.578H237.797V122.962H244.736V122.578Z" fill="#EAEAEA"/>
<path d="M240.48 115.608C241.859 115.608 242.977 114.49 242.977 113.111C242.977 111.731 241.859 110.613 240.48 110.613C239.102 110.613 237.984 111.731 237.984 113.111C237.984 114.49 239.102 115.608 240.48 115.608Z" fill="#EAEAEA"/>
<path d="M300.327 81.5003L290.403 80.0781C287.047 85.6935 285.854 100.64 285.854 100.64L276.142 123.737C275.499 124.174 274.982 124.773 274.644 125.473C274.306 126.174 274.158 126.951 274.215 127.727C274.273 128.503 274.533 129.25 274.971 129.893C275.408 130.536 276.008 131.052 276.708 131.39C277.409 131.727 278.186 131.875 278.961 131.816C279.736 131.758 280.483 131.496 281.125 131.058C281.767 130.619 282.282 130.019 282.619 129.317C282.955 128.616 283.102 127.839 283.042 127.063L298.989 100.179L300.327 81.5003Z" fill="#D3AA8B"/>
<path d="M294.955 53.931C296.491 54.169 297.956 54.7429 299.245 55.6116C300.534 56.4804 301.616 57.6228 302.414 58.9575C303.212 60.2923 303.706 61.7865 303.861 63.334C304.016 64.8814 303.828 66.444 303.311 67.9106L301.205 73.8831C301.205 73.8831 303.858 91.8661 299.486 96.9423L286.07 95.7272C286.07 95.7272 288.523 86.6545 286.64 82.2648C285.487 79.5765 285.551 70.2913 286.687 62.738C287.555 56.9704 289.194 53.0384 294.955 53.931Z" fill="#E05428"/>
<path d="M210.687 24.1789C205.838 26.5984 202.149 30.8459 200.43 35.9871C198.711 41.1284 199.104 46.7421 201.522 51.5934C206.558 61.6958 224.754 78.9253 239.272 81.5285C233.027 62.5559 241.71 43.2711 238.086 33.3481C234.212 22.7451 220.783 19.1406 210.687 24.1789Z" fill="#BB671C"/>
<path d="M217.491 48.2077C221.17 48.2077 224.153 45.2231 224.153 41.5413C224.153 37.8596 221.17 34.875 217.491 34.875C213.811 34.875 210.828 37.8596 210.828 41.5413C210.828 45.2231 213.811 48.2077 217.491 48.2077Z" fill="#EAEAEA"/>
<path d="M239.145 92.2287C241.555 92.2287 243.509 90.2739 243.509 87.8624C243.509 85.451 241.555 83.4961 239.145 83.4961C236.735 83.4961 234.781 85.451 234.781 87.8624C234.781 90.2739 236.735 92.2287 239.145 92.2287Z" fill="#BB671C"/>
<path opacity="0.2" d="M219.524 34.5314C220.399 34.501 221.271 34.6434 222.091 34.9504C222.91 35.2575 223.662 35.7232 224.302 36.321C224.942 36.9187 225.457 37.6368 225.82 38.4341C226.182 39.2314 226.384 40.0924 226.414 40.9678C226.443 41.8432 226.3 42.7158 225.993 43.5359C225.685 44.3559 225.219 45.1073 224.621 45.747C224.023 46.3867 223.305 46.9022 222.508 47.2641C221.711 47.626 220.85 47.8272 219.975 47.8561C221.458 47.3044 222.696 46.2426 223.468 44.8609C224.24 43.4792 224.495 41.8677 224.188 40.3149C223.88 38.7622 223.031 37.3694 221.791 36.386C220.552 35.4026 219.003 34.8927 217.422 34.9475C218.095 34.6963 218.805 34.5557 219.524 34.5314Z" fill="#6D2E00"/>
<path opacity="0.2" d="M238.117 33.3508C241.741 43.2738 233.058 62.5586 239.303 81.5312C237.933 81.2788 236.583 80.9252 235.265 80.4736C230.177 62.1329 238.163 43.8062 234.66 34.2189C231.526 25.6381 222.133 21.6418 213.312 23.0997C222.993 19.7963 234.567 23.6342 238.117 33.3508Z" fill="#6D2E00"/>
<path d="M33.5957 125.416C28.5767 125.295 23.7154 127.174 20.0812 130.64C16.447 134.106 14.3376 138.874 14.2171 143.896C13.9661 154.353 21.4077 176.354 32.171 184.781C35.2729 166.534 50.7367 154.504 52.0654 144.805C53.4851 134.442 44.0472 125.667 33.5957 125.416Z" fill="#D47500"/>
<path d="M31.6501 148.76C35.0597 148.76 37.8237 145.995 37.8237 142.583C37.8237 139.172 35.0597 136.406 31.6501 136.406C28.2406 136.406 25.4766 139.172 25.4766 142.583C25.4766 145.995 28.2406 148.76 31.6501 148.76Z" fill="#EAEAEA"/>
<path d="M29.3248 193.959C31.558 193.959 33.3684 192.147 33.3684 189.913C33.3684 187.679 31.558 185.867 29.3248 185.867C27.0916 185.867 25.2812 187.679 25.2812 189.913C25.2812 192.147 27.0916 193.959 29.3248 193.959Z" fill="#CE7406"/>
<path opacity="0.2" d="M36.3542 137.727C37.8266 138.443 38.9541 139.716 39.4887 141.264C40.0234 142.813 39.9213 144.51 39.2051 145.983C38.8505 146.713 38.3557 147.365 37.7491 147.903C37.1425 148.441 36.4358 148.855 35.6696 149.12C34.122 149.655 32.4255 149.552 30.9531 148.836C32.4065 149.027 33.8804 148.694 35.111 147.897C36.3415 147.1 37.2485 145.891 37.6694 144.486C38.0904 143.081 37.9979 141.572 37.4085 140.229C36.8191 138.886 35.7713 137.797 34.4526 137.156C35.1131 137.243 35.7553 137.435 36.3542 137.727Z" fill="#6D2E00"/>
<path opacity="0.38" d="M52.0954 144.822C50.7668 154.521 35.3029 166.551 32.201 184.798C31.188 183.998 30.2356 183.123 29.3516 182.181C33.1272 164.953 47.605 153.406 48.8887 144.035C50.0377 135.648 44.0751 128.302 36.2195 125.672C45.579 127.164 53.3965 135.325 52.0954 144.822Z" fill="#6D2E00"/>
<path d="M105.415 44.929C104.004 45.0214 102.685 45.6608 101.739 46.7113C100.792 47.7618 100.293 49.1404 100.346 50.5537C100.362 50.8409 100.401 51.1262 100.464 51.4069L84.4453 61.504L93.3011 65.4229L107.155 55.2337C108.298 54.8842 109.293 54.166 109.985 53.1911C110.677 52.2163 111.027 51.0395 110.981 49.8446C110.948 49.1649 110.781 48.4983 110.491 47.883C110.201 47.2677 109.792 46.7156 109.288 46.2584C108.785 45.8011 108.196 45.4476 107.556 45.2179C106.915 44.9883 106.236 44.8872 105.557 44.9202C105.509 44.9225 105.462 44.9254 105.415 44.929Z" fill="#D3AA8B"/>
<path d="M89.9672 56.9153L93.9371 65.111L78.2404 75.2177C77.1235 75.943 75.8398 76.3705 74.5113 76.4595C73.1827 76.5486 71.8535 76.2962 70.6499 75.7265C69.1866 75.0257 67.9906 73.8679 67.2422 72.4278C66.4938 70.9876 66.2335 69.3431 66.5005 67.742L71.5938 38.6479C71.9357 36.6119 73.0444 34.7844 74.6918 33.5413C76.3392 32.2982 78.4 31.7339 80.4504 31.9646C81.4492 32.0739 82.4166 32.3789 83.2975 32.8623C84.1784 33.3456 84.9555 33.9979 85.5845 34.7817C86.2135 35.5656 86.682 36.4657 86.9633 37.4308C87.2446 38.3958 87.3332 39.4069 87.224 40.4061C87.2154 40.4851 87.2055 40.5639 87.1944 40.6425C87.1559 40.9221 87.1024 41.1994 87.034 41.4732L81.4738 62.1644L89.9672 56.9153Z" fill="#E05428"/>
<path d="M91.081 69.6211H68.6328V92.082H91.081V69.6211Z" fill="#6D2E00"/>
<path d="M144.32 135.772L152.893 132.887L157.668 156.236L151.858 158.191L144.32 135.772Z" fill="#D3AA8B"/>
<path d="M129.789 133.979L138.293 130.895L143.609 154.126L137.847 156.216L129.789 133.979Z" fill="#D3AA8B"/>
<path d="M69.437 97.9515C64.9377 127.964 124.854 110.22 124.854 110.22L143.64 136.15L154.638 134.149C154.638 134.149 149.69 118.583 140.851 97.7149C136.927 88.4476 92.359 90.712 92.359 90.712L91.4336 83.4455L65.9375 82.9453L69.437 97.9515Z" fill="#1B7742"/>
<path d="M112.719 112.231L126.574 103.598C136.717 123.863 139.706 132.639 139.706 132.639L130.117 135.337L112.719 112.231Z" fill="#1B7742"/>
<path d="M82.2626 33.1221L77.7442 27.3109L71.2989 27.0312L70.6556 32.4968L67.4619 33.9703C64.2731 46.092 63.7806 58.7661 66.0192 71.0989C66.4472 71.5021 66.76 72.0123 66.9252 72.5768C67.0904 73.1413 67.1021 73.7397 66.9591 74.3102L66.752 75.1361L66.7712 75.1663C67.4507 76.2392 67.6813 77.5365 67.4131 78.7781L65.8879 81.4896C65.3406 82.4648 65.0122 83.5475 64.9254 84.6625C64.8386 85.7775 64.9956 86.8981 65.3855 87.9462C65.7753 88.9944 66.3887 89.945 67.1829 90.7319C67.9772 91.5189 68.9332 92.1233 69.9845 92.5031C79.3594 95.9032 88.1477 97.1696 94.6492 87.6286L96.6936 54.3797L82.2626 33.1221Z" fill="#E05428"/>
<path d="M77.5264 28.8554C84.108 28.8554 89.4435 23.5169 89.4435 16.9316C89.4435 10.3463 84.108 5.00781 77.5264 5.00781C70.9448 5.00781 65.6094 10.3463 65.6094 16.9316C65.6094 23.5169 70.9448 28.8554 77.5264 28.8554Z" fill="#D3AA8B"/>
<path d="M71.551 2.55811C66.5051 2.65511 62.5031 7.33815 62.6122 13.018C58.8782 16.9164 57.9736 36.0913 61.0936 41.1924C66.8011 41.8553 70.2727 27.7268 75.2779 29.7693L75.9374 26.6859L77.4321 30.7012C78.7041 31.2879 79.9665 31.932 81.2193 32.6333C82.1196 28.5014 81.8964 24.485 79.4766 20.9867C77.3268 17.8788 82.5584 14.1891 86.2998 14.7106L86.245 11.8561L87.1847 14.6936C88.6431 15.7659 90.2564 15.3777 91.9108 14.6027C94.5934 0.652284 73.8236 -3.16272 71.551 2.55811Z" fill="#1C1C1C"/>
<path d="M149.218 162.14L153.038 161.641L153.249 157.944L155.466 161.324L165.597 160C166.082 159.936 166.535 159.719 166.888 159.38C167.242 159.041 167.478 158.598 167.562 158.115C167.646 157.632 167.573 157.135 167.355 156.697C167.137 156.258 166.784 155.901 166.348 155.677L157.528 151.144L157.052 147.496L148.609 149.116L149.218 162.14Z" fill="#271F1A"/>
<path d="M139.129 162.173L142.594 160.49L141.624 156.916L144.796 159.42L153.987 154.954C154.427 154.74 154.788 154.391 155.016 153.957C155.244 153.524 155.328 153.029 155.255 152.544C155.181 152.06 154.956 151.611 154.61 151.264C154.264 150.917 153.816 150.69 153.332 150.616L143.532 149.11L141.926 145.801L134.43 150.012L139.129 162.173Z" fill="#271F1A"/>
<path d="M86.8203 82.6585H91.0694V49.9375H87.6137C87.4463 49.9375 87.2858 50.0038 87.1671 50.1219C87.0485 50.24 86.9814 50.4004 86.9806 50.5678L86.8203 82.6585Z" fill="#421313"/>
<path d="M90.6719 59.5312H136.302V82.8342H90.6719V59.5312Z" fill="#EAEAEA"/>
<path d="M90.7578 64.8384V59.6172H136.214V82.7469H108.656C103.911 82.7415 99.3615 80.853 96.006 77.4956C92.6506 74.1383 90.7632 69.5863 90.7578 64.8384Z" fill="#6D2E00"/>
<path d="M87.5108 50.8669C87.5337 50.9103 87.5515 50.9563 87.5639 51.0038L89.1373 57.072L90.8439 60.3061H136.127V59.5006L133.549 57.0721L130.542 51.3161C130.409 51.062 130.234 50.832 130.026 50.6355C129.55 50.1871 128.92 49.9375 128.266 49.9375H88.0706C87.9615 49.9375 87.8542 49.9657 87.7592 50.0194C87.6642 50.0731 87.5847 50.1505 87.5284 50.244C87.472 50.3375 87.4408 50.444 87.4378 50.5532C87.4347 50.6623 87.4598 50.7704 87.5108 50.8669Z" fill="#6D2E00"/>
<path d="M90.6719 59.5312H136.302V82.8342H90.6719V59.5312ZM135.955 82.4876H91.0182V59.8778H135.955L135.955 82.4876Z" fill="#421313"/>
<path d="M88.2969 53.9727L89.1376 57.0737H133.549L132.114 54.4928L88.2969 53.9727Z" fill="#421313"/>
<path d="M134.618 71.7422H127.344V72.1449H134.618V71.7422Z" fill="#EAEAEA"/>
<path d="M134.618 73.1484H127.344V73.5512H134.618V73.1484Z" fill="#EAEAEA"/>
<path d="M134.618 74.5586H127.344V74.9613H134.618V74.5586Z" fill="#EAEAEA"/>
<path d="M131.796 67.2552C133.241 67.2552 134.412 66.0832 134.412 64.6374C134.412 63.1916 133.241 62.0195 131.796 62.0195C130.351 62.0195 129.18 63.1916 129.18 64.6374C129.18 66.0832 130.351 67.2552 131.796 67.2552Z" fill="#EAEAEA"/>
<path d="M110.693 25.0815C113.769 25.0076 116.748 26.1591 118.974 28.2827C121.201 30.4063 122.494 33.328 122.568 36.4051C122.721 42.8129 118.162 56.2939 111.566 61.4574C109.666 50.2766 100.19 42.9052 99.3761 36.9623C98.5062 30.6121 104.289 25.2353 110.693 25.0815Z" fill="#D47500"/>
<path d="M111.884 39.3863C113.974 39.3863 115.667 37.6917 115.667 35.6014C115.667 33.511 113.974 31.8164 111.884 31.8164C109.795 31.8164 108.102 33.511 108.102 35.6014C108.102 37.6917 109.795 39.3863 111.884 39.3863Z" fill="#EAEAEA"/>
<path d="M113.314 67.0831C114.682 67.0831 115.791 65.9732 115.791 64.6041C115.791 63.2349 114.682 62.125 113.314 62.125C111.945 62.125 110.836 63.2349 110.836 64.6041C110.836 65.9732 111.945 67.0831 113.314 67.0831Z" fill="#D7ADAD"/>
<path opacity="0.2" d="M109.003 32.623C108.556 32.8404 108.157 33.1437 107.827 33.5156C107.498 33.8876 107.245 34.3208 107.082 34.7906C106.92 35.2604 106.852 35.7575 106.882 36.2537C106.912 36.7498 107.039 37.2352 107.256 37.6822C107.473 38.1291 107.777 38.5289 108.148 38.8586C108.52 39.1884 108.953 39.4416 109.423 39.6039C109.892 39.7662 110.389 39.8344 110.885 39.8046C111.381 39.7747 111.866 39.6475 112.313 39.43C111.422 39.547 110.519 39.3431 109.765 38.8547C109.011 38.3664 108.455 37.6255 108.197 36.7646C107.939 35.9037 107.996 34.9791 108.357 34.1562C108.718 33.3334 109.36 32.6659 110.168 32.2734C109.763 32.3263 109.37 32.4443 109.003 32.623Z" fill="#6D2E00"/>
<path opacity="0.2" d="M99.3605 36.9727C100.175 42.9156 109.65 50.287 111.551 61.4678C112.171 60.977 112.755 60.441 113.297 59.8641C110.983 49.3079 102.112 42.2321 101.325 36.4901C100.621 31.351 104.275 26.8499 109.088 25.2383C103.353 26.1523 98.5633 31.1534 99.3605 36.9727Z" fill="black"/>
<path d="M103.957 56.5539C102.547 56.4494 101.152 56.8995 100.069 57.8083C98.9858 58.7172 98.2999 60.013 98.157 61.4202C98.1325 61.7067 98.1317 61.9947 98.1547 62.2813L80.8906 70.0558L89.1169 75.1668L104.25 67.0004C105.43 66.8132 106.516 66.2402 107.336 65.3708C108.157 64.5015 108.667 63.3848 108.787 62.195C108.911 60.8263 108.487 59.4642 107.608 58.4084C106.729 57.3525 105.466 56.6894 104.099 56.5649C104.051 56.5606 104.004 56.5569 103.957 56.5539Z" fill="#D3AA8B"/>
<path d="M86.9923 66.2804L89.7867 74.9482L72.8398 82.7768C71.6331 83.34 70.3025 83.585 68.9745 83.4887C67.6464 83.3924 66.3651 82.9578 65.2522 82.2264C63.9003 81.3291 62.8765 80.0165 62.3351 78.4863C61.7938 76.9562 61.7641 75.2914 62.2507 73.7429L71.3312 45.6379C71.9523 43.6691 73.3038 42.0133 75.1077 41.0111C76.9116 40.0088 79.0307 39.7363 81.0293 40.2495C82.0032 40.4964 82.9189 40.9329 83.7243 41.5339C84.5296 42.135 85.2087 42.8888 85.7228 43.7525C86.237 44.6161 86.5761 45.5726 86.7208 46.5674C86.8654 47.5621 86.8129 48.5757 86.5661 49.5501C86.5466 49.6271 86.5259 49.7038 86.504 49.7801C86.4271 50.0516 86.3356 50.3188 86.23 50.5804L77.8528 70.299L86.9923 66.2804Z" fill="#E05428"/>
</g>
<defs>
<clipPath id="clip0_3733_42566">
<rect width="348" height="251" fill="white"/>
</clipPath>
</defs>
</svg>
