<svg width="23" height="22" viewBox="0 0 23 22" fill="none" xmlns="http://www.w3.org/2000/svg">
<path fill-rule="evenodd" clip-rule="evenodd" d="M9.90118 1.2193C10.8573 0.536299 12.1418 0.536275 13.098 1.21923L20.2608 6.33531C21.5091 7.22694 22.25 8.66655 22.25 10.2006V17.9992C22.25 20.0703 20.5711 21.7492 18.5 21.7492H15.6424C14.1237 21.7492 12.8924 20.518 12.8924 18.9992V17.4992C12.8924 17.085 12.5567 16.7492 12.1424 16.7492H10.8567C10.4425 16.7492 10.1067 17.085 10.1067 17.4992V18.9992C10.1067 20.518 8.87551 21.7492 7.35672 21.7492H4.5C2.42893 21.7492 0.75 20.0703 0.75 17.9992V10.2005C0.75 8.66652 1.4908 7.22696 2.73904 6.33532L9.90118 1.2193ZM12.2262 2.43985C11.7915 2.12941 11.2077 2.12943 10.7731 2.43988L3.61092 7.55591C2.75687 8.16597 2.25 9.15093 2.25 10.2005V17.9992C2.25 19.2419 3.25736 20.2492 4.5 20.2492H7.35672C8.04708 20.2492 8.60672 19.6896 8.60672 18.9992V17.4992C8.60672 16.2566 9.61408 15.2492 10.8567 15.2492H12.1424C13.3851 15.2492 14.3924 16.2566 14.3924 17.4992V18.9992C14.3924 19.6896 14.9521 20.2492 15.6424 20.2492H18.5C19.7426 20.2492 20.75 19.2419 20.75 17.9992V10.2006C20.75 9.15099 20.2431 8.16599 19.389 7.55593L12.2262 2.43985Z" fill="#A0ABC0"/>
</svg>
