<svg width="15" height="16" viewBox="0 0 15 16" fill="none" xmlns="http://www.w3.org/2000/svg">
<path d="M5.5626 5.9987C5.71934 5.55314 6.02871 5.17744 6.43591 4.93812C6.84311 4.6988 7.32187 4.61132 7.78739 4.69117C8.25291 4.77102 8.67515 5.01305 8.97932 5.37438C9.2835 5.73572 9.44997 6.19305 9.44927 6.66536C9.44927 7.9987 7.44927 8.66536 7.44927 8.66536M7.5026 11.332H7.50927M14.1693 7.9987C14.1693 11.6806 11.1845 14.6654 7.5026 14.6654C3.82071 14.6654 0.835938 11.6806 0.835938 7.9987C0.835938 4.3168 3.82071 1.33203 7.5026 1.33203C11.1845 1.33203 14.1693 4.3168 14.1693 7.9987Z" stroke="#98A2B3" stroke-width="1.33333" stroke-linecap="round" stroke-linejoin="round"/>
</svg>
